G04 #@! TF.GenerationSoftware,KiCad,Pcbnew,5.1.5-52549c5~84~ubuntu18.04.1*
G04 #@! TF.CreationDate,2020-02-03T20:40:51+01:00*
G04 #@! TF.ProjectId,icescreamer,69636573-6372-4656-916d-65722e6b6963,rev?*
G04 #@! TF.SameCoordinates,Original*
G04 #@! TF.FileFunction,Soldermask,Bot*
G04 #@! TF.FilePolarity,Negative*
%FSLAX46Y46*%
G04 Gerber Fmt 4.6, Leading zero omitted, Abs format (unit mm)*
G04 Created by KiCad (PCBNEW 5.1.5-52549c5~84~ubuntu18.04.1) date 2020-02-03 20:40:51*
%MOMM*%
%LPD*%
G04 APERTURE LIST*
%ADD10C,0.010000*%
%ADD11O,1.924000X2.700000*%
%ADD12O,2.700000X1.924000*%
%ADD13O,2.600000X1.600000*%
%ADD14O,3.900000X4.400000*%
%ADD15C,2.900000*%
%ADD16R,1.750000X1.750000*%
%ADD17O,1.750000X1.750000*%
%ADD18C,2.000000*%
%ADD19R,2.100000X2.100000*%
%ADD20O,2.100000X2.100000*%
%ADD21C,1.924000*%
%ADD22R,4.900000X3.100000*%
%ADD23R,2.000000X2.000000*%
%ADD24R,2.600000X2.600000*%
%ADD25O,2.600000X2.600000*%
G04 APERTURE END LIST*
D10*
G36*
X211521177Y-103048024D02*
G01*
X211511299Y-103053540D01*
X211485879Y-103078817D01*
X211482781Y-103109753D01*
X211495002Y-103140709D01*
X211521232Y-103176007D01*
X211548843Y-103186641D01*
X211576294Y-103172366D01*
X211589458Y-103155842D01*
X211603595Y-103118157D01*
X211599800Y-103083251D01*
X211582108Y-103056406D01*
X211554555Y-103042902D01*
X211521177Y-103048024D01*
G37*
X211521177Y-103048024D02*
X211511299Y-103053540D01*
X211485879Y-103078817D01*
X211482781Y-103109753D01*
X211495002Y-103140709D01*
X211521232Y-103176007D01*
X211548843Y-103186641D01*
X211576294Y-103172366D01*
X211589458Y-103155842D01*
X211603595Y-103118157D01*
X211599800Y-103083251D01*
X211582108Y-103056406D01*
X211554555Y-103042902D01*
X211521177Y-103048024D01*
G36*
X211264146Y-103490838D02*
G01*
X211243191Y-103508880D01*
X211222633Y-103533387D01*
X211209098Y-103556640D01*
X211208015Y-103569575D01*
X211227136Y-103580627D01*
X211251470Y-103574275D01*
X211261391Y-103565325D01*
X211277206Y-103537325D01*
X211284499Y-103508423D01*
X211280989Y-103488834D01*
X211278875Y-103486984D01*
X211264146Y-103490838D01*
G37*
X211264146Y-103490838D02*
X211243191Y-103508880D01*
X211222633Y-103533387D01*
X211209098Y-103556640D01*
X211208015Y-103569575D01*
X211227136Y-103580627D01*
X211251470Y-103574275D01*
X211261391Y-103565325D01*
X211277206Y-103537325D01*
X211284499Y-103508423D01*
X211280989Y-103488834D01*
X211278875Y-103486984D01*
X211264146Y-103490838D01*
G36*
X219157984Y-99478740D02*
G01*
X219146000Y-99499914D01*
X219146926Y-99511678D01*
X219162312Y-99524765D01*
X219194450Y-99539803D01*
X219235155Y-99553928D01*
X219276239Y-99564277D01*
X219307874Y-99568000D01*
X219324780Y-99566562D01*
X219323183Y-99557944D01*
X219310241Y-99542920D01*
X219285004Y-99522165D01*
X219248001Y-99499245D01*
X219231751Y-99490832D01*
X219194365Y-99475082D01*
X219171092Y-99472350D01*
X219157984Y-99478740D01*
G37*
X219157984Y-99478740D02*
X219146000Y-99499914D01*
X219146926Y-99511678D01*
X219162312Y-99524765D01*
X219194450Y-99539803D01*
X219235155Y-99553928D01*
X219276239Y-99564277D01*
X219307874Y-99568000D01*
X219324780Y-99566562D01*
X219323183Y-99557944D01*
X219310241Y-99542920D01*
X219285004Y-99522165D01*
X219248001Y-99499245D01*
X219231751Y-99490832D01*
X219194365Y-99475082D01*
X219171092Y-99472350D01*
X219157984Y-99478740D01*
G36*
X218585344Y-99272914D02*
G01*
X218549363Y-99276071D01*
X218531729Y-99280502D01*
X218519716Y-99301253D01*
X218515552Y-99338521D01*
X218518154Y-99385042D01*
X218526438Y-99433555D01*
X218539323Y-99476798D01*
X218555725Y-99507509D01*
X218567000Y-99516990D01*
X218589436Y-99527820D01*
X218623744Y-99545106D01*
X218639367Y-99553133D01*
X218691115Y-99573353D01*
X218743902Y-99578481D01*
X218805403Y-99568650D01*
X218846400Y-99556694D01*
X218892816Y-99539415D01*
X218949929Y-99515013D01*
X219006111Y-99488482D01*
X219011175Y-99485933D01*
X219106099Y-99437811D01*
X219008381Y-99388643D01*
X218890161Y-99335108D01*
X218780458Y-99297311D01*
X218682689Y-99276304D01*
X218630653Y-99272190D01*
X218585344Y-99272914D01*
G37*
X218585344Y-99272914D02*
X218549363Y-99276071D01*
X218531729Y-99280502D01*
X218519716Y-99301253D01*
X218515552Y-99338521D01*
X218518154Y-99385042D01*
X218526438Y-99433555D01*
X218539323Y-99476798D01*
X218555725Y-99507509D01*
X218567000Y-99516990D01*
X218589436Y-99527820D01*
X218623744Y-99545106D01*
X218639367Y-99553133D01*
X218691115Y-99573353D01*
X218743902Y-99578481D01*
X218805403Y-99568650D01*
X218846400Y-99556694D01*
X218892816Y-99539415D01*
X218949929Y-99515013D01*
X219006111Y-99488482D01*
X219011175Y-99485933D01*
X219106099Y-99437811D01*
X219008381Y-99388643D01*
X218890161Y-99335108D01*
X218780458Y-99297311D01*
X218682689Y-99276304D01*
X218630653Y-99272190D01*
X218585344Y-99272914D01*
G36*
X218288469Y-99731798D02*
G01*
X218286407Y-99734596D01*
X218276865Y-99762342D01*
X218276361Y-99792848D01*
X218284851Y-99813688D01*
X218286686Y-99815084D01*
X218299150Y-99810898D01*
X218306592Y-99796784D01*
X218310352Y-99769957D01*
X218307011Y-99745337D01*
X218298931Y-99730194D01*
X218288469Y-99731798D01*
G37*
X218288469Y-99731798D02*
X218286407Y-99734596D01*
X218276865Y-99762342D01*
X218276361Y-99792848D01*
X218284851Y-99813688D01*
X218286686Y-99815084D01*
X218299150Y-99810898D01*
X218306592Y-99796784D01*
X218310352Y-99769957D01*
X218307011Y-99745337D01*
X218298931Y-99730194D01*
X218288469Y-99731798D01*
G36*
X219476095Y-99796414D02*
G01*
X219457711Y-99815641D01*
X219432239Y-99849411D01*
X219427203Y-99874674D01*
X219443571Y-99898205D01*
X219472688Y-99920306D01*
X219498875Y-99940253D01*
X219538151Y-99972680D01*
X219584913Y-100012873D01*
X219627319Y-100050481D01*
X219672013Y-100090002D01*
X219710148Y-100122359D01*
X219737676Y-100144206D01*
X219750531Y-100152200D01*
X219759084Y-100141623D01*
X219760800Y-100128606D01*
X219754331Y-100108877D01*
X219736905Y-100072973D01*
X219711499Y-100025961D01*
X219681089Y-99972903D01*
X219648652Y-99918865D01*
X219617164Y-99868911D01*
X219589599Y-99828105D01*
X219568936Y-99801513D01*
X219567976Y-99800476D01*
X219537462Y-99776720D01*
X219508241Y-99775172D01*
X219476095Y-99796414D01*
G37*
X219476095Y-99796414D02*
X219457711Y-99815641D01*
X219432239Y-99849411D01*
X219427203Y-99874674D01*
X219443571Y-99898205D01*
X219472688Y-99920306D01*
X219498875Y-99940253D01*
X219538151Y-99972680D01*
X219584913Y-100012873D01*
X219627319Y-100050481D01*
X219672013Y-100090002D01*
X219710148Y-100122359D01*
X219737676Y-100144206D01*
X219750531Y-100152200D01*
X219759084Y-100141623D01*
X219760800Y-100128606D01*
X219754331Y-100108877D01*
X219736905Y-100072973D01*
X219711499Y-100025961D01*
X219681089Y-99972903D01*
X219648652Y-99918865D01*
X219617164Y-99868911D01*
X219589599Y-99828105D01*
X219568936Y-99801513D01*
X219567976Y-99800476D01*
X219537462Y-99776720D01*
X219508241Y-99775172D01*
X219476095Y-99796414D01*
G36*
X211775781Y-101049875D02*
G01*
X211732328Y-101154026D01*
X211700873Y-101238286D01*
X211680916Y-101304880D01*
X211671957Y-101356029D01*
X211673496Y-101393956D01*
X211685035Y-101420885D01*
X211690858Y-101427642D01*
X211719803Y-101445574D01*
X211749971Y-101440049D01*
X211778140Y-101417714D01*
X211802136Y-101381888D01*
X211819190Y-101328283D01*
X211829619Y-101254987D01*
X211833744Y-101160090D01*
X211833223Y-101087223D01*
X211829650Y-100925201D01*
X211775781Y-101049875D01*
G37*
X211775781Y-101049875D02*
X211732328Y-101154026D01*
X211700873Y-101238286D01*
X211680916Y-101304880D01*
X211671957Y-101356029D01*
X211673496Y-101393956D01*
X211685035Y-101420885D01*
X211690858Y-101427642D01*
X211719803Y-101445574D01*
X211749971Y-101440049D01*
X211778140Y-101417714D01*
X211802136Y-101381888D01*
X211819190Y-101328283D01*
X211829619Y-101254987D01*
X211833744Y-101160090D01*
X211833223Y-101087223D01*
X211829650Y-100925201D01*
X211775781Y-101049875D01*
G36*
X218129213Y-99297318D02*
G01*
X218063492Y-99311087D01*
X217990966Y-99331224D01*
X217915813Y-99356918D01*
X217871887Y-99374376D01*
X217801885Y-99408908D01*
X217718952Y-99458118D01*
X217627912Y-99518519D01*
X217533590Y-99586623D01*
X217440810Y-99658943D01*
X217354395Y-99731993D01*
X217279170Y-99802286D01*
X217277295Y-99804157D01*
X217234562Y-99851771D01*
X217212381Y-99891474D01*
X217209676Y-99928667D01*
X217225366Y-99968751D01*
X217239850Y-99991677D01*
X217268908Y-100033982D01*
X217299343Y-100078297D01*
X217303956Y-100085015D01*
X217328965Y-100135966D01*
X217332531Y-100170740D01*
X217326242Y-100197964D01*
X217308997Y-100209909D01*
X217286889Y-100213373D01*
X217266288Y-100213336D01*
X217246294Y-100206908D01*
X217222327Y-100191086D01*
X217189807Y-100162862D01*
X217145637Y-100120675D01*
X217046246Y-100023953D01*
X216983134Y-100123001D01*
X216945791Y-100182387D01*
X216910607Y-100240257D01*
X216875412Y-100300485D01*
X216838037Y-100366949D01*
X216796311Y-100443523D01*
X216748064Y-100534084D01*
X216691126Y-100642508D01*
X216675421Y-100672586D01*
X216632015Y-100754550D01*
X216588739Y-100834023D01*
X216548117Y-100906535D01*
X216512674Y-100967614D01*
X216484936Y-101012788D01*
X216474623Y-101028186D01*
X216449713Y-101059849D01*
X216409932Y-101106019D01*
X216358402Y-101163272D01*
X216298245Y-101228189D01*
X216232585Y-101297348D01*
X216173024Y-101358700D01*
X216091759Y-101441931D01*
X216026136Y-101511138D01*
X215973826Y-101570248D01*
X215932498Y-101623186D01*
X215899825Y-101673878D01*
X215873477Y-101726250D01*
X215851124Y-101784229D01*
X215830438Y-101851742D01*
X215809089Y-101932713D01*
X215792243Y-102000566D01*
X215751405Y-102153456D01*
X215707363Y-102289225D01*
X215657489Y-102412860D01*
X215599155Y-102529350D01*
X215529731Y-102643683D01*
X215446592Y-102760846D01*
X215347107Y-102885827D01*
X215290637Y-102952550D01*
X215210029Y-103047261D01*
X215146048Y-103124729D01*
X215097821Y-103186119D01*
X215064472Y-103232598D01*
X215045127Y-103265330D01*
X215038913Y-103285482D01*
X215039131Y-103287912D01*
X215053593Y-103302839D01*
X215084875Y-103310465D01*
X215125105Y-103309456D01*
X215144350Y-103305750D01*
X215193594Y-103292042D01*
X215254845Y-103273001D01*
X215322243Y-103250675D01*
X215389928Y-103227114D01*
X215452039Y-103204369D01*
X215502715Y-103184488D01*
X215536096Y-103169521D01*
X215540120Y-103167332D01*
X215566905Y-103150112D01*
X215589858Y-103129904D01*
X215611143Y-103103125D01*
X215632922Y-103066191D01*
X215657357Y-103015519D01*
X215686612Y-102947524D01*
X215715705Y-102876350D01*
X215762338Y-102763717D01*
X215807758Y-102659468D01*
X215850819Y-102565875D01*
X215890372Y-102485208D01*
X215925273Y-102419739D01*
X215954375Y-102371739D01*
X215976531Y-102343479D01*
X215988142Y-102336600D01*
X215996317Y-102347813D01*
X216004361Y-102375842D01*
X216006477Y-102387400D01*
X216014845Y-102419172D01*
X216025892Y-102436881D01*
X216029464Y-102438200D01*
X216045081Y-102432219D01*
X216078638Y-102415696D01*
X216126061Y-102390753D01*
X216183275Y-102359516D01*
X216222989Y-102337292D01*
X216338364Y-102273229D01*
X216436081Y-102221828D01*
X216519708Y-102181800D01*
X216592813Y-102151857D01*
X216658965Y-102130710D01*
X216721733Y-102117073D01*
X216784685Y-102109656D01*
X216851388Y-102107171D01*
X216860552Y-102107143D01*
X216921214Y-102108713D01*
X216982510Y-102113933D01*
X217049032Y-102123609D01*
X217125373Y-102138544D01*
X217216124Y-102159546D01*
X217325877Y-102187420D01*
X217341450Y-102191503D01*
X217404210Y-102207610D01*
X217459334Y-102221018D01*
X217501551Y-102230498D01*
X217525590Y-102234821D01*
X217527774Y-102234959D01*
X217549332Y-102228316D01*
X217588586Y-102209660D01*
X217642029Y-102180971D01*
X217706159Y-102144226D01*
X217777469Y-102101405D01*
X217852456Y-102054486D01*
X217887550Y-102031856D01*
X217955966Y-101990449D01*
X218018155Y-101961227D01*
X218080744Y-101942621D01*
X218150360Y-101933059D01*
X218233629Y-101930970D01*
X218303970Y-101933131D01*
X218397442Y-101940062D01*
X218466718Y-101951480D01*
X218512653Y-101967658D01*
X218536098Y-101988872D01*
X218539343Y-102008953D01*
X218527203Y-102032782D01*
X218497481Y-102049601D01*
X218448396Y-102059772D01*
X218378164Y-102063656D01*
X218285001Y-102061616D01*
X218280712Y-102061413D01*
X218214175Y-102058629D01*
X218166303Y-102058245D01*
X218130418Y-102060949D01*
X218099843Y-102067432D01*
X218067899Y-102078381D01*
X218050857Y-102085128D01*
X217990282Y-102113271D01*
X217927822Y-102148504D01*
X217868927Y-102187090D01*
X217819049Y-102225292D01*
X217783637Y-102259374D01*
X217771382Y-102276712D01*
X217758963Y-102304277D01*
X217761070Y-102321675D01*
X217779878Y-102340935D01*
X217783575Y-102344128D01*
X217810653Y-102361773D01*
X217847921Y-102375675D01*
X217897779Y-102386070D01*
X217962627Y-102393195D01*
X218044864Y-102397290D01*
X218146891Y-102398591D01*
X218271108Y-102397336D01*
X218312527Y-102396508D01*
X218458955Y-102392051D01*
X218583655Y-102385181D01*
X218690237Y-102375283D01*
X218782308Y-102361738D01*
X218863480Y-102343929D01*
X218937359Y-102321241D01*
X219007555Y-102293054D01*
X219057717Y-102269072D01*
X219129729Y-102226470D01*
X219211671Y-102167857D01*
X219298427Y-102097685D01*
X219384883Y-102020409D01*
X219465922Y-101940481D01*
X219536429Y-101862355D01*
X219563647Y-101828600D01*
X219599041Y-101780968D01*
X219637317Y-101726560D01*
X219675650Y-101669755D01*
X219711213Y-101614936D01*
X219741180Y-101566482D01*
X219762723Y-101528775D01*
X219773016Y-101506195D01*
X219773500Y-101503360D01*
X219771502Y-101491677D01*
X219763264Y-101488013D01*
X219745423Y-101493679D01*
X219714616Y-101509992D01*
X219667481Y-101538264D01*
X219638859Y-101555978D01*
X219500470Y-101636253D01*
X219374608Y-101696530D01*
X219258862Y-101737354D01*
X219150825Y-101759273D01*
X219048085Y-101762831D01*
X218948233Y-101748575D01*
X218878619Y-101728237D01*
X218776073Y-101679940D01*
X218675692Y-101609228D01*
X218634761Y-101570563D01*
X218046300Y-101570563D01*
X218041647Y-101618094D01*
X218030165Y-101664199D01*
X218027304Y-101671681D01*
X218013318Y-101700827D01*
X217998128Y-101711617D01*
X217971586Y-101709466D01*
X217960629Y-101707260D01*
X217925225Y-101701682D01*
X216364490Y-101701682D01*
X216362157Y-101723546D01*
X216344260Y-101765266D01*
X216316864Y-101793180D01*
X216285420Y-101804413D01*
X216255380Y-101796088D01*
X216244236Y-101785759D01*
X216235572Y-101758798D01*
X216251815Y-101729463D01*
X216288933Y-101700621D01*
X216328362Y-101682107D01*
X216354136Y-101682645D01*
X216364490Y-101701682D01*
X217925225Y-101701682D01*
X217924920Y-101701634D01*
X217873823Y-101695744D01*
X217817312Y-101690713D01*
X217806989Y-101689962D01*
X217701027Y-101682550D01*
X217759412Y-101641502D01*
X217810108Y-101600638D01*
X217842830Y-101558869D01*
X217860989Y-101509149D01*
X217861831Y-101501375D01*
X216464196Y-101501375D01*
X216463414Y-101515077D01*
X216457761Y-101526975D01*
X216435880Y-101559141D01*
X216411034Y-101581058D01*
X216388433Y-101590179D01*
X216373286Y-101583961D01*
X216369900Y-101569895D01*
X216380059Y-101544977D01*
X216404181Y-101519243D01*
X216432733Y-101501526D01*
X216447042Y-101498400D01*
X216464196Y-101501375D01*
X217861831Y-101501375D01*
X217868001Y-101444433D01*
X217868453Y-101416447D01*
X217868500Y-101315445D01*
X217920835Y-101365647D01*
X217979455Y-101426443D01*
X218018345Y-101478492D01*
X218039846Y-101525615D01*
X218046300Y-101570563D01*
X218634761Y-101570563D01*
X218580258Y-101519078D01*
X218492551Y-101412469D01*
X218415350Y-101292377D01*
X218352852Y-101165154D01*
X218342230Y-101139242D01*
X218334130Y-101115874D01*
X218328210Y-101091196D01*
X218324128Y-101061356D01*
X218321543Y-101022499D01*
X218320113Y-100970773D01*
X218319497Y-100902323D01*
X218319353Y-100813296D01*
X218319350Y-100787200D01*
X218320572Y-100651601D01*
X218324705Y-100537727D01*
X218332454Y-100441996D01*
X218344520Y-100360828D01*
X218361609Y-100290645D01*
X218384421Y-100227864D01*
X218413662Y-100168908D01*
X218450034Y-100110194D01*
X218453274Y-100105398D01*
X218478345Y-100066245D01*
X218496341Y-100033853D01*
X218503464Y-100015077D01*
X218503470Y-100014819D01*
X218494299Y-100004231D01*
X218467512Y-100010280D01*
X218424299Y-100032531D01*
X218383020Y-100058786D01*
X218327090Y-100089210D01*
X218279427Y-100101306D01*
X218242781Y-100095708D01*
X218219899Y-100073052D01*
X218213527Y-100033970D01*
X218215102Y-100020012D01*
X218210810Y-99976024D01*
X218183999Y-99940850D01*
X218138366Y-99917850D01*
X218115961Y-99904150D01*
X218084513Y-99876493D01*
X218050762Y-99840819D01*
X218050219Y-99840191D01*
X218013876Y-99800847D01*
X217984024Y-99779378D01*
X217952326Y-99773399D01*
X217910441Y-99780525D01*
X217876007Y-99790387D01*
X217835185Y-99801428D01*
X217801465Y-99808241D01*
X217790282Y-99809299D01*
X217759803Y-99798482D01*
X217732452Y-99772265D01*
X217717064Y-99739999D01*
X217716100Y-99730765D01*
X217727421Y-99700186D01*
X217759611Y-99662223D01*
X217810014Y-99619065D01*
X217875975Y-99572903D01*
X217954836Y-99525926D01*
X217982800Y-99510850D01*
X218050412Y-99472707D01*
X218112790Y-99432757D01*
X218166691Y-99393589D01*
X218208876Y-99357795D01*
X218236102Y-99327963D01*
X218245128Y-99306683D01*
X218243775Y-99302310D01*
X218223532Y-99292120D01*
X218183952Y-99290726D01*
X218129213Y-99297318D01*
G37*
X218129213Y-99297318D02*
X218063492Y-99311087D01*
X217990966Y-99331224D01*
X217915813Y-99356918D01*
X217871887Y-99374376D01*
X217801885Y-99408908D01*
X217718952Y-99458118D01*
X217627912Y-99518519D01*
X217533590Y-99586623D01*
X217440810Y-99658943D01*
X217354395Y-99731993D01*
X217279170Y-99802286D01*
X217277295Y-99804157D01*
X217234562Y-99851771D01*
X217212381Y-99891474D01*
X217209676Y-99928667D01*
X217225366Y-99968751D01*
X217239850Y-99991677D01*
X217268908Y-100033982D01*
X217299343Y-100078297D01*
X217303956Y-100085015D01*
X217328965Y-100135966D01*
X217332531Y-100170740D01*
X217326242Y-100197964D01*
X217308997Y-100209909D01*
X217286889Y-100213373D01*
X217266288Y-100213336D01*
X217246294Y-100206908D01*
X217222327Y-100191086D01*
X217189807Y-100162862D01*
X217145637Y-100120675D01*
X217046246Y-100023953D01*
X216983134Y-100123001D01*
X216945791Y-100182387D01*
X216910607Y-100240257D01*
X216875412Y-100300485D01*
X216838037Y-100366949D01*
X216796311Y-100443523D01*
X216748064Y-100534084D01*
X216691126Y-100642508D01*
X216675421Y-100672586D01*
X216632015Y-100754550D01*
X216588739Y-100834023D01*
X216548117Y-100906535D01*
X216512674Y-100967614D01*
X216484936Y-101012788D01*
X216474623Y-101028186D01*
X216449713Y-101059849D01*
X216409932Y-101106019D01*
X216358402Y-101163272D01*
X216298245Y-101228189D01*
X216232585Y-101297348D01*
X216173024Y-101358700D01*
X216091759Y-101441931D01*
X216026136Y-101511138D01*
X215973826Y-101570248D01*
X215932498Y-101623186D01*
X215899825Y-101673878D01*
X215873477Y-101726250D01*
X215851124Y-101784229D01*
X215830438Y-101851742D01*
X215809089Y-101932713D01*
X215792243Y-102000566D01*
X215751405Y-102153456D01*
X215707363Y-102289225D01*
X215657489Y-102412860D01*
X215599155Y-102529350D01*
X215529731Y-102643683D01*
X215446592Y-102760846D01*
X215347107Y-102885827D01*
X215290637Y-102952550D01*
X215210029Y-103047261D01*
X215146048Y-103124729D01*
X215097821Y-103186119D01*
X215064472Y-103232598D01*
X215045127Y-103265330D01*
X215038913Y-103285482D01*
X215039131Y-103287912D01*
X215053593Y-103302839D01*
X215084875Y-103310465D01*
X215125105Y-103309456D01*
X215144350Y-103305750D01*
X215193594Y-103292042D01*
X215254845Y-103273001D01*
X215322243Y-103250675D01*
X215389928Y-103227114D01*
X215452039Y-103204369D01*
X215502715Y-103184488D01*
X215536096Y-103169521D01*
X215540120Y-103167332D01*
X215566905Y-103150112D01*
X215589858Y-103129904D01*
X215611143Y-103103125D01*
X215632922Y-103066191D01*
X215657357Y-103015519D01*
X215686612Y-102947524D01*
X215715705Y-102876350D01*
X215762338Y-102763717D01*
X215807758Y-102659468D01*
X215850819Y-102565875D01*
X215890372Y-102485208D01*
X215925273Y-102419739D01*
X215954375Y-102371739D01*
X215976531Y-102343479D01*
X215988142Y-102336600D01*
X215996317Y-102347813D01*
X216004361Y-102375842D01*
X216006477Y-102387400D01*
X216014845Y-102419172D01*
X216025892Y-102436881D01*
X216029464Y-102438200D01*
X216045081Y-102432219D01*
X216078638Y-102415696D01*
X216126061Y-102390753D01*
X216183275Y-102359516D01*
X216222989Y-102337292D01*
X216338364Y-102273229D01*
X216436081Y-102221828D01*
X216519708Y-102181800D01*
X216592813Y-102151857D01*
X216658965Y-102130710D01*
X216721733Y-102117073D01*
X216784685Y-102109656D01*
X216851388Y-102107171D01*
X216860552Y-102107143D01*
X216921214Y-102108713D01*
X216982510Y-102113933D01*
X217049032Y-102123609D01*
X217125373Y-102138544D01*
X217216124Y-102159546D01*
X217325877Y-102187420D01*
X217341450Y-102191503D01*
X217404210Y-102207610D01*
X217459334Y-102221018D01*
X217501551Y-102230498D01*
X217525590Y-102234821D01*
X217527774Y-102234959D01*
X217549332Y-102228316D01*
X217588586Y-102209660D01*
X217642029Y-102180971D01*
X217706159Y-102144226D01*
X217777469Y-102101405D01*
X217852456Y-102054486D01*
X217887550Y-102031856D01*
X217955966Y-101990449D01*
X218018155Y-101961227D01*
X218080744Y-101942621D01*
X218150360Y-101933059D01*
X218233629Y-101930970D01*
X218303970Y-101933131D01*
X218397442Y-101940062D01*
X218466718Y-101951480D01*
X218512653Y-101967658D01*
X218536098Y-101988872D01*
X218539343Y-102008953D01*
X218527203Y-102032782D01*
X218497481Y-102049601D01*
X218448396Y-102059772D01*
X218378164Y-102063656D01*
X218285001Y-102061616D01*
X218280712Y-102061413D01*
X218214175Y-102058629D01*
X218166303Y-102058245D01*
X218130418Y-102060949D01*
X218099843Y-102067432D01*
X218067899Y-102078381D01*
X218050857Y-102085128D01*
X217990282Y-102113271D01*
X217927822Y-102148504D01*
X217868927Y-102187090D01*
X217819049Y-102225292D01*
X217783637Y-102259374D01*
X217771382Y-102276712D01*
X217758963Y-102304277D01*
X217761070Y-102321675D01*
X217779878Y-102340935D01*
X217783575Y-102344128D01*
X217810653Y-102361773D01*
X217847921Y-102375675D01*
X217897779Y-102386070D01*
X217962627Y-102393195D01*
X218044864Y-102397290D01*
X218146891Y-102398591D01*
X218271108Y-102397336D01*
X218312527Y-102396508D01*
X218458955Y-102392051D01*
X218583655Y-102385181D01*
X218690237Y-102375283D01*
X218782308Y-102361738D01*
X218863480Y-102343929D01*
X218937359Y-102321241D01*
X219007555Y-102293054D01*
X219057717Y-102269072D01*
X219129729Y-102226470D01*
X219211671Y-102167857D01*
X219298427Y-102097685D01*
X219384883Y-102020409D01*
X219465922Y-101940481D01*
X219536429Y-101862355D01*
X219563647Y-101828600D01*
X219599041Y-101780968D01*
X219637317Y-101726560D01*
X219675650Y-101669755D01*
X219711213Y-101614936D01*
X219741180Y-101566482D01*
X219762723Y-101528775D01*
X219773016Y-101506195D01*
X219773500Y-101503360D01*
X219771502Y-101491677D01*
X219763264Y-101488013D01*
X219745423Y-101493679D01*
X219714616Y-101509992D01*
X219667481Y-101538264D01*
X219638859Y-101555978D01*
X219500470Y-101636253D01*
X219374608Y-101696530D01*
X219258862Y-101737354D01*
X219150825Y-101759273D01*
X219048085Y-101762831D01*
X218948233Y-101748575D01*
X218878619Y-101728237D01*
X218776073Y-101679940D01*
X218675692Y-101609228D01*
X218634761Y-101570563D01*
X218046300Y-101570563D01*
X218041647Y-101618094D01*
X218030165Y-101664199D01*
X218027304Y-101671681D01*
X218013318Y-101700827D01*
X217998128Y-101711617D01*
X217971586Y-101709466D01*
X217960629Y-101707260D01*
X217925225Y-101701682D01*
X216364490Y-101701682D01*
X216362157Y-101723546D01*
X216344260Y-101765266D01*
X216316864Y-101793180D01*
X216285420Y-101804413D01*
X216255380Y-101796088D01*
X216244236Y-101785759D01*
X216235572Y-101758798D01*
X216251815Y-101729463D01*
X216288933Y-101700621D01*
X216328362Y-101682107D01*
X216354136Y-101682645D01*
X216364490Y-101701682D01*
X217925225Y-101701682D01*
X217924920Y-101701634D01*
X217873823Y-101695744D01*
X217817312Y-101690713D01*
X217806989Y-101689962D01*
X217701027Y-101682550D01*
X217759412Y-101641502D01*
X217810108Y-101600638D01*
X217842830Y-101558869D01*
X217860989Y-101509149D01*
X217861831Y-101501375D01*
X216464196Y-101501375D01*
X216463414Y-101515077D01*
X216457761Y-101526975D01*
X216435880Y-101559141D01*
X216411034Y-101581058D01*
X216388433Y-101590179D01*
X216373286Y-101583961D01*
X216369900Y-101569895D01*
X216380059Y-101544977D01*
X216404181Y-101519243D01*
X216432733Y-101501526D01*
X216447042Y-101498400D01*
X216464196Y-101501375D01*
X217861831Y-101501375D01*
X217868001Y-101444433D01*
X217868453Y-101416447D01*
X217868500Y-101315445D01*
X217920835Y-101365647D01*
X217979455Y-101426443D01*
X218018345Y-101478492D01*
X218039846Y-101525615D01*
X218046300Y-101570563D01*
X218634761Y-101570563D01*
X218580258Y-101519078D01*
X218492551Y-101412469D01*
X218415350Y-101292377D01*
X218352852Y-101165154D01*
X218342230Y-101139242D01*
X218334130Y-101115874D01*
X218328210Y-101091196D01*
X218324128Y-101061356D01*
X218321543Y-101022499D01*
X218320113Y-100970773D01*
X218319497Y-100902323D01*
X218319353Y-100813296D01*
X218319350Y-100787200D01*
X218320572Y-100651601D01*
X218324705Y-100537727D01*
X218332454Y-100441996D01*
X218344520Y-100360828D01*
X218361609Y-100290645D01*
X218384421Y-100227864D01*
X218413662Y-100168908D01*
X218450034Y-100110194D01*
X218453274Y-100105398D01*
X218478345Y-100066245D01*
X218496341Y-100033853D01*
X218503464Y-100015077D01*
X218503470Y-100014819D01*
X218494299Y-100004231D01*
X218467512Y-100010280D01*
X218424299Y-100032531D01*
X218383020Y-100058786D01*
X218327090Y-100089210D01*
X218279427Y-100101306D01*
X218242781Y-100095708D01*
X218219899Y-100073052D01*
X218213527Y-100033970D01*
X218215102Y-100020012D01*
X218210810Y-99976024D01*
X218183999Y-99940850D01*
X218138366Y-99917850D01*
X218115961Y-99904150D01*
X218084513Y-99876493D01*
X218050762Y-99840819D01*
X218050219Y-99840191D01*
X218013876Y-99800847D01*
X217984024Y-99779378D01*
X217952326Y-99773399D01*
X217910441Y-99780525D01*
X217876007Y-99790387D01*
X217835185Y-99801428D01*
X217801465Y-99808241D01*
X217790282Y-99809299D01*
X217759803Y-99798482D01*
X217732452Y-99772265D01*
X217717064Y-99739999D01*
X217716100Y-99730765D01*
X217727421Y-99700186D01*
X217759611Y-99662223D01*
X217810014Y-99619065D01*
X217875975Y-99572903D01*
X217954836Y-99525926D01*
X217982800Y-99510850D01*
X218050412Y-99472707D01*
X218112790Y-99432757D01*
X218166691Y-99393589D01*
X218208876Y-99357795D01*
X218236102Y-99327963D01*
X218245128Y-99306683D01*
X218243775Y-99302310D01*
X218223532Y-99292120D01*
X218183952Y-99290726D01*
X218129213Y-99297318D01*
G36*
X214199251Y-103436763D02*
G01*
X214192765Y-103460139D01*
X214196966Y-103496684D01*
X214202929Y-103517124D01*
X214218341Y-103551376D01*
X214241676Y-103591802D01*
X214268721Y-103632375D01*
X214295259Y-103667066D01*
X214317078Y-103689850D01*
X214327659Y-103695500D01*
X214334847Y-103684947D01*
X214332211Y-103661858D01*
X214321495Y-103630358D01*
X214303554Y-103588319D01*
X214281473Y-103541832D01*
X214258340Y-103496986D01*
X214237239Y-103459871D01*
X214221257Y-103436578D01*
X214215640Y-103431825D01*
X214199251Y-103436763D01*
G37*
X214199251Y-103436763D02*
X214192765Y-103460139D01*
X214196966Y-103496684D01*
X214202929Y-103517124D01*
X214218341Y-103551376D01*
X214241676Y-103591802D01*
X214268721Y-103632375D01*
X214295259Y-103667066D01*
X214317078Y-103689850D01*
X214327659Y-103695500D01*
X214334847Y-103684947D01*
X214332211Y-103661858D01*
X214321495Y-103630358D01*
X214303554Y-103588319D01*
X214281473Y-103541832D01*
X214258340Y-103496986D01*
X214237239Y-103459871D01*
X214221257Y-103436578D01*
X214215640Y-103431825D01*
X214199251Y-103436763D01*
G36*
X213155960Y-103143050D02*
G01*
X213149711Y-103186125D01*
X213142866Y-103247830D01*
X213135967Y-103321420D01*
X213129556Y-103400150D01*
X213124176Y-103477277D01*
X213120368Y-103546054D01*
X213118676Y-103599737D01*
X213118638Y-103607235D01*
X213122681Y-103667273D01*
X213134429Y-103705506D01*
X213153464Y-103720685D01*
X213156515Y-103720900D01*
X213171302Y-103714375D01*
X213191581Y-103701475D01*
X213218147Y-103668774D01*
X213236409Y-103615963D01*
X213245056Y-103547349D01*
X213245579Y-103524050D01*
X213242381Y-103466451D01*
X213233737Y-103393435D01*
X213221112Y-103314027D01*
X213205971Y-103237251D01*
X213189781Y-103172132D01*
X213186793Y-103162100D01*
X213165261Y-103092250D01*
X213155960Y-103143050D01*
G37*
X213155960Y-103143050D02*
X213149711Y-103186125D01*
X213142866Y-103247830D01*
X213135967Y-103321420D01*
X213129556Y-103400150D01*
X213124176Y-103477277D01*
X213120368Y-103546054D01*
X213118676Y-103599737D01*
X213118638Y-103607235D01*
X213122681Y-103667273D01*
X213134429Y-103705506D01*
X213153464Y-103720685D01*
X213156515Y-103720900D01*
X213171302Y-103714375D01*
X213191581Y-103701475D01*
X213218147Y-103668774D01*
X213236409Y-103615963D01*
X213245056Y-103547349D01*
X213245579Y-103524050D01*
X213242381Y-103466451D01*
X213233737Y-103393435D01*
X213221112Y-103314027D01*
X213205971Y-103237251D01*
X213189781Y-103172132D01*
X213186793Y-103162100D01*
X213165261Y-103092250D01*
X213155960Y-103143050D01*
G36*
X216766462Y-103553910D02*
G01*
X216740404Y-103587841D01*
X216726834Y-103640645D01*
X216725500Y-103667835D01*
X216732979Y-103736952D01*
X216757692Y-103797766D01*
X216801278Y-103856783D01*
X216831903Y-103895092D01*
X216868840Y-103946435D01*
X216905728Y-104001837D01*
X216918486Y-104022209D01*
X216960055Y-104085114D01*
X216999725Y-104136134D01*
X217034615Y-104172036D01*
X217061844Y-104189586D01*
X217068655Y-104190800D01*
X217083346Y-104181471D01*
X217099430Y-104162574D01*
X217113591Y-104124621D01*
X217118492Y-104068836D01*
X217114929Y-104000711D01*
X217103698Y-103925738D01*
X217085594Y-103849409D01*
X217061412Y-103777218D01*
X217035475Y-103720992D01*
X216990583Y-103651308D01*
X216942152Y-103597748D01*
X216892854Y-103560770D01*
X216845358Y-103540832D01*
X216802337Y-103538393D01*
X216766462Y-103553910D01*
G37*
X216766462Y-103553910D02*
X216740404Y-103587841D01*
X216726834Y-103640645D01*
X216725500Y-103667835D01*
X216732979Y-103736952D01*
X216757692Y-103797766D01*
X216801278Y-103856783D01*
X216831903Y-103895092D01*
X216868840Y-103946435D01*
X216905728Y-104001837D01*
X216918486Y-104022209D01*
X216960055Y-104085114D01*
X216999725Y-104136134D01*
X217034615Y-104172036D01*
X217061844Y-104189586D01*
X217068655Y-104190800D01*
X217083346Y-104181471D01*
X217099430Y-104162574D01*
X217113591Y-104124621D01*
X217118492Y-104068836D01*
X217114929Y-104000711D01*
X217103698Y-103925738D01*
X217085594Y-103849409D01*
X217061412Y-103777218D01*
X217035475Y-103720992D01*
X216990583Y-103651308D01*
X216942152Y-103597748D01*
X216892854Y-103560770D01*
X216845358Y-103540832D01*
X216802337Y-103538393D01*
X216766462Y-103553910D01*
G36*
X211019961Y-102180780D02*
G01*
X210937397Y-102183918D01*
X210867827Y-102189063D01*
X210821202Y-102195487D01*
X210744635Y-102214055D01*
X210673852Y-102237809D01*
X210612839Y-102264770D01*
X210565582Y-102292960D01*
X210536068Y-102320399D01*
X210527900Y-102341098D01*
X210538867Y-102353372D01*
X210567013Y-102368789D01*
X210591194Y-102378517D01*
X210640661Y-102400832D01*
X210666960Y-102426429D01*
X210672316Y-102459133D01*
X210660890Y-102498234D01*
X210642707Y-102537537D01*
X210624032Y-102571794D01*
X210621439Y-102575895D01*
X210601981Y-102605641D01*
X210502899Y-102509220D01*
X210446166Y-102456988D01*
X210404041Y-102424983D01*
X210376146Y-102412921D01*
X210373908Y-102412800D01*
X210350170Y-102422632D01*
X210314867Y-102449842D01*
X210270997Y-102490999D01*
X210221563Y-102542672D01*
X210169563Y-102601431D01*
X210117998Y-102663845D01*
X210069868Y-102726483D01*
X210028174Y-102785914D01*
X209995915Y-102838709D01*
X209987686Y-102854425D01*
X209959795Y-102934627D01*
X209945861Y-103032112D01*
X209946138Y-103142779D01*
X209960874Y-103262529D01*
X209962249Y-103270050D01*
X209979716Y-103349958D01*
X210003409Y-103438117D01*
X210031974Y-103531106D01*
X210064057Y-103625505D01*
X210098304Y-103717895D01*
X210133362Y-103804856D01*
X210167877Y-103882968D01*
X210200494Y-103948811D01*
X210229861Y-103998965D01*
X210254622Y-104030011D01*
X210266226Y-104037872D01*
X210307747Y-104039870D01*
X210359134Y-104018625D01*
X210396822Y-103993078D01*
X210423877Y-103973567D01*
X210441556Y-103962885D01*
X210443819Y-103962200D01*
X210443518Y-103973047D01*
X210436174Y-104001250D01*
X210425616Y-104034038D01*
X210406014Y-104105947D01*
X210402940Y-104165329D01*
X210418128Y-104215596D01*
X210453317Y-104260160D01*
X210510242Y-104302436D01*
X210582125Y-104341659D01*
X210752550Y-104413466D01*
X210922155Y-104459906D01*
X211091048Y-104480998D01*
X211259336Y-104476758D01*
X211349157Y-104464094D01*
X211482027Y-104432299D01*
X211614983Y-104386219D01*
X211742972Y-104328429D01*
X211860937Y-104261501D01*
X211963824Y-104188009D01*
X212046579Y-104110527D01*
X212049057Y-104107765D01*
X212102825Y-104037007D01*
X212155403Y-103948998D01*
X212202718Y-103851727D01*
X212240699Y-103753179D01*
X212255998Y-103701850D01*
X212269147Y-103639347D01*
X212280375Y-103563026D01*
X212288081Y-103484466D01*
X212289628Y-103459005D01*
X212289121Y-103425032D01*
X212062268Y-103425032D01*
X212055439Y-103542539D01*
X212028197Y-103653081D01*
X211980828Y-103754651D01*
X211913618Y-103845240D01*
X211826850Y-103922839D01*
X211729834Y-103981113D01*
X211641024Y-104020489D01*
X211561984Y-104045379D01*
X211483288Y-104057930D01*
X211395508Y-104060289D01*
X211383433Y-104059974D01*
X211323821Y-104057113D01*
X211279454Y-104051258D01*
X211240184Y-104039980D01*
X211195864Y-104020850D01*
X211172484Y-104009485D01*
X211068101Y-103944438D01*
X210972483Y-103858190D01*
X210888545Y-103754257D01*
X210819203Y-103636154D01*
X210805700Y-103603822D01*
X210659479Y-103603822D01*
X210658664Y-103606926D01*
X210629905Y-103630013D01*
X210594861Y-103654346D01*
X210560545Y-103675536D01*
X210533968Y-103689192D01*
X210523112Y-103691787D01*
X210510874Y-103677643D01*
X210499844Y-103650222D01*
X210494979Y-103613936D01*
X210496626Y-103572504D01*
X210503600Y-103535420D01*
X210514715Y-103512183D01*
X210517347Y-103510023D01*
X210532920Y-103512283D01*
X210560132Y-103525648D01*
X210592689Y-103545801D01*
X210624296Y-103568425D01*
X210648658Y-103589204D01*
X210659479Y-103603822D01*
X210805700Y-103603822D01*
X210774843Y-103529944D01*
X210752120Y-103444224D01*
X210737714Y-103347474D01*
X210732379Y-103249400D01*
X210736873Y-103159705D01*
X210743004Y-103121212D01*
X210777404Y-103012505D01*
X210832083Y-102911248D01*
X210903599Y-102821998D01*
X210988510Y-102749313D01*
X211052486Y-102711505D01*
X211170734Y-102666865D01*
X211292034Y-102646106D01*
X211413359Y-102648443D01*
X211531685Y-102673096D01*
X211643988Y-102719281D01*
X211747242Y-102786216D01*
X211838422Y-102873118D01*
X211879759Y-102925517D01*
X211957430Y-103050802D01*
X212013549Y-103177155D01*
X212048400Y-103302568D01*
X212062268Y-103425032D01*
X212289121Y-103425032D01*
X212287082Y-103288588D01*
X212263408Y-103122954D01*
X212220035Y-102964144D01*
X212158395Y-102814201D01*
X212079917Y-102675167D01*
X211986032Y-102549082D01*
X211878171Y-102437990D01*
X211757765Y-102343932D01*
X211626245Y-102268949D01*
X211485040Y-102215084D01*
X211404200Y-102195285D01*
X211352449Y-102188351D01*
X211281764Y-102183436D01*
X211198530Y-102180537D01*
X211109134Y-102179652D01*
X211019961Y-102180780D01*
G37*
X211019961Y-102180780D02*
X210937397Y-102183918D01*
X210867827Y-102189063D01*
X210821202Y-102195487D01*
X210744635Y-102214055D01*
X210673852Y-102237809D01*
X210612839Y-102264770D01*
X210565582Y-102292960D01*
X210536068Y-102320399D01*
X210527900Y-102341098D01*
X210538867Y-102353372D01*
X210567013Y-102368789D01*
X210591194Y-102378517D01*
X210640661Y-102400832D01*
X210666960Y-102426429D01*
X210672316Y-102459133D01*
X210660890Y-102498234D01*
X210642707Y-102537537D01*
X210624032Y-102571794D01*
X210621439Y-102575895D01*
X210601981Y-102605641D01*
X210502899Y-102509220D01*
X210446166Y-102456988D01*
X210404041Y-102424983D01*
X210376146Y-102412921D01*
X210373908Y-102412800D01*
X210350170Y-102422632D01*
X210314867Y-102449842D01*
X210270997Y-102490999D01*
X210221563Y-102542672D01*
X210169563Y-102601431D01*
X210117998Y-102663845D01*
X210069868Y-102726483D01*
X210028174Y-102785914D01*
X209995915Y-102838709D01*
X209987686Y-102854425D01*
X209959795Y-102934627D01*
X209945861Y-103032112D01*
X209946138Y-103142779D01*
X209960874Y-103262529D01*
X209962249Y-103270050D01*
X209979716Y-103349958D01*
X210003409Y-103438117D01*
X210031974Y-103531106D01*
X210064057Y-103625505D01*
X210098304Y-103717895D01*
X210133362Y-103804856D01*
X210167877Y-103882968D01*
X210200494Y-103948811D01*
X210229861Y-103998965D01*
X210254622Y-104030011D01*
X210266226Y-104037872D01*
X210307747Y-104039870D01*
X210359134Y-104018625D01*
X210396822Y-103993078D01*
X210423877Y-103973567D01*
X210441556Y-103962885D01*
X210443819Y-103962200D01*
X210443518Y-103973047D01*
X210436174Y-104001250D01*
X210425616Y-104034038D01*
X210406014Y-104105947D01*
X210402940Y-104165329D01*
X210418128Y-104215596D01*
X210453317Y-104260160D01*
X210510242Y-104302436D01*
X210582125Y-104341659D01*
X210752550Y-104413466D01*
X210922155Y-104459906D01*
X211091048Y-104480998D01*
X211259336Y-104476758D01*
X211349157Y-104464094D01*
X211482027Y-104432299D01*
X211614983Y-104386219D01*
X211742972Y-104328429D01*
X211860937Y-104261501D01*
X211963824Y-104188009D01*
X212046579Y-104110527D01*
X212049057Y-104107765D01*
X212102825Y-104037007D01*
X212155403Y-103948998D01*
X212202718Y-103851727D01*
X212240699Y-103753179D01*
X212255998Y-103701850D01*
X212269147Y-103639347D01*
X212280375Y-103563026D01*
X212288081Y-103484466D01*
X212289628Y-103459005D01*
X212289121Y-103425032D01*
X212062268Y-103425032D01*
X212055439Y-103542539D01*
X212028197Y-103653081D01*
X211980828Y-103754651D01*
X211913618Y-103845240D01*
X211826850Y-103922839D01*
X211729834Y-103981113D01*
X211641024Y-104020489D01*
X211561984Y-104045379D01*
X211483288Y-104057930D01*
X211395508Y-104060289D01*
X211383433Y-104059974D01*
X211323821Y-104057113D01*
X211279454Y-104051258D01*
X211240184Y-104039980D01*
X211195864Y-104020850D01*
X211172484Y-104009485D01*
X211068101Y-103944438D01*
X210972483Y-103858190D01*
X210888545Y-103754257D01*
X210819203Y-103636154D01*
X210805700Y-103603822D01*
X210659479Y-103603822D01*
X210658664Y-103606926D01*
X210629905Y-103630013D01*
X210594861Y-103654346D01*
X210560545Y-103675536D01*
X210533968Y-103689192D01*
X210523112Y-103691787D01*
X210510874Y-103677643D01*
X210499844Y-103650222D01*
X210494979Y-103613936D01*
X210496626Y-103572504D01*
X210503600Y-103535420D01*
X210514715Y-103512183D01*
X210517347Y-103510023D01*
X210532920Y-103512283D01*
X210560132Y-103525648D01*
X210592689Y-103545801D01*
X210624296Y-103568425D01*
X210648658Y-103589204D01*
X210659479Y-103603822D01*
X210805700Y-103603822D01*
X210774843Y-103529944D01*
X210752120Y-103444224D01*
X210737714Y-103347474D01*
X210732379Y-103249400D01*
X210736873Y-103159705D01*
X210743004Y-103121212D01*
X210777404Y-103012505D01*
X210832083Y-102911248D01*
X210903599Y-102821998D01*
X210988510Y-102749313D01*
X211052486Y-102711505D01*
X211170734Y-102666865D01*
X211292034Y-102646106D01*
X211413359Y-102648443D01*
X211531685Y-102673096D01*
X211643988Y-102719281D01*
X211747242Y-102786216D01*
X211838422Y-102873118D01*
X211879759Y-102925517D01*
X211957430Y-103050802D01*
X212013549Y-103177155D01*
X212048400Y-103302568D01*
X212062268Y-103425032D01*
X212289121Y-103425032D01*
X212287082Y-103288588D01*
X212263408Y-103122954D01*
X212220035Y-102964144D01*
X212158395Y-102814201D01*
X212079917Y-102675167D01*
X211986032Y-102549082D01*
X211878171Y-102437990D01*
X211757765Y-102343932D01*
X211626245Y-102268949D01*
X211485040Y-102215084D01*
X211404200Y-102195285D01*
X211352449Y-102188351D01*
X211281764Y-102183436D01*
X211198530Y-102180537D01*
X211109134Y-102179652D01*
X211019961Y-102180780D01*
G36*
X217575154Y-104353717D02*
G01*
X217573310Y-104392617D01*
X217573929Y-104448181D01*
X217576767Y-104516124D01*
X217581577Y-104592167D01*
X217588113Y-104672025D01*
X217596128Y-104751417D01*
X217605377Y-104826061D01*
X217609519Y-104854626D01*
X217623798Y-104904621D01*
X217648699Y-104931867D01*
X217685484Y-104936981D01*
X217735413Y-104920580D01*
X217739958Y-104918384D01*
X217786404Y-104883130D01*
X217818312Y-104834033D01*
X217830351Y-104779326D01*
X217830353Y-104778752D01*
X217823741Y-104732320D01*
X217805452Y-104671204D01*
X217777935Y-104601831D01*
X217743639Y-104530626D01*
X217719008Y-104486632D01*
X217684516Y-104433419D01*
X217650073Y-104388267D01*
X217618909Y-104354675D01*
X217594254Y-104336140D01*
X217579708Y-104335762D01*
X217575154Y-104353717D01*
G37*
X217575154Y-104353717D02*
X217573310Y-104392617D01*
X217573929Y-104448181D01*
X217576767Y-104516124D01*
X217581577Y-104592167D01*
X217588113Y-104672025D01*
X217596128Y-104751417D01*
X217605377Y-104826061D01*
X217609519Y-104854626D01*
X217623798Y-104904621D01*
X217648699Y-104931867D01*
X217685484Y-104936981D01*
X217735413Y-104920580D01*
X217739958Y-104918384D01*
X217786404Y-104883130D01*
X217818312Y-104834033D01*
X217830351Y-104779326D01*
X217830353Y-104778752D01*
X217823741Y-104732320D01*
X217805452Y-104671204D01*
X217777935Y-104601831D01*
X217743639Y-104530626D01*
X217719008Y-104486632D01*
X217684516Y-104433419D01*
X217650073Y-104388267D01*
X217618909Y-104354675D01*
X217594254Y-104336140D01*
X217579708Y-104335762D01*
X217575154Y-104353717D01*
G36*
X214014560Y-104994359D02*
G01*
X213995723Y-105002884D01*
X213984261Y-105016270D01*
X213988395Y-105038131D01*
X213992275Y-105047140D01*
X214009364Y-105070835D01*
X214037165Y-105079349D01*
X214050471Y-105079800D01*
X214090778Y-105072326D01*
X214123769Y-105055219D01*
X214143316Y-105036406D01*
X214143988Y-105022774D01*
X214134700Y-105011805D01*
X214101932Y-104994314D01*
X214057941Y-104988245D01*
X214014560Y-104994359D01*
G37*
X214014560Y-104994359D02*
X213995723Y-105002884D01*
X213984261Y-105016270D01*
X213988395Y-105038131D01*
X213992275Y-105047140D01*
X214009364Y-105070835D01*
X214037165Y-105079349D01*
X214050471Y-105079800D01*
X214090778Y-105072326D01*
X214123769Y-105055219D01*
X214143316Y-105036406D01*
X214143988Y-105022774D01*
X214134700Y-105011805D01*
X214101932Y-104994314D01*
X214057941Y-104988245D01*
X214014560Y-104994359D01*
G36*
X214597521Y-105073090D02*
G01*
X214592801Y-105089722D01*
X214606848Y-105114002D01*
X214615126Y-105122281D01*
X214640022Y-105140581D01*
X214652200Y-105137380D01*
X214653459Y-105112019D01*
X214653069Y-105108375D01*
X214642546Y-105079657D01*
X214620475Y-105069391D01*
X214597521Y-105073090D01*
G37*
X214597521Y-105073090D02*
X214592801Y-105089722D01*
X214606848Y-105114002D01*
X214615126Y-105122281D01*
X214640022Y-105140581D01*
X214652200Y-105137380D01*
X214653459Y-105112019D01*
X214653069Y-105108375D01*
X214642546Y-105079657D01*
X214620475Y-105069391D01*
X214597521Y-105073090D01*
G36*
X210900987Y-105427188D02*
G01*
X210868581Y-105433846D01*
X210864450Y-105435400D01*
X210860990Y-105441195D01*
X210882694Y-105444819D01*
X210929628Y-105446280D01*
X210940650Y-105446314D01*
X210992090Y-105445237D01*
X211018287Y-105442000D01*
X211019308Y-105436592D01*
X211016850Y-105435400D01*
X210987584Y-105428229D01*
X210948138Y-105424596D01*
X210940650Y-105424485D01*
X210900987Y-105427188D01*
G37*
X210900987Y-105427188D02*
X210868581Y-105433846D01*
X210864450Y-105435400D01*
X210860990Y-105441195D01*
X210882694Y-105444819D01*
X210929628Y-105446280D01*
X210940650Y-105446314D01*
X210992090Y-105445237D01*
X211018287Y-105442000D01*
X211019308Y-105436592D01*
X211016850Y-105435400D01*
X210987584Y-105428229D01*
X210948138Y-105424596D01*
X210940650Y-105424485D01*
X210900987Y-105427188D01*
G36*
X213212679Y-105176680D02*
G01*
X213180453Y-105212414D01*
X213151374Y-105266210D01*
X213127025Y-105336284D01*
X213108989Y-105420852D01*
X213108232Y-105425750D01*
X213103635Y-105487135D01*
X213113334Y-105529639D01*
X213139922Y-105556179D01*
X213185996Y-105569668D01*
X213239350Y-105573029D01*
X213279811Y-105570536D01*
X213313707Y-105563809D01*
X213317895Y-105562311D01*
X213346204Y-105542541D01*
X213359170Y-105525851D01*
X213369654Y-105487170D01*
X213371679Y-105432390D01*
X213366303Y-105368964D01*
X213354580Y-105304344D01*
X213337567Y-105245983D01*
X213316319Y-105201332D01*
X213312401Y-105195694D01*
X213280237Y-105166536D01*
X213246468Y-105160792D01*
X213212679Y-105176680D01*
G37*
X213212679Y-105176680D02*
X213180453Y-105212414D01*
X213151374Y-105266210D01*
X213127025Y-105336284D01*
X213108989Y-105420852D01*
X213108232Y-105425750D01*
X213103635Y-105487135D01*
X213113334Y-105529639D01*
X213139922Y-105556179D01*
X213185996Y-105569668D01*
X213239350Y-105573029D01*
X213279811Y-105570536D01*
X213313707Y-105563809D01*
X213317895Y-105562311D01*
X213346204Y-105542541D01*
X213359170Y-105525851D01*
X213369654Y-105487170D01*
X213371679Y-105432390D01*
X213366303Y-105368964D01*
X213354580Y-105304344D01*
X213337567Y-105245983D01*
X213316319Y-105201332D01*
X213312401Y-105195694D01*
X213280237Y-105166536D01*
X213246468Y-105160792D01*
X213212679Y-105176680D01*
G36*
X212847081Y-105116483D02*
G01*
X212819536Y-105146538D01*
X212793192Y-105189676D01*
X212772067Y-105240206D01*
X212768663Y-105251250D01*
X212758339Y-105298963D01*
X212750831Y-105356989D01*
X212746298Y-105419292D01*
X212744901Y-105479834D01*
X212746798Y-105532580D01*
X212752149Y-105571492D01*
X212759736Y-105589395D01*
X212782177Y-105599509D01*
X212820560Y-105606561D01*
X212865547Y-105609949D01*
X212907800Y-105609072D01*
X212937980Y-105603328D01*
X212942373Y-105601168D01*
X212962319Y-105578612D01*
X212983754Y-105538418D01*
X213003675Y-105487949D01*
X213019074Y-105434566D01*
X213025901Y-105396600D01*
X213025284Y-105327798D01*
X213010531Y-105274306D01*
X212991714Y-105236579D01*
X212964373Y-105195159D01*
X212933292Y-105155875D01*
X212903252Y-105124559D01*
X212879037Y-105107040D01*
X212871809Y-105105200D01*
X212847081Y-105116483D01*
G37*
X212847081Y-105116483D02*
X212819536Y-105146538D01*
X212793192Y-105189676D01*
X212772067Y-105240206D01*
X212768663Y-105251250D01*
X212758339Y-105298963D01*
X212750831Y-105356989D01*
X212746298Y-105419292D01*
X212744901Y-105479834D01*
X212746798Y-105532580D01*
X212752149Y-105571492D01*
X212759736Y-105589395D01*
X212782177Y-105599509D01*
X212820560Y-105606561D01*
X212865547Y-105609949D01*
X212907800Y-105609072D01*
X212937980Y-105603328D01*
X212942373Y-105601168D01*
X212962319Y-105578612D01*
X212983754Y-105538418D01*
X213003675Y-105487949D01*
X213019074Y-105434566D01*
X213025901Y-105396600D01*
X213025284Y-105327798D01*
X213010531Y-105274306D01*
X212991714Y-105236579D01*
X212964373Y-105195159D01*
X212933292Y-105155875D01*
X212903252Y-105124559D01*
X212879037Y-105107040D01*
X212871809Y-105105200D01*
X212847081Y-105116483D01*
G36*
X216649018Y-104441561D02*
G01*
X216622917Y-104469620D01*
X216613785Y-104515792D01*
X216621727Y-104579591D01*
X216644537Y-104654350D01*
X216676539Y-104747403D01*
X216696460Y-104824083D01*
X216704412Y-104890298D01*
X216700507Y-104951957D01*
X216684857Y-105014969D01*
X216657574Y-105085242D01*
X216652909Y-105095824D01*
X216608031Y-105173904D01*
X216552071Y-105230760D01*
X216484406Y-105266496D01*
X216404419Y-105281216D01*
X216311488Y-105275023D01*
X216204993Y-105248022D01*
X216084314Y-105200316D01*
X216069604Y-105193556D01*
X216008423Y-105165829D01*
X215934776Y-105133581D01*
X215859810Y-105101652D01*
X215817450Y-105084094D01*
X215763491Y-105061471D01*
X215710383Y-105037838D01*
X215654733Y-105011464D01*
X215593150Y-104980624D01*
X215522244Y-104943587D01*
X215438621Y-104898627D01*
X215338891Y-104844015D01*
X215252381Y-104796181D01*
X215114373Y-104721344D01*
X214993319Y-104659618D01*
X214885458Y-104609411D01*
X214787030Y-104569134D01*
X214694277Y-104537196D01*
X214603437Y-104512007D01*
X214553438Y-104500562D01*
X214514056Y-104494951D01*
X214452872Y-104489793D01*
X214373479Y-104485144D01*
X214279472Y-104481061D01*
X214174445Y-104477599D01*
X214061992Y-104474814D01*
X213945707Y-104472763D01*
X213829185Y-104471502D01*
X213716020Y-104471086D01*
X213609806Y-104471573D01*
X213514137Y-104473017D01*
X213432607Y-104475475D01*
X213368811Y-104479003D01*
X213340710Y-104481637D01*
X213257125Y-104494268D01*
X213196992Y-104509549D01*
X213160745Y-104527229D01*
X213148813Y-104547060D01*
X213161629Y-104568792D01*
X213173828Y-104577992D01*
X213191170Y-104587381D01*
X213214560Y-104595895D01*
X213246702Y-104603970D01*
X213290301Y-104612043D01*
X213348064Y-104620550D01*
X213422694Y-104629928D01*
X213516898Y-104640614D01*
X213633380Y-104653044D01*
X213648664Y-104654640D01*
X213847557Y-104675919D01*
X214023782Y-104696148D01*
X214180015Y-104715946D01*
X214318931Y-104735932D01*
X214443207Y-104756726D01*
X214555520Y-104778947D01*
X214658545Y-104803214D01*
X214754959Y-104830147D01*
X214847439Y-104860365D01*
X214938660Y-104894487D01*
X215031298Y-104933132D01*
X215128031Y-104976920D01*
X215209798Y-105015892D01*
X215341408Y-105081048D01*
X215457863Y-105141990D01*
X215566891Y-105203140D01*
X215676225Y-105268916D01*
X215793594Y-105343740D01*
X215861900Y-105388707D01*
X215968257Y-105457156D01*
X216058888Y-105510434D01*
X216137121Y-105550168D01*
X216206283Y-105577986D01*
X216269700Y-105595514D01*
X216293700Y-105599930D01*
X216357323Y-105606963D01*
X216433841Y-105610798D01*
X216515725Y-105611518D01*
X216595447Y-105609207D01*
X216665478Y-105603948D01*
X216718289Y-105595825D01*
X216721000Y-105595187D01*
X216799746Y-105563075D01*
X216871572Y-105506855D01*
X216934679Y-105428771D01*
X216999984Y-105313626D01*
X217046311Y-105195310D01*
X217073167Y-105077188D01*
X217080063Y-104962629D01*
X217066508Y-104855000D01*
X217032345Y-104758338D01*
X216988553Y-104681763D01*
X216936193Y-104609684D01*
X216878812Y-104545500D01*
X216819958Y-104492613D01*
X216763179Y-104454423D01*
X216712023Y-104434331D01*
X216691984Y-104432100D01*
X216649018Y-104441561D01*
G37*
X216649018Y-104441561D02*
X216622917Y-104469620D01*
X216613785Y-104515792D01*
X216621727Y-104579591D01*
X216644537Y-104654350D01*
X216676539Y-104747403D01*
X216696460Y-104824083D01*
X216704412Y-104890298D01*
X216700507Y-104951957D01*
X216684857Y-105014969D01*
X216657574Y-105085242D01*
X216652909Y-105095824D01*
X216608031Y-105173904D01*
X216552071Y-105230760D01*
X216484406Y-105266496D01*
X216404419Y-105281216D01*
X216311488Y-105275023D01*
X216204993Y-105248022D01*
X216084314Y-105200316D01*
X216069604Y-105193556D01*
X216008423Y-105165829D01*
X215934776Y-105133581D01*
X215859810Y-105101652D01*
X215817450Y-105084094D01*
X215763491Y-105061471D01*
X215710383Y-105037838D01*
X215654733Y-105011464D01*
X215593150Y-104980624D01*
X215522244Y-104943587D01*
X215438621Y-104898627D01*
X215338891Y-104844015D01*
X215252381Y-104796181D01*
X215114373Y-104721344D01*
X214993319Y-104659618D01*
X214885458Y-104609411D01*
X214787030Y-104569134D01*
X214694277Y-104537196D01*
X214603437Y-104512007D01*
X214553438Y-104500562D01*
X214514056Y-104494951D01*
X214452872Y-104489793D01*
X214373479Y-104485144D01*
X214279472Y-104481061D01*
X214174445Y-104477599D01*
X214061992Y-104474814D01*
X213945707Y-104472763D01*
X213829185Y-104471502D01*
X213716020Y-104471086D01*
X213609806Y-104471573D01*
X213514137Y-104473017D01*
X213432607Y-104475475D01*
X213368811Y-104479003D01*
X213340710Y-104481637D01*
X213257125Y-104494268D01*
X213196992Y-104509549D01*
X213160745Y-104527229D01*
X213148813Y-104547060D01*
X213161629Y-104568792D01*
X213173828Y-104577992D01*
X213191170Y-104587381D01*
X213214560Y-104595895D01*
X213246702Y-104603970D01*
X213290301Y-104612043D01*
X213348064Y-104620550D01*
X213422694Y-104629928D01*
X213516898Y-104640614D01*
X213633380Y-104653044D01*
X213648664Y-104654640D01*
X213847557Y-104675919D01*
X214023782Y-104696148D01*
X214180015Y-104715946D01*
X214318931Y-104735932D01*
X214443207Y-104756726D01*
X214555520Y-104778947D01*
X214658545Y-104803214D01*
X214754959Y-104830147D01*
X214847439Y-104860365D01*
X214938660Y-104894487D01*
X215031298Y-104933132D01*
X215128031Y-104976920D01*
X215209798Y-105015892D01*
X215341408Y-105081048D01*
X215457863Y-105141990D01*
X215566891Y-105203140D01*
X215676225Y-105268916D01*
X215793594Y-105343740D01*
X215861900Y-105388707D01*
X215968257Y-105457156D01*
X216058888Y-105510434D01*
X216137121Y-105550168D01*
X216206283Y-105577986D01*
X216269700Y-105595514D01*
X216293700Y-105599930D01*
X216357323Y-105606963D01*
X216433841Y-105610798D01*
X216515725Y-105611518D01*
X216595447Y-105609207D01*
X216665478Y-105603948D01*
X216718289Y-105595825D01*
X216721000Y-105595187D01*
X216799746Y-105563075D01*
X216871572Y-105506855D01*
X216934679Y-105428771D01*
X216999984Y-105313626D01*
X217046311Y-105195310D01*
X217073167Y-105077188D01*
X217080063Y-104962629D01*
X217066508Y-104855000D01*
X217032345Y-104758338D01*
X216988553Y-104681763D01*
X216936193Y-104609684D01*
X216878812Y-104545500D01*
X216819958Y-104492613D01*
X216763179Y-104454423D01*
X216712023Y-104434331D01*
X216691984Y-104432100D01*
X216649018Y-104441561D01*
G36*
X211998761Y-105426908D02*
G01*
X211966748Y-105440340D01*
X211921203Y-105466300D01*
X211867927Y-105500841D01*
X211812722Y-105540016D01*
X211761386Y-105579876D01*
X211719721Y-105616474D01*
X211718525Y-105617631D01*
X211680006Y-105659442D01*
X211661803Y-105692105D01*
X211664954Y-105717410D01*
X211690497Y-105737150D01*
X211739468Y-105753116D01*
X211804250Y-105765711D01*
X211874668Y-105775221D01*
X211926476Y-105777033D01*
X211965307Y-105771041D01*
X211987601Y-105762237D01*
X212006642Y-105747065D01*
X212021948Y-105719892D01*
X212036465Y-105674949D01*
X212040973Y-105657668D01*
X212060202Y-105569658D01*
X212067737Y-105503281D01*
X212063394Y-105457530D01*
X212046987Y-105431393D01*
X212018332Y-105423864D01*
X211998761Y-105426908D01*
G37*
X211998761Y-105426908D02*
X211966748Y-105440340D01*
X211921203Y-105466300D01*
X211867927Y-105500841D01*
X211812722Y-105540016D01*
X211761386Y-105579876D01*
X211719721Y-105616474D01*
X211718525Y-105617631D01*
X211680006Y-105659442D01*
X211661803Y-105692105D01*
X211664954Y-105717410D01*
X211690497Y-105737150D01*
X211739468Y-105753116D01*
X211804250Y-105765711D01*
X211874668Y-105775221D01*
X211926476Y-105777033D01*
X211965307Y-105771041D01*
X211987601Y-105762237D01*
X212006642Y-105747065D01*
X212021948Y-105719892D01*
X212036465Y-105674949D01*
X212040973Y-105657668D01*
X212060202Y-105569658D01*
X212067737Y-105503281D01*
X212063394Y-105457530D01*
X212046987Y-105431393D01*
X212018332Y-105423864D01*
X211998761Y-105426908D01*
G36*
X214876252Y-105193631D02*
G01*
X214830371Y-105200841D01*
X214795901Y-105216322D01*
X214771105Y-105242911D01*
X214754248Y-105283442D01*
X214743594Y-105340753D01*
X214737407Y-105417678D01*
X214733951Y-105517053D01*
X214733860Y-105520893D01*
X214728730Y-105739737D01*
X214764794Y-105753448D01*
X214811527Y-105767836D01*
X214872048Y-105781980D01*
X214936202Y-105793931D01*
X214993831Y-105801737D01*
X215026497Y-105803700D01*
X215061145Y-105800572D01*
X215088812Y-105787827D01*
X215119520Y-105760424D01*
X215126093Y-105753599D01*
X215169519Y-105693306D01*
X215204392Y-105616546D01*
X215228414Y-105531469D01*
X215239291Y-105446224D01*
X215234728Y-105368961D01*
X215234610Y-105368328D01*
X215212445Y-105315603D01*
X215169458Y-105269122D01*
X215109956Y-105231425D01*
X215038245Y-105205049D01*
X214958631Y-105192533D01*
X214935279Y-105191858D01*
X214876252Y-105193631D01*
G37*
X214876252Y-105193631D02*
X214830371Y-105200841D01*
X214795901Y-105216322D01*
X214771105Y-105242911D01*
X214754248Y-105283442D01*
X214743594Y-105340753D01*
X214737407Y-105417678D01*
X214733951Y-105517053D01*
X214733860Y-105520893D01*
X214728730Y-105739737D01*
X214764794Y-105753448D01*
X214811527Y-105767836D01*
X214872048Y-105781980D01*
X214936202Y-105793931D01*
X214993831Y-105801737D01*
X215026497Y-105803700D01*
X215061145Y-105800572D01*
X215088812Y-105787827D01*
X215119520Y-105760424D01*
X215126093Y-105753599D01*
X215169519Y-105693306D01*
X215204392Y-105616546D01*
X215228414Y-105531469D01*
X215239291Y-105446224D01*
X215234728Y-105368961D01*
X215234610Y-105368328D01*
X215212445Y-105315603D01*
X215169458Y-105269122D01*
X215109956Y-105231425D01*
X215038245Y-105205049D01*
X214958631Y-105192533D01*
X214935279Y-105191858D01*
X214876252Y-105193631D01*
G36*
X213690547Y-105111128D02*
G01*
X213653283Y-105116896D01*
X213622602Y-105126978D01*
X213596911Y-105144123D01*
X213574613Y-105171080D01*
X213554115Y-105210599D01*
X213533820Y-105265427D01*
X213512133Y-105338316D01*
X213487461Y-105432012D01*
X213474523Y-105483442D01*
X213453227Y-105572837D01*
X213439602Y-105641575D01*
X213433539Y-105693179D01*
X213434933Y-105731172D01*
X213443675Y-105759076D01*
X213459660Y-105780415D01*
X213465335Y-105785622D01*
X213508257Y-105811740D01*
X213566392Y-105832636D01*
X213632957Y-105847417D01*
X213701171Y-105855191D01*
X213764252Y-105855066D01*
X213815417Y-105846150D01*
X213839592Y-105834857D01*
X213863195Y-105805580D01*
X213883904Y-105755837D01*
X213901259Y-105690448D01*
X213914801Y-105614229D01*
X213924071Y-105531999D01*
X213928611Y-105448576D01*
X213927959Y-105368777D01*
X213921659Y-105297420D01*
X213909249Y-105239324D01*
X213898842Y-105213150D01*
X213858129Y-105159685D01*
X213801825Y-105124700D01*
X213733413Y-105109901D01*
X213690547Y-105111128D01*
G37*
X213690547Y-105111128D02*
X213653283Y-105116896D01*
X213622602Y-105126978D01*
X213596911Y-105144123D01*
X213574613Y-105171080D01*
X213554115Y-105210599D01*
X213533820Y-105265427D01*
X213512133Y-105338316D01*
X213487461Y-105432012D01*
X213474523Y-105483442D01*
X213453227Y-105572837D01*
X213439602Y-105641575D01*
X213433539Y-105693179D01*
X213434933Y-105731172D01*
X213443675Y-105759076D01*
X213459660Y-105780415D01*
X213465335Y-105785622D01*
X213508257Y-105811740D01*
X213566392Y-105832636D01*
X213632957Y-105847417D01*
X213701171Y-105855191D01*
X213764252Y-105855066D01*
X213815417Y-105846150D01*
X213839592Y-105834857D01*
X213863195Y-105805580D01*
X213883904Y-105755837D01*
X213901259Y-105690448D01*
X213914801Y-105614229D01*
X213924071Y-105531999D01*
X213928611Y-105448576D01*
X213927959Y-105368777D01*
X213921659Y-105297420D01*
X213909249Y-105239324D01*
X213898842Y-105213150D01*
X213858129Y-105159685D01*
X213801825Y-105124700D01*
X213733413Y-105109901D01*
X213690547Y-105111128D01*
G36*
X210135108Y-105811301D02*
G01*
X210134200Y-105814455D01*
X210145477Y-105833886D01*
X210173790Y-105852408D01*
X210210868Y-105866979D01*
X210248437Y-105874559D01*
X210278224Y-105872107D01*
X210283726Y-105869417D01*
X210291363Y-105857486D01*
X210278765Y-105839953D01*
X210274716Y-105836188D01*
X210250604Y-105822370D01*
X210216699Y-105811752D01*
X210180890Y-105805555D01*
X210151063Y-105804998D01*
X210135108Y-105811301D01*
G37*
X210135108Y-105811301D02*
X210134200Y-105814455D01*
X210145477Y-105833886D01*
X210173790Y-105852408D01*
X210210868Y-105866979D01*
X210248437Y-105874559D01*
X210278224Y-105872107D01*
X210283726Y-105869417D01*
X210291363Y-105857486D01*
X210278765Y-105839953D01*
X210274716Y-105836188D01*
X210250604Y-105822370D01*
X210216699Y-105811752D01*
X210180890Y-105805555D01*
X210151063Y-105804998D01*
X210135108Y-105811301D01*
G36*
X214208663Y-105189716D02*
G01*
X214157631Y-105211142D01*
X214119589Y-105240128D01*
X214106344Y-105265044D01*
X214093350Y-105305742D01*
X214084656Y-105346656D01*
X214078357Y-105395602D01*
X214072892Y-105457661D01*
X214068400Y-105528015D01*
X214065025Y-105601845D01*
X214062908Y-105674332D01*
X214062191Y-105740658D01*
X214063015Y-105796004D01*
X214065522Y-105835551D01*
X214069731Y-105854310D01*
X214087700Y-105862648D01*
X214125405Y-105869510D01*
X214177216Y-105874745D01*
X214237503Y-105878200D01*
X214300636Y-105879724D01*
X214360986Y-105879165D01*
X214412923Y-105876370D01*
X214450817Y-105871188D01*
X214467470Y-105865045D01*
X214479357Y-105844172D01*
X214491604Y-105802584D01*
X214503493Y-105744946D01*
X214514308Y-105675922D01*
X214523330Y-105600174D01*
X214529842Y-105522367D01*
X214533127Y-105447163D01*
X214533288Y-105437171D01*
X214534750Y-105318292D01*
X214481625Y-105271099D01*
X214427002Y-105233098D01*
X214361312Y-105202850D01*
X214295272Y-105184690D01*
X214259834Y-105181400D01*
X214208663Y-105189716D01*
G37*
X214208663Y-105189716D02*
X214157631Y-105211142D01*
X214119589Y-105240128D01*
X214106344Y-105265044D01*
X214093350Y-105305742D01*
X214084656Y-105346656D01*
X214078357Y-105395602D01*
X214072892Y-105457661D01*
X214068400Y-105528015D01*
X214065025Y-105601845D01*
X214062908Y-105674332D01*
X214062191Y-105740658D01*
X214063015Y-105796004D01*
X214065522Y-105835551D01*
X214069731Y-105854310D01*
X214087700Y-105862648D01*
X214125405Y-105869510D01*
X214177216Y-105874745D01*
X214237503Y-105878200D01*
X214300636Y-105879724D01*
X214360986Y-105879165D01*
X214412923Y-105876370D01*
X214450817Y-105871188D01*
X214467470Y-105865045D01*
X214479357Y-105844172D01*
X214491604Y-105802584D01*
X214503493Y-105744946D01*
X214514308Y-105675922D01*
X214523330Y-105600174D01*
X214529842Y-105522367D01*
X214533127Y-105447163D01*
X214533288Y-105437171D01*
X214534750Y-105318292D01*
X214481625Y-105271099D01*
X214427002Y-105233098D01*
X214361312Y-105202850D01*
X214295272Y-105184690D01*
X214259834Y-105181400D01*
X214208663Y-105189716D01*
G36*
X215402124Y-105422259D02*
G01*
X215377009Y-105457309D01*
X215354786Y-105512553D01*
X215336451Y-105585399D01*
X215323000Y-105673252D01*
X215321075Y-105691463D01*
X215317502Y-105751133D01*
X215323078Y-105792528D01*
X215341483Y-105819931D01*
X215376397Y-105837625D01*
X215431501Y-105849892D01*
X215461070Y-105854389D01*
X215517759Y-105864501D01*
X215570773Y-105877501D01*
X215610448Y-105890939D01*
X215616780Y-105893889D01*
X215658042Y-105912372D01*
X215684358Y-105916207D01*
X215701493Y-105905452D01*
X215708325Y-105894796D01*
X215722254Y-105852650D01*
X215729680Y-105796826D01*
X215729824Y-105738390D01*
X215722659Y-105691101D01*
X215702606Y-105644705D01*
X215669415Y-105595606D01*
X215655865Y-105579845D01*
X215615453Y-105539700D01*
X215568959Y-105499199D01*
X215521534Y-105462201D01*
X215478330Y-105432564D01*
X215444499Y-105414148D01*
X215429135Y-105410000D01*
X215402124Y-105422259D01*
G37*
X215402124Y-105422259D02*
X215377009Y-105457309D01*
X215354786Y-105512553D01*
X215336451Y-105585399D01*
X215323000Y-105673252D01*
X215321075Y-105691463D01*
X215317502Y-105751133D01*
X215323078Y-105792528D01*
X215341483Y-105819931D01*
X215376397Y-105837625D01*
X215431501Y-105849892D01*
X215461070Y-105854389D01*
X215517759Y-105864501D01*
X215570773Y-105877501D01*
X215610448Y-105890939D01*
X215616780Y-105893889D01*
X215658042Y-105912372D01*
X215684358Y-105916207D01*
X215701493Y-105905452D01*
X215708325Y-105894796D01*
X215722254Y-105852650D01*
X215729680Y-105796826D01*
X215729824Y-105738390D01*
X215722659Y-105691101D01*
X215702606Y-105644705D01*
X215669415Y-105595606D01*
X215655865Y-105579845D01*
X215615453Y-105539700D01*
X215568959Y-105499199D01*
X215521534Y-105462201D01*
X215478330Y-105432564D01*
X215444499Y-105414148D01*
X215429135Y-105410000D01*
X215402124Y-105422259D01*
G36*
X212585144Y-105155099D02*
G01*
X212552382Y-105164405D01*
X212505472Y-105180325D01*
X212449096Y-105201358D01*
X212440511Y-105204705D01*
X212378675Y-105228650D01*
X212330744Y-105248525D01*
X212295626Y-105267713D01*
X212272227Y-105289596D01*
X212259454Y-105317557D01*
X212256212Y-105354977D01*
X212261409Y-105405241D01*
X212273950Y-105471729D01*
X212292744Y-105557824D01*
X212306401Y-105619550D01*
X212337826Y-105761598D01*
X212364678Y-105880369D01*
X212387384Y-105977490D01*
X212406369Y-106054587D01*
X212422061Y-106113285D01*
X212434887Y-106155212D01*
X212445272Y-106181993D01*
X212453644Y-106195254D01*
X212458000Y-106197400D01*
X212465619Y-106186031D01*
X212479015Y-106154945D01*
X212496405Y-106108674D01*
X212516003Y-106051748D01*
X212519267Y-106041825D01*
X212566224Y-105891915D01*
X212602468Y-105761707D01*
X212628659Y-105648187D01*
X212645452Y-105548342D01*
X212653507Y-105459161D01*
X212654451Y-105422700D01*
X212653377Y-105350122D01*
X212648694Y-105295564D01*
X212639535Y-105251793D01*
X212630826Y-105225850D01*
X212615847Y-105188653D01*
X212603701Y-105161841D01*
X212599076Y-105153905D01*
X212585144Y-105155099D01*
G37*
X212585144Y-105155099D02*
X212552382Y-105164405D01*
X212505472Y-105180325D01*
X212449096Y-105201358D01*
X212440511Y-105204705D01*
X212378675Y-105228650D01*
X212330744Y-105248525D01*
X212295626Y-105267713D01*
X212272227Y-105289596D01*
X212259454Y-105317557D01*
X212256212Y-105354977D01*
X212261409Y-105405241D01*
X212273950Y-105471729D01*
X212292744Y-105557824D01*
X212306401Y-105619550D01*
X212337826Y-105761598D01*
X212364678Y-105880369D01*
X212387384Y-105977490D01*
X212406369Y-106054587D01*
X212422061Y-106113285D01*
X212434887Y-106155212D01*
X212445272Y-106181993D01*
X212453644Y-106195254D01*
X212458000Y-106197400D01*
X212465619Y-106186031D01*
X212479015Y-106154945D01*
X212496405Y-106108674D01*
X212516003Y-106051748D01*
X212519267Y-106041825D01*
X212566224Y-105891915D01*
X212602468Y-105761707D01*
X212628659Y-105648187D01*
X212645452Y-105548342D01*
X212653507Y-105459161D01*
X212654451Y-105422700D01*
X212653377Y-105350122D01*
X212648694Y-105295564D01*
X212639535Y-105251793D01*
X212630826Y-105225850D01*
X212615847Y-105188653D01*
X212603701Y-105161841D01*
X212599076Y-105153905D01*
X212585144Y-105155099D01*
G36*
X209601586Y-105867971D02*
G01*
X209577951Y-105887893D01*
X209558355Y-105923085D01*
X209542492Y-105974938D01*
X209530060Y-106044844D01*
X209520753Y-106134196D01*
X209514267Y-106244387D01*
X209510299Y-106376807D01*
X209508544Y-106532850D01*
X209508422Y-106572050D01*
X209509094Y-106715255D01*
X209511715Y-106833658D01*
X209516327Y-106927780D01*
X209522975Y-106998149D01*
X209531702Y-107045287D01*
X209542551Y-107069720D01*
X209550123Y-107073700D01*
X209558226Y-107062405D01*
X209565588Y-107033996D01*
X209567720Y-107019725D01*
X209570155Y-106989849D01*
X209572912Y-106939731D01*
X209575765Y-106874520D01*
X209578487Y-106799368D01*
X209580719Y-106724450D01*
X209586234Y-106584377D01*
X209595274Y-106463278D01*
X209608687Y-106354868D01*
X209627322Y-106252863D01*
X209652027Y-106150978D01*
X209663892Y-106108526D01*
X209679949Y-106048683D01*
X209692724Y-105992975D01*
X209700625Y-105948844D01*
X209702400Y-105928794D01*
X209699395Y-105896330D01*
X209685846Y-105878773D01*
X209662187Y-105868366D01*
X209629563Y-105861926D01*
X209601586Y-105867971D01*
G37*
X209601586Y-105867971D02*
X209577951Y-105887893D01*
X209558355Y-105923085D01*
X209542492Y-105974938D01*
X209530060Y-106044844D01*
X209520753Y-106134196D01*
X209514267Y-106244387D01*
X209510299Y-106376807D01*
X209508544Y-106532850D01*
X209508422Y-106572050D01*
X209509094Y-106715255D01*
X209511715Y-106833658D01*
X209516327Y-106927780D01*
X209522975Y-106998149D01*
X209531702Y-107045287D01*
X209542551Y-107069720D01*
X209550123Y-107073700D01*
X209558226Y-107062405D01*
X209565588Y-107033996D01*
X209567720Y-107019725D01*
X209570155Y-106989849D01*
X209572912Y-106939731D01*
X209575765Y-106874520D01*
X209578487Y-106799368D01*
X209580719Y-106724450D01*
X209586234Y-106584377D01*
X209595274Y-106463278D01*
X209608687Y-106354868D01*
X209627322Y-106252863D01*
X209652027Y-106150978D01*
X209663892Y-106108526D01*
X209679949Y-106048683D01*
X209692724Y-105992975D01*
X209700625Y-105948844D01*
X209702400Y-105928794D01*
X209699395Y-105896330D01*
X209685846Y-105878773D01*
X209662187Y-105868366D01*
X209629563Y-105861926D01*
X209601586Y-105867971D01*
G36*
X215799737Y-107534459D02*
G01*
X215722471Y-107548479D01*
X215715344Y-107550265D01*
X215635526Y-107579280D01*
X215570351Y-107620474D01*
X215524395Y-107670781D01*
X215517139Y-107683101D01*
X215501571Y-107726984D01*
X215494538Y-107778025D01*
X215496433Y-107826443D01*
X215507649Y-107862455D01*
X215509792Y-107865689D01*
X215519492Y-107875793D01*
X215532366Y-107878195D01*
X215553770Y-107871627D01*
X215589058Y-107854826D01*
X215617222Y-107840297D01*
X215667087Y-107812596D01*
X215728640Y-107775884D01*
X215792751Y-107735703D01*
X215832805Y-107709456D01*
X215887966Y-107671550D01*
X215924622Y-107643581D01*
X215946093Y-107622488D01*
X215955698Y-107605210D01*
X215957150Y-107594775D01*
X215945959Y-107563233D01*
X215914188Y-107542334D01*
X215864545Y-107532577D01*
X215799737Y-107534459D01*
G37*
X215799737Y-107534459D02*
X215722471Y-107548479D01*
X215715344Y-107550265D01*
X215635526Y-107579280D01*
X215570351Y-107620474D01*
X215524395Y-107670781D01*
X215517139Y-107683101D01*
X215501571Y-107726984D01*
X215494538Y-107778025D01*
X215496433Y-107826443D01*
X215507649Y-107862455D01*
X215509792Y-107865689D01*
X215519492Y-107875793D01*
X215532366Y-107878195D01*
X215553770Y-107871627D01*
X215589058Y-107854826D01*
X215617222Y-107840297D01*
X215667087Y-107812596D01*
X215728640Y-107775884D01*
X215792751Y-107735703D01*
X215832805Y-107709456D01*
X215887966Y-107671550D01*
X215924622Y-107643581D01*
X215946093Y-107622488D01*
X215955698Y-107605210D01*
X215957150Y-107594775D01*
X215945959Y-107563233D01*
X215914188Y-107542334D01*
X215864545Y-107532577D01*
X215799737Y-107534459D01*
G36*
X216481837Y-107382233D02*
G01*
X216407093Y-107385406D01*
X216328172Y-107389975D01*
X216249436Y-107395604D01*
X216175247Y-107401959D01*
X216109967Y-107408705D01*
X216057957Y-107415507D01*
X216023580Y-107422030D01*
X216011827Y-107426693D01*
X216015210Y-107438272D01*
X216042360Y-107455081D01*
X216092276Y-107476733D01*
X216163955Y-107502842D01*
X216256393Y-107533023D01*
X216368587Y-107566890D01*
X216399860Y-107575960D01*
X216524245Y-107613402D01*
X216628411Y-107648810D01*
X216717185Y-107684359D01*
X216795397Y-107722226D01*
X216867875Y-107764586D01*
X216939448Y-107813615D01*
X216958423Y-107827662D01*
X217015620Y-107869388D01*
X217056595Y-107895869D01*
X217084427Y-107908373D01*
X217102196Y-107908165D01*
X217112982Y-107896514D01*
X217114922Y-107892031D01*
X217119513Y-107860121D01*
X217117770Y-107812387D01*
X217110798Y-107757290D01*
X217099701Y-107703291D01*
X217085585Y-107658851D01*
X217083996Y-107655137D01*
X217037993Y-107582031D01*
X216967349Y-107514970D01*
X216872101Y-107453987D01*
X216843988Y-107439467D01*
X216794519Y-107415664D01*
X216755805Y-107400063D01*
X216719345Y-107390630D01*
X216676636Y-107385331D01*
X216619178Y-107382132D01*
X216601347Y-107381416D01*
X216548042Y-107380792D01*
X216481837Y-107382233D01*
G37*
X216481837Y-107382233D02*
X216407093Y-107385406D01*
X216328172Y-107389975D01*
X216249436Y-107395604D01*
X216175247Y-107401959D01*
X216109967Y-107408705D01*
X216057957Y-107415507D01*
X216023580Y-107422030D01*
X216011827Y-107426693D01*
X216015210Y-107438272D01*
X216042360Y-107455081D01*
X216092276Y-107476733D01*
X216163955Y-107502842D01*
X216256393Y-107533023D01*
X216368587Y-107566890D01*
X216399860Y-107575960D01*
X216524245Y-107613402D01*
X216628411Y-107648810D01*
X216717185Y-107684359D01*
X216795397Y-107722226D01*
X216867875Y-107764586D01*
X216939448Y-107813615D01*
X216958423Y-107827662D01*
X217015620Y-107869388D01*
X217056595Y-107895869D01*
X217084427Y-107908373D01*
X217102196Y-107908165D01*
X217112982Y-107896514D01*
X217114922Y-107892031D01*
X217119513Y-107860121D01*
X217117770Y-107812387D01*
X217110798Y-107757290D01*
X217099701Y-107703291D01*
X217085585Y-107658851D01*
X217083996Y-107655137D01*
X217037993Y-107582031D01*
X216967349Y-107514970D01*
X216872101Y-107453987D01*
X216843988Y-107439467D01*
X216794519Y-107415664D01*
X216755805Y-107400063D01*
X216719345Y-107390630D01*
X216676636Y-107385331D01*
X216619178Y-107382132D01*
X216601347Y-107381416D01*
X216548042Y-107380792D01*
X216481837Y-107382233D01*
G36*
X211616092Y-107842018D02*
G01*
X211610891Y-107863323D01*
X211608153Y-107903136D01*
X211607400Y-107960821D01*
X211608931Y-108029494D01*
X211615731Y-108081583D01*
X211631113Y-108121919D01*
X211658388Y-108155332D01*
X211700870Y-108186654D01*
X211761871Y-108220715D01*
X211798318Y-108239263D01*
X211856085Y-108266874D01*
X211910390Y-108290418D01*
X211954573Y-108307144D01*
X211979172Y-108313943D01*
X212009684Y-108317167D01*
X212027146Y-108310079D01*
X212040730Y-108287054D01*
X212047047Y-108272329D01*
X212060258Y-108218769D01*
X212062068Y-108154910D01*
X212053922Y-108087029D01*
X212037263Y-108021402D01*
X212013535Y-107964303D01*
X211984184Y-107922010D01*
X211962597Y-107905341D01*
X211938899Y-107897162D01*
X211896645Y-107886188D01*
X211842340Y-107873759D01*
X211782490Y-107861212D01*
X211723598Y-107849887D01*
X211672172Y-107841124D01*
X211634715Y-107836259D01*
X211624229Y-107835700D01*
X211616092Y-107842018D01*
G37*
X211616092Y-107842018D02*
X211610891Y-107863323D01*
X211608153Y-107903136D01*
X211607400Y-107960821D01*
X211608931Y-108029494D01*
X211615731Y-108081583D01*
X211631113Y-108121919D01*
X211658388Y-108155332D01*
X211700870Y-108186654D01*
X211761871Y-108220715D01*
X211798318Y-108239263D01*
X211856085Y-108266874D01*
X211910390Y-108290418D01*
X211954573Y-108307144D01*
X211979172Y-108313943D01*
X212009684Y-108317167D01*
X212027146Y-108310079D01*
X212040730Y-108287054D01*
X212047047Y-108272329D01*
X212060258Y-108218769D01*
X212062068Y-108154910D01*
X212053922Y-108087029D01*
X212037263Y-108021402D01*
X212013535Y-107964303D01*
X211984184Y-107922010D01*
X211962597Y-107905341D01*
X211938899Y-107897162D01*
X211896645Y-107886188D01*
X211842340Y-107873759D01*
X211782490Y-107861212D01*
X211723598Y-107849887D01*
X211672172Y-107841124D01*
X211634715Y-107836259D01*
X211624229Y-107835700D01*
X211616092Y-107842018D01*
G36*
X215271552Y-107676055D02*
G01*
X215222597Y-107699144D01*
X215168419Y-107733221D01*
X215113273Y-107775972D01*
X215067767Y-107818471D01*
X215031845Y-107854419D01*
X215002541Y-107882131D01*
X214984320Y-107897452D01*
X214980951Y-107899200D01*
X214974678Y-107888400D01*
X214972900Y-107870398D01*
X214963303Y-107834248D01*
X214938376Y-107792127D01*
X214903918Y-107752163D01*
X214868550Y-107724145D01*
X214816179Y-107697116D01*
X214774312Y-107687555D01*
X214736393Y-107694112D01*
X214731754Y-107695936D01*
X214700449Y-107716366D01*
X214680373Y-107748410D01*
X214671522Y-107794079D01*
X214673893Y-107855383D01*
X214687482Y-107934333D01*
X214712287Y-108032939D01*
X214731068Y-108097470D01*
X214761733Y-108197201D01*
X214786733Y-108274147D01*
X214806741Y-108330118D01*
X214822428Y-108366926D01*
X214834468Y-108386382D01*
X214839870Y-108390373D01*
X214855288Y-108385835D01*
X214887350Y-108370237D01*
X214931230Y-108346092D01*
X214977492Y-108318733D01*
X215083698Y-108251867D01*
X215178022Y-108188246D01*
X215258267Y-108129552D01*
X215322237Y-108077461D01*
X215367733Y-108033655D01*
X215391132Y-108002586D01*
X215405683Y-107955628D01*
X215409207Y-107895371D01*
X215402954Y-107829404D01*
X215388170Y-107765318D01*
X215366106Y-107710701D01*
X215338008Y-107673145D01*
X215336772Y-107672101D01*
X215311028Y-107666269D01*
X215271552Y-107676055D01*
G37*
X215271552Y-107676055D02*
X215222597Y-107699144D01*
X215168419Y-107733221D01*
X215113273Y-107775972D01*
X215067767Y-107818471D01*
X215031845Y-107854419D01*
X215002541Y-107882131D01*
X214984320Y-107897452D01*
X214980951Y-107899200D01*
X214974678Y-107888400D01*
X214972900Y-107870398D01*
X214963303Y-107834248D01*
X214938376Y-107792127D01*
X214903918Y-107752163D01*
X214868550Y-107724145D01*
X214816179Y-107697116D01*
X214774312Y-107687555D01*
X214736393Y-107694112D01*
X214731754Y-107695936D01*
X214700449Y-107716366D01*
X214680373Y-107748410D01*
X214671522Y-107794079D01*
X214673893Y-107855383D01*
X214687482Y-107934333D01*
X214712287Y-108032939D01*
X214731068Y-108097470D01*
X214761733Y-108197201D01*
X214786733Y-108274147D01*
X214806741Y-108330118D01*
X214822428Y-108366926D01*
X214834468Y-108386382D01*
X214839870Y-108390373D01*
X214855288Y-108385835D01*
X214887350Y-108370237D01*
X214931230Y-108346092D01*
X214977492Y-108318733D01*
X215083698Y-108251867D01*
X215178022Y-108188246D01*
X215258267Y-108129552D01*
X215322237Y-108077461D01*
X215367733Y-108033655D01*
X215391132Y-108002586D01*
X215405683Y-107955628D01*
X215409207Y-107895371D01*
X215402954Y-107829404D01*
X215388170Y-107765318D01*
X215366106Y-107710701D01*
X215338008Y-107673145D01*
X215336772Y-107672101D01*
X215311028Y-107666269D01*
X215271552Y-107676055D01*
G36*
X212222406Y-108018728D02*
G01*
X212199764Y-108029762D01*
X212183882Y-108050290D01*
X212180124Y-108057649D01*
X212170729Y-108090104D01*
X212163214Y-108139681D01*
X212157984Y-108198724D01*
X212155443Y-108259574D01*
X212156000Y-108314570D01*
X212160059Y-108356056D01*
X212163596Y-108369514D01*
X212186812Y-108399573D01*
X212231155Y-108430548D01*
X212292537Y-108460267D01*
X212366874Y-108486557D01*
X212402236Y-108496377D01*
X212473108Y-108512735D01*
X212524368Y-108519943D01*
X212560045Y-108518137D01*
X212584168Y-108507449D01*
X212589651Y-108502634D01*
X212608614Y-108470063D01*
X212622716Y-108419278D01*
X212631347Y-108357111D01*
X212633897Y-108290391D01*
X212629755Y-108225947D01*
X212619104Y-108173181D01*
X212601849Y-108138321D01*
X212571081Y-108108901D01*
X212523783Y-108083254D01*
X212456937Y-108059718D01*
X212374460Y-108038235D01*
X212305397Y-108023400D01*
X212256165Y-108016752D01*
X212222406Y-108018728D01*
G37*
X212222406Y-108018728D02*
X212199764Y-108029762D01*
X212183882Y-108050290D01*
X212180124Y-108057649D01*
X212170729Y-108090104D01*
X212163214Y-108139681D01*
X212157984Y-108198724D01*
X212155443Y-108259574D01*
X212156000Y-108314570D01*
X212160059Y-108356056D01*
X212163596Y-108369514D01*
X212186812Y-108399573D01*
X212231155Y-108430548D01*
X212292537Y-108460267D01*
X212366874Y-108486557D01*
X212402236Y-108496377D01*
X212473108Y-108512735D01*
X212524368Y-108519943D01*
X212560045Y-108518137D01*
X212584168Y-108507449D01*
X212589651Y-108502634D01*
X212608614Y-108470063D01*
X212622716Y-108419278D01*
X212631347Y-108357111D01*
X212633897Y-108290391D01*
X212629755Y-108225947D01*
X212619104Y-108173181D01*
X212601849Y-108138321D01*
X212571081Y-108108901D01*
X212523783Y-108083254D01*
X212456937Y-108059718D01*
X212374460Y-108038235D01*
X212305397Y-108023400D01*
X212256165Y-108016752D01*
X212222406Y-108018728D01*
G36*
X210207713Y-107860432D02*
G01*
X210124186Y-107897644D01*
X210044064Y-107953205D01*
X209970878Y-108023724D01*
X209908163Y-108105808D01*
X209859453Y-108196064D01*
X209828800Y-108288777D01*
X209819913Y-108369893D01*
X209833079Y-108439887D01*
X209868804Y-108501090D01*
X209877086Y-108510708D01*
X209940595Y-108566926D01*
X210009582Y-108599359D01*
X210087283Y-108609056D01*
X210156453Y-108601433D01*
X210184933Y-108589122D01*
X210198836Y-108563823D01*
X210199085Y-108522148D01*
X210190522Y-108476629D01*
X210174476Y-108388788D01*
X210173215Y-108317230D01*
X210188086Y-108256680D01*
X210220437Y-108201867D01*
X210271615Y-108147519D01*
X210275516Y-108143975D01*
X210330593Y-108080438D01*
X210364545Y-108009836D01*
X210375222Y-107942902D01*
X210369187Y-107890903D01*
X210349233Y-107859158D01*
X210313603Y-107845622D01*
X210291109Y-107844962D01*
X210207713Y-107860432D01*
G37*
X210207713Y-107860432D02*
X210124186Y-107897644D01*
X210044064Y-107953205D01*
X209970878Y-108023724D01*
X209908163Y-108105808D01*
X209859453Y-108196064D01*
X209828800Y-108288777D01*
X209819913Y-108369893D01*
X209833079Y-108439887D01*
X209868804Y-108501090D01*
X209877086Y-108510708D01*
X209940595Y-108566926D01*
X210009582Y-108599359D01*
X210087283Y-108609056D01*
X210156453Y-108601433D01*
X210184933Y-108589122D01*
X210198836Y-108563823D01*
X210199085Y-108522148D01*
X210190522Y-108476629D01*
X210174476Y-108388788D01*
X210173215Y-108317230D01*
X210188086Y-108256680D01*
X210220437Y-108201867D01*
X210271615Y-108147519D01*
X210275516Y-108143975D01*
X210330593Y-108080438D01*
X210364545Y-108009836D01*
X210375222Y-107942902D01*
X210369187Y-107890903D01*
X210349233Y-107859158D01*
X210313603Y-107845622D01*
X210291109Y-107844962D01*
X210207713Y-107860432D01*
G36*
X212838362Y-108229020D02*
G01*
X212798999Y-108241079D01*
X212775901Y-108267153D01*
X212765242Y-108311079D01*
X212763100Y-108362278D01*
X212773026Y-108439479D01*
X212803069Y-108502510D01*
X212853626Y-108551678D01*
X212925097Y-108587291D01*
X213017878Y-108609657D01*
X213093300Y-108617453D01*
X213143917Y-108618656D01*
X213187784Y-108616447D01*
X213215991Y-108611307D01*
X213217310Y-108610781D01*
X213247588Y-108584904D01*
X213265544Y-108542610D01*
X213270356Y-108490133D01*
X213261205Y-108433704D01*
X213245782Y-108394660D01*
X213204022Y-108339154D01*
X213142074Y-108292576D01*
X213064203Y-108256979D01*
X212974673Y-108234417D01*
X212897814Y-108227139D01*
X212838362Y-108229020D01*
G37*
X212838362Y-108229020D02*
X212798999Y-108241079D01*
X212775901Y-108267153D01*
X212765242Y-108311079D01*
X212763100Y-108362278D01*
X212773026Y-108439479D01*
X212803069Y-108502510D01*
X212853626Y-108551678D01*
X212925097Y-108587291D01*
X213017878Y-108609657D01*
X213093300Y-108617453D01*
X213143917Y-108618656D01*
X213187784Y-108616447D01*
X213215991Y-108611307D01*
X213217310Y-108610781D01*
X213247588Y-108584904D01*
X213265544Y-108542610D01*
X213270356Y-108490133D01*
X213261205Y-108433704D01*
X213245782Y-108394660D01*
X213204022Y-108339154D01*
X213142074Y-108292576D01*
X213064203Y-108256979D01*
X212974673Y-108234417D01*
X212897814Y-108227139D01*
X212838362Y-108229020D01*
G36*
X208618661Y-106904215D02*
G01*
X208582743Y-106913209D01*
X208579433Y-106914170D01*
X208520143Y-106936988D01*
X208452785Y-106971331D01*
X208387524Y-107011394D01*
X208334522Y-107051369D01*
X208326462Y-107058677D01*
X208289765Y-107102003D01*
X208260647Y-107152389D01*
X208244012Y-107200496D01*
X208241900Y-107219750D01*
X208247679Y-107251821D01*
X208262069Y-107291341D01*
X208267300Y-107302300D01*
X208285621Y-107355258D01*
X208292700Y-107412944D01*
X208290255Y-107451753D01*
X208283677Y-107506727D01*
X208274101Y-107569181D01*
X208267300Y-107607100D01*
X208256161Y-107675392D01*
X208247545Y-107746955D01*
X208242693Y-107810553D01*
X208242065Y-107835674D01*
X208243425Y-107882395D01*
X208248557Y-107923046D01*
X208259313Y-107965439D01*
X208277543Y-108017386D01*
X208296568Y-108065663D01*
X208341390Y-108169867D01*
X208384814Y-108254849D01*
X208430304Y-108326317D01*
X208481320Y-108389980D01*
X208514950Y-108425724D01*
X208606580Y-108501510D01*
X208715358Y-108562690D01*
X208835923Y-108606419D01*
X208873058Y-108615592D01*
X208949686Y-108628931D01*
X209022327Y-108635005D01*
X209085395Y-108633803D01*
X209133304Y-108625317D01*
X209153475Y-108616029D01*
X209175323Y-108591947D01*
X209181303Y-108560048D01*
X209170706Y-108518763D01*
X209142826Y-108466525D01*
X209096954Y-108401767D01*
X209032383Y-108322921D01*
X209009033Y-108296027D01*
X208947603Y-108224026D01*
X208901562Y-108164563D01*
X208867868Y-108112699D01*
X208843476Y-108063496D01*
X208825345Y-108012015D01*
X208818371Y-107986607D01*
X208809424Y-107945807D01*
X208805013Y-107906676D01*
X208805788Y-107865307D01*
X208812395Y-107817791D01*
X208825482Y-107760221D01*
X208845698Y-107688688D01*
X208873690Y-107599286D01*
X208891808Y-107543600D01*
X208919787Y-107456983D01*
X208940456Y-107388991D01*
X208955047Y-107334327D01*
X208964793Y-107287695D01*
X208970926Y-107243799D01*
X208974679Y-107197342D01*
X208975410Y-107184302D01*
X208978047Y-107126583D01*
X208978065Y-107088230D01*
X208974569Y-107063270D01*
X208966662Y-107045728D01*
X208953450Y-107029628D01*
X208951991Y-107028068D01*
X208912680Y-106996934D01*
X208852954Y-106966277D01*
X208770795Y-106935140D01*
X208727131Y-106921074D01*
X208680637Y-106907670D01*
X208647886Y-106902209D01*
X208618661Y-106904215D01*
G37*
X208618661Y-106904215D02*
X208582743Y-106913209D01*
X208579433Y-106914170D01*
X208520143Y-106936988D01*
X208452785Y-106971331D01*
X208387524Y-107011394D01*
X208334522Y-107051369D01*
X208326462Y-107058677D01*
X208289765Y-107102003D01*
X208260647Y-107152389D01*
X208244012Y-107200496D01*
X208241900Y-107219750D01*
X208247679Y-107251821D01*
X208262069Y-107291341D01*
X208267300Y-107302300D01*
X208285621Y-107355258D01*
X208292700Y-107412944D01*
X208290255Y-107451753D01*
X208283677Y-107506727D01*
X208274101Y-107569181D01*
X208267300Y-107607100D01*
X208256161Y-107675392D01*
X208247545Y-107746955D01*
X208242693Y-107810553D01*
X208242065Y-107835674D01*
X208243425Y-107882395D01*
X208248557Y-107923046D01*
X208259313Y-107965439D01*
X208277543Y-108017386D01*
X208296568Y-108065663D01*
X208341390Y-108169867D01*
X208384814Y-108254849D01*
X208430304Y-108326317D01*
X208481320Y-108389980D01*
X208514950Y-108425724D01*
X208606580Y-108501510D01*
X208715358Y-108562690D01*
X208835923Y-108606419D01*
X208873058Y-108615592D01*
X208949686Y-108628931D01*
X209022327Y-108635005D01*
X209085395Y-108633803D01*
X209133304Y-108625317D01*
X209153475Y-108616029D01*
X209175323Y-108591947D01*
X209181303Y-108560048D01*
X209170706Y-108518763D01*
X209142826Y-108466525D01*
X209096954Y-108401767D01*
X209032383Y-108322921D01*
X209009033Y-108296027D01*
X208947603Y-108224026D01*
X208901562Y-108164563D01*
X208867868Y-108112699D01*
X208843476Y-108063496D01*
X208825345Y-108012015D01*
X208818371Y-107986607D01*
X208809424Y-107945807D01*
X208805013Y-107906676D01*
X208805788Y-107865307D01*
X208812395Y-107817791D01*
X208825482Y-107760221D01*
X208845698Y-107688688D01*
X208873690Y-107599286D01*
X208891808Y-107543600D01*
X208919787Y-107456983D01*
X208940456Y-107388991D01*
X208955047Y-107334327D01*
X208964793Y-107287695D01*
X208970926Y-107243799D01*
X208974679Y-107197342D01*
X208975410Y-107184302D01*
X208978047Y-107126583D01*
X208978065Y-107088230D01*
X208974569Y-107063270D01*
X208966662Y-107045728D01*
X208953450Y-107029628D01*
X208951991Y-107028068D01*
X208912680Y-106996934D01*
X208852954Y-106966277D01*
X208770795Y-106935140D01*
X208727131Y-106921074D01*
X208680637Y-106907670D01*
X208647886Y-106902209D01*
X208618661Y-106904215D01*
G36*
X212720244Y-106677418D02*
G01*
X212671009Y-106707238D01*
X212608567Y-106756244D01*
X212549140Y-106809380D01*
X212500385Y-106851924D01*
X212463840Y-106874950D01*
X212435763Y-106878702D01*
X212412409Y-106863427D01*
X212390035Y-106829369D01*
X212385246Y-106820124D01*
X212364349Y-106782580D01*
X212344226Y-106752544D01*
X212336845Y-106743924D01*
X212319959Y-106731588D01*
X212306332Y-106739413D01*
X212299405Y-106748240D01*
X212287624Y-106784318D01*
X212289848Y-106811740D01*
X212298236Y-106858299D01*
X212297810Y-106885124D01*
X212285671Y-106897180D01*
X212258922Y-106899433D01*
X212239242Y-106898440D01*
X212201566Y-106897636D01*
X212180607Y-106903513D01*
X212167926Y-106919249D01*
X212164349Y-106926641D01*
X212157001Y-106952875D01*
X212160651Y-106983142D01*
X212171934Y-107016703D01*
X212198262Y-107066690D01*
X212235393Y-107099854D01*
X212289167Y-107120686D01*
X212314281Y-107126135D01*
X212363824Y-107142188D01*
X212400522Y-107167086D01*
X212401341Y-107167955D01*
X212428069Y-107190205D01*
X212468275Y-107216486D01*
X212504468Y-107236511D01*
X212584637Y-107282985D01*
X212676694Y-107347514D01*
X212781345Y-107430667D01*
X212899296Y-107533017D01*
X213031253Y-107655133D01*
X213079503Y-107701323D01*
X213185907Y-107805789D01*
X213272923Y-107895258D01*
X213341152Y-107970402D01*
X213391195Y-108031895D01*
X213423655Y-108080408D01*
X213430719Y-108093912D01*
X213449819Y-108128283D01*
X213480508Y-108177065D01*
X213518978Y-108234463D01*
X213561424Y-108294686D01*
X213574005Y-108311950D01*
X213623537Y-108380874D01*
X213676647Y-108457280D01*
X213727111Y-108532074D01*
X213768705Y-108596163D01*
X213770296Y-108598694D01*
X213828888Y-108688453D01*
X213880248Y-108758536D01*
X213927477Y-108812468D01*
X213973679Y-108853775D01*
X214021959Y-108885981D01*
X214024435Y-108887389D01*
X214067990Y-108916512D01*
X214106360Y-108953825D01*
X214146467Y-109006281D01*
X214154586Y-109018136D01*
X214212200Y-109093928D01*
X214285156Y-109175541D01*
X214368387Y-109258385D01*
X214456825Y-109337867D01*
X214545400Y-109409398D01*
X214629046Y-109468385D01*
X214692061Y-109505020D01*
X214726840Y-109521090D01*
X214778623Y-109543093D01*
X214840576Y-109568202D01*
X214905862Y-109593589D01*
X214909616Y-109595015D01*
X215012455Y-109635220D01*
X215094243Y-109670117D01*
X215158372Y-109701313D01*
X215208233Y-109730412D01*
X215234449Y-109748851D01*
X215264721Y-109768435D01*
X215293525Y-109776437D01*
X215327267Y-109772502D01*
X215372352Y-109756274D01*
X215410567Y-109739062D01*
X215458485Y-109718013D01*
X215494290Y-109707189D01*
X215528118Y-109704561D01*
X215567002Y-109707729D01*
X215611023Y-109716703D01*
X215668366Y-109733610D01*
X215729416Y-109755471D01*
X215755812Y-109766247D01*
X215838634Y-109798849D01*
X215904283Y-109817982D01*
X215956604Y-109824444D01*
X215999439Y-109819032D01*
X216003863Y-109817706D01*
X216035631Y-109803024D01*
X216073049Y-109779717D01*
X216083393Y-109772166D01*
X216118609Y-109750079D01*
X216156433Y-109739163D01*
X216201781Y-109735899D01*
X216274650Y-109734350D01*
X216278590Y-109672342D01*
X216278788Y-109630828D01*
X216270250Y-109602256D01*
X216249183Y-109574653D01*
X216246840Y-109572125D01*
X216207731Y-109540855D01*
X216144493Y-109504659D01*
X216057849Y-109463866D01*
X215948520Y-109418804D01*
X215817230Y-109369804D01*
X215753950Y-109347517D01*
X215570708Y-109279810D01*
X215410683Y-109211463D01*
X215271699Y-109141253D01*
X215151581Y-109067958D01*
X215048153Y-108990356D01*
X214959239Y-108907224D01*
X214947084Y-108894272D01*
X214906098Y-108846617D01*
X214869270Y-108795980D01*
X214835387Y-108739501D01*
X214803238Y-108674322D01*
X214771609Y-108597585D01*
X214739287Y-108506432D01*
X214705061Y-108398005D01*
X214667718Y-108269444D01*
X214640794Y-108172250D01*
X214586905Y-107980981D01*
X214535136Y-107810612D01*
X214483932Y-107656911D01*
X214431735Y-107515643D01*
X214376989Y-107382578D01*
X214318139Y-107253481D01*
X214259717Y-107135907D01*
X214227287Y-107075205D01*
X214194755Y-107018215D01*
X214165857Y-106971255D01*
X214144331Y-106940643D01*
X214143973Y-106940207D01*
X214102896Y-106903233D01*
X214043460Y-106866033D01*
X213972523Y-106831419D01*
X213896945Y-106802202D01*
X213823583Y-106781192D01*
X213759297Y-106771202D01*
X213731860Y-106771285D01*
X213700206Y-106776459D01*
X213682179Y-106790175D01*
X213668778Y-106819999D01*
X213666705Y-106826050D01*
X213658799Y-106860194D01*
X213654826Y-106906758D01*
X213654570Y-106970316D01*
X213656856Y-107035600D01*
X213665759Y-107159397D01*
X213680740Y-107263803D01*
X213702876Y-107354327D01*
X213733241Y-107436479D01*
X213736511Y-107443868D01*
X213759071Y-107505647D01*
X213770989Y-107563321D01*
X213772057Y-107580189D01*
X213771413Y-107615802D01*
X213765999Y-107632362D01*
X213752268Y-107636182D01*
X213741118Y-107635283D01*
X213715894Y-107628280D01*
X213675090Y-107612553D01*
X213625752Y-107590915D01*
X213602132Y-107579753D01*
X213543318Y-107548777D01*
X213493218Y-107515575D01*
X213443471Y-107473957D01*
X213392464Y-107424570D01*
X213354665Y-107385156D01*
X213320987Y-107346544D01*
X213288987Y-107305072D01*
X213256218Y-107257082D01*
X213220239Y-107198912D01*
X213178604Y-107126904D01*
X213128870Y-107037396D01*
X213106000Y-106995579D01*
X213058452Y-106918726D01*
X213003303Y-106846557D01*
X212944047Y-106782341D01*
X212884176Y-106729348D01*
X212827185Y-106690847D01*
X212776566Y-106670106D01*
X212755348Y-106667419D01*
X212720244Y-106677418D01*
G37*
X212720244Y-106677418D02*
X212671009Y-106707238D01*
X212608567Y-106756244D01*
X212549140Y-106809380D01*
X212500385Y-106851924D01*
X212463840Y-106874950D01*
X212435763Y-106878702D01*
X212412409Y-106863427D01*
X212390035Y-106829369D01*
X212385246Y-106820124D01*
X212364349Y-106782580D01*
X212344226Y-106752544D01*
X212336845Y-106743924D01*
X212319959Y-106731588D01*
X212306332Y-106739413D01*
X212299405Y-106748240D01*
X212287624Y-106784318D01*
X212289848Y-106811740D01*
X212298236Y-106858299D01*
X212297810Y-106885124D01*
X212285671Y-106897180D01*
X212258922Y-106899433D01*
X212239242Y-106898440D01*
X212201566Y-106897636D01*
X212180607Y-106903513D01*
X212167926Y-106919249D01*
X212164349Y-106926641D01*
X212157001Y-106952875D01*
X212160651Y-106983142D01*
X212171934Y-107016703D01*
X212198262Y-107066690D01*
X212235393Y-107099854D01*
X212289167Y-107120686D01*
X212314281Y-107126135D01*
X212363824Y-107142188D01*
X212400522Y-107167086D01*
X212401341Y-107167955D01*
X212428069Y-107190205D01*
X212468275Y-107216486D01*
X212504468Y-107236511D01*
X212584637Y-107282985D01*
X212676694Y-107347514D01*
X212781345Y-107430667D01*
X212899296Y-107533017D01*
X213031253Y-107655133D01*
X213079503Y-107701323D01*
X213185907Y-107805789D01*
X213272923Y-107895258D01*
X213341152Y-107970402D01*
X213391195Y-108031895D01*
X213423655Y-108080408D01*
X213430719Y-108093912D01*
X213449819Y-108128283D01*
X213480508Y-108177065D01*
X213518978Y-108234463D01*
X213561424Y-108294686D01*
X213574005Y-108311950D01*
X213623537Y-108380874D01*
X213676647Y-108457280D01*
X213727111Y-108532074D01*
X213768705Y-108596163D01*
X213770296Y-108598694D01*
X213828888Y-108688453D01*
X213880248Y-108758536D01*
X213927477Y-108812468D01*
X213973679Y-108853775D01*
X214021959Y-108885981D01*
X214024435Y-108887389D01*
X214067990Y-108916512D01*
X214106360Y-108953825D01*
X214146467Y-109006281D01*
X214154586Y-109018136D01*
X214212200Y-109093928D01*
X214285156Y-109175541D01*
X214368387Y-109258385D01*
X214456825Y-109337867D01*
X214545400Y-109409398D01*
X214629046Y-109468385D01*
X214692061Y-109505020D01*
X214726840Y-109521090D01*
X214778623Y-109543093D01*
X214840576Y-109568202D01*
X214905862Y-109593589D01*
X214909616Y-109595015D01*
X215012455Y-109635220D01*
X215094243Y-109670117D01*
X215158372Y-109701313D01*
X215208233Y-109730412D01*
X215234449Y-109748851D01*
X215264721Y-109768435D01*
X215293525Y-109776437D01*
X215327267Y-109772502D01*
X215372352Y-109756274D01*
X215410567Y-109739062D01*
X215458485Y-109718013D01*
X215494290Y-109707189D01*
X215528118Y-109704561D01*
X215567002Y-109707729D01*
X215611023Y-109716703D01*
X215668366Y-109733610D01*
X215729416Y-109755471D01*
X215755812Y-109766247D01*
X215838634Y-109798849D01*
X215904283Y-109817982D01*
X215956604Y-109824444D01*
X215999439Y-109819032D01*
X216003863Y-109817706D01*
X216035631Y-109803024D01*
X216073049Y-109779717D01*
X216083393Y-109772166D01*
X216118609Y-109750079D01*
X216156433Y-109739163D01*
X216201781Y-109735899D01*
X216274650Y-109734350D01*
X216278590Y-109672342D01*
X216278788Y-109630828D01*
X216270250Y-109602256D01*
X216249183Y-109574653D01*
X216246840Y-109572125D01*
X216207731Y-109540855D01*
X216144493Y-109504659D01*
X216057849Y-109463866D01*
X215948520Y-109418804D01*
X215817230Y-109369804D01*
X215753950Y-109347517D01*
X215570708Y-109279810D01*
X215410683Y-109211463D01*
X215271699Y-109141253D01*
X215151581Y-109067958D01*
X215048153Y-108990356D01*
X214959239Y-108907224D01*
X214947084Y-108894272D01*
X214906098Y-108846617D01*
X214869270Y-108795980D01*
X214835387Y-108739501D01*
X214803238Y-108674322D01*
X214771609Y-108597585D01*
X214739287Y-108506432D01*
X214705061Y-108398005D01*
X214667718Y-108269444D01*
X214640794Y-108172250D01*
X214586905Y-107980981D01*
X214535136Y-107810612D01*
X214483932Y-107656911D01*
X214431735Y-107515643D01*
X214376989Y-107382578D01*
X214318139Y-107253481D01*
X214259717Y-107135907D01*
X214227287Y-107075205D01*
X214194755Y-107018215D01*
X214165857Y-106971255D01*
X214144331Y-106940643D01*
X214143973Y-106940207D01*
X214102896Y-106903233D01*
X214043460Y-106866033D01*
X213972523Y-106831419D01*
X213896945Y-106802202D01*
X213823583Y-106781192D01*
X213759297Y-106771202D01*
X213731860Y-106771285D01*
X213700206Y-106776459D01*
X213682179Y-106790175D01*
X213668778Y-106819999D01*
X213666705Y-106826050D01*
X213658799Y-106860194D01*
X213654826Y-106906758D01*
X213654570Y-106970316D01*
X213656856Y-107035600D01*
X213665759Y-107159397D01*
X213680740Y-107263803D01*
X213702876Y-107354327D01*
X213733241Y-107436479D01*
X213736511Y-107443868D01*
X213759071Y-107505647D01*
X213770989Y-107563321D01*
X213772057Y-107580189D01*
X213771413Y-107615802D01*
X213765999Y-107632362D01*
X213752268Y-107636182D01*
X213741118Y-107635283D01*
X213715894Y-107628280D01*
X213675090Y-107612553D01*
X213625752Y-107590915D01*
X213602132Y-107579753D01*
X213543318Y-107548777D01*
X213493218Y-107515575D01*
X213443471Y-107473957D01*
X213392464Y-107424570D01*
X213354665Y-107385156D01*
X213320987Y-107346544D01*
X213288987Y-107305072D01*
X213256218Y-107257082D01*
X213220239Y-107198912D01*
X213178604Y-107126904D01*
X213128870Y-107037396D01*
X213106000Y-106995579D01*
X213058452Y-106918726D01*
X213003303Y-106846557D01*
X212944047Y-106782341D01*
X212884176Y-106729348D01*
X212827185Y-106690847D01*
X212776566Y-106670106D01*
X212755348Y-106667419D01*
X212720244Y-106677418D01*
G36*
X210512587Y-109674733D02*
G01*
X210502061Y-109700291D01*
X210501014Y-109739794D01*
X210508859Y-109783863D01*
X210521485Y-109816773D01*
X210545072Y-109846737D01*
X210572677Y-109855000D01*
X210595065Y-109850893D01*
X210603320Y-109833469D01*
X210604100Y-109816492D01*
X210598640Y-109772945D01*
X210584426Y-109731415D01*
X210564709Y-109696936D01*
X210542741Y-109674545D01*
X210521772Y-109669279D01*
X210512587Y-109674733D01*
G37*
X210512587Y-109674733D02*
X210502061Y-109700291D01*
X210501014Y-109739794D01*
X210508859Y-109783863D01*
X210521485Y-109816773D01*
X210545072Y-109846737D01*
X210572677Y-109855000D01*
X210595065Y-109850893D01*
X210603320Y-109833469D01*
X210604100Y-109816492D01*
X210598640Y-109772945D01*
X210584426Y-109731415D01*
X210564709Y-109696936D01*
X210542741Y-109674545D01*
X210521772Y-109669279D01*
X210512587Y-109674733D01*
G36*
X211006578Y-108963551D02*
G01*
X210961187Y-108990487D01*
X210916638Y-109028378D01*
X210879327Y-109071495D01*
X210855651Y-109114109D01*
X210851816Y-109127604D01*
X210843200Y-109153781D01*
X210825627Y-109195667D01*
X210802029Y-109246523D01*
X210785733Y-109279458D01*
X210726579Y-109396066D01*
X210772573Y-109446976D01*
X210800591Y-109483607D01*
X210823609Y-109527774D01*
X210843211Y-109583982D01*
X210860979Y-109656734D01*
X210877769Y-109746254D01*
X210893399Y-109820127D01*
X210912824Y-109884535D01*
X210934348Y-109935336D01*
X210956273Y-109968383D01*
X210973182Y-109979295D01*
X210996273Y-109973492D01*
X211014351Y-109959362D01*
X211026220Y-109941649D01*
X211036482Y-109915065D01*
X211045521Y-109877011D01*
X211053719Y-109824887D01*
X211061460Y-109756095D01*
X211069126Y-109668034D01*
X211077101Y-109558106D01*
X211080068Y-109513508D01*
X211088636Y-109379419D01*
X211095131Y-109268483D01*
X211099423Y-109178528D01*
X211101381Y-109107380D01*
X211100874Y-109052868D01*
X211097773Y-109012818D01*
X211091946Y-108985057D01*
X211083264Y-108967414D01*
X211071595Y-108957716D01*
X211056809Y-108953789D01*
X211046415Y-108953300D01*
X211006578Y-108963551D01*
G37*
X211006578Y-108963551D02*
X210961187Y-108990487D01*
X210916638Y-109028378D01*
X210879327Y-109071495D01*
X210855651Y-109114109D01*
X210851816Y-109127604D01*
X210843200Y-109153781D01*
X210825627Y-109195667D01*
X210802029Y-109246523D01*
X210785733Y-109279458D01*
X210726579Y-109396066D01*
X210772573Y-109446976D01*
X210800591Y-109483607D01*
X210823609Y-109527774D01*
X210843211Y-109583982D01*
X210860979Y-109656734D01*
X210877769Y-109746254D01*
X210893399Y-109820127D01*
X210912824Y-109884535D01*
X210934348Y-109935336D01*
X210956273Y-109968383D01*
X210973182Y-109979295D01*
X210996273Y-109973492D01*
X211014351Y-109959362D01*
X211026220Y-109941649D01*
X211036482Y-109915065D01*
X211045521Y-109877011D01*
X211053719Y-109824887D01*
X211061460Y-109756095D01*
X211069126Y-109668034D01*
X211077101Y-109558106D01*
X211080068Y-109513508D01*
X211088636Y-109379419D01*
X211095131Y-109268483D01*
X211099423Y-109178528D01*
X211101381Y-109107380D01*
X211100874Y-109052868D01*
X211097773Y-109012818D01*
X211091946Y-108985057D01*
X211083264Y-108967414D01*
X211071595Y-108957716D01*
X211056809Y-108953789D01*
X211046415Y-108953300D01*
X211006578Y-108963551D01*
G36*
X212225064Y-108626592D02*
G01*
X212236834Y-108657483D01*
X212255621Y-108701164D01*
X212272767Y-108738592D01*
X212334186Y-108896717D01*
X212377161Y-109066996D01*
X212400850Y-109243267D01*
X212404409Y-109419369D01*
X212388204Y-109581950D01*
X212373367Y-109685650D01*
X212363957Y-109781869D01*
X212360146Y-109866436D01*
X212362108Y-109935185D01*
X212370015Y-109983946D01*
X212371345Y-109988176D01*
X212389857Y-110026815D01*
X212409998Y-110042141D01*
X212429466Y-110033602D01*
X212444320Y-110005613D01*
X212450260Y-109978449D01*
X212456870Y-109931640D01*
X212463484Y-109870906D01*
X212469432Y-109801967D01*
X212471487Y-109773189D01*
X212480509Y-109639978D01*
X212488270Y-109529468D01*
X212495040Y-109439004D01*
X212501089Y-109365934D01*
X212506686Y-109307603D01*
X212512100Y-109261358D01*
X212517603Y-109224546D01*
X212523463Y-109194513D01*
X212529949Y-109168605D01*
X212534520Y-109153076D01*
X212565122Y-109074866D01*
X212606405Y-109009402D01*
X212662244Y-108952536D01*
X212736511Y-108900123D01*
X212807550Y-108860771D01*
X212848100Y-108838940D01*
X212882670Y-108818428D01*
X212896450Y-108809091D01*
X212911453Y-108795965D01*
X212909555Y-108786757D01*
X212887830Y-108775654D01*
X212877400Y-108771249D01*
X212850878Y-108762839D01*
X212804287Y-108750815D01*
X212742509Y-108736324D01*
X212670424Y-108720514D01*
X212598000Y-108705551D01*
X212518564Y-108688999D01*
X212442861Y-108672076D01*
X212376365Y-108656092D01*
X212324550Y-108642357D01*
X212295499Y-108633189D01*
X212257941Y-108620380D01*
X212231074Y-108613538D01*
X212222340Y-108613526D01*
X212225064Y-108626592D01*
G37*
X212225064Y-108626592D02*
X212236834Y-108657483D01*
X212255621Y-108701164D01*
X212272767Y-108738592D01*
X212334186Y-108896717D01*
X212377161Y-109066996D01*
X212400850Y-109243267D01*
X212404409Y-109419369D01*
X212388204Y-109581950D01*
X212373367Y-109685650D01*
X212363957Y-109781869D01*
X212360146Y-109866436D01*
X212362108Y-109935185D01*
X212370015Y-109983946D01*
X212371345Y-109988176D01*
X212389857Y-110026815D01*
X212409998Y-110042141D01*
X212429466Y-110033602D01*
X212444320Y-110005613D01*
X212450260Y-109978449D01*
X212456870Y-109931640D01*
X212463484Y-109870906D01*
X212469432Y-109801967D01*
X212471487Y-109773189D01*
X212480509Y-109639978D01*
X212488270Y-109529468D01*
X212495040Y-109439004D01*
X212501089Y-109365934D01*
X212506686Y-109307603D01*
X212512100Y-109261358D01*
X212517603Y-109224546D01*
X212523463Y-109194513D01*
X212529949Y-109168605D01*
X212534520Y-109153076D01*
X212565122Y-109074866D01*
X212606405Y-109009402D01*
X212662244Y-108952536D01*
X212736511Y-108900123D01*
X212807550Y-108860771D01*
X212848100Y-108838940D01*
X212882670Y-108818428D01*
X212896450Y-108809091D01*
X212911453Y-108795965D01*
X212909555Y-108786757D01*
X212887830Y-108775654D01*
X212877400Y-108771249D01*
X212850878Y-108762839D01*
X212804287Y-108750815D01*
X212742509Y-108736324D01*
X212670424Y-108720514D01*
X212598000Y-108705551D01*
X212518564Y-108688999D01*
X212442861Y-108672076D01*
X212376365Y-108656092D01*
X212324550Y-108642357D01*
X212295499Y-108633189D01*
X212257941Y-108620380D01*
X212231074Y-108613538D01*
X212222340Y-108613526D01*
X212225064Y-108626592D01*
G36*
X216050351Y-107861534D02*
G01*
X215961005Y-107886948D01*
X215861500Y-107927282D01*
X215749718Y-107983134D01*
X215623545Y-108055104D01*
X215483302Y-108142229D01*
X215358410Y-108223704D01*
X215250582Y-108297074D01*
X215160702Y-108361656D01*
X215089655Y-108416764D01*
X215038329Y-108461716D01*
X215007606Y-108495826D01*
X214998300Y-108517029D01*
X215009939Y-108534438D01*
X215041435Y-108554288D01*
X215087658Y-108574461D01*
X215143477Y-108592839D01*
X215203761Y-108607306D01*
X215226900Y-108611358D01*
X215313268Y-108619054D01*
X215410576Y-108618561D01*
X215507450Y-108610438D01*
X215592519Y-108595244D01*
X215601550Y-108592930D01*
X215644667Y-108578880D01*
X215699339Y-108557581D01*
X215754516Y-108533370D01*
X215760300Y-108530639D01*
X215821460Y-108505383D01*
X215893045Y-108481464D01*
X215960331Y-108463763D01*
X215965049Y-108462770D01*
X216018263Y-108452244D01*
X216053103Y-108447194D01*
X216075987Y-108447582D01*
X216093336Y-108453371D01*
X216107659Y-108461943D01*
X216130704Y-108480480D01*
X216149631Y-108505167D01*
X216166057Y-108540020D01*
X216181595Y-108589056D01*
X216197860Y-108656291D01*
X216211156Y-108719339D01*
X216241000Y-108843850D01*
X216276490Y-108948335D01*
X216319647Y-109037905D01*
X216364373Y-109106820D01*
X216400754Y-109162144D01*
X216420110Y-109210069D01*
X216424569Y-109259885D01*
X216416254Y-109320879D01*
X216414878Y-109327589D01*
X216408118Y-109378150D01*
X216404928Y-109443871D01*
X216404959Y-109519982D01*
X216407861Y-109601710D01*
X216413285Y-109684287D01*
X216420883Y-109762940D01*
X216430305Y-109832900D01*
X216441203Y-109889395D01*
X216453228Y-109927656D01*
X216459559Y-109938463D01*
X216466910Y-109957708D01*
X216475026Y-109995043D01*
X216482412Y-110043260D01*
X216483956Y-110056052D01*
X216500637Y-110147524D01*
X216529412Y-110222873D01*
X216573299Y-110289701D01*
X216579972Y-110297804D01*
X216610838Y-110326856D01*
X216640520Y-110335078D01*
X216674089Y-110322251D01*
X216712303Y-110292088D01*
X216759283Y-110237671D01*
X216801896Y-110166173D01*
X216835787Y-110085914D01*
X216853299Y-110022887D01*
X216863201Y-109940542D01*
X216861691Y-109850259D01*
X216850072Y-109756210D01*
X216829651Y-109662563D01*
X216801731Y-109573490D01*
X216767618Y-109493159D01*
X216728616Y-109425741D01*
X216686031Y-109375406D01*
X216641625Y-109346496D01*
X216613497Y-109325592D01*
X216582102Y-109286396D01*
X216550642Y-109235179D01*
X216522320Y-109178210D01*
X216500338Y-109121761D01*
X216487898Y-109072100D01*
X216486741Y-109043203D01*
X216490550Y-109010450D01*
X216615571Y-109014302D01*
X216678400Y-109015273D01*
X216721671Y-109013179D01*
X216751109Y-109007393D01*
X216772437Y-108997287D01*
X216772718Y-108997104D01*
X216798551Y-108985455D01*
X216825374Y-108986766D01*
X216857428Y-109002841D01*
X216898955Y-109035486D01*
X216930825Y-109064377D01*
X217017152Y-109155627D01*
X217096211Y-109262356D01*
X217168584Y-109383736D01*
X217223031Y-109478291D01*
X217272677Y-109553074D01*
X217316692Y-109607104D01*
X217354245Y-109639401D01*
X217384506Y-109648987D01*
X217391960Y-109647318D01*
X217415319Y-109626433D01*
X217435972Y-109586097D01*
X217451526Y-109532257D01*
X217458919Y-109480755D01*
X217460301Y-109395617D01*
X217453068Y-109291416D01*
X217437995Y-109172687D01*
X217415859Y-109043968D01*
X217388062Y-108912755D01*
X217037360Y-108912755D01*
X217033722Y-108948180D01*
X217020604Y-108975312D01*
X217013419Y-108981457D01*
X216985364Y-108985617D01*
X216950221Y-108972820D01*
X216923859Y-108953128D01*
X216907688Y-108923633D01*
X216911941Y-108891898D01*
X216932890Y-108863548D01*
X216966809Y-108844209D01*
X216999462Y-108839000D01*
X217019425Y-108849937D01*
X217032326Y-108877265D01*
X217037360Y-108912755D01*
X217388062Y-108912755D01*
X217387434Y-108909795D01*
X217353496Y-108774705D01*
X217316886Y-108649755D01*
X217295239Y-108579092D01*
X217275372Y-108510422D01*
X217259156Y-108450478D01*
X217248461Y-108405994D01*
X217246672Y-108397014D01*
X217233243Y-108342258D01*
X217212961Y-108300726D01*
X217181011Y-108266656D01*
X217132578Y-108234287D01*
X217092780Y-108212862D01*
X217028151Y-108185006D01*
X216964621Y-108166913D01*
X216907595Y-108159362D01*
X216862473Y-108163131D01*
X216837301Y-108176030D01*
X216831798Y-108188219D01*
X216827194Y-108214305D01*
X216823345Y-108256497D01*
X216820106Y-108317004D01*
X216817334Y-108398032D01*
X216814885Y-108501791D01*
X216814400Y-108526540D01*
X216812052Y-108634102D01*
X216809452Y-108718733D01*
X216806436Y-108782903D01*
X216802837Y-108829079D01*
X216798492Y-108859731D01*
X216793234Y-108877329D01*
X216790620Y-108881534D01*
X216765064Y-108897481D01*
X216731122Y-108902455D01*
X216699330Y-108896579D01*
X216680355Y-108880275D01*
X216677020Y-108861317D01*
X216673298Y-108821099D01*
X216669457Y-108763753D01*
X216665764Y-108693411D01*
X216662485Y-108614204D01*
X216661689Y-108591350D01*
X216656054Y-108463987D01*
X216647818Y-108358540D01*
X216636017Y-108271579D01*
X216619688Y-108199671D01*
X216597868Y-108139386D01*
X216569593Y-108087293D01*
X216533900Y-108039961D01*
X216495492Y-107999427D01*
X216449904Y-107961195D01*
X216394054Y-107922843D01*
X216348459Y-107897074D01*
X216278591Y-107868809D01*
X216207027Y-107853064D01*
X216131653Y-107850439D01*
X216050351Y-107861534D01*
G37*
X216050351Y-107861534D02*
X215961005Y-107886948D01*
X215861500Y-107927282D01*
X215749718Y-107983134D01*
X215623545Y-108055104D01*
X215483302Y-108142229D01*
X215358410Y-108223704D01*
X215250582Y-108297074D01*
X215160702Y-108361656D01*
X215089655Y-108416764D01*
X215038329Y-108461716D01*
X215007606Y-108495826D01*
X214998300Y-108517029D01*
X215009939Y-108534438D01*
X215041435Y-108554288D01*
X215087658Y-108574461D01*
X215143477Y-108592839D01*
X215203761Y-108607306D01*
X215226900Y-108611358D01*
X215313268Y-108619054D01*
X215410576Y-108618561D01*
X215507450Y-108610438D01*
X215592519Y-108595244D01*
X215601550Y-108592930D01*
X215644667Y-108578880D01*
X215699339Y-108557581D01*
X215754516Y-108533370D01*
X215760300Y-108530639D01*
X215821460Y-108505383D01*
X215893045Y-108481464D01*
X215960331Y-108463763D01*
X215965049Y-108462770D01*
X216018263Y-108452244D01*
X216053103Y-108447194D01*
X216075987Y-108447582D01*
X216093336Y-108453371D01*
X216107659Y-108461943D01*
X216130704Y-108480480D01*
X216149631Y-108505167D01*
X216166057Y-108540020D01*
X216181595Y-108589056D01*
X216197860Y-108656291D01*
X216211156Y-108719339D01*
X216241000Y-108843850D01*
X216276490Y-108948335D01*
X216319647Y-109037905D01*
X216364373Y-109106820D01*
X216400754Y-109162144D01*
X216420110Y-109210069D01*
X216424569Y-109259885D01*
X216416254Y-109320879D01*
X216414878Y-109327589D01*
X216408118Y-109378150D01*
X216404928Y-109443871D01*
X216404959Y-109519982D01*
X216407861Y-109601710D01*
X216413285Y-109684287D01*
X216420883Y-109762940D01*
X216430305Y-109832900D01*
X216441203Y-109889395D01*
X216453228Y-109927656D01*
X216459559Y-109938463D01*
X216466910Y-109957708D01*
X216475026Y-109995043D01*
X216482412Y-110043260D01*
X216483956Y-110056052D01*
X216500637Y-110147524D01*
X216529412Y-110222873D01*
X216573299Y-110289701D01*
X216579972Y-110297804D01*
X216610838Y-110326856D01*
X216640520Y-110335078D01*
X216674089Y-110322251D01*
X216712303Y-110292088D01*
X216759283Y-110237671D01*
X216801896Y-110166173D01*
X216835787Y-110085914D01*
X216853299Y-110022887D01*
X216863201Y-109940542D01*
X216861691Y-109850259D01*
X216850072Y-109756210D01*
X216829651Y-109662563D01*
X216801731Y-109573490D01*
X216767618Y-109493159D01*
X216728616Y-109425741D01*
X216686031Y-109375406D01*
X216641625Y-109346496D01*
X216613497Y-109325592D01*
X216582102Y-109286396D01*
X216550642Y-109235179D01*
X216522320Y-109178210D01*
X216500338Y-109121761D01*
X216487898Y-109072100D01*
X216486741Y-109043203D01*
X216490550Y-109010450D01*
X216615571Y-109014302D01*
X216678400Y-109015273D01*
X216721671Y-109013179D01*
X216751109Y-109007393D01*
X216772437Y-108997287D01*
X216772718Y-108997104D01*
X216798551Y-108985455D01*
X216825374Y-108986766D01*
X216857428Y-109002841D01*
X216898955Y-109035486D01*
X216930825Y-109064377D01*
X217017152Y-109155627D01*
X217096211Y-109262356D01*
X217168584Y-109383736D01*
X217223031Y-109478291D01*
X217272677Y-109553074D01*
X217316692Y-109607104D01*
X217354245Y-109639401D01*
X217384506Y-109648987D01*
X217391960Y-109647318D01*
X217415319Y-109626433D01*
X217435972Y-109586097D01*
X217451526Y-109532257D01*
X217458919Y-109480755D01*
X217460301Y-109395617D01*
X217453068Y-109291416D01*
X217437995Y-109172687D01*
X217415859Y-109043968D01*
X217388062Y-108912755D01*
X217037360Y-108912755D01*
X217033722Y-108948180D01*
X217020604Y-108975312D01*
X217013419Y-108981457D01*
X216985364Y-108985617D01*
X216950221Y-108972820D01*
X216923859Y-108953128D01*
X216907688Y-108923633D01*
X216911941Y-108891898D01*
X216932890Y-108863548D01*
X216966809Y-108844209D01*
X216999462Y-108839000D01*
X217019425Y-108849937D01*
X217032326Y-108877265D01*
X217037360Y-108912755D01*
X217388062Y-108912755D01*
X217387434Y-108909795D01*
X217353496Y-108774705D01*
X217316886Y-108649755D01*
X217295239Y-108579092D01*
X217275372Y-108510422D01*
X217259156Y-108450478D01*
X217248461Y-108405994D01*
X217246672Y-108397014D01*
X217233243Y-108342258D01*
X217212961Y-108300726D01*
X217181011Y-108266656D01*
X217132578Y-108234287D01*
X217092780Y-108212862D01*
X217028151Y-108185006D01*
X216964621Y-108166913D01*
X216907595Y-108159362D01*
X216862473Y-108163131D01*
X216837301Y-108176030D01*
X216831798Y-108188219D01*
X216827194Y-108214305D01*
X216823345Y-108256497D01*
X216820106Y-108317004D01*
X216817334Y-108398032D01*
X216814885Y-108501791D01*
X216814400Y-108526540D01*
X216812052Y-108634102D01*
X216809452Y-108718733D01*
X216806436Y-108782903D01*
X216802837Y-108829079D01*
X216798492Y-108859731D01*
X216793234Y-108877329D01*
X216790620Y-108881534D01*
X216765064Y-108897481D01*
X216731122Y-108902455D01*
X216699330Y-108896579D01*
X216680355Y-108880275D01*
X216677020Y-108861317D01*
X216673298Y-108821099D01*
X216669457Y-108763753D01*
X216665764Y-108693411D01*
X216662485Y-108614204D01*
X216661689Y-108591350D01*
X216656054Y-108463987D01*
X216647818Y-108358540D01*
X216636017Y-108271579D01*
X216619688Y-108199671D01*
X216597868Y-108139386D01*
X216569593Y-108087293D01*
X216533900Y-108039961D01*
X216495492Y-107999427D01*
X216449904Y-107961195D01*
X216394054Y-107922843D01*
X216348459Y-107897074D01*
X216278591Y-107868809D01*
X216207027Y-107853064D01*
X216131653Y-107850439D01*
X216050351Y-107861534D01*
G36*
X210830492Y-110329858D02*
G01*
X210797044Y-110338634D01*
X210778781Y-110355128D01*
X210772321Y-110381283D01*
X210774282Y-110419044D01*
X210775821Y-110431520D01*
X210788450Y-110491688D01*
X210809693Y-110531791D01*
X210842808Y-110556589D01*
X210867505Y-110565499D01*
X210932233Y-110577523D01*
X210984331Y-110572834D01*
X211010500Y-110562837D01*
X211034791Y-110541341D01*
X211063366Y-110500938D01*
X211085881Y-110460228D01*
X211109043Y-110411714D01*
X211120333Y-110377190D01*
X211117302Y-110354150D01*
X211097500Y-110340085D01*
X211058481Y-110332488D01*
X210997795Y-110328851D01*
X210956468Y-110327683D01*
X210882506Y-110326855D01*
X210830492Y-110329858D01*
G37*
X210830492Y-110329858D02*
X210797044Y-110338634D01*
X210778781Y-110355128D01*
X210772321Y-110381283D01*
X210774282Y-110419044D01*
X210775821Y-110431520D01*
X210788450Y-110491688D01*
X210809693Y-110531791D01*
X210842808Y-110556589D01*
X210867505Y-110565499D01*
X210932233Y-110577523D01*
X210984331Y-110572834D01*
X211010500Y-110562837D01*
X211034791Y-110541341D01*
X211063366Y-110500938D01*
X211085881Y-110460228D01*
X211109043Y-110411714D01*
X211120333Y-110377190D01*
X211117302Y-110354150D01*
X211097500Y-110340085D01*
X211058481Y-110332488D01*
X210997795Y-110328851D01*
X210956468Y-110327683D01*
X210882506Y-110326855D01*
X210830492Y-110329858D01*
G36*
X209940812Y-109769956D02*
G01*
X209879927Y-109785589D01*
X209820279Y-109813520D01*
X209771110Y-109848805D01*
X209750114Y-109871965D01*
X209738034Y-109891046D01*
X209729902Y-109911717D01*
X209724951Y-109939307D01*
X209722413Y-109979144D01*
X209721520Y-110036558D01*
X209721450Y-110070900D01*
X209722025Y-110125923D01*
X209723646Y-110201239D01*
X209726160Y-110291768D01*
X209729413Y-110392431D01*
X209733250Y-110498149D01*
X209737518Y-110603842D01*
X209737809Y-110610650D01*
X209745142Y-110779372D01*
X209751749Y-110924743D01*
X209757867Y-111048795D01*
X209763735Y-111153559D01*
X209769589Y-111241067D01*
X209775667Y-111313348D01*
X209782208Y-111372435D01*
X209789448Y-111420358D01*
X209797624Y-111459149D01*
X209806975Y-111490840D01*
X209817738Y-111517460D01*
X209830151Y-111541042D01*
X209844450Y-111563617D01*
X209850244Y-111572088D01*
X209890729Y-111619621D01*
X209936990Y-111656955D01*
X209982415Y-111679406D01*
X210007935Y-111683800D01*
X210040276Y-111674611D01*
X210069272Y-111653570D01*
X210100860Y-111603864D01*
X210123830Y-111533092D01*
X210138265Y-111444051D01*
X210144251Y-111339538D01*
X210141872Y-111222348D01*
X210131212Y-111095279D01*
X210112355Y-110961128D01*
X210085386Y-110822690D01*
X210050389Y-110682764D01*
X210038778Y-110642400D01*
X210024820Y-110563124D01*
X210023921Y-110471328D01*
X210034844Y-110374572D01*
X210056358Y-110280415D01*
X210087226Y-110196415D01*
X210121364Y-110136603D01*
X210147705Y-110096617D01*
X210157123Y-110067685D01*
X210149746Y-110042040D01*
X210125706Y-110011913D01*
X210123488Y-110009528D01*
X210099789Y-109976539D01*
X210075106Y-109930350D01*
X210058507Y-109890709D01*
X210035407Y-109832199D01*
X210014332Y-109794770D01*
X209991686Y-109774734D01*
X209963874Y-109768402D01*
X209940812Y-109769956D01*
G37*
X209940812Y-109769956D02*
X209879927Y-109785589D01*
X209820279Y-109813520D01*
X209771110Y-109848805D01*
X209750114Y-109871965D01*
X209738034Y-109891046D01*
X209729902Y-109911717D01*
X209724951Y-109939307D01*
X209722413Y-109979144D01*
X209721520Y-110036558D01*
X209721450Y-110070900D01*
X209722025Y-110125923D01*
X209723646Y-110201239D01*
X209726160Y-110291768D01*
X209729413Y-110392431D01*
X209733250Y-110498149D01*
X209737518Y-110603842D01*
X209737809Y-110610650D01*
X209745142Y-110779372D01*
X209751749Y-110924743D01*
X209757867Y-111048795D01*
X209763735Y-111153559D01*
X209769589Y-111241067D01*
X209775667Y-111313348D01*
X209782208Y-111372435D01*
X209789448Y-111420358D01*
X209797624Y-111459149D01*
X209806975Y-111490840D01*
X209817738Y-111517460D01*
X209830151Y-111541042D01*
X209844450Y-111563617D01*
X209850244Y-111572088D01*
X209890729Y-111619621D01*
X209936990Y-111656955D01*
X209982415Y-111679406D01*
X210007935Y-111683800D01*
X210040276Y-111674611D01*
X210069272Y-111653570D01*
X210100860Y-111603864D01*
X210123830Y-111533092D01*
X210138265Y-111444051D01*
X210144251Y-111339538D01*
X210141872Y-111222348D01*
X210131212Y-111095279D01*
X210112355Y-110961128D01*
X210085386Y-110822690D01*
X210050389Y-110682764D01*
X210038778Y-110642400D01*
X210024820Y-110563124D01*
X210023921Y-110471328D01*
X210034844Y-110374572D01*
X210056358Y-110280415D01*
X210087226Y-110196415D01*
X210121364Y-110136603D01*
X210147705Y-110096617D01*
X210157123Y-110067685D01*
X210149746Y-110042040D01*
X210125706Y-110011913D01*
X210123488Y-110009528D01*
X210099789Y-109976539D01*
X210075106Y-109930350D01*
X210058507Y-109890709D01*
X210035407Y-109832199D01*
X210014332Y-109794770D01*
X209991686Y-109774734D01*
X209963874Y-109768402D01*
X209940812Y-109769956D01*
G36*
X216063645Y-112036426D02*
G01*
X216053673Y-112063165D01*
X216052400Y-112083560D01*
X216057040Y-112132303D01*
X216070066Y-112160367D01*
X216090138Y-112166268D01*
X216113360Y-112151160D01*
X216127369Y-112120833D01*
X216122807Y-112082800D01*
X216105257Y-112051486D01*
X216081607Y-112032067D01*
X216063645Y-112036426D01*
G37*
X216063645Y-112036426D02*
X216053673Y-112063165D01*
X216052400Y-112083560D01*
X216057040Y-112132303D01*
X216070066Y-112160367D01*
X216090138Y-112166268D01*
X216113360Y-112151160D01*
X216127369Y-112120833D01*
X216122807Y-112082800D01*
X216105257Y-112051486D01*
X216081607Y-112032067D01*
X216063645Y-112036426D01*
G36*
X213745174Y-109656885D02*
G01*
X213731377Y-109668680D01*
X213721156Y-109681970D01*
X213716810Y-109699619D01*
X213718087Y-109728031D01*
X213724734Y-109773608D01*
X213726755Y-109785759D01*
X213738632Y-109845556D01*
X213753784Y-109907277D01*
X213767858Y-109954244D01*
X213790840Y-110032137D01*
X213813944Y-110131615D01*
X213836581Y-110248875D01*
X213858163Y-110380112D01*
X213878103Y-110521521D01*
X213895813Y-110669298D01*
X213910705Y-110819639D01*
X213920310Y-110940852D01*
X213926671Y-111051737D01*
X213928779Y-111147801D01*
X213926640Y-111239264D01*
X213920543Y-111332871D01*
X213903774Y-111565284D01*
X213892084Y-111786232D01*
X213885487Y-111993525D01*
X213883998Y-112184966D01*
X213887629Y-112358364D01*
X213896395Y-112511524D01*
X213910309Y-112642253D01*
X213912181Y-112655350D01*
X213925696Y-112740282D01*
X213938838Y-112805559D01*
X213953164Y-112856851D01*
X213970231Y-112899830D01*
X213989239Y-112936123D01*
X214030662Y-112991422D01*
X214077351Y-113021992D01*
X214130305Y-113028145D01*
X214190522Y-113010189D01*
X214204739Y-113003091D01*
X214268676Y-112965027D01*
X214326151Y-112923283D01*
X214371477Y-112882416D01*
X214398601Y-112847667D01*
X214405463Y-112832456D01*
X214410715Y-112812879D01*
X214414550Y-112785659D01*
X214417158Y-112747517D01*
X214418730Y-112695175D01*
X214419456Y-112625354D01*
X214419527Y-112534778D01*
X214419410Y-112490250D01*
X214415566Y-112305287D01*
X214405604Y-112108717D01*
X214390139Y-111906481D01*
X214369785Y-111704521D01*
X214345155Y-111508779D01*
X214316865Y-111325198D01*
X214285527Y-111159720D01*
X214278604Y-111127768D01*
X214264762Y-111064065D01*
X214255654Y-111015161D01*
X214250807Y-110973340D01*
X214249749Y-110930884D01*
X214252008Y-110880075D01*
X214257112Y-110813196D01*
X214258403Y-110797568D01*
X214276626Y-110634971D01*
X214302624Y-110490446D01*
X214335912Y-110366255D01*
X214370892Y-110275486D01*
X214395709Y-110219817D01*
X214409120Y-110182978D01*
X214411208Y-110161148D01*
X214402056Y-110150503D01*
X214381744Y-110147220D01*
X214373660Y-110147100D01*
X214338911Y-110143742D01*
X214303108Y-110132423D01*
X214263648Y-110111273D01*
X214217926Y-110078420D01*
X214163336Y-110031995D01*
X214097273Y-109970128D01*
X214017754Y-109891571D01*
X213957822Y-109831879D01*
X213902039Y-109777269D01*
X213853510Y-109730706D01*
X213815337Y-109695154D01*
X213790625Y-109673575D01*
X213785218Y-109669529D01*
X213760740Y-109655674D01*
X213745174Y-109656885D01*
G37*
X213745174Y-109656885D02*
X213731377Y-109668680D01*
X213721156Y-109681970D01*
X213716810Y-109699619D01*
X213718087Y-109728031D01*
X213724734Y-109773608D01*
X213726755Y-109785759D01*
X213738632Y-109845556D01*
X213753784Y-109907277D01*
X213767858Y-109954244D01*
X213790840Y-110032137D01*
X213813944Y-110131615D01*
X213836581Y-110248875D01*
X213858163Y-110380112D01*
X213878103Y-110521521D01*
X213895813Y-110669298D01*
X213910705Y-110819639D01*
X213920310Y-110940852D01*
X213926671Y-111051737D01*
X213928779Y-111147801D01*
X213926640Y-111239264D01*
X213920543Y-111332871D01*
X213903774Y-111565284D01*
X213892084Y-111786232D01*
X213885487Y-111993525D01*
X213883998Y-112184966D01*
X213887629Y-112358364D01*
X213896395Y-112511524D01*
X213910309Y-112642253D01*
X213912181Y-112655350D01*
X213925696Y-112740282D01*
X213938838Y-112805559D01*
X213953164Y-112856851D01*
X213970231Y-112899830D01*
X213989239Y-112936123D01*
X214030662Y-112991422D01*
X214077351Y-113021992D01*
X214130305Y-113028145D01*
X214190522Y-113010189D01*
X214204739Y-113003091D01*
X214268676Y-112965027D01*
X214326151Y-112923283D01*
X214371477Y-112882416D01*
X214398601Y-112847667D01*
X214405463Y-112832456D01*
X214410715Y-112812879D01*
X214414550Y-112785659D01*
X214417158Y-112747517D01*
X214418730Y-112695175D01*
X214419456Y-112625354D01*
X214419527Y-112534778D01*
X214419410Y-112490250D01*
X214415566Y-112305287D01*
X214405604Y-112108717D01*
X214390139Y-111906481D01*
X214369785Y-111704521D01*
X214345155Y-111508779D01*
X214316865Y-111325198D01*
X214285527Y-111159720D01*
X214278604Y-111127768D01*
X214264762Y-111064065D01*
X214255654Y-111015161D01*
X214250807Y-110973340D01*
X214249749Y-110930884D01*
X214252008Y-110880075D01*
X214257112Y-110813196D01*
X214258403Y-110797568D01*
X214276626Y-110634971D01*
X214302624Y-110490446D01*
X214335912Y-110366255D01*
X214370892Y-110275486D01*
X214395709Y-110219817D01*
X214409120Y-110182978D01*
X214411208Y-110161148D01*
X214402056Y-110150503D01*
X214381744Y-110147220D01*
X214373660Y-110147100D01*
X214338911Y-110143742D01*
X214303108Y-110132423D01*
X214263648Y-110111273D01*
X214217926Y-110078420D01*
X214163336Y-110031995D01*
X214097273Y-109970128D01*
X214017754Y-109891571D01*
X213957822Y-109831879D01*
X213902039Y-109777269D01*
X213853510Y-109730706D01*
X213815337Y-109695154D01*
X213790625Y-109673575D01*
X213785218Y-109669529D01*
X213760740Y-109655674D01*
X213745174Y-109656885D01*
G36*
X215630405Y-113127150D02*
G01*
X215626946Y-113147659D01*
X215640375Y-113170500D01*
X215665016Y-113191898D01*
X215681098Y-113190762D01*
X215687676Y-113179225D01*
X215686858Y-113153456D01*
X215672789Y-113129372D01*
X215652653Y-113118900D01*
X215630405Y-113127150D01*
G37*
X215630405Y-113127150D02*
X215626946Y-113147659D01*
X215640375Y-113170500D01*
X215665016Y-113191898D01*
X215681098Y-113190762D01*
X215687676Y-113179225D01*
X215686858Y-113153456D01*
X215672789Y-113129372D01*
X215652653Y-113118900D01*
X215630405Y-113127150D01*
G36*
X215676452Y-113961263D02*
G01*
X215648676Y-113992025D01*
X215618862Y-114032144D01*
X215591169Y-114073335D01*
X215569575Y-114109249D01*
X215558061Y-114133536D01*
X215557148Y-114138075D01*
X215566036Y-114147628D01*
X215590533Y-114141614D01*
X215627124Y-114121181D01*
X215643435Y-114109898D01*
X215687858Y-114072649D01*
X215712570Y-114037049D01*
X215721809Y-113996287D01*
X215722200Y-113983334D01*
X215716837Y-113953219D01*
X215701306Y-113945895D01*
X215676452Y-113961263D01*
G37*
X215676452Y-113961263D02*
X215648676Y-113992025D01*
X215618862Y-114032144D01*
X215591169Y-114073335D01*
X215569575Y-114109249D01*
X215558061Y-114133536D01*
X215557148Y-114138075D01*
X215566036Y-114147628D01*
X215590533Y-114141614D01*
X215627124Y-114121181D01*
X215643435Y-114109898D01*
X215687858Y-114072649D01*
X215712570Y-114037049D01*
X215721809Y-113996287D01*
X215722200Y-113983334D01*
X215716837Y-113953219D01*
X215701306Y-113945895D01*
X215676452Y-113961263D01*
G36*
X210654900Y-114814350D02*
G01*
X210661250Y-114820700D01*
X210667600Y-114814350D01*
X210661250Y-114808000D01*
X210654900Y-114814350D01*
G37*
X210654900Y-114814350D02*
X210661250Y-114820700D01*
X210667600Y-114814350D01*
X210661250Y-114808000D01*
X210654900Y-114814350D01*
G36*
X210667600Y-114839750D02*
G01*
X210673950Y-114846100D01*
X210680300Y-114839750D01*
X210673950Y-114833400D01*
X210667600Y-114839750D01*
G37*
X210667600Y-114839750D02*
X210673950Y-114846100D01*
X210680300Y-114839750D01*
X210673950Y-114833400D01*
X210667600Y-114839750D01*
G36*
X210680300Y-114865150D02*
G01*
X210686650Y-114871500D01*
X210693000Y-114865150D01*
X210686650Y-114858800D01*
X210680300Y-114865150D01*
G37*
X210680300Y-114865150D02*
X210686650Y-114871500D01*
X210693000Y-114865150D01*
X210686650Y-114858800D01*
X210680300Y-114865150D01*
G36*
X210506675Y-115454300D02*
G01*
X210494495Y-115482926D01*
X210482746Y-115527270D01*
X210472201Y-115582503D01*
X210463631Y-115643796D01*
X210457810Y-115706320D01*
X210455509Y-115765245D01*
X210457502Y-115815744D01*
X210458276Y-115822765D01*
X210470815Y-115889921D01*
X210488830Y-115932673D01*
X210512178Y-115950883D01*
X210540712Y-115944415D01*
X210565204Y-115923528D01*
X210598580Y-115869418D01*
X210613748Y-115799535D01*
X210612535Y-115735870D01*
X210605352Y-115692141D01*
X210592866Y-115639521D01*
X210576961Y-115583811D01*
X210559519Y-115530814D01*
X210542423Y-115486330D01*
X210527557Y-115456160D01*
X210518513Y-115446220D01*
X210506675Y-115454300D01*
G37*
X210506675Y-115454300D02*
X210494495Y-115482926D01*
X210482746Y-115527270D01*
X210472201Y-115582503D01*
X210463631Y-115643796D01*
X210457810Y-115706320D01*
X210455509Y-115765245D01*
X210457502Y-115815744D01*
X210458276Y-115822765D01*
X210470815Y-115889921D01*
X210488830Y-115932673D01*
X210512178Y-115950883D01*
X210540712Y-115944415D01*
X210565204Y-115923528D01*
X210598580Y-115869418D01*
X210613748Y-115799535D01*
X210612535Y-115735870D01*
X210605352Y-115692141D01*
X210592866Y-115639521D01*
X210576961Y-115583811D01*
X210559519Y-115530814D01*
X210542423Y-115486330D01*
X210527557Y-115456160D01*
X210518513Y-115446220D01*
X210506675Y-115454300D01*
G36*
X214799334Y-117568133D02*
G01*
X214797814Y-117583205D01*
X214799334Y-117585066D01*
X214806884Y-117583323D01*
X214807800Y-117576600D01*
X214803154Y-117566146D01*
X214799334Y-117568133D01*
G37*
X214799334Y-117568133D02*
X214797814Y-117583205D01*
X214799334Y-117585066D01*
X214806884Y-117583323D01*
X214807800Y-117576600D01*
X214803154Y-117566146D01*
X214799334Y-117568133D01*
G36*
X211950300Y-118395750D02*
G01*
X211956650Y-118402100D01*
X211963000Y-118395750D01*
X211956650Y-118389400D01*
X211950300Y-118395750D01*
G37*
X211950300Y-118395750D02*
X211956650Y-118402100D01*
X211963000Y-118395750D01*
X211956650Y-118389400D01*
X211950300Y-118395750D01*
G36*
X209873850Y-119217738D02*
G01*
X209803541Y-119220909D01*
X209752591Y-119225489D01*
X209714963Y-119232449D01*
X209684621Y-119242759D01*
X209667475Y-119250919D01*
X209628343Y-119277183D01*
X209614369Y-119301585D01*
X209625325Y-119323131D01*
X209660984Y-119340824D01*
X209689700Y-119348273D01*
X209720079Y-119356644D01*
X209766921Y-119371883D01*
X209823046Y-119391577D01*
X209864767Y-119407012D01*
X210029735Y-119456774D01*
X210134731Y-119475880D01*
X210209512Y-119488585D01*
X210291881Y-119506161D01*
X210368454Y-119525634D01*
X210397814Y-119534337D01*
X210474743Y-119555433D01*
X210552809Y-119571457D01*
X210619753Y-119579898D01*
X210670056Y-119582563D01*
X210700726Y-119581728D01*
X210717391Y-119576527D01*
X210725682Y-119566097D01*
X210726766Y-119563477D01*
X210722530Y-119540118D01*
X210696759Y-119508131D01*
X210651183Y-119469081D01*
X210587533Y-119424534D01*
X210541776Y-119396053D01*
X210396031Y-119318647D01*
X210253291Y-119263954D01*
X210108462Y-119230613D01*
X209956447Y-119217264D01*
X209873850Y-119217738D01*
G37*
X209873850Y-119217738D02*
X209803541Y-119220909D01*
X209752591Y-119225489D01*
X209714963Y-119232449D01*
X209684621Y-119242759D01*
X209667475Y-119250919D01*
X209628343Y-119277183D01*
X209614369Y-119301585D01*
X209625325Y-119323131D01*
X209660984Y-119340824D01*
X209689700Y-119348273D01*
X209720079Y-119356644D01*
X209766921Y-119371883D01*
X209823046Y-119391577D01*
X209864767Y-119407012D01*
X210029735Y-119456774D01*
X210134731Y-119475880D01*
X210209512Y-119488585D01*
X210291881Y-119506161D01*
X210368454Y-119525634D01*
X210397814Y-119534337D01*
X210474743Y-119555433D01*
X210552809Y-119571457D01*
X210619753Y-119579898D01*
X210670056Y-119582563D01*
X210700726Y-119581728D01*
X210717391Y-119576527D01*
X210725682Y-119566097D01*
X210726766Y-119563477D01*
X210722530Y-119540118D01*
X210696759Y-119508131D01*
X210651183Y-119469081D01*
X210587533Y-119424534D01*
X210541776Y-119396053D01*
X210396031Y-119318647D01*
X210253291Y-119263954D01*
X210108462Y-119230613D01*
X209956447Y-119217264D01*
X209873850Y-119217738D01*
G36*
X208128111Y-119714552D02*
G01*
X208117159Y-119716858D01*
X208094660Y-119723940D01*
X208094989Y-119729929D01*
X208108550Y-119736162D01*
X208155124Y-119746713D01*
X208189604Y-119736793D01*
X208195714Y-119726081D01*
X208183072Y-119717584D01*
X208158323Y-119713132D01*
X208128111Y-119714552D01*
G37*
X208128111Y-119714552D02*
X208117159Y-119716858D01*
X208094660Y-119723940D01*
X208094989Y-119729929D01*
X208108550Y-119736162D01*
X208155124Y-119746713D01*
X208189604Y-119736793D01*
X208195714Y-119726081D01*
X208183072Y-119717584D01*
X208158323Y-119713132D01*
X208128111Y-119714552D01*
G36*
X215661875Y-120374203D02*
G01*
X215653997Y-120376972D01*
X215668420Y-120378887D01*
X215696800Y-120379494D01*
X215728154Y-120378706D01*
X215739905Y-120376656D01*
X215731725Y-120374203D01*
X215690703Y-120372077D01*
X215661875Y-120374203D01*
G37*
X215661875Y-120374203D02*
X215653997Y-120376972D01*
X215668420Y-120378887D01*
X215696800Y-120379494D01*
X215728154Y-120378706D01*
X215739905Y-120376656D01*
X215731725Y-120374203D01*
X215690703Y-120372077D01*
X215661875Y-120374203D01*
G36*
X216418292Y-120640381D02*
G01*
X216346100Y-120644852D01*
X216295884Y-120650471D01*
X216264227Y-120658061D01*
X216247706Y-120668447D01*
X216242901Y-120682450D01*
X216242900Y-120682619D01*
X216254915Y-120698283D01*
X216288411Y-120711284D01*
X216339567Y-120721166D01*
X216404558Y-120727475D01*
X216479564Y-120729757D01*
X216560762Y-120727557D01*
X216598786Y-120724944D01*
X216667398Y-120717782D01*
X216725751Y-120708802D01*
X216770444Y-120698834D01*
X216798077Y-120688706D01*
X216805248Y-120679250D01*
X216801156Y-120675575D01*
X216771385Y-120665881D01*
X216722134Y-120656927D01*
X216659321Y-120649258D01*
X216588864Y-120643418D01*
X216516684Y-120639950D01*
X216448698Y-120639400D01*
X216418292Y-120640381D01*
G37*
X216418292Y-120640381D02*
X216346100Y-120644852D01*
X216295884Y-120650471D01*
X216264227Y-120658061D01*
X216247706Y-120668447D01*
X216242901Y-120682450D01*
X216242900Y-120682619D01*
X216254915Y-120698283D01*
X216288411Y-120711284D01*
X216339567Y-120721166D01*
X216404558Y-120727475D01*
X216479564Y-120729757D01*
X216560762Y-120727557D01*
X216598786Y-120724944D01*
X216667398Y-120717782D01*
X216725751Y-120708802D01*
X216770444Y-120698834D01*
X216798077Y-120688706D01*
X216805248Y-120679250D01*
X216801156Y-120675575D01*
X216771385Y-120665881D01*
X216722134Y-120656927D01*
X216659321Y-120649258D01*
X216588864Y-120643418D01*
X216516684Y-120639950D01*
X216448698Y-120639400D01*
X216418292Y-120640381D01*
G36*
X217722528Y-120850633D02*
G01*
X217715690Y-120876068D01*
X217720928Y-120909355D01*
X217735871Y-120939274D01*
X217757904Y-120963403D01*
X217776195Y-120964904D01*
X217783834Y-120959033D01*
X217791404Y-120937194D01*
X217790543Y-120903714D01*
X217781854Y-120870692D01*
X217779154Y-120865065D01*
X217758103Y-120845147D01*
X217741054Y-120840500D01*
X217722528Y-120850633D01*
G37*
X217722528Y-120850633D02*
X217715690Y-120876068D01*
X217720928Y-120909355D01*
X217735871Y-120939274D01*
X217757904Y-120963403D01*
X217776195Y-120964904D01*
X217783834Y-120959033D01*
X217791404Y-120937194D01*
X217790543Y-120903714D01*
X217781854Y-120870692D01*
X217779154Y-120865065D01*
X217758103Y-120845147D01*
X217741054Y-120840500D01*
X217722528Y-120850633D01*
G36*
X212382100Y-121253250D02*
G01*
X212388450Y-121259600D01*
X212394800Y-121253250D01*
X212388450Y-121246900D01*
X212382100Y-121253250D01*
G37*
X212382100Y-121253250D02*
X212388450Y-121259600D01*
X212394800Y-121253250D01*
X212388450Y-121246900D01*
X212382100Y-121253250D01*
G36*
X214755823Y-121711868D02*
G01*
X214746543Y-121740532D01*
X214750130Y-121780804D01*
X214763729Y-121824339D01*
X214784486Y-121862795D01*
X214809547Y-121887829D01*
X214817238Y-121891395D01*
X214833567Y-121885467D01*
X214845041Y-121870806D01*
X214855900Y-121834131D01*
X214854419Y-121794230D01*
X214843265Y-121755853D01*
X214825104Y-121723751D01*
X214802601Y-121702672D01*
X214778423Y-121697367D01*
X214755823Y-121711868D01*
G37*
X214755823Y-121711868D02*
X214746543Y-121740532D01*
X214750130Y-121780804D01*
X214763729Y-121824339D01*
X214784486Y-121862795D01*
X214809547Y-121887829D01*
X214817238Y-121891395D01*
X214833567Y-121885467D01*
X214845041Y-121870806D01*
X214855900Y-121834131D01*
X214854419Y-121794230D01*
X214843265Y-121755853D01*
X214825104Y-121723751D01*
X214802601Y-121702672D01*
X214778423Y-121697367D01*
X214755823Y-121711868D01*
G36*
X215150700Y-122180350D02*
G01*
X215157050Y-122186700D01*
X215163400Y-122180350D01*
X215157050Y-122174000D01*
X215150700Y-122180350D01*
G37*
X215150700Y-122180350D02*
X215157050Y-122186700D01*
X215163400Y-122180350D01*
X215157050Y-122174000D01*
X215150700Y-122180350D01*
G36*
X215089163Y-122242637D02*
G01*
X215075529Y-122255424D01*
X215078326Y-122262776D01*
X215080101Y-122262900D01*
X215090843Y-122253879D01*
X215094763Y-122248237D01*
X215096260Y-122239547D01*
X215089163Y-122242637D01*
G37*
X215089163Y-122242637D02*
X215075529Y-122255424D01*
X215078326Y-122262776D01*
X215080101Y-122262900D01*
X215090843Y-122253879D01*
X215094763Y-122248237D01*
X215096260Y-122239547D01*
X215089163Y-122242637D01*
G36*
X215049100Y-122269250D02*
G01*
X215055450Y-122275600D01*
X215061800Y-122269250D01*
X215055450Y-122262900D01*
X215049100Y-122269250D01*
G37*
X215049100Y-122269250D02*
X215055450Y-122275600D01*
X215061800Y-122269250D01*
X215055450Y-122262900D01*
X215049100Y-122269250D01*
D11*
X196080000Y-117878600D03*
X196080000Y-121378600D03*
D12*
X193675000Y-119608600D03*
D11*
X230090600Y-125473200D03*
X230090600Y-128973200D03*
D12*
X227685600Y-127203200D03*
D11*
X193860800Y-127663200D03*
X193860800Y-124163200D03*
D12*
X196265800Y-125933200D03*
X235333800Y-90949400D03*
X231833800Y-90949400D03*
D11*
X233603800Y-88544400D03*
D12*
X203177400Y-91355800D03*
X199677400Y-91355800D03*
D11*
X201447400Y-88950800D03*
D13*
X217170000Y-77470000D03*
X217170000Y-80010000D03*
X217170000Y-82550000D03*
X217170000Y-85090000D03*
X209550000Y-85090000D03*
X209550000Y-82550000D03*
X209550000Y-77470000D03*
X209550000Y-80010000D03*
D12*
X227155000Y-90670000D03*
X223655000Y-90670000D03*
D11*
X225425000Y-88265000D03*
D12*
X194135000Y-91432000D03*
X190635000Y-91432000D03*
D11*
X192405000Y-89027000D03*
D14*
X213500000Y-124540000D03*
X213500000Y-129540000D03*
X213500000Y-134540000D03*
X208500000Y-134540000D03*
X218500000Y-134540000D03*
X218500000Y-124540000D03*
X208500000Y-124540000D03*
X208500000Y-129540000D03*
X218500000Y-129540000D03*
D15*
X205105000Y-114195000D03*
X198755000Y-114195000D03*
X192405000Y-114195000D03*
X205105000Y-97895000D03*
X198755000Y-97895000D03*
X192405000Y-97895000D03*
X221615000Y-97895000D03*
X227965000Y-97895000D03*
X234315000Y-97895000D03*
X221615000Y-114195000D03*
X227965000Y-114195000D03*
X234315000Y-114195000D03*
D16*
X224282000Y-128524000D03*
D17*
X224282000Y-130524000D03*
D18*
X205125000Y-70231000D03*
X202625000Y-70231000D03*
X206375000Y-70231000D03*
X201375000Y-70231000D03*
D19*
X203073000Y-134747000D03*
D20*
X200533000Y-134747000D03*
D21*
X203073000Y-137287000D03*
X200533000Y-137287000D03*
D18*
X214650000Y-64770000D03*
X212150000Y-64770000D03*
X215900000Y-64770000D03*
X210900000Y-64770000D03*
D22*
X197315000Y-62230000D03*
X205115000Y-62230000D03*
D20*
X240792000Y-120523000D03*
X240792000Y-123063000D03*
D19*
X240792000Y-125603000D03*
D21*
X237490000Y-137160000D03*
X240030000Y-137160000D03*
D20*
X237490000Y-134620000D03*
D19*
X240030000Y-134620000D03*
D18*
X212257000Y-96520000D03*
D23*
X214757000Y-96520000D03*
X232283000Y-134810500D03*
D18*
X229783000Y-134810500D03*
D19*
X197751700Y-58432700D03*
D20*
X200291700Y-58432700D03*
X202831700Y-58432700D03*
X215900000Y-58420000D03*
X213360000Y-58420000D03*
D19*
X210820000Y-58420000D03*
X224790000Y-58420000D03*
D20*
X227330000Y-58420000D03*
X229870000Y-58420000D03*
D18*
X190580000Y-70294500D03*
X195580000Y-70294500D03*
X191830000Y-70294500D03*
X194330000Y-70294500D03*
D24*
X236601000Y-117983000D03*
D25*
X228981000Y-117983000D03*
D22*
X205115000Y-65659000D03*
X197315000Y-65659000D03*
M02*
