G04 #@! TF.GenerationSoftware,KiCad,Pcbnew,5.1.5-52549c5~84~ubuntu18.04.1*
G04 #@! TF.CreationDate,2020-02-02T21:12:17+01:00*
G04 #@! TF.ProjectId,icescreamer,69636573-6372-4656-916d-65722e6b6963,rev?*
G04 #@! TF.SameCoordinates,Original*
G04 #@! TF.FileFunction,Legend,Top*
G04 #@! TF.FilePolarity,Positive*
%FSLAX46Y46*%
G04 Gerber Fmt 4.6, Leading zero omitted, Abs format (unit mm)*
G04 Created by KiCad (PCBNEW 5.1.5-52549c5~84~ubuntu18.04.1) date 2020-02-02 21:12:17*
%MOMM*%
%LPD*%
G04 APERTURE LIST*
%ADD10C,0.120000*%
%ADD11C,0.150000*%
%ADD12C,0.254000*%
G04 APERTURE END LIST*
D10*
X184435952Y-97377304D02*
X184588333Y-97377304D01*
X184664523Y-97415400D01*
X184740714Y-97491590D01*
X184778809Y-97643971D01*
X184778809Y-97910638D01*
X184740714Y-98063019D01*
X184664523Y-98139209D01*
X184588333Y-98177304D01*
X184435952Y-98177304D01*
X184359761Y-98139209D01*
X184283571Y-98063019D01*
X184245476Y-97910638D01*
X184245476Y-97643971D01*
X184283571Y-97491590D01*
X184359761Y-97415400D01*
X184435952Y-97377304D01*
X185464523Y-97643971D02*
X185464523Y-98177304D01*
X185121666Y-97643971D02*
X185121666Y-98063019D01*
X185159761Y-98139209D01*
X185235952Y-98177304D01*
X185350238Y-98177304D01*
X185426428Y-98139209D01*
X185464523Y-98101114D01*
X185731190Y-97643971D02*
X186035952Y-97643971D01*
X185845476Y-97377304D02*
X185845476Y-98063019D01*
X185883571Y-98139209D01*
X185959761Y-98177304D01*
X186035952Y-98177304D01*
X186302619Y-97643971D02*
X186302619Y-98443971D01*
X186302619Y-97682066D02*
X186378809Y-97643971D01*
X186531190Y-97643971D01*
X186607380Y-97682066D01*
X186645476Y-97720161D01*
X186683571Y-97796352D01*
X186683571Y-98024923D01*
X186645476Y-98101114D01*
X186607380Y-98139209D01*
X186531190Y-98177304D01*
X186378809Y-98177304D01*
X186302619Y-98139209D01*
X187369285Y-97643971D02*
X187369285Y-98177304D01*
X187026428Y-97643971D02*
X187026428Y-98063019D01*
X187064523Y-98139209D01*
X187140714Y-98177304D01*
X187255000Y-98177304D01*
X187331190Y-98139209D01*
X187369285Y-98101114D01*
X187635952Y-97643971D02*
X187940714Y-97643971D01*
X187750238Y-97377304D02*
X187750238Y-98063019D01*
X187788333Y-98139209D01*
X187864523Y-98177304D01*
X187940714Y-98177304D01*
X239426914Y-98380504D02*
X239426914Y-97580504D01*
X239807866Y-97847171D02*
X239807866Y-98380504D01*
X239807866Y-97923361D02*
X239845961Y-97885266D01*
X239922152Y-97847171D01*
X240036438Y-97847171D01*
X240112628Y-97885266D01*
X240150723Y-97961457D01*
X240150723Y-98380504D01*
X240531676Y-97847171D02*
X240531676Y-98647171D01*
X240531676Y-97885266D02*
X240607866Y-97847171D01*
X240760247Y-97847171D01*
X240836438Y-97885266D01*
X240874533Y-97923361D01*
X240912628Y-97999552D01*
X240912628Y-98228123D01*
X240874533Y-98304314D01*
X240836438Y-98342409D01*
X240760247Y-98380504D01*
X240607866Y-98380504D01*
X240531676Y-98342409D01*
X241598342Y-97847171D02*
X241598342Y-98380504D01*
X241255485Y-97847171D02*
X241255485Y-98266219D01*
X241293580Y-98342409D01*
X241369771Y-98380504D01*
X241484057Y-98380504D01*
X241560247Y-98342409D01*
X241598342Y-98304314D01*
X241865009Y-97847171D02*
X242169771Y-97847171D01*
X241979295Y-97580504D02*
X241979295Y-98266219D01*
X242017390Y-98342409D01*
X242093580Y-98380504D01*
X242169771Y-98380504D01*
X208039409Y-118129009D02*
X208153695Y-118167104D01*
X208344171Y-118167104D01*
X208420361Y-118129009D01*
X208458457Y-118090914D01*
X208496552Y-118014723D01*
X208496552Y-117938533D01*
X208458457Y-117862342D01*
X208420361Y-117824247D01*
X208344171Y-117786152D01*
X208191790Y-117748057D01*
X208115600Y-117709961D01*
X208077504Y-117671866D01*
X208039409Y-117595676D01*
X208039409Y-117519485D01*
X208077504Y-117443295D01*
X208115600Y-117405200D01*
X208191790Y-117367104D01*
X208382266Y-117367104D01*
X208496552Y-117405200D01*
X208839409Y-118167104D02*
X208839409Y-117367104D01*
X209182266Y-118167104D02*
X209182266Y-117748057D01*
X209144171Y-117671866D01*
X209067980Y-117633771D01*
X208953695Y-117633771D01*
X208877504Y-117671866D01*
X208839409Y-117709961D01*
X209677504Y-118167104D02*
X209601314Y-118129009D01*
X209563219Y-118090914D01*
X209525123Y-118014723D01*
X209525123Y-117786152D01*
X209563219Y-117709961D01*
X209601314Y-117671866D01*
X209677504Y-117633771D01*
X209791790Y-117633771D01*
X209867980Y-117671866D01*
X209906076Y-117709961D01*
X209944171Y-117786152D01*
X209944171Y-118014723D01*
X209906076Y-118090914D01*
X209867980Y-118129009D01*
X209791790Y-118167104D01*
X209677504Y-118167104D01*
X210287028Y-118167104D02*
X210287028Y-117633771D01*
X210287028Y-117786152D02*
X210325123Y-117709961D01*
X210363219Y-117671866D01*
X210439409Y-117633771D01*
X210515600Y-117633771D01*
X210667980Y-117633771D02*
X210972742Y-117633771D01*
X210782266Y-117367104D02*
X210782266Y-118052819D01*
X210820361Y-118129009D01*
X210896552Y-118167104D01*
X210972742Y-118167104D01*
X211848933Y-118167104D02*
X211848933Y-117367104D01*
X211848933Y-117671866D02*
X211925123Y-117633771D01*
X212077504Y-117633771D01*
X212153695Y-117671866D01*
X212191790Y-117709961D01*
X212229885Y-117786152D01*
X212229885Y-118014723D01*
X212191790Y-118090914D01*
X212153695Y-118129009D01*
X212077504Y-118167104D01*
X211925123Y-118167104D01*
X211848933Y-118129009D01*
X212687028Y-118167104D02*
X212610838Y-118129009D01*
X212572742Y-118090914D01*
X212534647Y-118014723D01*
X212534647Y-117786152D01*
X212572742Y-117709961D01*
X212610838Y-117671866D01*
X212687028Y-117633771D01*
X212801314Y-117633771D01*
X212877504Y-117671866D01*
X212915600Y-117709961D01*
X212953695Y-117786152D01*
X212953695Y-118014723D01*
X212915600Y-118090914D01*
X212877504Y-118129009D01*
X212801314Y-118167104D01*
X212687028Y-118167104D01*
X213182266Y-117633771D02*
X213487028Y-117633771D01*
X213296552Y-117367104D02*
X213296552Y-118052819D01*
X213334647Y-118129009D01*
X213410838Y-118167104D01*
X213487028Y-118167104D01*
X213753695Y-118167104D02*
X213753695Y-117367104D01*
X214096552Y-118167104D02*
X214096552Y-117748057D01*
X214058457Y-117671866D01*
X213982266Y-117633771D01*
X213867980Y-117633771D01*
X213791790Y-117671866D01*
X213753695Y-117709961D01*
X214972742Y-117633771D02*
X215277504Y-117633771D01*
X215087028Y-118167104D02*
X215087028Y-117481390D01*
X215125123Y-117405200D01*
X215201314Y-117367104D01*
X215277504Y-117367104D01*
X215658457Y-118167104D02*
X215582266Y-118129009D01*
X215544171Y-118090914D01*
X215506076Y-118014723D01*
X215506076Y-117786152D01*
X215544171Y-117709961D01*
X215582266Y-117671866D01*
X215658457Y-117633771D01*
X215772742Y-117633771D01*
X215848933Y-117671866D01*
X215887028Y-117709961D01*
X215925123Y-117786152D01*
X215925123Y-118014723D01*
X215887028Y-118090914D01*
X215848933Y-118129009D01*
X215772742Y-118167104D01*
X215658457Y-118167104D01*
X216267980Y-118167104D02*
X216267980Y-117633771D01*
X216267980Y-117786152D02*
X216306076Y-117709961D01*
X216344171Y-117671866D01*
X216420361Y-117633771D01*
X216496552Y-117633771D01*
X217372742Y-118167104D02*
X217372742Y-117367104D01*
X217677504Y-117367104D01*
X217753695Y-117405200D01*
X217791790Y-117443295D01*
X217829885Y-117519485D01*
X217829885Y-117633771D01*
X217791790Y-117709961D01*
X217753695Y-117748057D01*
X217677504Y-117786152D01*
X217372742Y-117786152D01*
X218134647Y-118129009D02*
X218248933Y-118167104D01*
X218439409Y-118167104D01*
X218515600Y-118129009D01*
X218553695Y-118090914D01*
X218591790Y-118014723D01*
X218591790Y-117938533D01*
X218553695Y-117862342D01*
X218515600Y-117824247D01*
X218439409Y-117786152D01*
X218287028Y-117748057D01*
X218210838Y-117709961D01*
X218172742Y-117671866D01*
X218134647Y-117595676D01*
X218134647Y-117519485D01*
X218172742Y-117443295D01*
X218210838Y-117405200D01*
X218287028Y-117367104D01*
X218477504Y-117367104D01*
X218591790Y-117405200D01*
X219201314Y-117748057D02*
X219315600Y-117786152D01*
X219353695Y-117824247D01*
X219391790Y-117900438D01*
X219391790Y-118014723D01*
X219353695Y-118090914D01*
X219315600Y-118129009D01*
X219239409Y-118167104D01*
X218934647Y-118167104D01*
X218934647Y-117367104D01*
X219201314Y-117367104D01*
X219277504Y-117405200D01*
X219315600Y-117443295D01*
X219353695Y-117519485D01*
X219353695Y-117595676D01*
X219315600Y-117671866D01*
X219277504Y-117709961D01*
X219201314Y-117748057D01*
X218934647Y-117748057D01*
X222497866Y-132759809D02*
X222612152Y-132797904D01*
X222802628Y-132797904D01*
X222878819Y-132759809D01*
X222916914Y-132721714D01*
X222955009Y-132645523D01*
X222955009Y-132569333D01*
X222916914Y-132493142D01*
X222878819Y-132455047D01*
X222802628Y-132416952D01*
X222650247Y-132378857D01*
X222574057Y-132340761D01*
X222535961Y-132302666D01*
X222497866Y-132226476D01*
X222497866Y-132150285D01*
X222535961Y-132074095D01*
X222574057Y-132036000D01*
X222650247Y-131997904D01*
X222840723Y-131997904D01*
X222955009Y-132036000D01*
X223183580Y-132264571D02*
X223488342Y-132264571D01*
X223297866Y-131997904D02*
X223297866Y-132683619D01*
X223335961Y-132759809D01*
X223412152Y-132797904D01*
X223488342Y-132797904D01*
X224097866Y-132797904D02*
X224097866Y-132378857D01*
X224059771Y-132302666D01*
X223983580Y-132264571D01*
X223831200Y-132264571D01*
X223755009Y-132302666D01*
X224097866Y-132759809D02*
X224021676Y-132797904D01*
X223831200Y-132797904D01*
X223755009Y-132759809D01*
X223716914Y-132683619D01*
X223716914Y-132607428D01*
X223755009Y-132531238D01*
X223831200Y-132493142D01*
X224021676Y-132493142D01*
X224097866Y-132455047D01*
X224364533Y-132264571D02*
X224669295Y-132264571D01*
X224478819Y-131997904D02*
X224478819Y-132683619D01*
X224516914Y-132759809D01*
X224593104Y-132797904D01*
X224669295Y-132797904D01*
X225278819Y-132264571D02*
X225278819Y-132797904D01*
X224935961Y-132264571D02*
X224935961Y-132683619D01*
X224974057Y-132759809D01*
X225050247Y-132797904D01*
X225164533Y-132797904D01*
X225240723Y-132759809D01*
X225278819Y-132721714D01*
X225621676Y-132759809D02*
X225697866Y-132797904D01*
X225850247Y-132797904D01*
X225926438Y-132759809D01*
X225964533Y-132683619D01*
X225964533Y-132645523D01*
X225926438Y-132569333D01*
X225850247Y-132531238D01*
X225735961Y-132531238D01*
X225659771Y-132493142D01*
X225621676Y-132416952D01*
X225621676Y-132378857D01*
X225659771Y-132302666D01*
X225735961Y-132264571D01*
X225850247Y-132264571D01*
X225926438Y-132302666D01*
X223716914Y-134117904D02*
X223335961Y-134117904D01*
X223335961Y-133317904D01*
X223983580Y-133698857D02*
X224250247Y-133698857D01*
X224364533Y-134117904D02*
X223983580Y-134117904D01*
X223983580Y-133317904D01*
X224364533Y-133317904D01*
X224707390Y-134117904D02*
X224707390Y-133317904D01*
X224897866Y-133317904D01*
X225012152Y-133356000D01*
X225088342Y-133432190D01*
X225126438Y-133508380D01*
X225164533Y-133660761D01*
X225164533Y-133775047D01*
X225126438Y-133927428D01*
X225088342Y-134003619D01*
X225012152Y-134079809D01*
X224897866Y-134117904D01*
X224707390Y-134117904D01*
X240309476Y-117176904D02*
X240309476Y-116376904D01*
X240499952Y-116376904D01*
X240614238Y-116415000D01*
X240690428Y-116491190D01*
X240728523Y-116567380D01*
X240766619Y-116719761D01*
X240766619Y-116834047D01*
X240728523Y-116986428D01*
X240690428Y-117062619D01*
X240614238Y-117138809D01*
X240499952Y-117176904D01*
X240309476Y-117176904D01*
X241566619Y-117100714D02*
X241528523Y-117138809D01*
X241414238Y-117176904D01*
X241338047Y-117176904D01*
X241223761Y-117138809D01*
X241147571Y-117062619D01*
X241109476Y-116986428D01*
X241071380Y-116834047D01*
X241071380Y-116719761D01*
X241109476Y-116567380D01*
X241147571Y-116491190D01*
X241223761Y-116415000D01*
X241338047Y-116376904D01*
X241414238Y-116376904D01*
X241528523Y-116415000D01*
X241566619Y-116453095D01*
X239338047Y-118496904D02*
X239338047Y-117696904D01*
X239642809Y-117696904D01*
X239719000Y-117735000D01*
X239757095Y-117773095D01*
X239795190Y-117849285D01*
X239795190Y-117963571D01*
X239757095Y-118039761D01*
X239719000Y-118077857D01*
X239642809Y-118115952D01*
X239338047Y-118115952D01*
X240252333Y-118496904D02*
X240176142Y-118458809D01*
X240138047Y-118420714D01*
X240099952Y-118344523D01*
X240099952Y-118115952D01*
X240138047Y-118039761D01*
X240176142Y-118001666D01*
X240252333Y-117963571D01*
X240366619Y-117963571D01*
X240442809Y-118001666D01*
X240480904Y-118039761D01*
X240519000Y-118115952D01*
X240519000Y-118344523D01*
X240480904Y-118420714D01*
X240442809Y-118458809D01*
X240366619Y-118496904D01*
X240252333Y-118496904D01*
X240785666Y-117963571D02*
X240938047Y-118496904D01*
X241090428Y-118115952D01*
X241242809Y-118496904D01*
X241395190Y-117963571D01*
X242004714Y-118458809D02*
X241928523Y-118496904D01*
X241776142Y-118496904D01*
X241699952Y-118458809D01*
X241661857Y-118382619D01*
X241661857Y-118077857D01*
X241699952Y-118001666D01*
X241776142Y-117963571D01*
X241928523Y-117963571D01*
X242004714Y-118001666D01*
X242042809Y-118077857D01*
X242042809Y-118154047D01*
X241661857Y-118230238D01*
X242385666Y-118496904D02*
X242385666Y-117963571D01*
X242385666Y-118115952D02*
X242423761Y-118039761D01*
X242461857Y-118001666D01*
X242538047Y-117963571D01*
X242614238Y-117963571D01*
X223571361Y-64662009D02*
X223685647Y-64700104D01*
X223876123Y-64700104D01*
X223952314Y-64662009D01*
X223990409Y-64623914D01*
X224028504Y-64547723D01*
X224028504Y-64471533D01*
X223990409Y-64395342D01*
X223952314Y-64357247D01*
X223876123Y-64319152D01*
X223723742Y-64281057D01*
X223647552Y-64242961D01*
X223609457Y-64204866D01*
X223571361Y-64128676D01*
X223571361Y-64052485D01*
X223609457Y-63976295D01*
X223647552Y-63938200D01*
X223723742Y-63900104D01*
X223914219Y-63900104D01*
X224028504Y-63938200D01*
X224371361Y-64700104D02*
X224371361Y-63900104D01*
X224714219Y-64700104D02*
X224714219Y-64281057D01*
X224676123Y-64204866D01*
X224599933Y-64166771D01*
X224485647Y-64166771D01*
X224409457Y-64204866D01*
X224371361Y-64242961D01*
X225209457Y-64700104D02*
X225133266Y-64662009D01*
X225095171Y-64623914D01*
X225057076Y-64547723D01*
X225057076Y-64319152D01*
X225095171Y-64242961D01*
X225133266Y-64204866D01*
X225209457Y-64166771D01*
X225323742Y-64166771D01*
X225399933Y-64204866D01*
X225438028Y-64242961D01*
X225476123Y-64319152D01*
X225476123Y-64547723D01*
X225438028Y-64623914D01*
X225399933Y-64662009D01*
X225323742Y-64700104D01*
X225209457Y-64700104D01*
X225818980Y-64700104D02*
X225818980Y-64166771D01*
X225818980Y-64319152D02*
X225857076Y-64242961D01*
X225895171Y-64204866D01*
X225971361Y-64166771D01*
X226047552Y-64166771D01*
X226199933Y-64166771D02*
X226504695Y-64166771D01*
X226314219Y-63900104D02*
X226314219Y-64585819D01*
X226352314Y-64662009D01*
X226428504Y-64700104D01*
X226504695Y-64700104D01*
X227266600Y-64166771D02*
X227571361Y-64166771D01*
X227380885Y-64700104D02*
X227380885Y-64014390D01*
X227418980Y-63938200D01*
X227495171Y-63900104D01*
X227571361Y-63900104D01*
X227952314Y-64700104D02*
X227876123Y-64662009D01*
X227838028Y-64623914D01*
X227799933Y-64547723D01*
X227799933Y-64319152D01*
X227838028Y-64242961D01*
X227876123Y-64204866D01*
X227952314Y-64166771D01*
X228066600Y-64166771D01*
X228142790Y-64204866D01*
X228180885Y-64242961D01*
X228218980Y-64319152D01*
X228218980Y-64547723D01*
X228180885Y-64623914D01*
X228142790Y-64662009D01*
X228066600Y-64700104D01*
X227952314Y-64700104D01*
X228561838Y-64700104D02*
X228561838Y-64166771D01*
X228561838Y-64319152D02*
X228599933Y-64242961D01*
X228638028Y-64204866D01*
X228714219Y-64166771D01*
X228790409Y-64166771D01*
X229552314Y-63900104D02*
X230009457Y-63900104D01*
X229780885Y-64700104D02*
X229780885Y-63900104D01*
X230276123Y-64700104D02*
X230276123Y-64166771D01*
X230276123Y-64319152D02*
X230314219Y-64242961D01*
X230352314Y-64204866D01*
X230428504Y-64166771D01*
X230504695Y-64166771D01*
X231114219Y-64166771D02*
X231114219Y-64700104D01*
X230771361Y-64166771D02*
X230771361Y-64585819D01*
X230809457Y-64662009D01*
X230885647Y-64700104D01*
X230999933Y-64700104D01*
X231076123Y-64662009D01*
X231114219Y-64623914D01*
X231761838Y-64281057D02*
X231876123Y-64319152D01*
X231914219Y-64357247D01*
X231952314Y-64433438D01*
X231952314Y-64547723D01*
X231914219Y-64623914D01*
X231876123Y-64662009D01*
X231799933Y-64700104D01*
X231495171Y-64700104D01*
X231495171Y-63900104D01*
X231761838Y-63900104D01*
X231838028Y-63938200D01*
X231876123Y-63976295D01*
X231914219Y-64052485D01*
X231914219Y-64128676D01*
X231876123Y-64204866D01*
X231838028Y-64242961D01*
X231761838Y-64281057D01*
X231495171Y-64281057D01*
X232218980Y-64166771D02*
X232409457Y-64700104D01*
X232599933Y-64166771D02*
X232409457Y-64700104D01*
X232333266Y-64890580D01*
X232295171Y-64928676D01*
X232218980Y-64966771D01*
D11*
X215935000Y-83355000D02*
X215935000Y-79205000D01*
X215935000Y-83355000D02*
X215790000Y-83355000D01*
X215935000Y-79205000D02*
X215790000Y-79205000D01*
X210785000Y-79179600D02*
X210930000Y-79179600D01*
D12*
X211496000Y-76690000D02*
G75*
G03X211496000Y-76690000I-400000J0D01*
G01*
X211560000Y-82780000D02*
G75*
G03X211560000Y-82780000I-200000J0D01*
G01*
D11*
X210935000Y-83380400D02*
X210790000Y-83380400D01*
X210760000Y-83380400D02*
X210760000Y-81780400D01*
X210760000Y-80789600D02*
X210760000Y-79189600D01*
D12*
X210820000Y-81788000D02*
G75*
G03X211302600Y-81254600I-25400J508000D01*
G01*
X211302600Y-81305400D02*
G75*
G03X210820000Y-80772000I-508000J25400D01*
G01*
X215925400Y-76428600D02*
X213918800Y-76428600D01*
X212852000Y-76454000D02*
G75*
G03X213868000Y-76454000I508000J0D01*
G01*
X212852000Y-76454000D02*
X211836000Y-76454000D01*
D11*
X231982944Y-87202944D02*
G75*
G03X233680000Y-91300000I1697056J-1697056D01*
G01*
X235377056Y-87202944D02*
G75*
G02X233680000Y-91300000I-1697056J-1697056D01*
G01*
X235380000Y-87200000D02*
X231980000Y-87200000D01*
X227122056Y-91867056D02*
G75*
G03X225425000Y-87770000I-1697056J1697056D01*
G01*
X223727944Y-91867056D02*
G75*
G02X225425000Y-87770000I1697056J1697056D01*
G01*
X223725000Y-91870000D02*
X227125000Y-91870000D01*
X199597944Y-88155444D02*
G75*
G03X201295000Y-92252500I1697056J-1697056D01*
G01*
X202992056Y-88155444D02*
G75*
G02X201295000Y-92252500I-1697056J-1697056D01*
G01*
X202995000Y-88152500D02*
X199595000Y-88152500D01*
X194102056Y-92629056D02*
G75*
G03X192405000Y-88532000I-1697056J1697056D01*
G01*
X190707944Y-92629056D02*
G75*
G02X192405000Y-88532000I1697056J1697056D01*
G01*
X190705000Y-92632000D02*
X194105000Y-92632000D01*
X196790056Y-118307944D02*
G75*
G03X192693000Y-120005000I-1697056J-1697056D01*
G01*
X196790056Y-121702056D02*
G75*
G02X192693000Y-120005000I-1697056J1697056D01*
G01*
X196793000Y-121705000D02*
X196793000Y-118305000D01*
X191977944Y-127808056D02*
G75*
G03X196075000Y-126111000I1697056J1697056D01*
G01*
X191977944Y-124413944D02*
G75*
G02X196075000Y-126111000I1697056J-1697056D01*
G01*
X191975000Y-124411000D02*
X191975000Y-127811000D01*
X226648944Y-128252556D02*
G75*
G03X230746000Y-126555500I1697056J1697056D01*
G01*
X226648944Y-124858444D02*
G75*
G02X230746000Y-126555500I1697056J-1697056D01*
G01*
X226646000Y-124855500D02*
X226646000Y-128255500D01*
X222000000Y-120540000D02*
X213500000Y-120540000D01*
X222000000Y-138540000D02*
X222000000Y-120540000D01*
X205000000Y-120540000D02*
X213500000Y-120540000D01*
X205000000Y-138540000D02*
X205000000Y-120540000D01*
X222000000Y-138540000D02*
X205000000Y-138540000D01*
X205000000Y-119740000D02*
X205000000Y-120540000D01*
X222000000Y-119740000D02*
X205000000Y-119740000D01*
X222000000Y-119740000D02*
X222000000Y-120540000D01*
X205000000Y-139340000D02*
X205000000Y-138540000D01*
X222000000Y-139340000D02*
X205000000Y-139340000D01*
X222000000Y-138540000D02*
X222000000Y-139340000D01*
X206500000Y-132040000D02*
X220500000Y-132040000D01*
X220500000Y-127040000D02*
X206500000Y-127040000D01*
X211000000Y-136540000D02*
X211000000Y-122540000D01*
X216000000Y-122540000D02*
X216000000Y-136540000D01*
X209105000Y-116045000D02*
X209105000Y-96045000D01*
X188405000Y-116045000D02*
X209105000Y-116045000D01*
X188405000Y-96045000D02*
X188405000Y-116045000D01*
X209105000Y-96045000D02*
X188405000Y-96045000D01*
X183705000Y-100995000D02*
X188405000Y-100995000D01*
X183705000Y-111045000D02*
X183705000Y-100995000D01*
X188405000Y-111045000D02*
X183705000Y-111045000D01*
X213105000Y-109545000D02*
X209105000Y-109545000D01*
X213105000Y-102495000D02*
X213105000Y-109545000D01*
X209105000Y-102495000D02*
X213105000Y-102495000D01*
X217615000Y-96045000D02*
X217615000Y-116045000D01*
X238315000Y-96045000D02*
X217615000Y-96045000D01*
X238315000Y-116045000D02*
X238315000Y-96045000D01*
X217615000Y-116045000D02*
X238315000Y-116045000D01*
X243015000Y-111095000D02*
X238315000Y-111095000D01*
X243015000Y-101045000D02*
X243015000Y-111095000D01*
X238315000Y-101045000D02*
X243015000Y-101045000D01*
X213615000Y-102545000D02*
X217615000Y-102545000D01*
X213615000Y-109595000D02*
X213615000Y-102545000D01*
X217615000Y-109595000D02*
X213615000Y-109595000D01*
D10*
X223222000Y-131584000D02*
X225342000Y-131584000D01*
X223222000Y-129524000D02*
X223222000Y-131584000D01*
X225342000Y-129524000D02*
X225342000Y-131584000D01*
X223222000Y-129524000D02*
X225342000Y-129524000D01*
X223222000Y-128524000D02*
X223222000Y-127464000D01*
X223222000Y-127464000D02*
X224282000Y-127464000D01*
X213866252Y-68886000D02*
X213343748Y-68886000D01*
X213866252Y-70306000D02*
X213343748Y-70306000D01*
X207495000Y-72101000D02*
X200255000Y-72101000D01*
X207495000Y-68361000D02*
X200255000Y-68361000D01*
X207495000Y-72101000D02*
X207495000Y-68361000D01*
X200255000Y-72101000D02*
X200255000Y-68361000D01*
X191000748Y-65289500D02*
X191523252Y-65289500D01*
X191000748Y-63869500D02*
X191523252Y-63869500D01*
X188896248Y-118312000D02*
X189418752Y-118312000D01*
X188896248Y-116892000D02*
X189418752Y-116892000D01*
X194937748Y-77608500D02*
X195460252Y-77608500D01*
X194937748Y-76188500D02*
X195460252Y-76188500D01*
X213748252Y-73458000D02*
X213225748Y-73458000D01*
X213748252Y-74878000D02*
X213225748Y-74878000D01*
X232408252Y-66092000D02*
X231885748Y-66092000D01*
X232408252Y-67512000D02*
X231885748Y-67512000D01*
X224407252Y-66028500D02*
X223884748Y-66028500D01*
X224407252Y-67448500D02*
X223884748Y-67448500D01*
X199203000Y-133417000D02*
X199203000Y-136077000D01*
X201803000Y-133417000D02*
X199203000Y-133417000D01*
X201803000Y-136077000D02*
X199203000Y-136077000D01*
X201803000Y-133417000D02*
X201803000Y-136077000D01*
X203073000Y-133417000D02*
X204403000Y-133417000D01*
X204403000Y-133417000D02*
X204403000Y-134747000D01*
X202962252Y-130516500D02*
X202439748Y-130516500D01*
X202962252Y-129096500D02*
X202439748Y-129096500D01*
X202944252Y-128408500D02*
X202421748Y-128408500D01*
X202944252Y-126988500D02*
X202421748Y-126988500D01*
X202430748Y-131179500D02*
X202953252Y-131179500D01*
X202430748Y-132599500D02*
X202953252Y-132599500D01*
X202953252Y-124956500D02*
X202430748Y-124956500D01*
X202953252Y-126376500D02*
X202430748Y-126376500D01*
X201683000Y-118498500D02*
X204543000Y-118498500D01*
X204543000Y-118498500D02*
X204543000Y-116578500D01*
X204543000Y-116578500D02*
X201683000Y-116578500D01*
X202430748Y-124344500D02*
X202953252Y-124344500D01*
X202430748Y-122924500D02*
X202953252Y-122924500D01*
X202439748Y-120280500D02*
X202962252Y-120280500D01*
X202439748Y-118860500D02*
X202962252Y-118860500D01*
X202430748Y-122312500D02*
X202953252Y-122312500D01*
X202430748Y-120892500D02*
X202953252Y-120892500D01*
X236553752Y-125845500D02*
X236031248Y-125845500D01*
X236553752Y-127265500D02*
X236031248Y-127265500D01*
X224416252Y-71045000D02*
X223893748Y-71045000D01*
X224416252Y-72465000D02*
X223893748Y-72465000D01*
X217020000Y-66640000D02*
X209780000Y-66640000D01*
X217020000Y-62900000D02*
X209780000Y-62900000D01*
X217020000Y-66640000D02*
X217020000Y-62900000D01*
X209780000Y-66640000D02*
X209780000Y-62900000D01*
X207515000Y-60730000D02*
X197315000Y-60730000D01*
X207515000Y-63730000D02*
X207515000Y-60730000D01*
X197315000Y-63730000D02*
X207515000Y-63730000D01*
X242122000Y-126933000D02*
X240792000Y-126933000D01*
X242122000Y-125603000D02*
X242122000Y-126933000D01*
X242122000Y-124333000D02*
X239462000Y-124333000D01*
X239462000Y-124333000D02*
X239462000Y-119193000D01*
X242122000Y-124333000D02*
X242122000Y-119193000D01*
X242122000Y-119193000D02*
X239462000Y-119193000D01*
X241360000Y-133290000D02*
X241360000Y-134620000D01*
X240030000Y-133290000D02*
X241360000Y-133290000D01*
X238760000Y-133290000D02*
X238760000Y-135950000D01*
X238760000Y-135950000D02*
X236160000Y-135950000D01*
X238760000Y-133290000D02*
X236160000Y-133290000D01*
X236160000Y-133290000D02*
X236160000Y-135950000D01*
X223893748Y-69925000D02*
X224416252Y-69925000D01*
X223893748Y-68505000D02*
X224416252Y-68505000D01*
X232426252Y-68505000D02*
X231903748Y-68505000D01*
X232426252Y-69925000D02*
X231903748Y-69925000D01*
X231903748Y-80085000D02*
X232426252Y-80085000D01*
X231903748Y-78665000D02*
X232426252Y-78665000D01*
X232426252Y-76125000D02*
X231903748Y-76125000D01*
X232426252Y-77545000D02*
X231903748Y-77545000D01*
X232426252Y-73585000D02*
X231903748Y-73585000D01*
X232426252Y-75005000D02*
X231903748Y-75005000D01*
X224424252Y-73585000D02*
X223901748Y-73585000D01*
X224424252Y-75005000D02*
X223901748Y-75005000D01*
X224424252Y-76125000D02*
X223901748Y-76125000D01*
X224424252Y-77545000D02*
X223901748Y-77545000D01*
X223893748Y-80085000D02*
X224416252Y-80085000D01*
X223893748Y-78665000D02*
X224416252Y-78665000D01*
X224416252Y-81205000D02*
X223893748Y-81205000D01*
X224416252Y-82625000D02*
X223893748Y-82625000D01*
X190991748Y-67448500D02*
X191514252Y-67448500D01*
X190991748Y-66028500D02*
X191514252Y-66028500D01*
X191000748Y-63067000D02*
X191523252Y-63067000D01*
X191000748Y-61647000D02*
X191523252Y-61647000D01*
X195451252Y-73648500D02*
X194928748Y-73648500D01*
X195451252Y-75068500D02*
X194928748Y-75068500D01*
X202938748Y-77545000D02*
X203461252Y-77545000D01*
X202938748Y-76125000D02*
X203461252Y-76125000D01*
X195396752Y-78792000D02*
X194874248Y-78792000D01*
X195396752Y-80212000D02*
X194874248Y-80212000D01*
X194874248Y-82688500D02*
X195396752Y-82688500D01*
X194874248Y-81268500D02*
X195396752Y-81268500D01*
X236031248Y-129551500D02*
X236553752Y-129551500D01*
X236031248Y-128131500D02*
X236553752Y-128131500D01*
X236031248Y-131837500D02*
X236553752Y-131837500D01*
X236031248Y-130417500D02*
X236553752Y-130417500D01*
X232426252Y-81205000D02*
X231903748Y-81205000D01*
X232426252Y-82625000D02*
X231903748Y-82625000D01*
X232426252Y-71045000D02*
X231903748Y-71045000D01*
X232426252Y-72465000D02*
X231903748Y-72465000D01*
X217880000Y-90431252D02*
X217880000Y-89908748D01*
X216460000Y-90431252D02*
X216460000Y-89908748D01*
X203452252Y-73585000D02*
X202929748Y-73585000D01*
X203452252Y-75005000D02*
X202929748Y-75005000D01*
X195342252Y-83681500D02*
X194819748Y-83681500D01*
X195342252Y-85101500D02*
X194819748Y-85101500D01*
X212650000Y-89908748D02*
X212650000Y-90431252D01*
X214070000Y-89908748D02*
X214070000Y-90431252D01*
X213875252Y-71172000D02*
X213352748Y-71172000D01*
X213875252Y-72592000D02*
X213352748Y-72592000D01*
X237995500Y-120920000D02*
X230695500Y-120920000D01*
X237995500Y-122920000D02*
X237995500Y-120920000D01*
X230695500Y-122920000D02*
X237995500Y-122920000D01*
X190963000Y-120896500D02*
X188103000Y-120896500D01*
X190963000Y-122816500D02*
X190963000Y-120896500D01*
X188103000Y-122816500D02*
X190963000Y-122816500D01*
X190972000Y-137199000D02*
X188112000Y-137199000D01*
X190972000Y-139119000D02*
X190972000Y-137199000D01*
X188112000Y-139119000D02*
X190972000Y-139119000D01*
X216692241Y-98674000D02*
X216692241Y-98044000D01*
X217007241Y-98359000D02*
X216377241Y-98359000D01*
X210266000Y-96922000D02*
X210266000Y-96118000D01*
X210306000Y-97153000D02*
X210306000Y-95887000D01*
X210346000Y-97322000D02*
X210346000Y-95718000D01*
X210386000Y-97460000D02*
X210386000Y-95580000D01*
X210426000Y-97579000D02*
X210426000Y-95461000D01*
X210466000Y-97685000D02*
X210466000Y-95355000D01*
X210506000Y-97782000D02*
X210506000Y-95258000D01*
X210546000Y-97870000D02*
X210546000Y-95170000D01*
X210586000Y-97952000D02*
X210586000Y-95088000D01*
X210626000Y-98029000D02*
X210626000Y-95011000D01*
X210666000Y-98101000D02*
X210666000Y-94939000D01*
X210706000Y-98170000D02*
X210706000Y-94870000D01*
X210746000Y-98234000D02*
X210746000Y-94806000D01*
X210786000Y-98296000D02*
X210786000Y-94744000D01*
X210826000Y-98354000D02*
X210826000Y-94686000D01*
X210866000Y-98410000D02*
X210866000Y-94630000D01*
X210906000Y-98464000D02*
X210906000Y-94576000D01*
X210946000Y-98515000D02*
X210946000Y-94525000D01*
X210986000Y-98564000D02*
X210986000Y-94476000D01*
X211026000Y-98612000D02*
X211026000Y-94428000D01*
X211066000Y-98657000D02*
X211066000Y-94383000D01*
X211106000Y-98702000D02*
X211106000Y-94338000D01*
X211146000Y-98744000D02*
X211146000Y-94296000D01*
X211186000Y-98785000D02*
X211186000Y-94255000D01*
X211226000Y-95480000D02*
X211226000Y-94215000D01*
X211226000Y-98825000D02*
X211226000Y-97560000D01*
X211266000Y-95480000D02*
X211266000Y-94177000D01*
X211266000Y-98863000D02*
X211266000Y-97560000D01*
X211306000Y-95480000D02*
X211306000Y-94140000D01*
X211306000Y-98900000D02*
X211306000Y-97560000D01*
X211346000Y-95480000D02*
X211346000Y-94104000D01*
X211346000Y-98936000D02*
X211346000Y-97560000D01*
X211386000Y-95480000D02*
X211386000Y-94070000D01*
X211386000Y-98970000D02*
X211386000Y-97560000D01*
X211426000Y-95480000D02*
X211426000Y-94036000D01*
X211426000Y-99004000D02*
X211426000Y-97560000D01*
X211466000Y-95480000D02*
X211466000Y-94004000D01*
X211466000Y-99036000D02*
X211466000Y-97560000D01*
X211506000Y-95480000D02*
X211506000Y-93972000D01*
X211506000Y-99068000D02*
X211506000Y-97560000D01*
X211546000Y-95480000D02*
X211546000Y-93942000D01*
X211546000Y-99098000D02*
X211546000Y-97560000D01*
X211586000Y-95480000D02*
X211586000Y-93913000D01*
X211586000Y-99127000D02*
X211586000Y-97560000D01*
X211626000Y-95480000D02*
X211626000Y-93884000D01*
X211626000Y-99156000D02*
X211626000Y-97560000D01*
X211666000Y-95480000D02*
X211666000Y-93856000D01*
X211666000Y-99184000D02*
X211666000Y-97560000D01*
X211706000Y-95480000D02*
X211706000Y-93830000D01*
X211706000Y-99210000D02*
X211706000Y-97560000D01*
X211746000Y-95480000D02*
X211746000Y-93804000D01*
X211746000Y-99236000D02*
X211746000Y-97560000D01*
X211786000Y-95480000D02*
X211786000Y-93778000D01*
X211786000Y-99262000D02*
X211786000Y-97560000D01*
X211826000Y-95480000D02*
X211826000Y-93754000D01*
X211826000Y-99286000D02*
X211826000Y-97560000D01*
X211866000Y-95480000D02*
X211866000Y-93730000D01*
X211866000Y-99310000D02*
X211866000Y-97560000D01*
X211906000Y-95480000D02*
X211906000Y-93708000D01*
X211906000Y-99332000D02*
X211906000Y-97560000D01*
X211946000Y-95480000D02*
X211946000Y-93686000D01*
X211946000Y-99354000D02*
X211946000Y-97560000D01*
X211986000Y-95480000D02*
X211986000Y-93664000D01*
X211986000Y-99376000D02*
X211986000Y-97560000D01*
X212026000Y-95480000D02*
X212026000Y-93644000D01*
X212026000Y-99396000D02*
X212026000Y-97560000D01*
X212066000Y-95480000D02*
X212066000Y-93624000D01*
X212066000Y-99416000D02*
X212066000Y-97560000D01*
X212106000Y-95480000D02*
X212106000Y-93604000D01*
X212106000Y-99436000D02*
X212106000Y-97560000D01*
X212146000Y-95480000D02*
X212146000Y-93586000D01*
X212146000Y-99454000D02*
X212146000Y-97560000D01*
X212186000Y-95480000D02*
X212186000Y-93568000D01*
X212186000Y-99472000D02*
X212186000Y-97560000D01*
X212226000Y-95480000D02*
X212226000Y-93550000D01*
X212226000Y-99490000D02*
X212226000Y-97560000D01*
X212266000Y-95480000D02*
X212266000Y-93534000D01*
X212266000Y-99506000D02*
X212266000Y-97560000D01*
X212306000Y-95480000D02*
X212306000Y-93518000D01*
X212306000Y-99522000D02*
X212306000Y-97560000D01*
X212346000Y-95480000D02*
X212346000Y-93502000D01*
X212346000Y-99538000D02*
X212346000Y-97560000D01*
X212386000Y-95480000D02*
X212386000Y-93487000D01*
X212386000Y-99553000D02*
X212386000Y-97560000D01*
X212426000Y-95480000D02*
X212426000Y-93473000D01*
X212426000Y-99567000D02*
X212426000Y-97560000D01*
X212466000Y-95480000D02*
X212466000Y-93459000D01*
X212466000Y-99581000D02*
X212466000Y-97560000D01*
X212506000Y-95480000D02*
X212506000Y-93446000D01*
X212506000Y-99594000D02*
X212506000Y-97560000D01*
X212546000Y-95480000D02*
X212546000Y-93434000D01*
X212546000Y-99606000D02*
X212546000Y-97560000D01*
X212586000Y-95480000D02*
X212586000Y-93422000D01*
X212586000Y-99618000D02*
X212586000Y-97560000D01*
X212626000Y-95480000D02*
X212626000Y-93410000D01*
X212626000Y-99630000D02*
X212626000Y-97560000D01*
X212666000Y-95480000D02*
X212666000Y-93399000D01*
X212666000Y-99641000D02*
X212666000Y-97560000D01*
X212706000Y-95480000D02*
X212706000Y-93389000D01*
X212706000Y-99651000D02*
X212706000Y-97560000D01*
X212746000Y-95480000D02*
X212746000Y-93379000D01*
X212746000Y-99661000D02*
X212746000Y-97560000D01*
X212786000Y-95480000D02*
X212786000Y-93370000D01*
X212786000Y-99670000D02*
X212786000Y-97560000D01*
X212827000Y-95480000D02*
X212827000Y-93361000D01*
X212827000Y-99679000D02*
X212827000Y-97560000D01*
X212867000Y-95480000D02*
X212867000Y-93353000D01*
X212867000Y-99687000D02*
X212867000Y-97560000D01*
X212907000Y-95480000D02*
X212907000Y-93345000D01*
X212907000Y-99695000D02*
X212907000Y-97560000D01*
X212947000Y-95480000D02*
X212947000Y-93338000D01*
X212947000Y-99702000D02*
X212947000Y-97560000D01*
X212987000Y-95480000D02*
X212987000Y-93331000D01*
X212987000Y-99709000D02*
X212987000Y-97560000D01*
X213027000Y-95480000D02*
X213027000Y-93325000D01*
X213027000Y-99715000D02*
X213027000Y-97560000D01*
X213067000Y-95480000D02*
X213067000Y-93319000D01*
X213067000Y-99721000D02*
X213067000Y-97560000D01*
X213107000Y-95480000D02*
X213107000Y-93314000D01*
X213107000Y-99726000D02*
X213107000Y-97560000D01*
X213147000Y-95480000D02*
X213147000Y-93309000D01*
X213147000Y-99731000D02*
X213147000Y-97560000D01*
X213187000Y-95480000D02*
X213187000Y-93305000D01*
X213187000Y-99735000D02*
X213187000Y-97560000D01*
X213227000Y-95480000D02*
X213227000Y-93302000D01*
X213227000Y-99738000D02*
X213227000Y-97560000D01*
X213267000Y-95480000D02*
X213267000Y-93298000D01*
X213267000Y-99742000D02*
X213267000Y-97560000D01*
X213307000Y-99744000D02*
X213307000Y-93296000D01*
X213347000Y-99747000D02*
X213347000Y-93293000D01*
X213387000Y-99748000D02*
X213387000Y-93292000D01*
X213427000Y-99750000D02*
X213427000Y-93290000D01*
X213467000Y-99750000D02*
X213467000Y-93290000D01*
X213507000Y-99750000D02*
X213507000Y-93290000D01*
X216777000Y-96520000D02*
G75*
G03X216777000Y-96520000I-3270000J0D01*
G01*
X234303000Y-134810500D02*
G75*
G03X234303000Y-134810500I-3270000J0D01*
G01*
X231033000Y-138040500D02*
X231033000Y-131580500D01*
X230993000Y-138040500D02*
X230993000Y-131580500D01*
X230953000Y-138040500D02*
X230953000Y-131580500D01*
X230913000Y-138038500D02*
X230913000Y-131582500D01*
X230873000Y-138037500D02*
X230873000Y-131583500D01*
X230833000Y-138034500D02*
X230833000Y-131586500D01*
X230793000Y-138032500D02*
X230793000Y-135850500D01*
X230793000Y-133770500D02*
X230793000Y-131588500D01*
X230753000Y-138028500D02*
X230753000Y-135850500D01*
X230753000Y-133770500D02*
X230753000Y-131592500D01*
X230713000Y-138025500D02*
X230713000Y-135850500D01*
X230713000Y-133770500D02*
X230713000Y-131595500D01*
X230673000Y-138021500D02*
X230673000Y-135850500D01*
X230673000Y-133770500D02*
X230673000Y-131599500D01*
X230633000Y-138016500D02*
X230633000Y-135850500D01*
X230633000Y-133770500D02*
X230633000Y-131604500D01*
X230593000Y-138011500D02*
X230593000Y-135850500D01*
X230593000Y-133770500D02*
X230593000Y-131609500D01*
X230553000Y-138005500D02*
X230553000Y-135850500D01*
X230553000Y-133770500D02*
X230553000Y-131615500D01*
X230513000Y-137999500D02*
X230513000Y-135850500D01*
X230513000Y-133770500D02*
X230513000Y-131621500D01*
X230473000Y-137992500D02*
X230473000Y-135850500D01*
X230473000Y-133770500D02*
X230473000Y-131628500D01*
X230433000Y-137985500D02*
X230433000Y-135850500D01*
X230433000Y-133770500D02*
X230433000Y-131635500D01*
X230393000Y-137977500D02*
X230393000Y-135850500D01*
X230393000Y-133770500D02*
X230393000Y-131643500D01*
X230353000Y-137969500D02*
X230353000Y-135850500D01*
X230353000Y-133770500D02*
X230353000Y-131651500D01*
X230312000Y-137960500D02*
X230312000Y-135850500D01*
X230312000Y-133770500D02*
X230312000Y-131660500D01*
X230272000Y-137951500D02*
X230272000Y-135850500D01*
X230272000Y-133770500D02*
X230272000Y-131669500D01*
X230232000Y-137941500D02*
X230232000Y-135850500D01*
X230232000Y-133770500D02*
X230232000Y-131679500D01*
X230192000Y-137931500D02*
X230192000Y-135850500D01*
X230192000Y-133770500D02*
X230192000Y-131689500D01*
X230152000Y-137920500D02*
X230152000Y-135850500D01*
X230152000Y-133770500D02*
X230152000Y-131700500D01*
X230112000Y-137908500D02*
X230112000Y-135850500D01*
X230112000Y-133770500D02*
X230112000Y-131712500D01*
X230072000Y-137896500D02*
X230072000Y-135850500D01*
X230072000Y-133770500D02*
X230072000Y-131724500D01*
X230032000Y-137884500D02*
X230032000Y-135850500D01*
X230032000Y-133770500D02*
X230032000Y-131736500D01*
X229992000Y-137871500D02*
X229992000Y-135850500D01*
X229992000Y-133770500D02*
X229992000Y-131749500D01*
X229952000Y-137857500D02*
X229952000Y-135850500D01*
X229952000Y-133770500D02*
X229952000Y-131763500D01*
X229912000Y-137843500D02*
X229912000Y-135850500D01*
X229912000Y-133770500D02*
X229912000Y-131777500D01*
X229872000Y-137828500D02*
X229872000Y-135850500D01*
X229872000Y-133770500D02*
X229872000Y-131792500D01*
X229832000Y-137812500D02*
X229832000Y-135850500D01*
X229832000Y-133770500D02*
X229832000Y-131808500D01*
X229792000Y-137796500D02*
X229792000Y-135850500D01*
X229792000Y-133770500D02*
X229792000Y-131824500D01*
X229752000Y-137780500D02*
X229752000Y-135850500D01*
X229752000Y-133770500D02*
X229752000Y-131840500D01*
X229712000Y-137762500D02*
X229712000Y-135850500D01*
X229712000Y-133770500D02*
X229712000Y-131858500D01*
X229672000Y-137744500D02*
X229672000Y-135850500D01*
X229672000Y-133770500D02*
X229672000Y-131876500D01*
X229632000Y-137726500D02*
X229632000Y-135850500D01*
X229632000Y-133770500D02*
X229632000Y-131894500D01*
X229592000Y-137706500D02*
X229592000Y-135850500D01*
X229592000Y-133770500D02*
X229592000Y-131914500D01*
X229552000Y-137686500D02*
X229552000Y-135850500D01*
X229552000Y-133770500D02*
X229552000Y-131934500D01*
X229512000Y-137666500D02*
X229512000Y-135850500D01*
X229512000Y-133770500D02*
X229512000Y-131954500D01*
X229472000Y-137644500D02*
X229472000Y-135850500D01*
X229472000Y-133770500D02*
X229472000Y-131976500D01*
X229432000Y-137622500D02*
X229432000Y-135850500D01*
X229432000Y-133770500D02*
X229432000Y-131998500D01*
X229392000Y-137600500D02*
X229392000Y-135850500D01*
X229392000Y-133770500D02*
X229392000Y-132020500D01*
X229352000Y-137576500D02*
X229352000Y-135850500D01*
X229352000Y-133770500D02*
X229352000Y-132044500D01*
X229312000Y-137552500D02*
X229312000Y-135850500D01*
X229312000Y-133770500D02*
X229312000Y-132068500D01*
X229272000Y-137526500D02*
X229272000Y-135850500D01*
X229272000Y-133770500D02*
X229272000Y-132094500D01*
X229232000Y-137500500D02*
X229232000Y-135850500D01*
X229232000Y-133770500D02*
X229232000Y-132120500D01*
X229192000Y-137474500D02*
X229192000Y-135850500D01*
X229192000Y-133770500D02*
X229192000Y-132146500D01*
X229152000Y-137446500D02*
X229152000Y-135850500D01*
X229152000Y-133770500D02*
X229152000Y-132174500D01*
X229112000Y-137417500D02*
X229112000Y-135850500D01*
X229112000Y-133770500D02*
X229112000Y-132203500D01*
X229072000Y-137388500D02*
X229072000Y-135850500D01*
X229072000Y-133770500D02*
X229072000Y-132232500D01*
X229032000Y-137358500D02*
X229032000Y-135850500D01*
X229032000Y-133770500D02*
X229032000Y-132262500D01*
X228992000Y-137326500D02*
X228992000Y-135850500D01*
X228992000Y-133770500D02*
X228992000Y-132294500D01*
X228952000Y-137294500D02*
X228952000Y-135850500D01*
X228952000Y-133770500D02*
X228952000Y-132326500D01*
X228912000Y-137260500D02*
X228912000Y-135850500D01*
X228912000Y-133770500D02*
X228912000Y-132360500D01*
X228872000Y-137226500D02*
X228872000Y-135850500D01*
X228872000Y-133770500D02*
X228872000Y-132394500D01*
X228832000Y-137190500D02*
X228832000Y-135850500D01*
X228832000Y-133770500D02*
X228832000Y-132430500D01*
X228792000Y-137153500D02*
X228792000Y-135850500D01*
X228792000Y-133770500D02*
X228792000Y-132467500D01*
X228752000Y-137115500D02*
X228752000Y-135850500D01*
X228752000Y-133770500D02*
X228752000Y-132505500D01*
X228712000Y-137075500D02*
X228712000Y-132545500D01*
X228672000Y-137034500D02*
X228672000Y-132586500D01*
X228632000Y-136992500D02*
X228632000Y-132628500D01*
X228592000Y-136947500D02*
X228592000Y-132673500D01*
X228552000Y-136902500D02*
X228552000Y-132718500D01*
X228512000Y-136854500D02*
X228512000Y-132766500D01*
X228472000Y-136805500D02*
X228472000Y-132815500D01*
X228432000Y-136754500D02*
X228432000Y-132866500D01*
X228392000Y-136700500D02*
X228392000Y-132920500D01*
X228352000Y-136644500D02*
X228352000Y-132976500D01*
X228312000Y-136586500D02*
X228312000Y-133034500D01*
X228272000Y-136524500D02*
X228272000Y-133096500D01*
X228232000Y-136460500D02*
X228232000Y-133160500D01*
X228192000Y-136391500D02*
X228192000Y-133229500D01*
X228152000Y-136319500D02*
X228152000Y-133301500D01*
X228112000Y-136242500D02*
X228112000Y-133378500D01*
X228072000Y-136160500D02*
X228072000Y-133460500D01*
X228032000Y-136072500D02*
X228032000Y-133548500D01*
X227992000Y-135975500D02*
X227992000Y-133645500D01*
X227952000Y-135869500D02*
X227952000Y-133751500D01*
X227912000Y-135750500D02*
X227912000Y-133870500D01*
X227872000Y-135612500D02*
X227872000Y-134008500D01*
X227832000Y-135443500D02*
X227832000Y-134177500D01*
X227792000Y-135212500D02*
X227792000Y-134408500D01*
X234533241Y-136649500D02*
X233903241Y-136649500D01*
X234218241Y-136964500D02*
X234218241Y-136334500D01*
X228728500Y-61674500D02*
G75*
G02X229428500Y-62374500I0J-700000D01*
G01*
X229428500Y-62974500D02*
G75*
G02X228728500Y-63674500I-700000J0D01*
G01*
X227328500Y-63674500D02*
G75*
G02X226628500Y-62974500I0J700000D01*
G01*
X226628500Y-62374500D02*
G75*
G02X227328500Y-61674500I700000J0D01*
G01*
X226628500Y-62974500D02*
X226628500Y-62374500D01*
X228728500Y-63674500D02*
X227328500Y-63674500D01*
X229428500Y-62374500D02*
X229428500Y-62974500D01*
X227328500Y-61674500D02*
X228728500Y-61674500D01*
X212721200Y-114233200D02*
G75*
G02X212021200Y-113533200I0J700000D01*
G01*
X212021200Y-112933200D02*
G75*
G02X212721200Y-112233200I700000J0D01*
G01*
X214121200Y-112233200D02*
G75*
G02X214821200Y-112933200I0J-700000D01*
G01*
X214821200Y-113533200D02*
G75*
G02X214121200Y-114233200I-700000J0D01*
G01*
X214821200Y-112933200D02*
X214821200Y-113533200D01*
X212721200Y-112233200D02*
X214121200Y-112233200D01*
X212021200Y-113533200D02*
X212021200Y-112933200D01*
X214121200Y-114233200D02*
X212721200Y-114233200D01*
X214121200Y-117027200D02*
X212721200Y-117027200D01*
X212021200Y-116327200D02*
X212021200Y-115727200D01*
X212721200Y-115027200D02*
X214121200Y-115027200D01*
X214821200Y-115727200D02*
X214821200Y-116327200D01*
X214821200Y-116327200D02*
G75*
G02X214121200Y-117027200I-700000J0D01*
G01*
X214121200Y-115027200D02*
G75*
G02X214821200Y-115727200I0J-700000D01*
G01*
X212021200Y-115727200D02*
G75*
G02X212721200Y-115027200I700000J0D01*
G01*
X212721200Y-117027200D02*
G75*
G02X212021200Y-116327200I0J700000D01*
G01*
X204530000Y-59750000D02*
X204530000Y-57090000D01*
X199390000Y-59750000D02*
X204530000Y-59750000D01*
X199390000Y-57090000D02*
X204530000Y-57090000D01*
X199390000Y-59750000D02*
X199390000Y-57090000D01*
X198120000Y-59750000D02*
X196790000Y-59750000D01*
X196790000Y-59750000D02*
X196790000Y-58420000D01*
X209490000Y-59750000D02*
X209490000Y-58420000D01*
X210820000Y-59750000D02*
X209490000Y-59750000D01*
X212090000Y-59750000D02*
X212090000Y-57090000D01*
X212090000Y-57090000D02*
X217230000Y-57090000D01*
X212090000Y-59750000D02*
X217230000Y-59750000D01*
X217230000Y-59750000D02*
X217230000Y-57090000D01*
X231200000Y-59750000D02*
X231200000Y-57090000D01*
X226060000Y-59750000D02*
X231200000Y-59750000D01*
X226060000Y-57090000D02*
X231200000Y-57090000D01*
X226060000Y-59750000D02*
X226060000Y-57090000D01*
X224790000Y-59750000D02*
X223460000Y-59750000D01*
X223460000Y-59750000D02*
X223460000Y-58420000D01*
X189460000Y-72164500D02*
X189460000Y-68424500D01*
X196700000Y-72164500D02*
X196700000Y-68424500D01*
X196700000Y-68424500D02*
X189460000Y-68424500D01*
X196700000Y-72164500D02*
X189460000Y-72164500D01*
X203470252Y-82625000D02*
X202947748Y-82625000D01*
X203470252Y-81205000D02*
X202947748Y-81205000D01*
X189373252Y-136837000D02*
X188850748Y-136837000D01*
X189373252Y-135417000D02*
X188850748Y-135417000D01*
X195458248Y-132836500D02*
X195980752Y-132836500D01*
X195458248Y-131416500D02*
X195980752Y-131416500D01*
X189355252Y-118987500D02*
X188832748Y-118987500D01*
X189355252Y-120407500D02*
X188832748Y-120407500D01*
X189355252Y-134822000D02*
X188832748Y-134822000D01*
X189355252Y-133402000D02*
X188832748Y-133402000D01*
X188841748Y-129338000D02*
X189364252Y-129338000D01*
X188841748Y-130758000D02*
X189364252Y-130758000D01*
X235511000Y-119323000D02*
X235511000Y-119453000D01*
X235511000Y-119453000D02*
X230071000Y-119453000D01*
X230071000Y-119453000D02*
X230071000Y-119323000D01*
X235511000Y-116643000D02*
X235511000Y-116513000D01*
X235511000Y-116513000D02*
X230071000Y-116513000D01*
X230071000Y-116513000D02*
X230071000Y-116643000D01*
X234611000Y-119453000D02*
X234611000Y-116513000D01*
X234491000Y-119453000D02*
X234491000Y-116513000D01*
X234731000Y-119453000D02*
X234731000Y-116513000D01*
X194915000Y-67159000D02*
X205115000Y-67159000D01*
X194915000Y-64159000D02*
X194915000Y-67159000D01*
X205115000Y-64159000D02*
X194915000Y-64159000D01*
X203461252Y-80085000D02*
X202938748Y-80085000D01*
X203461252Y-78665000D02*
X202938748Y-78665000D01*
X210260000Y-90431252D02*
X210260000Y-89908748D01*
X208840000Y-90431252D02*
X208840000Y-89908748D01*
X195458248Y-133448500D02*
X195980752Y-133448500D01*
X195458248Y-134868500D02*
X195980752Y-134868500D01*
X195458248Y-135480500D02*
X195980752Y-135480500D01*
X195458248Y-136900500D02*
X195980752Y-136900500D01*
X195980752Y-137512500D02*
X195458248Y-137512500D01*
X195980752Y-138932500D02*
X195458248Y-138932500D01*
X195980752Y-130804500D02*
X195458248Y-130804500D01*
X195980752Y-129384500D02*
X195458248Y-129384500D01*
X189355252Y-131370000D02*
X188832748Y-131370000D01*
X189355252Y-132790000D02*
X188832748Y-132790000D01*
X188832748Y-123178500D02*
X189355252Y-123178500D01*
X188832748Y-124598500D02*
X189355252Y-124598500D01*
X189373252Y-125210500D02*
X188850748Y-125210500D01*
X189373252Y-126630500D02*
X188850748Y-126630500D01*
X188832748Y-128662500D02*
X189355252Y-128662500D01*
X188832748Y-127242500D02*
X189355252Y-127242500D01*
X236553752Y-124979500D02*
X236031248Y-124979500D01*
X236553752Y-123559500D02*
X236031248Y-123559500D01*
D11*
X212598095Y-85177380D02*
X212598095Y-85986904D01*
X212645714Y-86082142D01*
X212693333Y-86129761D01*
X212788571Y-86177380D01*
X212979047Y-86177380D01*
X213074285Y-86129761D01*
X213121904Y-86082142D01*
X213169523Y-85986904D01*
X213169523Y-85177380D01*
X214169523Y-86177380D02*
X213598095Y-86177380D01*
X213883809Y-86177380D02*
X213883809Y-85177380D01*
X213788571Y-85320238D01*
X213693333Y-85415476D01*
X213598095Y-85463095D01*
X233584761Y-86780619D02*
X233489523Y-86733000D01*
X233394285Y-86637761D01*
X233251428Y-86494904D01*
X233156190Y-86447285D01*
X233060952Y-86447285D01*
X233108571Y-86685380D02*
X233013333Y-86637761D01*
X232918095Y-86542523D01*
X232870476Y-86352047D01*
X232870476Y-86018714D01*
X232918095Y-85828238D01*
X233013333Y-85733000D01*
X233108571Y-85685380D01*
X233299047Y-85685380D01*
X233394285Y-85733000D01*
X233489523Y-85828238D01*
X233537142Y-86018714D01*
X233537142Y-86352047D01*
X233489523Y-86542523D01*
X233394285Y-86637761D01*
X233299047Y-86685380D01*
X233108571Y-86685380D01*
X233918095Y-85780619D02*
X233965714Y-85733000D01*
X234060952Y-85685380D01*
X234299047Y-85685380D01*
X234394285Y-85733000D01*
X234441904Y-85780619D01*
X234489523Y-85875857D01*
X234489523Y-85971095D01*
X234441904Y-86113952D01*
X233870476Y-86685380D01*
X234489523Y-86685380D01*
X224917071Y-86717119D02*
X224821833Y-86669500D01*
X224726595Y-86574261D01*
X224583738Y-86431404D01*
X224488500Y-86383785D01*
X224393261Y-86383785D01*
X224440880Y-86621880D02*
X224345642Y-86574261D01*
X224250404Y-86479023D01*
X224202785Y-86288547D01*
X224202785Y-85955214D01*
X224250404Y-85764738D01*
X224345642Y-85669500D01*
X224440880Y-85621880D01*
X224631357Y-85621880D01*
X224726595Y-85669500D01*
X224821833Y-85764738D01*
X224869452Y-85955214D01*
X224869452Y-86288547D01*
X224821833Y-86479023D01*
X224726595Y-86574261D01*
X224631357Y-86621880D01*
X224440880Y-86621880D01*
X225250404Y-85717119D02*
X225298023Y-85669500D01*
X225393261Y-85621880D01*
X225631357Y-85621880D01*
X225726595Y-85669500D01*
X225774214Y-85717119D01*
X225821833Y-85812357D01*
X225821833Y-85907595D01*
X225774214Y-86050452D01*
X225202785Y-86621880D01*
X225821833Y-86621880D01*
X226678976Y-85955214D02*
X226678976Y-86621880D01*
X226440880Y-85574261D02*
X226202785Y-86288547D01*
X226821833Y-86288547D01*
X201263261Y-87796619D02*
X201168023Y-87749000D01*
X201072785Y-87653761D01*
X200929928Y-87510904D01*
X200834690Y-87463285D01*
X200739452Y-87463285D01*
X200787071Y-87701380D02*
X200691833Y-87653761D01*
X200596595Y-87558523D01*
X200548976Y-87368047D01*
X200548976Y-87034714D01*
X200596595Y-86844238D01*
X200691833Y-86749000D01*
X200787071Y-86701380D01*
X200977547Y-86701380D01*
X201072785Y-86749000D01*
X201168023Y-86844238D01*
X201215642Y-87034714D01*
X201215642Y-87368047D01*
X201168023Y-87558523D01*
X201072785Y-87653761D01*
X200977547Y-87701380D01*
X200787071Y-87701380D01*
X202168023Y-87701380D02*
X201596595Y-87701380D01*
X201882309Y-87701380D02*
X201882309Y-86701380D01*
X201787071Y-86844238D01*
X201691833Y-86939476D01*
X201596595Y-86987095D01*
X191897071Y-87542619D02*
X191801833Y-87495000D01*
X191706595Y-87399761D01*
X191563738Y-87256904D01*
X191468500Y-87209285D01*
X191373261Y-87209285D01*
X191420880Y-87447380D02*
X191325642Y-87399761D01*
X191230404Y-87304523D01*
X191182785Y-87114047D01*
X191182785Y-86780714D01*
X191230404Y-86590238D01*
X191325642Y-86495000D01*
X191420880Y-86447380D01*
X191611357Y-86447380D01*
X191706595Y-86495000D01*
X191801833Y-86590238D01*
X191849452Y-86780714D01*
X191849452Y-87114047D01*
X191801833Y-87304523D01*
X191706595Y-87399761D01*
X191611357Y-87447380D01*
X191420880Y-87447380D01*
X192230404Y-86542619D02*
X192278023Y-86495000D01*
X192373261Y-86447380D01*
X192611357Y-86447380D01*
X192706595Y-86495000D01*
X192754214Y-86542619D01*
X192801833Y-86637857D01*
X192801833Y-86733095D01*
X192754214Y-86875952D01*
X192182785Y-87447380D01*
X192801833Y-87447380D01*
X193135166Y-86447380D02*
X193754214Y-86447380D01*
X193420880Y-86828333D01*
X193563738Y-86828333D01*
X193658976Y-86875952D01*
X193706595Y-86923571D01*
X193754214Y-87018809D01*
X193754214Y-87256904D01*
X193706595Y-87352142D01*
X193658976Y-87399761D01*
X193563738Y-87447380D01*
X193278023Y-87447380D01*
X193182785Y-87399761D01*
X193135166Y-87352142D01*
X192341571Y-117641619D02*
X192246333Y-117594000D01*
X192151095Y-117498761D01*
X192008238Y-117355904D01*
X191913000Y-117308285D01*
X191817761Y-117308285D01*
X191865380Y-117546380D02*
X191770142Y-117498761D01*
X191674904Y-117403523D01*
X191627285Y-117213047D01*
X191627285Y-116879714D01*
X191674904Y-116689238D01*
X191770142Y-116594000D01*
X191865380Y-116546380D01*
X192055857Y-116546380D01*
X192151095Y-116594000D01*
X192246333Y-116689238D01*
X192293952Y-116879714D01*
X192293952Y-117213047D01*
X192246333Y-117403523D01*
X192151095Y-117498761D01*
X192055857Y-117546380D01*
X191865380Y-117546380D01*
X192674904Y-116641619D02*
X192722523Y-116594000D01*
X192817761Y-116546380D01*
X193055857Y-116546380D01*
X193151095Y-116594000D01*
X193198714Y-116641619D01*
X193246333Y-116736857D01*
X193246333Y-116832095D01*
X193198714Y-116974952D01*
X192627285Y-117546380D01*
X193246333Y-117546380D01*
X193865380Y-116546380D02*
X193960619Y-116546380D01*
X194055857Y-116594000D01*
X194103476Y-116641619D01*
X194151095Y-116736857D01*
X194198714Y-116927333D01*
X194198714Y-117165428D01*
X194151095Y-117355904D01*
X194103476Y-117451142D01*
X194055857Y-117498761D01*
X193960619Y-117546380D01*
X193865380Y-117546380D01*
X193770142Y-117498761D01*
X193722523Y-117451142D01*
X193674904Y-117355904D01*
X193627285Y-117165428D01*
X193627285Y-116927333D01*
X193674904Y-116736857D01*
X193722523Y-116641619D01*
X193770142Y-116594000D01*
X193865380Y-116546380D01*
X196215071Y-124372619D02*
X196119833Y-124325000D01*
X196024595Y-124229761D01*
X195881738Y-124086904D01*
X195786500Y-124039285D01*
X195691261Y-124039285D01*
X195738880Y-124277380D02*
X195643642Y-124229761D01*
X195548404Y-124134523D01*
X195500785Y-123944047D01*
X195500785Y-123610714D01*
X195548404Y-123420238D01*
X195643642Y-123325000D01*
X195738880Y-123277380D01*
X195929357Y-123277380D01*
X196024595Y-123325000D01*
X196119833Y-123420238D01*
X196167452Y-123610714D01*
X196167452Y-123944047D01*
X196119833Y-124134523D01*
X196024595Y-124229761D01*
X195929357Y-124277380D01*
X195738880Y-124277380D01*
X196548404Y-123372619D02*
X196596023Y-123325000D01*
X196691261Y-123277380D01*
X196929357Y-123277380D01*
X197024595Y-123325000D01*
X197072214Y-123372619D01*
X197119833Y-123467857D01*
X197119833Y-123563095D01*
X197072214Y-123705952D01*
X196500785Y-124277380D01*
X197119833Y-124277380D01*
X198072214Y-124277380D02*
X197500785Y-124277380D01*
X197786500Y-124277380D02*
X197786500Y-123277380D01*
X197691261Y-123420238D01*
X197596023Y-123515476D01*
X197500785Y-123563095D01*
X224853571Y-123991619D02*
X224758333Y-123944000D01*
X224663095Y-123848761D01*
X224520238Y-123705904D01*
X224425000Y-123658285D01*
X224329761Y-123658285D01*
X224377380Y-123896380D02*
X224282142Y-123848761D01*
X224186904Y-123753523D01*
X224139285Y-123563047D01*
X224139285Y-123229714D01*
X224186904Y-123039238D01*
X224282142Y-122944000D01*
X224377380Y-122896380D01*
X224567857Y-122896380D01*
X224663095Y-122944000D01*
X224758333Y-123039238D01*
X224805952Y-123229714D01*
X224805952Y-123563047D01*
X224758333Y-123753523D01*
X224663095Y-123848761D01*
X224567857Y-123896380D01*
X224377380Y-123896380D01*
X225186904Y-122991619D02*
X225234523Y-122944000D01*
X225329761Y-122896380D01*
X225567857Y-122896380D01*
X225663095Y-122944000D01*
X225710714Y-122991619D01*
X225758333Y-123086857D01*
X225758333Y-123182095D01*
X225710714Y-123324952D01*
X225139285Y-123896380D01*
X225758333Y-123896380D01*
X226139285Y-122991619D02*
X226186904Y-122944000D01*
X226282142Y-122896380D01*
X226520238Y-122896380D01*
X226615476Y-122944000D01*
X226663095Y-122991619D01*
X226710714Y-123086857D01*
X226710714Y-123182095D01*
X226663095Y-123324952D01*
X226091666Y-123896380D01*
X226710714Y-123896380D01*
D10*
X211087000Y-121735809D02*
X211201285Y-121773904D01*
X211391761Y-121773904D01*
X211467952Y-121735809D01*
X211506047Y-121697714D01*
X211544142Y-121621523D01*
X211544142Y-121545333D01*
X211506047Y-121469142D01*
X211467952Y-121431047D01*
X211391761Y-121392952D01*
X211239380Y-121354857D01*
X211163190Y-121316761D01*
X211125095Y-121278666D01*
X211087000Y-121202476D01*
X211087000Y-121126285D01*
X211125095Y-121050095D01*
X211163190Y-121012000D01*
X211239380Y-120973904D01*
X211429857Y-120973904D01*
X211544142Y-121012000D01*
X211810809Y-120973904D02*
X212001285Y-121773904D01*
X212153666Y-121202476D01*
X212306047Y-121773904D01*
X212496523Y-120973904D01*
X212610809Y-121850095D02*
X213220333Y-121850095D01*
X213296523Y-120973904D02*
X213753666Y-120973904D01*
X213525095Y-121773904D02*
X213525095Y-120973904D01*
X214020333Y-121773904D02*
X214020333Y-120973904D01*
X214325095Y-120973904D01*
X214401285Y-121012000D01*
X214439380Y-121050095D01*
X214477476Y-121126285D01*
X214477476Y-121240571D01*
X214439380Y-121316761D01*
X214401285Y-121354857D01*
X214325095Y-121392952D01*
X214020333Y-121392952D01*
X214820333Y-121773904D02*
X214820333Y-120973904D01*
X215010809Y-120973904D01*
X215125095Y-121012000D01*
X215201285Y-121088190D01*
X215239380Y-121164380D01*
X215277476Y-121316761D01*
X215277476Y-121431047D01*
X215239380Y-121583428D01*
X215201285Y-121659619D01*
X215125095Y-121735809D01*
X215010809Y-121773904D01*
X214820333Y-121773904D01*
X215506047Y-120973904D02*
X215963190Y-120973904D01*
X215734619Y-121773904D02*
X215734619Y-120973904D01*
D11*
X209732642Y-70111880D02*
X209399309Y-69635690D01*
X209161214Y-70111880D02*
X209161214Y-69111880D01*
X209542166Y-69111880D01*
X209637404Y-69159500D01*
X209685023Y-69207119D01*
X209732642Y-69302357D01*
X209732642Y-69445214D01*
X209685023Y-69540452D01*
X209637404Y-69588071D01*
X209542166Y-69635690D01*
X209161214Y-69635690D01*
X210685023Y-70111880D02*
X210113595Y-70111880D01*
X210399309Y-70111880D02*
X210399309Y-69111880D01*
X210304071Y-69254738D01*
X210208833Y-69349976D01*
X210113595Y-69397595D01*
X211065976Y-69207119D02*
X211113595Y-69159500D01*
X211208833Y-69111880D01*
X211446928Y-69111880D01*
X211542166Y-69159500D01*
X211589785Y-69207119D01*
X211637404Y-69302357D01*
X211637404Y-69397595D01*
X211589785Y-69540452D01*
X211018357Y-70111880D01*
X211637404Y-70111880D01*
X198969333Y-70715142D02*
X198921714Y-70762761D01*
X198778857Y-70810380D01*
X198683619Y-70810380D01*
X198540761Y-70762761D01*
X198445523Y-70667523D01*
X198397904Y-70572285D01*
X198350285Y-70381809D01*
X198350285Y-70238952D01*
X198397904Y-70048476D01*
X198445523Y-69953238D01*
X198540761Y-69858000D01*
X198683619Y-69810380D01*
X198778857Y-69810380D01*
X198921714Y-69858000D01*
X198969333Y-69905619D01*
X199302666Y-69810380D02*
X199969333Y-69810380D01*
X199540761Y-70810380D01*
X187317142Y-65063642D02*
X187269523Y-65111261D01*
X187126666Y-65158880D01*
X187031428Y-65158880D01*
X186888571Y-65111261D01*
X186793333Y-65016023D01*
X186745714Y-64920785D01*
X186698095Y-64730309D01*
X186698095Y-64587452D01*
X186745714Y-64396976D01*
X186793333Y-64301738D01*
X186888571Y-64206500D01*
X187031428Y-64158880D01*
X187126666Y-64158880D01*
X187269523Y-64206500D01*
X187317142Y-64254119D01*
X188269523Y-65158880D02*
X187698095Y-65158880D01*
X187983809Y-65158880D02*
X187983809Y-64158880D01*
X187888571Y-64301738D01*
X187793333Y-64396976D01*
X187698095Y-64444595D01*
X188602857Y-64158880D02*
X189269523Y-64158880D01*
X188840952Y-65158880D01*
X185094642Y-118181380D02*
X184761309Y-117705190D01*
X184523214Y-118181380D02*
X184523214Y-117181380D01*
X184904166Y-117181380D01*
X184999404Y-117229000D01*
X185047023Y-117276619D01*
X185094642Y-117371857D01*
X185094642Y-117514714D01*
X185047023Y-117609952D01*
X184999404Y-117657571D01*
X184904166Y-117705190D01*
X184523214Y-117705190D01*
X185475595Y-117276619D02*
X185523214Y-117229000D01*
X185618452Y-117181380D01*
X185856547Y-117181380D01*
X185951785Y-117229000D01*
X185999404Y-117276619D01*
X186047023Y-117371857D01*
X186047023Y-117467095D01*
X185999404Y-117609952D01*
X185427976Y-118181380D01*
X186047023Y-118181380D01*
X186523214Y-118181380D02*
X186713690Y-118181380D01*
X186808928Y-118133761D01*
X186856547Y-118086142D01*
X186951785Y-117943285D01*
X186999404Y-117752809D01*
X186999404Y-117371857D01*
X186951785Y-117276619D01*
X186904166Y-117229000D01*
X186808928Y-117181380D01*
X186618452Y-117181380D01*
X186523214Y-117229000D01*
X186475595Y-117276619D01*
X186427976Y-117371857D01*
X186427976Y-117609952D01*
X186475595Y-117705190D01*
X186523214Y-117752809D01*
X186618452Y-117800428D01*
X186808928Y-117800428D01*
X186904166Y-117752809D01*
X186951785Y-117705190D01*
X186999404Y-117609952D01*
X191190642Y-77319142D02*
X191143023Y-77366761D01*
X191000166Y-77414380D01*
X190904928Y-77414380D01*
X190762071Y-77366761D01*
X190666833Y-77271523D01*
X190619214Y-77176285D01*
X190571595Y-76985809D01*
X190571595Y-76842952D01*
X190619214Y-76652476D01*
X190666833Y-76557238D01*
X190762071Y-76462000D01*
X190904928Y-76414380D01*
X191000166Y-76414380D01*
X191143023Y-76462000D01*
X191190642Y-76509619D01*
X192143023Y-77414380D02*
X191571595Y-77414380D01*
X191857309Y-77414380D02*
X191857309Y-76414380D01*
X191762071Y-76557238D01*
X191666833Y-76652476D01*
X191571595Y-76700095D01*
X192714452Y-76842952D02*
X192619214Y-76795333D01*
X192571595Y-76747714D01*
X192523976Y-76652476D01*
X192523976Y-76604857D01*
X192571595Y-76509619D01*
X192619214Y-76462000D01*
X192714452Y-76414380D01*
X192904928Y-76414380D01*
X193000166Y-76462000D01*
X193047785Y-76509619D01*
X193095404Y-76604857D01*
X193095404Y-76652476D01*
X193047785Y-76747714D01*
X193000166Y-76795333D01*
X192904928Y-76842952D01*
X192714452Y-76842952D01*
X192619214Y-76890571D01*
X192571595Y-76938190D01*
X192523976Y-77033428D01*
X192523976Y-77223904D01*
X192571595Y-77319142D01*
X192619214Y-77366761D01*
X192714452Y-77414380D01*
X192904928Y-77414380D01*
X193000166Y-77366761D01*
X193047785Y-77319142D01*
X193095404Y-77223904D01*
X193095404Y-77033428D01*
X193047785Y-76938190D01*
X193000166Y-76890571D01*
X192904928Y-76842952D01*
X209605642Y-74398142D02*
X209558023Y-74445761D01*
X209415166Y-74493380D01*
X209319928Y-74493380D01*
X209177071Y-74445761D01*
X209081833Y-74350523D01*
X209034214Y-74255285D01*
X208986595Y-74064809D01*
X208986595Y-73921952D01*
X209034214Y-73731476D01*
X209081833Y-73636238D01*
X209177071Y-73541000D01*
X209319928Y-73493380D01*
X209415166Y-73493380D01*
X209558023Y-73541000D01*
X209605642Y-73588619D01*
X210558023Y-74493380D02*
X209986595Y-74493380D01*
X210272309Y-74493380D02*
X210272309Y-73493380D01*
X210177071Y-73636238D01*
X210081833Y-73731476D01*
X209986595Y-73779095D01*
X211415166Y-73493380D02*
X211224690Y-73493380D01*
X211129452Y-73541000D01*
X211081833Y-73588619D01*
X210986595Y-73731476D01*
X210938976Y-73921952D01*
X210938976Y-74302904D01*
X210986595Y-74398142D01*
X211034214Y-74445761D01*
X211129452Y-74493380D01*
X211319928Y-74493380D01*
X211415166Y-74445761D01*
X211462785Y-74398142D01*
X211510404Y-74302904D01*
X211510404Y-74064809D01*
X211462785Y-73969571D01*
X211415166Y-73921952D01*
X211319928Y-73874333D01*
X211129452Y-73874333D01*
X211034214Y-73921952D01*
X210986595Y-73969571D01*
X210938976Y-74064809D01*
X228147642Y-67222642D02*
X228100023Y-67270261D01*
X227957166Y-67317880D01*
X227861928Y-67317880D01*
X227719071Y-67270261D01*
X227623833Y-67175023D01*
X227576214Y-67079785D01*
X227528595Y-66889309D01*
X227528595Y-66746452D01*
X227576214Y-66555976D01*
X227623833Y-66460738D01*
X227719071Y-66365500D01*
X227861928Y-66317880D01*
X227957166Y-66317880D01*
X228100023Y-66365500D01*
X228147642Y-66413119D01*
X229100023Y-67317880D02*
X228528595Y-67317880D01*
X228814309Y-67317880D02*
X228814309Y-66317880D01*
X228719071Y-66460738D01*
X228623833Y-66555976D01*
X228528595Y-66603595D01*
X230004785Y-66317880D02*
X229528595Y-66317880D01*
X229480976Y-66794071D01*
X229528595Y-66746452D01*
X229623833Y-66698833D01*
X229861928Y-66698833D01*
X229957166Y-66746452D01*
X230004785Y-66794071D01*
X230052404Y-66889309D01*
X230052404Y-67127404D01*
X230004785Y-67222642D01*
X229957166Y-67270261D01*
X229861928Y-67317880D01*
X229623833Y-67317880D01*
X229528595Y-67270261D01*
X229480976Y-67222642D01*
X220146642Y-67222642D02*
X220099023Y-67270261D01*
X219956166Y-67317880D01*
X219860928Y-67317880D01*
X219718071Y-67270261D01*
X219622833Y-67175023D01*
X219575214Y-67079785D01*
X219527595Y-66889309D01*
X219527595Y-66746452D01*
X219575214Y-66555976D01*
X219622833Y-66460738D01*
X219718071Y-66365500D01*
X219860928Y-66317880D01*
X219956166Y-66317880D01*
X220099023Y-66365500D01*
X220146642Y-66413119D01*
X221099023Y-67317880D02*
X220527595Y-67317880D01*
X220813309Y-67317880D02*
X220813309Y-66317880D01*
X220718071Y-66460738D01*
X220622833Y-66555976D01*
X220527595Y-66603595D01*
X221956166Y-66651214D02*
X221956166Y-67317880D01*
X221718071Y-66270261D02*
X221479976Y-66984547D01*
X222099023Y-66984547D01*
D10*
X199707761Y-139515809D02*
X199822047Y-139553904D01*
X200012523Y-139553904D01*
X200088714Y-139515809D01*
X200126809Y-139477714D01*
X200164904Y-139401523D01*
X200164904Y-139325333D01*
X200126809Y-139249142D01*
X200088714Y-139211047D01*
X200012523Y-139172952D01*
X199860142Y-139134857D01*
X199783952Y-139096761D01*
X199745857Y-139058666D01*
X199707761Y-138982476D01*
X199707761Y-138906285D01*
X199745857Y-138830095D01*
X199783952Y-138792000D01*
X199860142Y-138753904D01*
X200050619Y-138753904D01*
X200164904Y-138792000D01*
X200431571Y-138753904D02*
X200622047Y-139553904D01*
X200774428Y-138982476D01*
X200926809Y-139553904D01*
X201117285Y-138753904D01*
X201231571Y-139630095D02*
X201841095Y-139630095D01*
X201917285Y-138753904D02*
X202374428Y-138753904D01*
X202145857Y-139553904D02*
X202145857Y-138753904D01*
X202907761Y-139134857D02*
X203022047Y-139172952D01*
X203060142Y-139211047D01*
X203098238Y-139287238D01*
X203098238Y-139401523D01*
X203060142Y-139477714D01*
X203022047Y-139515809D01*
X202945857Y-139553904D01*
X202641095Y-139553904D01*
X202641095Y-138753904D01*
X202907761Y-138753904D01*
X202983952Y-138792000D01*
X203022047Y-138830095D01*
X203060142Y-138906285D01*
X203060142Y-138982476D01*
X203022047Y-139058666D01*
X202983952Y-139096761D01*
X202907761Y-139134857D01*
X202641095Y-139134857D01*
X203441095Y-139553904D02*
X203441095Y-138753904D01*
X203745857Y-138753904D01*
X203822047Y-138792000D01*
X203860142Y-138830095D01*
X203898238Y-138906285D01*
X203898238Y-139020571D01*
X203860142Y-139096761D01*
X203822047Y-139134857D01*
X203745857Y-139172952D01*
X203441095Y-139172952D01*
D11*
X198683642Y-130373380D02*
X198350309Y-129897190D01*
X198112214Y-130373380D02*
X198112214Y-129373380D01*
X198493166Y-129373380D01*
X198588404Y-129421000D01*
X198636023Y-129468619D01*
X198683642Y-129563857D01*
X198683642Y-129706714D01*
X198636023Y-129801952D01*
X198588404Y-129849571D01*
X198493166Y-129897190D01*
X198112214Y-129897190D01*
X199064595Y-129468619D02*
X199112214Y-129421000D01*
X199207452Y-129373380D01*
X199445547Y-129373380D01*
X199540785Y-129421000D01*
X199588404Y-129468619D01*
X199636023Y-129563857D01*
X199636023Y-129659095D01*
X199588404Y-129801952D01*
X199016976Y-130373380D01*
X199636023Y-130373380D01*
X200540785Y-129373380D02*
X200064595Y-129373380D01*
X200016976Y-129849571D01*
X200064595Y-129801952D01*
X200159833Y-129754333D01*
X200397928Y-129754333D01*
X200493166Y-129801952D01*
X200540785Y-129849571D01*
X200588404Y-129944809D01*
X200588404Y-130182904D01*
X200540785Y-130278142D01*
X200493166Y-130325761D01*
X200397928Y-130373380D01*
X200159833Y-130373380D01*
X200064595Y-130325761D01*
X200016976Y-130278142D01*
X198721142Y-128582880D02*
X198387809Y-128106690D01*
X198149714Y-128582880D02*
X198149714Y-127582880D01*
X198530666Y-127582880D01*
X198625904Y-127630500D01*
X198673523Y-127678119D01*
X198721142Y-127773357D01*
X198721142Y-127916214D01*
X198673523Y-128011452D01*
X198625904Y-128059071D01*
X198530666Y-128106690D01*
X198149714Y-128106690D01*
X199102095Y-127678119D02*
X199149714Y-127630500D01*
X199244952Y-127582880D01*
X199483047Y-127582880D01*
X199578285Y-127630500D01*
X199625904Y-127678119D01*
X199673523Y-127773357D01*
X199673523Y-127868595D01*
X199625904Y-128011452D01*
X199054476Y-128582880D01*
X199673523Y-128582880D01*
X200530666Y-127582880D02*
X200340190Y-127582880D01*
X200244952Y-127630500D01*
X200197333Y-127678119D01*
X200102095Y-127820976D01*
X200054476Y-128011452D01*
X200054476Y-128392404D01*
X200102095Y-128487642D01*
X200149714Y-128535261D01*
X200244952Y-128582880D01*
X200435428Y-128582880D01*
X200530666Y-128535261D01*
X200578285Y-128487642D01*
X200625904Y-128392404D01*
X200625904Y-128154309D01*
X200578285Y-128059071D01*
X200530666Y-128011452D01*
X200435428Y-127963833D01*
X200244952Y-127963833D01*
X200149714Y-128011452D01*
X200102095Y-128059071D01*
X200054476Y-128154309D01*
X198556642Y-132341880D02*
X198223309Y-131865690D01*
X197985214Y-132341880D02*
X197985214Y-131341880D01*
X198366166Y-131341880D01*
X198461404Y-131389500D01*
X198509023Y-131437119D01*
X198556642Y-131532357D01*
X198556642Y-131675214D01*
X198509023Y-131770452D01*
X198461404Y-131818071D01*
X198366166Y-131865690D01*
X197985214Y-131865690D01*
X198937595Y-131437119D02*
X198985214Y-131389500D01*
X199080452Y-131341880D01*
X199318547Y-131341880D01*
X199413785Y-131389500D01*
X199461404Y-131437119D01*
X199509023Y-131532357D01*
X199509023Y-131627595D01*
X199461404Y-131770452D01*
X198889976Y-132341880D01*
X199509023Y-132341880D01*
X199842357Y-131341880D02*
X200509023Y-131341880D01*
X200080452Y-132341880D01*
X198620142Y-126150642D02*
X198572523Y-126198261D01*
X198429666Y-126245880D01*
X198334428Y-126245880D01*
X198191571Y-126198261D01*
X198096333Y-126103023D01*
X198048714Y-126007785D01*
X198001095Y-125817309D01*
X198001095Y-125674452D01*
X198048714Y-125483976D01*
X198096333Y-125388738D01*
X198191571Y-125293500D01*
X198334428Y-125245880D01*
X198429666Y-125245880D01*
X198572523Y-125293500D01*
X198620142Y-125341119D01*
X199001095Y-125341119D02*
X199048714Y-125293500D01*
X199143952Y-125245880D01*
X199382047Y-125245880D01*
X199477285Y-125293500D01*
X199524904Y-125341119D01*
X199572523Y-125436357D01*
X199572523Y-125531595D01*
X199524904Y-125674452D01*
X198953476Y-126245880D01*
X199572523Y-126245880D01*
X199953476Y-125341119D02*
X200001095Y-125293500D01*
X200096333Y-125245880D01*
X200334428Y-125245880D01*
X200429666Y-125293500D01*
X200477285Y-125341119D01*
X200524904Y-125436357D01*
X200524904Y-125531595D01*
X200477285Y-125674452D01*
X199905857Y-126245880D01*
X200524904Y-126245880D01*
X198175714Y-117990880D02*
X198175714Y-116990880D01*
X198413809Y-116990880D01*
X198556666Y-117038500D01*
X198651904Y-117133738D01*
X198699523Y-117228976D01*
X198747142Y-117419452D01*
X198747142Y-117562309D01*
X198699523Y-117752785D01*
X198651904Y-117848023D01*
X198556666Y-117943261D01*
X198413809Y-117990880D01*
X198175714Y-117990880D01*
X199128095Y-117086119D02*
X199175714Y-117038500D01*
X199270952Y-116990880D01*
X199509047Y-116990880D01*
X199604285Y-117038500D01*
X199651904Y-117086119D01*
X199699523Y-117181357D01*
X199699523Y-117276595D01*
X199651904Y-117419452D01*
X199080476Y-117990880D01*
X199699523Y-117990880D01*
X200080476Y-117086119D02*
X200128095Y-117038500D01*
X200223333Y-116990880D01*
X200461428Y-116990880D01*
X200556666Y-117038500D01*
X200604285Y-117086119D01*
X200651904Y-117181357D01*
X200651904Y-117276595D01*
X200604285Y-117419452D01*
X200032857Y-117990880D01*
X200651904Y-117990880D01*
X198747142Y-124086880D02*
X198413809Y-123610690D01*
X198175714Y-124086880D02*
X198175714Y-123086880D01*
X198556666Y-123086880D01*
X198651904Y-123134500D01*
X198699523Y-123182119D01*
X198747142Y-123277357D01*
X198747142Y-123420214D01*
X198699523Y-123515452D01*
X198651904Y-123563071D01*
X198556666Y-123610690D01*
X198175714Y-123610690D01*
X199080476Y-123086880D02*
X199699523Y-123086880D01*
X199366190Y-123467833D01*
X199509047Y-123467833D01*
X199604285Y-123515452D01*
X199651904Y-123563071D01*
X199699523Y-123658309D01*
X199699523Y-123896404D01*
X199651904Y-123991642D01*
X199604285Y-124039261D01*
X199509047Y-124086880D01*
X199223333Y-124086880D01*
X199128095Y-124039261D01*
X199080476Y-123991642D01*
X200318571Y-123086880D02*
X200413809Y-123086880D01*
X200509047Y-123134500D01*
X200556666Y-123182119D01*
X200604285Y-123277357D01*
X200651904Y-123467833D01*
X200651904Y-123705928D01*
X200604285Y-123896404D01*
X200556666Y-123991642D01*
X200509047Y-124039261D01*
X200413809Y-124086880D01*
X200318571Y-124086880D01*
X200223333Y-124039261D01*
X200175714Y-123991642D01*
X200128095Y-123896404D01*
X200080476Y-123705928D01*
X200080476Y-123467833D01*
X200128095Y-123277357D01*
X200175714Y-123182119D01*
X200223333Y-123134500D01*
X200318571Y-123086880D01*
X198747142Y-120086380D02*
X198413809Y-119610190D01*
X198175714Y-120086380D02*
X198175714Y-119086380D01*
X198556666Y-119086380D01*
X198651904Y-119134000D01*
X198699523Y-119181619D01*
X198747142Y-119276857D01*
X198747142Y-119419714D01*
X198699523Y-119514952D01*
X198651904Y-119562571D01*
X198556666Y-119610190D01*
X198175714Y-119610190D01*
X199080476Y-119086380D02*
X199699523Y-119086380D01*
X199366190Y-119467333D01*
X199509047Y-119467333D01*
X199604285Y-119514952D01*
X199651904Y-119562571D01*
X199699523Y-119657809D01*
X199699523Y-119895904D01*
X199651904Y-119991142D01*
X199604285Y-120038761D01*
X199509047Y-120086380D01*
X199223333Y-120086380D01*
X199128095Y-120038761D01*
X199080476Y-119991142D01*
X200556666Y-119086380D02*
X200366190Y-119086380D01*
X200270952Y-119134000D01*
X200223333Y-119181619D01*
X200128095Y-119324476D01*
X200080476Y-119514952D01*
X200080476Y-119895904D01*
X200128095Y-119991142D01*
X200175714Y-120038761D01*
X200270952Y-120086380D01*
X200461428Y-120086380D01*
X200556666Y-120038761D01*
X200604285Y-119991142D01*
X200651904Y-119895904D01*
X200651904Y-119657809D01*
X200604285Y-119562571D01*
X200556666Y-119514952D01*
X200461428Y-119467333D01*
X200270952Y-119467333D01*
X200175714Y-119514952D01*
X200128095Y-119562571D01*
X200080476Y-119657809D01*
X198756142Y-122086642D02*
X198708523Y-122134261D01*
X198565666Y-122181880D01*
X198470428Y-122181880D01*
X198327571Y-122134261D01*
X198232333Y-122039023D01*
X198184714Y-121943785D01*
X198137095Y-121753309D01*
X198137095Y-121610452D01*
X198184714Y-121419976D01*
X198232333Y-121324738D01*
X198327571Y-121229500D01*
X198470428Y-121181880D01*
X198565666Y-121181880D01*
X198708523Y-121229500D01*
X198756142Y-121277119D01*
X199137095Y-121277119D02*
X199184714Y-121229500D01*
X199279952Y-121181880D01*
X199518047Y-121181880D01*
X199613285Y-121229500D01*
X199660904Y-121277119D01*
X199708523Y-121372357D01*
X199708523Y-121467595D01*
X199660904Y-121610452D01*
X199089476Y-122181880D01*
X199708523Y-122181880D01*
X200613285Y-121181880D02*
X200137095Y-121181880D01*
X200089476Y-121658071D01*
X200137095Y-121610452D01*
X200232333Y-121562833D01*
X200470428Y-121562833D01*
X200565666Y-121610452D01*
X200613285Y-121658071D01*
X200660904Y-121753309D01*
X200660904Y-121991404D01*
X200613285Y-122086642D01*
X200565666Y-122134261D01*
X200470428Y-122181880D01*
X200232333Y-122181880D01*
X200137095Y-122134261D01*
X200089476Y-122086642D01*
X232220642Y-127134880D02*
X231887309Y-126658690D01*
X231649214Y-127134880D02*
X231649214Y-126134880D01*
X232030166Y-126134880D01*
X232125404Y-126182500D01*
X232173023Y-126230119D01*
X232220642Y-126325357D01*
X232220642Y-126468214D01*
X232173023Y-126563452D01*
X232125404Y-126611071D01*
X232030166Y-126658690D01*
X231649214Y-126658690D01*
X233173023Y-127134880D02*
X232601595Y-127134880D01*
X232887309Y-127134880D02*
X232887309Y-126134880D01*
X232792071Y-126277738D01*
X232696833Y-126372976D01*
X232601595Y-126420595D01*
X233744452Y-126563452D02*
X233649214Y-126515833D01*
X233601595Y-126468214D01*
X233553976Y-126372976D01*
X233553976Y-126325357D01*
X233601595Y-126230119D01*
X233649214Y-126182500D01*
X233744452Y-126134880D01*
X233934928Y-126134880D01*
X234030166Y-126182500D01*
X234077785Y-126230119D01*
X234125404Y-126325357D01*
X234125404Y-126372976D01*
X234077785Y-126468214D01*
X234030166Y-126515833D01*
X233934928Y-126563452D01*
X233744452Y-126563452D01*
X233649214Y-126611071D01*
X233601595Y-126658690D01*
X233553976Y-126753928D01*
X233553976Y-126944404D01*
X233601595Y-127039642D01*
X233649214Y-127087261D01*
X233744452Y-127134880D01*
X233934928Y-127134880D01*
X234030166Y-127087261D01*
X234077785Y-127039642D01*
X234125404Y-126944404D01*
X234125404Y-126753928D01*
X234077785Y-126658690D01*
X234030166Y-126611071D01*
X233934928Y-126563452D01*
X220273642Y-72112142D02*
X220226023Y-72159761D01*
X220083166Y-72207380D01*
X219987928Y-72207380D01*
X219845071Y-72159761D01*
X219749833Y-72064523D01*
X219702214Y-71969285D01*
X219654595Y-71778809D01*
X219654595Y-71635952D01*
X219702214Y-71445476D01*
X219749833Y-71350238D01*
X219845071Y-71255000D01*
X219987928Y-71207380D01*
X220083166Y-71207380D01*
X220226023Y-71255000D01*
X220273642Y-71302619D01*
X221226023Y-72207380D02*
X220654595Y-72207380D01*
X220940309Y-72207380D02*
X220940309Y-71207380D01*
X220845071Y-71350238D01*
X220749833Y-71445476D01*
X220654595Y-71493095D01*
X222178404Y-72207380D02*
X221606976Y-72207380D01*
X221892690Y-72207380D02*
X221892690Y-71207380D01*
X221797452Y-71350238D01*
X221702214Y-71445476D01*
X221606976Y-71493095D01*
X212780642Y-62523642D02*
X212733023Y-62571261D01*
X212590166Y-62618880D01*
X212494928Y-62618880D01*
X212352071Y-62571261D01*
X212256833Y-62476023D01*
X212209214Y-62380785D01*
X212161595Y-62190309D01*
X212161595Y-62047452D01*
X212209214Y-61856976D01*
X212256833Y-61761738D01*
X212352071Y-61666500D01*
X212494928Y-61618880D01*
X212590166Y-61618880D01*
X212733023Y-61666500D01*
X212780642Y-61714119D01*
X213733023Y-62618880D02*
X213161595Y-62618880D01*
X213447309Y-62618880D02*
X213447309Y-61618880D01*
X213352071Y-61761738D01*
X213256833Y-61856976D01*
X213161595Y-61904595D01*
X214352071Y-61618880D02*
X214447309Y-61618880D01*
X214542547Y-61666500D01*
X214590166Y-61714119D01*
X214637785Y-61809357D01*
X214685404Y-61999833D01*
X214685404Y-62237928D01*
X214637785Y-62428404D01*
X214590166Y-62523642D01*
X214542547Y-62571261D01*
X214447309Y-62618880D01*
X214352071Y-62618880D01*
X214256833Y-62571261D01*
X214209214Y-62523642D01*
X214161595Y-62428404D01*
X214113976Y-62237928D01*
X214113976Y-61999833D01*
X214161595Y-61809357D01*
X214209214Y-61714119D01*
X214256833Y-61666500D01*
X214352071Y-61618880D01*
X200493404Y-62618880D02*
X200493404Y-61618880D01*
X200731500Y-61618880D01*
X200874357Y-61666500D01*
X200969595Y-61761738D01*
X201017214Y-61856976D01*
X201064833Y-62047452D01*
X201064833Y-62190309D01*
X201017214Y-62380785D01*
X200969595Y-62476023D01*
X200874357Y-62571261D01*
X200731500Y-62618880D01*
X200493404Y-62618880D01*
X201445785Y-61714119D02*
X201493404Y-61666500D01*
X201588642Y-61618880D01*
X201826738Y-61618880D01*
X201921976Y-61666500D01*
X201969595Y-61714119D01*
X202017214Y-61809357D01*
X202017214Y-61904595D01*
X201969595Y-62047452D01*
X201398166Y-62618880D01*
X202017214Y-62618880D01*
D10*
X238004428Y-138944357D02*
X238118714Y-138982452D01*
X238156809Y-139020547D01*
X238194904Y-139096738D01*
X238194904Y-139211023D01*
X238156809Y-139287214D01*
X238118714Y-139325309D01*
X238042523Y-139363404D01*
X237737761Y-139363404D01*
X237737761Y-138563404D01*
X238004428Y-138563404D01*
X238080619Y-138601500D01*
X238118714Y-138639595D01*
X238156809Y-138715785D01*
X238156809Y-138791976D01*
X238118714Y-138868166D01*
X238080619Y-138906261D01*
X238004428Y-138944357D01*
X237737761Y-138944357D01*
X238423476Y-138563404D02*
X238880619Y-138563404D01*
X238652047Y-139363404D02*
X238652047Y-138563404D01*
X239566333Y-139363404D02*
X239109190Y-139363404D01*
X239337761Y-139363404D02*
X239337761Y-138563404D01*
X239261571Y-138677690D01*
X239185380Y-138753880D01*
X239109190Y-138791976D01*
D11*
X220210142Y-69667380D02*
X219876809Y-69191190D01*
X219638714Y-69667380D02*
X219638714Y-68667380D01*
X220019666Y-68667380D01*
X220114904Y-68715000D01*
X220162523Y-68762619D01*
X220210142Y-68857857D01*
X220210142Y-69000714D01*
X220162523Y-69095952D01*
X220114904Y-69143571D01*
X220019666Y-69191190D01*
X219638714Y-69191190D01*
X221162523Y-69667380D02*
X220591095Y-69667380D01*
X220876809Y-69667380D02*
X220876809Y-68667380D01*
X220781571Y-68810238D01*
X220686333Y-68905476D01*
X220591095Y-68953095D01*
X221638714Y-69667380D02*
X221829190Y-69667380D01*
X221924428Y-69619761D01*
X221972047Y-69572142D01*
X222067285Y-69429285D01*
X222114904Y-69238809D01*
X222114904Y-68857857D01*
X222067285Y-68762619D01*
X222019666Y-68715000D01*
X221924428Y-68667380D01*
X221733952Y-68667380D01*
X221638714Y-68715000D01*
X221591095Y-68762619D01*
X221543476Y-68857857D01*
X221543476Y-69095952D01*
X221591095Y-69191190D01*
X221638714Y-69238809D01*
X221733952Y-69286428D01*
X221924428Y-69286428D01*
X222019666Y-69238809D01*
X222067285Y-69191190D01*
X222114904Y-69095952D01*
X228084142Y-69667380D02*
X227750809Y-69191190D01*
X227512714Y-69667380D02*
X227512714Y-68667380D01*
X227893666Y-68667380D01*
X227988904Y-68715000D01*
X228036523Y-68762619D01*
X228084142Y-68857857D01*
X228084142Y-69000714D01*
X228036523Y-69095952D01*
X227988904Y-69143571D01*
X227893666Y-69191190D01*
X227512714Y-69191190D01*
X229036523Y-69667380D02*
X228465095Y-69667380D01*
X228750809Y-69667380D02*
X228750809Y-68667380D01*
X228655571Y-68810238D01*
X228560333Y-68905476D01*
X228465095Y-68953095D01*
X229369857Y-68667380D02*
X230036523Y-68667380D01*
X229607952Y-69667380D01*
X228147642Y-79827380D02*
X227814309Y-79351190D01*
X227576214Y-79827380D02*
X227576214Y-78827380D01*
X227957166Y-78827380D01*
X228052404Y-78875000D01*
X228100023Y-78922619D01*
X228147642Y-79017857D01*
X228147642Y-79160714D01*
X228100023Y-79255952D01*
X228052404Y-79303571D01*
X227957166Y-79351190D01*
X227576214Y-79351190D01*
X229100023Y-79827380D02*
X228528595Y-79827380D01*
X228814309Y-79827380D02*
X228814309Y-78827380D01*
X228719071Y-78970238D01*
X228623833Y-79065476D01*
X228528595Y-79113095D01*
X229957166Y-78827380D02*
X229766690Y-78827380D01*
X229671452Y-78875000D01*
X229623833Y-78922619D01*
X229528595Y-79065476D01*
X229480976Y-79255952D01*
X229480976Y-79636904D01*
X229528595Y-79732142D01*
X229576214Y-79779761D01*
X229671452Y-79827380D01*
X229861928Y-79827380D01*
X229957166Y-79779761D01*
X230004785Y-79732142D01*
X230052404Y-79636904D01*
X230052404Y-79398809D01*
X230004785Y-79303571D01*
X229957166Y-79255952D01*
X229861928Y-79208333D01*
X229671452Y-79208333D01*
X229576214Y-79255952D01*
X229528595Y-79303571D01*
X229480976Y-79398809D01*
X228147642Y-77287380D02*
X227814309Y-76811190D01*
X227576214Y-77287380D02*
X227576214Y-76287380D01*
X227957166Y-76287380D01*
X228052404Y-76335000D01*
X228100023Y-76382619D01*
X228147642Y-76477857D01*
X228147642Y-76620714D01*
X228100023Y-76715952D01*
X228052404Y-76763571D01*
X227957166Y-76811190D01*
X227576214Y-76811190D01*
X229100023Y-77287380D02*
X228528595Y-77287380D01*
X228814309Y-77287380D02*
X228814309Y-76287380D01*
X228719071Y-76430238D01*
X228623833Y-76525476D01*
X228528595Y-76573095D01*
X230004785Y-76287380D02*
X229528595Y-76287380D01*
X229480976Y-76763571D01*
X229528595Y-76715952D01*
X229623833Y-76668333D01*
X229861928Y-76668333D01*
X229957166Y-76715952D01*
X230004785Y-76763571D01*
X230052404Y-76858809D01*
X230052404Y-77096904D01*
X230004785Y-77192142D01*
X229957166Y-77239761D01*
X229861928Y-77287380D01*
X229623833Y-77287380D01*
X229528595Y-77239761D01*
X229480976Y-77192142D01*
X228211142Y-74747380D02*
X227877809Y-74271190D01*
X227639714Y-74747380D02*
X227639714Y-73747380D01*
X228020666Y-73747380D01*
X228115904Y-73795000D01*
X228163523Y-73842619D01*
X228211142Y-73937857D01*
X228211142Y-74080714D01*
X228163523Y-74175952D01*
X228115904Y-74223571D01*
X228020666Y-74271190D01*
X227639714Y-74271190D01*
X229163523Y-74747380D02*
X228592095Y-74747380D01*
X228877809Y-74747380D02*
X228877809Y-73747380D01*
X228782571Y-73890238D01*
X228687333Y-73985476D01*
X228592095Y-74033095D01*
X230020666Y-74080714D02*
X230020666Y-74747380D01*
X229782571Y-73699761D02*
X229544476Y-74414047D01*
X230163523Y-74414047D01*
X220210142Y-74747380D02*
X219876809Y-74271190D01*
X219638714Y-74747380D02*
X219638714Y-73747380D01*
X220019666Y-73747380D01*
X220114904Y-73795000D01*
X220162523Y-73842619D01*
X220210142Y-73937857D01*
X220210142Y-74080714D01*
X220162523Y-74175952D01*
X220114904Y-74223571D01*
X220019666Y-74271190D01*
X219638714Y-74271190D01*
X221162523Y-74747380D02*
X220591095Y-74747380D01*
X220876809Y-74747380D02*
X220876809Y-73747380D01*
X220781571Y-73890238D01*
X220686333Y-73985476D01*
X220591095Y-74033095D01*
X221495857Y-73747380D02*
X222114904Y-73747380D01*
X221781571Y-74128333D01*
X221924428Y-74128333D01*
X222019666Y-74175952D01*
X222067285Y-74223571D01*
X222114904Y-74318809D01*
X222114904Y-74556904D01*
X222067285Y-74652142D01*
X222019666Y-74699761D01*
X221924428Y-74747380D01*
X221638714Y-74747380D01*
X221543476Y-74699761D01*
X221495857Y-74652142D01*
X220146642Y-77287380D02*
X219813309Y-76811190D01*
X219575214Y-77287380D02*
X219575214Y-76287380D01*
X219956166Y-76287380D01*
X220051404Y-76335000D01*
X220099023Y-76382619D01*
X220146642Y-76477857D01*
X220146642Y-76620714D01*
X220099023Y-76715952D01*
X220051404Y-76763571D01*
X219956166Y-76811190D01*
X219575214Y-76811190D01*
X221099023Y-77287380D02*
X220527595Y-77287380D01*
X220813309Y-77287380D02*
X220813309Y-76287380D01*
X220718071Y-76430238D01*
X220622833Y-76525476D01*
X220527595Y-76573095D01*
X222051404Y-77287380D02*
X221479976Y-77287380D01*
X221765690Y-77287380D02*
X221765690Y-76287380D01*
X221670452Y-76430238D01*
X221575214Y-76525476D01*
X221479976Y-76573095D01*
X220083142Y-79827380D02*
X219749809Y-79351190D01*
X219511714Y-79827380D02*
X219511714Y-78827380D01*
X219892666Y-78827380D01*
X219987904Y-78875000D01*
X220035523Y-78922619D01*
X220083142Y-79017857D01*
X220083142Y-79160714D01*
X220035523Y-79255952D01*
X219987904Y-79303571D01*
X219892666Y-79351190D01*
X219511714Y-79351190D01*
X221035523Y-79827380D02*
X220464095Y-79827380D01*
X220749809Y-79827380D02*
X220749809Y-78827380D01*
X220654571Y-78970238D01*
X220559333Y-79065476D01*
X220464095Y-79113095D01*
X221654571Y-78827380D02*
X221749809Y-78827380D01*
X221845047Y-78875000D01*
X221892666Y-78922619D01*
X221940285Y-79017857D01*
X221987904Y-79208333D01*
X221987904Y-79446428D01*
X221940285Y-79636904D01*
X221892666Y-79732142D01*
X221845047Y-79779761D01*
X221749809Y-79827380D01*
X221654571Y-79827380D01*
X221559333Y-79779761D01*
X221511714Y-79732142D01*
X221464095Y-79636904D01*
X221416476Y-79446428D01*
X221416476Y-79208333D01*
X221464095Y-79017857D01*
X221511714Y-78922619D01*
X221559333Y-78875000D01*
X221654571Y-78827380D01*
X221003833Y-82367380D02*
X220670500Y-81891190D01*
X220432404Y-82367380D02*
X220432404Y-81367380D01*
X220813357Y-81367380D01*
X220908595Y-81415000D01*
X220956214Y-81462619D01*
X221003833Y-81557857D01*
X221003833Y-81700714D01*
X220956214Y-81795952D01*
X220908595Y-81843571D01*
X220813357Y-81891190D01*
X220432404Y-81891190D01*
X221480023Y-82367380D02*
X221670500Y-82367380D01*
X221765738Y-82319761D01*
X221813357Y-82272142D01*
X221908595Y-82129285D01*
X221956214Y-81938809D01*
X221956214Y-81557857D01*
X221908595Y-81462619D01*
X221860976Y-81415000D01*
X221765738Y-81367380D01*
X221575261Y-81367380D01*
X221480023Y-81415000D01*
X221432404Y-81462619D01*
X221384785Y-81557857D01*
X221384785Y-81795952D01*
X221432404Y-81891190D01*
X221480023Y-81938809D01*
X221575261Y-81986428D01*
X221765738Y-81986428D01*
X221860976Y-81938809D01*
X221908595Y-81891190D01*
X221956214Y-81795952D01*
X188110833Y-67190880D02*
X187777500Y-66714690D01*
X187539404Y-67190880D02*
X187539404Y-66190880D01*
X187920357Y-66190880D01*
X188015595Y-66238500D01*
X188063214Y-66286119D01*
X188110833Y-66381357D01*
X188110833Y-66524214D01*
X188063214Y-66619452D01*
X188015595Y-66667071D01*
X187920357Y-66714690D01*
X187539404Y-66714690D01*
X188682261Y-66619452D02*
X188587023Y-66571833D01*
X188539404Y-66524214D01*
X188491785Y-66428976D01*
X188491785Y-66381357D01*
X188539404Y-66286119D01*
X188587023Y-66238500D01*
X188682261Y-66190880D01*
X188872738Y-66190880D01*
X188967976Y-66238500D01*
X189015595Y-66286119D01*
X189063214Y-66381357D01*
X189063214Y-66428976D01*
X189015595Y-66524214D01*
X188967976Y-66571833D01*
X188872738Y-66619452D01*
X188682261Y-66619452D01*
X188587023Y-66667071D01*
X188539404Y-66714690D01*
X188491785Y-66809928D01*
X188491785Y-67000404D01*
X188539404Y-67095642D01*
X188587023Y-67143261D01*
X188682261Y-67190880D01*
X188872738Y-67190880D01*
X188967976Y-67143261D01*
X189015595Y-67095642D01*
X189063214Y-67000404D01*
X189063214Y-66809928D01*
X189015595Y-66714690D01*
X188967976Y-66667071D01*
X188872738Y-66619452D01*
X188301333Y-62999880D02*
X187968000Y-62523690D01*
X187729904Y-62999880D02*
X187729904Y-61999880D01*
X188110857Y-61999880D01*
X188206095Y-62047500D01*
X188253714Y-62095119D01*
X188301333Y-62190357D01*
X188301333Y-62333214D01*
X188253714Y-62428452D01*
X188206095Y-62476071D01*
X188110857Y-62523690D01*
X187729904Y-62523690D01*
X188634666Y-61999880D02*
X189301333Y-61999880D01*
X188872761Y-62999880D01*
X192111333Y-74810880D02*
X191778000Y-74334690D01*
X191539904Y-74810880D02*
X191539904Y-73810880D01*
X191920857Y-73810880D01*
X192016095Y-73858500D01*
X192063714Y-73906119D01*
X192111333Y-74001357D01*
X192111333Y-74144214D01*
X192063714Y-74239452D01*
X192016095Y-74287071D01*
X191920857Y-74334690D01*
X191539904Y-74334690D01*
X192968476Y-73810880D02*
X192778000Y-73810880D01*
X192682761Y-73858500D01*
X192635142Y-73906119D01*
X192539904Y-74048976D01*
X192492285Y-74239452D01*
X192492285Y-74620404D01*
X192539904Y-74715642D01*
X192587523Y-74763261D01*
X192682761Y-74810880D01*
X192873238Y-74810880D01*
X192968476Y-74763261D01*
X193016095Y-74715642D01*
X193063714Y-74620404D01*
X193063714Y-74382309D01*
X193016095Y-74287071D01*
X192968476Y-74239452D01*
X192873238Y-74191833D01*
X192682761Y-74191833D01*
X192587523Y-74239452D01*
X192539904Y-74287071D01*
X192492285Y-74382309D01*
X200112333Y-77287380D02*
X199779000Y-76811190D01*
X199540904Y-77287380D02*
X199540904Y-76287380D01*
X199921857Y-76287380D01*
X200017095Y-76335000D01*
X200064714Y-76382619D01*
X200112333Y-76477857D01*
X200112333Y-76620714D01*
X200064714Y-76715952D01*
X200017095Y-76763571D01*
X199921857Y-76811190D01*
X199540904Y-76811190D01*
X201017095Y-76287380D02*
X200540904Y-76287380D01*
X200493285Y-76763571D01*
X200540904Y-76715952D01*
X200636142Y-76668333D01*
X200874238Y-76668333D01*
X200969476Y-76715952D01*
X201017095Y-76763571D01*
X201064714Y-76858809D01*
X201064714Y-77096904D01*
X201017095Y-77192142D01*
X200969476Y-77239761D01*
X200874238Y-77287380D01*
X200636142Y-77287380D01*
X200540904Y-77239761D01*
X200493285Y-77192142D01*
X192111333Y-79954380D02*
X191778000Y-79478190D01*
X191539904Y-79954380D02*
X191539904Y-78954380D01*
X191920857Y-78954380D01*
X192016095Y-79002000D01*
X192063714Y-79049619D01*
X192111333Y-79144857D01*
X192111333Y-79287714D01*
X192063714Y-79382952D01*
X192016095Y-79430571D01*
X191920857Y-79478190D01*
X191539904Y-79478190D01*
X192968476Y-79287714D02*
X192968476Y-79954380D01*
X192730380Y-78906761D02*
X192492285Y-79621047D01*
X193111333Y-79621047D01*
X192111333Y-82430880D02*
X191778000Y-81954690D01*
X191539904Y-82430880D02*
X191539904Y-81430880D01*
X191920857Y-81430880D01*
X192016095Y-81478500D01*
X192063714Y-81526119D01*
X192111333Y-81621357D01*
X192111333Y-81764214D01*
X192063714Y-81859452D01*
X192016095Y-81907071D01*
X191920857Y-81954690D01*
X191539904Y-81954690D01*
X192444666Y-81430880D02*
X193063714Y-81430880D01*
X192730380Y-81811833D01*
X192873238Y-81811833D01*
X192968476Y-81859452D01*
X193016095Y-81907071D01*
X193063714Y-82002309D01*
X193063714Y-82240404D01*
X193016095Y-82335642D01*
X192968476Y-82383261D01*
X192873238Y-82430880D01*
X192587523Y-82430880D01*
X192492285Y-82383261D01*
X192444666Y-82335642D01*
X233322833Y-129357380D02*
X232989500Y-128881190D01*
X232751404Y-129357380D02*
X232751404Y-128357380D01*
X233132357Y-128357380D01*
X233227595Y-128405000D01*
X233275214Y-128452619D01*
X233322833Y-128547857D01*
X233322833Y-128690714D01*
X233275214Y-128785952D01*
X233227595Y-128833571D01*
X233132357Y-128881190D01*
X232751404Y-128881190D01*
X233703785Y-128452619D02*
X233751404Y-128405000D01*
X233846642Y-128357380D01*
X234084738Y-128357380D01*
X234179976Y-128405000D01*
X234227595Y-128452619D01*
X234275214Y-128547857D01*
X234275214Y-128643095D01*
X234227595Y-128785952D01*
X233656166Y-129357380D01*
X234275214Y-129357380D01*
X233386333Y-131579880D02*
X233053000Y-131103690D01*
X232814904Y-131579880D02*
X232814904Y-130579880D01*
X233195857Y-130579880D01*
X233291095Y-130627500D01*
X233338714Y-130675119D01*
X233386333Y-130770357D01*
X233386333Y-130913214D01*
X233338714Y-131008452D01*
X233291095Y-131056071D01*
X233195857Y-131103690D01*
X232814904Y-131103690D01*
X234338714Y-131579880D02*
X233767285Y-131579880D01*
X234053000Y-131579880D02*
X234053000Y-130579880D01*
X233957761Y-130722738D01*
X233862523Y-130817976D01*
X233767285Y-130865595D01*
X228147642Y-82272142D02*
X228100023Y-82319761D01*
X227957166Y-82367380D01*
X227861928Y-82367380D01*
X227719071Y-82319761D01*
X227623833Y-82224523D01*
X227576214Y-82129285D01*
X227528595Y-81938809D01*
X227528595Y-81795952D01*
X227576214Y-81605476D01*
X227623833Y-81510238D01*
X227719071Y-81415000D01*
X227861928Y-81367380D01*
X227957166Y-81367380D01*
X228100023Y-81415000D01*
X228147642Y-81462619D01*
X229100023Y-82367380D02*
X228528595Y-82367380D01*
X228814309Y-82367380D02*
X228814309Y-81367380D01*
X228719071Y-81510238D01*
X228623833Y-81605476D01*
X228528595Y-81653095D01*
X229433357Y-81367380D02*
X230052404Y-81367380D01*
X229719071Y-81748333D01*
X229861928Y-81748333D01*
X229957166Y-81795952D01*
X230004785Y-81843571D01*
X230052404Y-81938809D01*
X230052404Y-82176904D01*
X230004785Y-82272142D01*
X229957166Y-82319761D01*
X229861928Y-82367380D01*
X229576214Y-82367380D01*
X229480976Y-82319761D01*
X229433357Y-82272142D01*
X228147642Y-72112142D02*
X228100023Y-72159761D01*
X227957166Y-72207380D01*
X227861928Y-72207380D01*
X227719071Y-72159761D01*
X227623833Y-72064523D01*
X227576214Y-71969285D01*
X227528595Y-71778809D01*
X227528595Y-71635952D01*
X227576214Y-71445476D01*
X227623833Y-71350238D01*
X227719071Y-71255000D01*
X227861928Y-71207380D01*
X227957166Y-71207380D01*
X228100023Y-71255000D01*
X228147642Y-71302619D01*
X229100023Y-72207380D02*
X228528595Y-72207380D01*
X228814309Y-72207380D02*
X228814309Y-71207380D01*
X228719071Y-71350238D01*
X228623833Y-71445476D01*
X228528595Y-71493095D01*
X229480976Y-71302619D02*
X229528595Y-71255000D01*
X229623833Y-71207380D01*
X229861928Y-71207380D01*
X229957166Y-71255000D01*
X230004785Y-71302619D01*
X230052404Y-71397857D01*
X230052404Y-71493095D01*
X230004785Y-71635952D01*
X229433357Y-72207380D01*
X230052404Y-72207380D01*
X215877142Y-90336666D02*
X215924761Y-90384285D01*
X215972380Y-90527142D01*
X215972380Y-90622380D01*
X215924761Y-90765238D01*
X215829523Y-90860476D01*
X215734285Y-90908095D01*
X215543809Y-90955714D01*
X215400952Y-90955714D01*
X215210476Y-90908095D01*
X215115238Y-90860476D01*
X215020000Y-90765238D01*
X214972380Y-90622380D01*
X214972380Y-90527142D01*
X215020000Y-90384285D01*
X215067619Y-90336666D01*
X215972380Y-89860476D02*
X215972380Y-89670000D01*
X215924761Y-89574761D01*
X215877142Y-89527142D01*
X215734285Y-89431904D01*
X215543809Y-89384285D01*
X215162857Y-89384285D01*
X215067619Y-89431904D01*
X215020000Y-89479523D01*
X214972380Y-89574761D01*
X214972380Y-89765238D01*
X215020000Y-89860476D01*
X215067619Y-89908095D01*
X215162857Y-89955714D01*
X215400952Y-89955714D01*
X215496190Y-89908095D01*
X215543809Y-89860476D01*
X215591428Y-89765238D01*
X215591428Y-89574761D01*
X215543809Y-89479523D01*
X215496190Y-89431904D01*
X215400952Y-89384285D01*
X200175833Y-74652142D02*
X200128214Y-74699761D01*
X199985357Y-74747380D01*
X199890119Y-74747380D01*
X199747261Y-74699761D01*
X199652023Y-74604523D01*
X199604404Y-74509285D01*
X199556785Y-74318809D01*
X199556785Y-74175952D01*
X199604404Y-73985476D01*
X199652023Y-73890238D01*
X199747261Y-73795000D01*
X199890119Y-73747380D01*
X199985357Y-73747380D01*
X200128214Y-73795000D01*
X200175833Y-73842619D01*
X201032976Y-73747380D02*
X200842500Y-73747380D01*
X200747261Y-73795000D01*
X200699642Y-73842619D01*
X200604404Y-73985476D01*
X200556785Y-74175952D01*
X200556785Y-74556904D01*
X200604404Y-74652142D01*
X200652023Y-74699761D01*
X200747261Y-74747380D01*
X200937738Y-74747380D01*
X201032976Y-74699761D01*
X201080595Y-74652142D01*
X201128214Y-74556904D01*
X201128214Y-74318809D01*
X201080595Y-74223571D01*
X201032976Y-74175952D01*
X200937738Y-74128333D01*
X200747261Y-74128333D01*
X200652023Y-74175952D01*
X200604404Y-74223571D01*
X200556785Y-74318809D01*
X192047833Y-84748642D02*
X192000214Y-84796261D01*
X191857357Y-84843880D01*
X191762119Y-84843880D01*
X191619261Y-84796261D01*
X191524023Y-84701023D01*
X191476404Y-84605785D01*
X191428785Y-84415309D01*
X191428785Y-84272452D01*
X191476404Y-84081976D01*
X191524023Y-83986738D01*
X191619261Y-83891500D01*
X191762119Y-83843880D01*
X191857357Y-83843880D01*
X192000214Y-83891500D01*
X192047833Y-83939119D01*
X192952595Y-83843880D02*
X192476404Y-83843880D01*
X192428785Y-84320071D01*
X192476404Y-84272452D01*
X192571642Y-84224833D01*
X192809738Y-84224833D01*
X192904976Y-84272452D01*
X192952595Y-84320071D01*
X193000214Y-84415309D01*
X193000214Y-84653404D01*
X192952595Y-84748642D01*
X192904976Y-84796261D01*
X192809738Y-84843880D01*
X192571642Y-84843880D01*
X192476404Y-84796261D01*
X192428785Y-84748642D01*
X212193142Y-90463666D02*
X212240761Y-90511285D01*
X212288380Y-90654142D01*
X212288380Y-90749380D01*
X212240761Y-90892238D01*
X212145523Y-90987476D01*
X212050285Y-91035095D01*
X211859809Y-91082714D01*
X211716952Y-91082714D01*
X211526476Y-91035095D01*
X211431238Y-90987476D01*
X211336000Y-90892238D01*
X211288380Y-90749380D01*
X211288380Y-90654142D01*
X211336000Y-90511285D01*
X211383619Y-90463666D01*
X211621714Y-89606523D02*
X212288380Y-89606523D01*
X211240761Y-89844619D02*
X211955047Y-90082714D01*
X211955047Y-89463666D01*
X210535333Y-72239142D02*
X210487714Y-72286761D01*
X210344857Y-72334380D01*
X210249619Y-72334380D01*
X210106761Y-72286761D01*
X210011523Y-72191523D01*
X209963904Y-72096285D01*
X209916285Y-71905809D01*
X209916285Y-71762952D01*
X209963904Y-71572476D01*
X210011523Y-71477238D01*
X210106761Y-71382000D01*
X210249619Y-71334380D01*
X210344857Y-71334380D01*
X210487714Y-71382000D01*
X210535333Y-71429619D01*
X210868666Y-71334380D02*
X211487714Y-71334380D01*
X211154380Y-71715333D01*
X211297238Y-71715333D01*
X211392476Y-71762952D01*
X211440095Y-71810571D01*
X211487714Y-71905809D01*
X211487714Y-72143904D01*
X211440095Y-72239142D01*
X211392476Y-72286761D01*
X211297238Y-72334380D01*
X211011523Y-72334380D01*
X210916285Y-72286761D01*
X210868666Y-72239142D01*
X225988714Y-122372380D02*
X225988714Y-121372380D01*
X226226809Y-121372380D01*
X226369666Y-121420000D01*
X226464904Y-121515238D01*
X226512523Y-121610476D01*
X226560142Y-121800952D01*
X226560142Y-121943809D01*
X226512523Y-122134285D01*
X226464904Y-122229523D01*
X226369666Y-122324761D01*
X226226809Y-122372380D01*
X225988714Y-122372380D01*
X226941095Y-121467619D02*
X226988714Y-121420000D01*
X227083952Y-121372380D01*
X227322047Y-121372380D01*
X227417285Y-121420000D01*
X227464904Y-121467619D01*
X227512523Y-121562857D01*
X227512523Y-121658095D01*
X227464904Y-121800952D01*
X226893476Y-122372380D01*
X227512523Y-122372380D01*
X227845857Y-121372380D02*
X228464904Y-121372380D01*
X228131571Y-121753333D01*
X228274428Y-121753333D01*
X228369666Y-121800952D01*
X228417285Y-121848571D01*
X228464904Y-121943809D01*
X228464904Y-122181904D01*
X228417285Y-122277142D01*
X228369666Y-122324761D01*
X228274428Y-122372380D01*
X227988714Y-122372380D01*
X227893476Y-122324761D01*
X227845857Y-122277142D01*
X184586714Y-122245380D02*
X184586714Y-121245380D01*
X184824809Y-121245380D01*
X184967666Y-121293000D01*
X185062904Y-121388238D01*
X185110523Y-121483476D01*
X185158142Y-121673952D01*
X185158142Y-121816809D01*
X185110523Y-122007285D01*
X185062904Y-122102523D01*
X184967666Y-122197761D01*
X184824809Y-122245380D01*
X184586714Y-122245380D01*
X185539095Y-121340619D02*
X185586714Y-121293000D01*
X185681952Y-121245380D01*
X185920047Y-121245380D01*
X186015285Y-121293000D01*
X186062904Y-121340619D01*
X186110523Y-121435857D01*
X186110523Y-121531095D01*
X186062904Y-121673952D01*
X185491476Y-122245380D01*
X186110523Y-122245380D01*
X187062904Y-122245380D02*
X186491476Y-122245380D01*
X186777190Y-122245380D02*
X186777190Y-121245380D01*
X186681952Y-121388238D01*
X186586714Y-121483476D01*
X186491476Y-121531095D01*
X184459714Y-138628380D02*
X184459714Y-137628380D01*
X184697809Y-137628380D01*
X184840666Y-137676000D01*
X184935904Y-137771238D01*
X184983523Y-137866476D01*
X185031142Y-138056952D01*
X185031142Y-138199809D01*
X184983523Y-138390285D01*
X184935904Y-138485523D01*
X184840666Y-138580761D01*
X184697809Y-138628380D01*
X184459714Y-138628380D01*
X185412095Y-137723619D02*
X185459714Y-137676000D01*
X185554952Y-137628380D01*
X185793047Y-137628380D01*
X185888285Y-137676000D01*
X185935904Y-137723619D01*
X185983523Y-137818857D01*
X185983523Y-137914095D01*
X185935904Y-138056952D01*
X185364476Y-138628380D01*
X185983523Y-138628380D01*
X186602571Y-137628380D02*
X186697809Y-137628380D01*
X186793047Y-137676000D01*
X186840666Y-137723619D01*
X186888285Y-137818857D01*
X186935904Y-138009333D01*
X186935904Y-138247428D01*
X186888285Y-138437904D01*
X186840666Y-138533142D01*
X186793047Y-138580761D01*
X186697809Y-138628380D01*
X186602571Y-138628380D01*
X186507333Y-138580761D01*
X186459714Y-138533142D01*
X186412095Y-138437904D01*
X186364476Y-138247428D01*
X186364476Y-138009333D01*
X186412095Y-137818857D01*
X186459714Y-137723619D01*
X186507333Y-137676000D01*
X186602571Y-137628380D01*
X213340333Y-101337142D02*
X213292714Y-101384761D01*
X213149857Y-101432380D01*
X213054619Y-101432380D01*
X212911761Y-101384761D01*
X212816523Y-101289523D01*
X212768904Y-101194285D01*
X212721285Y-101003809D01*
X212721285Y-100860952D01*
X212768904Y-100670476D01*
X212816523Y-100575238D01*
X212911761Y-100480000D01*
X213054619Y-100432380D01*
X213149857Y-100432380D01*
X213292714Y-100480000D01*
X213340333Y-100527619D01*
X214292714Y-101432380D02*
X213721285Y-101432380D01*
X214007000Y-101432380D02*
X214007000Y-100432380D01*
X213911761Y-100575238D01*
X213816523Y-100670476D01*
X213721285Y-100718095D01*
X226401333Y-135358142D02*
X226353714Y-135405761D01*
X226210857Y-135453380D01*
X226115619Y-135453380D01*
X225972761Y-135405761D01*
X225877523Y-135310523D01*
X225829904Y-135215285D01*
X225782285Y-135024809D01*
X225782285Y-134881952D01*
X225829904Y-134691476D01*
X225877523Y-134596238D01*
X225972761Y-134501000D01*
X226115619Y-134453380D01*
X226210857Y-134453380D01*
X226353714Y-134501000D01*
X226401333Y-134548619D01*
X226782285Y-134548619D02*
X226829904Y-134501000D01*
X226925142Y-134453380D01*
X227163238Y-134453380D01*
X227258476Y-134501000D01*
X227306095Y-134548619D01*
X227353714Y-134643857D01*
X227353714Y-134739095D01*
X227306095Y-134881952D01*
X226734666Y-135453380D01*
X227353714Y-135453380D01*
X199017142Y-56662580D02*
X199017142Y-55662580D01*
X199398095Y-55662580D01*
X199493333Y-55710200D01*
X199540952Y-55757819D01*
X199588571Y-55853057D01*
X199588571Y-55995914D01*
X199540952Y-56091152D01*
X199493333Y-56138771D01*
X199398095Y-56186390D01*
X199017142Y-56186390D01*
X200207619Y-55662580D02*
X200398095Y-55662580D01*
X200493333Y-55710200D01*
X200588571Y-55805438D01*
X200636190Y-55995914D01*
X200636190Y-56329247D01*
X200588571Y-56519723D01*
X200493333Y-56614961D01*
X200398095Y-56662580D01*
X200207619Y-56662580D01*
X200112380Y-56614961D01*
X200017142Y-56519723D01*
X199969523Y-56329247D01*
X199969523Y-55995914D01*
X200017142Y-55805438D01*
X200112380Y-55710200D01*
X200207619Y-55662580D01*
X200921904Y-55662580D02*
X201493333Y-55662580D01*
X201207619Y-56662580D02*
X201207619Y-55662580D01*
X202350476Y-56662580D02*
X201779047Y-56662580D01*
X202064761Y-56662580D02*
X202064761Y-55662580D01*
X201969523Y-55805438D01*
X201874285Y-55900676D01*
X201779047Y-55948295D01*
X211564742Y-56814980D02*
X211564742Y-55814980D01*
X211945695Y-55814980D01*
X212040933Y-55862600D01*
X212088552Y-55910219D01*
X212136171Y-56005457D01*
X212136171Y-56148314D01*
X212088552Y-56243552D01*
X212040933Y-56291171D01*
X211945695Y-56338790D01*
X211564742Y-56338790D01*
X212755219Y-55814980D02*
X212945695Y-55814980D01*
X213040933Y-55862600D01*
X213136171Y-55957838D01*
X213183790Y-56148314D01*
X213183790Y-56481647D01*
X213136171Y-56672123D01*
X213040933Y-56767361D01*
X212945695Y-56814980D01*
X212755219Y-56814980D01*
X212659980Y-56767361D01*
X212564742Y-56672123D01*
X212517123Y-56481647D01*
X212517123Y-56148314D01*
X212564742Y-55957838D01*
X212659980Y-55862600D01*
X212755219Y-55814980D01*
X213469504Y-55814980D02*
X214040933Y-55814980D01*
X213755219Y-56814980D02*
X213755219Y-55814980D01*
X214326647Y-55910219D02*
X214374266Y-55862600D01*
X214469504Y-55814980D01*
X214707600Y-55814980D01*
X214802838Y-55862600D01*
X214850457Y-55910219D01*
X214898076Y-56005457D01*
X214898076Y-56100695D01*
X214850457Y-56243552D01*
X214279028Y-56814980D01*
X214898076Y-56814980D01*
X225737942Y-56764180D02*
X225737942Y-55764180D01*
X226118895Y-55764180D01*
X226214133Y-55811800D01*
X226261752Y-55859419D01*
X226309371Y-55954657D01*
X226309371Y-56097514D01*
X226261752Y-56192752D01*
X226214133Y-56240371D01*
X226118895Y-56287990D01*
X225737942Y-56287990D01*
X226928419Y-55764180D02*
X227118895Y-55764180D01*
X227214133Y-55811800D01*
X227309371Y-55907038D01*
X227356990Y-56097514D01*
X227356990Y-56430847D01*
X227309371Y-56621323D01*
X227214133Y-56716561D01*
X227118895Y-56764180D01*
X226928419Y-56764180D01*
X226833180Y-56716561D01*
X226737942Y-56621323D01*
X226690323Y-56430847D01*
X226690323Y-56097514D01*
X226737942Y-55907038D01*
X226833180Y-55811800D01*
X226928419Y-55764180D01*
X227642704Y-55764180D02*
X228214133Y-55764180D01*
X227928419Y-56764180D02*
X227928419Y-55764180D01*
X228452228Y-55764180D02*
X229071276Y-55764180D01*
X228737942Y-56145133D01*
X228880800Y-56145133D01*
X228976038Y-56192752D01*
X229023657Y-56240371D01*
X229071276Y-56335609D01*
X229071276Y-56573704D01*
X229023657Y-56668942D01*
X228976038Y-56716561D01*
X228880800Y-56764180D01*
X228595085Y-56764180D01*
X228499847Y-56716561D01*
X228452228Y-56668942D01*
X188174333Y-70651642D02*
X188126714Y-70699261D01*
X187983857Y-70746880D01*
X187888619Y-70746880D01*
X187745761Y-70699261D01*
X187650523Y-70604023D01*
X187602904Y-70508785D01*
X187555285Y-70318309D01*
X187555285Y-70175452D01*
X187602904Y-69984976D01*
X187650523Y-69889738D01*
X187745761Y-69794500D01*
X187888619Y-69746880D01*
X187983857Y-69746880D01*
X188126714Y-69794500D01*
X188174333Y-69842119D01*
X188745761Y-70175452D02*
X188650523Y-70127833D01*
X188602904Y-70080214D01*
X188555285Y-69984976D01*
X188555285Y-69937357D01*
X188602904Y-69842119D01*
X188650523Y-69794500D01*
X188745761Y-69746880D01*
X188936238Y-69746880D01*
X189031476Y-69794500D01*
X189079095Y-69842119D01*
X189126714Y-69937357D01*
X189126714Y-69984976D01*
X189079095Y-70080214D01*
X189031476Y-70127833D01*
X188936238Y-70175452D01*
X188745761Y-70175452D01*
X188650523Y-70223071D01*
X188602904Y-70270690D01*
X188555285Y-70365928D01*
X188555285Y-70556404D01*
X188602904Y-70651642D01*
X188650523Y-70699261D01*
X188745761Y-70746880D01*
X188936238Y-70746880D01*
X189031476Y-70699261D01*
X189079095Y-70651642D01*
X189126714Y-70556404D01*
X189126714Y-70365928D01*
X189079095Y-70270690D01*
X189031476Y-70223071D01*
X188936238Y-70175452D01*
X199128142Y-82399142D02*
X199080523Y-82446761D01*
X198937666Y-82494380D01*
X198842428Y-82494380D01*
X198699571Y-82446761D01*
X198604333Y-82351523D01*
X198556714Y-82256285D01*
X198509095Y-82065809D01*
X198509095Y-81922952D01*
X198556714Y-81732476D01*
X198604333Y-81637238D01*
X198699571Y-81542000D01*
X198842428Y-81494380D01*
X198937666Y-81494380D01*
X199080523Y-81542000D01*
X199128142Y-81589619D01*
X199509095Y-81589619D02*
X199556714Y-81542000D01*
X199651952Y-81494380D01*
X199890047Y-81494380D01*
X199985285Y-81542000D01*
X200032904Y-81589619D01*
X200080523Y-81684857D01*
X200080523Y-81780095D01*
X200032904Y-81922952D01*
X199461476Y-82494380D01*
X200080523Y-82494380D01*
X200699571Y-81494380D02*
X200794809Y-81494380D01*
X200890047Y-81542000D01*
X200937666Y-81589619D01*
X200985285Y-81684857D01*
X201032904Y-81875333D01*
X201032904Y-82113428D01*
X200985285Y-82303904D01*
X200937666Y-82399142D01*
X200890047Y-82446761D01*
X200794809Y-82494380D01*
X200699571Y-82494380D01*
X200604333Y-82446761D01*
X200556714Y-82399142D01*
X200509095Y-82303904D01*
X200461476Y-82113428D01*
X200461476Y-81875333D01*
X200509095Y-81684857D01*
X200556714Y-81589619D01*
X200604333Y-81542000D01*
X200699571Y-81494380D01*
X185031142Y-136628142D02*
X184983523Y-136675761D01*
X184840666Y-136723380D01*
X184745428Y-136723380D01*
X184602571Y-136675761D01*
X184507333Y-136580523D01*
X184459714Y-136485285D01*
X184412095Y-136294809D01*
X184412095Y-136151952D01*
X184459714Y-135961476D01*
X184507333Y-135866238D01*
X184602571Y-135771000D01*
X184745428Y-135723380D01*
X184840666Y-135723380D01*
X184983523Y-135771000D01*
X185031142Y-135818619D01*
X185412095Y-135818619D02*
X185459714Y-135771000D01*
X185554952Y-135723380D01*
X185793047Y-135723380D01*
X185888285Y-135771000D01*
X185935904Y-135818619D01*
X185983523Y-135913857D01*
X185983523Y-136009095D01*
X185935904Y-136151952D01*
X185364476Y-136723380D01*
X185983523Y-136723380D01*
X186935904Y-136723380D02*
X186364476Y-136723380D01*
X186650190Y-136723380D02*
X186650190Y-135723380D01*
X186554952Y-135866238D01*
X186459714Y-135961476D01*
X186364476Y-136009095D01*
X191762142Y-132437142D02*
X191714523Y-132484761D01*
X191571666Y-132532380D01*
X191476428Y-132532380D01*
X191333571Y-132484761D01*
X191238333Y-132389523D01*
X191190714Y-132294285D01*
X191143095Y-132103809D01*
X191143095Y-131960952D01*
X191190714Y-131770476D01*
X191238333Y-131675238D01*
X191333571Y-131580000D01*
X191476428Y-131532380D01*
X191571666Y-131532380D01*
X191714523Y-131580000D01*
X191762142Y-131627619D01*
X192143095Y-131627619D02*
X192190714Y-131580000D01*
X192285952Y-131532380D01*
X192524047Y-131532380D01*
X192619285Y-131580000D01*
X192666904Y-131627619D01*
X192714523Y-131722857D01*
X192714523Y-131818095D01*
X192666904Y-131960952D01*
X192095476Y-132532380D01*
X192714523Y-132532380D01*
X193047857Y-131532380D02*
X193666904Y-131532380D01*
X193333571Y-131913333D01*
X193476428Y-131913333D01*
X193571666Y-131960952D01*
X193619285Y-132008571D01*
X193666904Y-132103809D01*
X193666904Y-132341904D01*
X193619285Y-132437142D01*
X193571666Y-132484761D01*
X193476428Y-132532380D01*
X193190714Y-132532380D01*
X193095476Y-132484761D01*
X193047857Y-132437142D01*
X185158142Y-120118142D02*
X185110523Y-120165761D01*
X184967666Y-120213380D01*
X184872428Y-120213380D01*
X184729571Y-120165761D01*
X184634333Y-120070523D01*
X184586714Y-119975285D01*
X184539095Y-119784809D01*
X184539095Y-119641952D01*
X184586714Y-119451476D01*
X184634333Y-119356238D01*
X184729571Y-119261000D01*
X184872428Y-119213380D01*
X184967666Y-119213380D01*
X185110523Y-119261000D01*
X185158142Y-119308619D01*
X185539095Y-119308619D02*
X185586714Y-119261000D01*
X185681952Y-119213380D01*
X185920047Y-119213380D01*
X186015285Y-119261000D01*
X186062904Y-119308619D01*
X186110523Y-119403857D01*
X186110523Y-119499095D01*
X186062904Y-119641952D01*
X185491476Y-120213380D01*
X186110523Y-120213380D01*
X186967666Y-119546714D02*
X186967666Y-120213380D01*
X186729571Y-119165761D02*
X186491476Y-119880047D01*
X187110523Y-119880047D01*
X184904142Y-134596142D02*
X184856523Y-134643761D01*
X184713666Y-134691380D01*
X184618428Y-134691380D01*
X184475571Y-134643761D01*
X184380333Y-134548523D01*
X184332714Y-134453285D01*
X184285095Y-134262809D01*
X184285095Y-134119952D01*
X184332714Y-133929476D01*
X184380333Y-133834238D01*
X184475571Y-133739000D01*
X184618428Y-133691380D01*
X184713666Y-133691380D01*
X184856523Y-133739000D01*
X184904142Y-133786619D01*
X185285095Y-133786619D02*
X185332714Y-133739000D01*
X185427952Y-133691380D01*
X185666047Y-133691380D01*
X185761285Y-133739000D01*
X185808904Y-133786619D01*
X185856523Y-133881857D01*
X185856523Y-133977095D01*
X185808904Y-134119952D01*
X185237476Y-134691380D01*
X185856523Y-134691380D01*
X186713666Y-133691380D02*
X186523190Y-133691380D01*
X186427952Y-133739000D01*
X186380333Y-133786619D01*
X186285095Y-133929476D01*
X186237476Y-134119952D01*
X186237476Y-134500904D01*
X186285095Y-134596142D01*
X186332714Y-134643761D01*
X186427952Y-134691380D01*
X186618428Y-134691380D01*
X186713666Y-134643761D01*
X186761285Y-134596142D01*
X186808904Y-134500904D01*
X186808904Y-134262809D01*
X186761285Y-134167571D01*
X186713666Y-134119952D01*
X186618428Y-134072333D01*
X186427952Y-134072333D01*
X186332714Y-134119952D01*
X186285095Y-134167571D01*
X186237476Y-134262809D01*
X184967642Y-130468642D02*
X184920023Y-130516261D01*
X184777166Y-130563880D01*
X184681928Y-130563880D01*
X184539071Y-130516261D01*
X184443833Y-130421023D01*
X184396214Y-130325785D01*
X184348595Y-130135309D01*
X184348595Y-129992452D01*
X184396214Y-129801976D01*
X184443833Y-129706738D01*
X184539071Y-129611500D01*
X184681928Y-129563880D01*
X184777166Y-129563880D01*
X184920023Y-129611500D01*
X184967642Y-129659119D01*
X185348595Y-129659119D02*
X185396214Y-129611500D01*
X185491452Y-129563880D01*
X185729547Y-129563880D01*
X185824785Y-129611500D01*
X185872404Y-129659119D01*
X185920023Y-129754357D01*
X185920023Y-129849595D01*
X185872404Y-129992452D01*
X185300976Y-130563880D01*
X185920023Y-130563880D01*
X186253357Y-129563880D02*
X186920023Y-129563880D01*
X186491452Y-130563880D01*
X225702904Y-118435380D02*
X225702904Y-117435380D01*
X225941000Y-117435380D01*
X226083857Y-117483000D01*
X226179095Y-117578238D01*
X226226714Y-117673476D01*
X226274333Y-117863952D01*
X226274333Y-118006809D01*
X226226714Y-118197285D01*
X226179095Y-118292523D01*
X226083857Y-118387761D01*
X225941000Y-118435380D01*
X225702904Y-118435380D01*
X227226714Y-118435380D02*
X226655285Y-118435380D01*
X226941000Y-118435380D02*
X226941000Y-117435380D01*
X226845761Y-117578238D01*
X226750523Y-117673476D01*
X226655285Y-117721095D01*
X233418095Y-118435380D02*
X233418095Y-117435380D01*
X233989523Y-118435380D02*
X233560952Y-117863952D01*
X233989523Y-117435380D02*
X233418095Y-118006809D01*
X200429904Y-66111380D02*
X200429904Y-65111380D01*
X200668000Y-65111380D01*
X200810857Y-65159000D01*
X200906095Y-65254238D01*
X200953714Y-65349476D01*
X201001333Y-65539952D01*
X201001333Y-65682809D01*
X200953714Y-65873285D01*
X200906095Y-65968523D01*
X200810857Y-66063761D01*
X200668000Y-66111380D01*
X200429904Y-66111380D01*
X201334666Y-65111380D02*
X201953714Y-65111380D01*
X201620380Y-65492333D01*
X201763238Y-65492333D01*
X201858476Y-65539952D01*
X201906095Y-65587571D01*
X201953714Y-65682809D01*
X201953714Y-65920904D01*
X201906095Y-66016142D01*
X201858476Y-66063761D01*
X201763238Y-66111380D01*
X201477523Y-66111380D01*
X201382285Y-66063761D01*
X201334666Y-66016142D01*
X199191642Y-79890880D02*
X198858309Y-79414690D01*
X198620214Y-79890880D02*
X198620214Y-78890880D01*
X199001166Y-78890880D01*
X199096404Y-78938500D01*
X199144023Y-78986119D01*
X199191642Y-79081357D01*
X199191642Y-79224214D01*
X199144023Y-79319452D01*
X199096404Y-79367071D01*
X199001166Y-79414690D01*
X198620214Y-79414690D01*
X199572595Y-78986119D02*
X199620214Y-78938500D01*
X199715452Y-78890880D01*
X199953547Y-78890880D01*
X200048785Y-78938500D01*
X200096404Y-78986119D01*
X200144023Y-79081357D01*
X200144023Y-79176595D01*
X200096404Y-79319452D01*
X199524976Y-79890880D01*
X200144023Y-79890880D01*
X200763071Y-78890880D02*
X200858309Y-78890880D01*
X200953547Y-78938500D01*
X201001166Y-78986119D01*
X201048785Y-79081357D01*
X201096404Y-79271833D01*
X201096404Y-79509928D01*
X201048785Y-79700404D01*
X201001166Y-79795642D01*
X200953547Y-79843261D01*
X200858309Y-79890880D01*
X200763071Y-79890880D01*
X200667833Y-79843261D01*
X200620214Y-79795642D01*
X200572595Y-79700404D01*
X200524976Y-79509928D01*
X200524976Y-79271833D01*
X200572595Y-79081357D01*
X200620214Y-78986119D01*
X200667833Y-78938500D01*
X200763071Y-78890880D01*
X208352380Y-90812857D02*
X207876190Y-91146190D01*
X208352380Y-91384285D02*
X207352380Y-91384285D01*
X207352380Y-91003333D01*
X207400000Y-90908095D01*
X207447619Y-90860476D01*
X207542857Y-90812857D01*
X207685714Y-90812857D01*
X207780952Y-90860476D01*
X207828571Y-90908095D01*
X207876190Y-91003333D01*
X207876190Y-91384285D01*
X207447619Y-90431904D02*
X207400000Y-90384285D01*
X207352380Y-90289047D01*
X207352380Y-90050952D01*
X207400000Y-89955714D01*
X207447619Y-89908095D01*
X207542857Y-89860476D01*
X207638095Y-89860476D01*
X207780952Y-89908095D01*
X208352380Y-90479523D01*
X208352380Y-89860476D01*
X208352380Y-88908095D02*
X208352380Y-89479523D01*
X208352380Y-89193809D02*
X207352380Y-89193809D01*
X207495238Y-89289047D01*
X207590476Y-89384285D01*
X207638095Y-89479523D01*
X191825642Y-134627880D02*
X191492309Y-134151690D01*
X191254214Y-134627880D02*
X191254214Y-133627880D01*
X191635166Y-133627880D01*
X191730404Y-133675500D01*
X191778023Y-133723119D01*
X191825642Y-133818357D01*
X191825642Y-133961214D01*
X191778023Y-134056452D01*
X191730404Y-134104071D01*
X191635166Y-134151690D01*
X191254214Y-134151690D01*
X192206595Y-133723119D02*
X192254214Y-133675500D01*
X192349452Y-133627880D01*
X192587547Y-133627880D01*
X192682785Y-133675500D01*
X192730404Y-133723119D01*
X192778023Y-133818357D01*
X192778023Y-133913595D01*
X192730404Y-134056452D01*
X192158976Y-134627880D01*
X192778023Y-134627880D01*
X193158976Y-133723119D02*
X193206595Y-133675500D01*
X193301833Y-133627880D01*
X193539928Y-133627880D01*
X193635166Y-133675500D01*
X193682785Y-133723119D01*
X193730404Y-133818357D01*
X193730404Y-133913595D01*
X193682785Y-134056452D01*
X193111357Y-134627880D01*
X193730404Y-134627880D01*
X191762142Y-136659880D02*
X191428809Y-136183690D01*
X191190714Y-136659880D02*
X191190714Y-135659880D01*
X191571666Y-135659880D01*
X191666904Y-135707500D01*
X191714523Y-135755119D01*
X191762142Y-135850357D01*
X191762142Y-135993214D01*
X191714523Y-136088452D01*
X191666904Y-136136071D01*
X191571666Y-136183690D01*
X191190714Y-136183690D01*
X192143095Y-135755119D02*
X192190714Y-135707500D01*
X192285952Y-135659880D01*
X192524047Y-135659880D01*
X192619285Y-135707500D01*
X192666904Y-135755119D01*
X192714523Y-135850357D01*
X192714523Y-135945595D01*
X192666904Y-136088452D01*
X192095476Y-136659880D01*
X192714523Y-136659880D01*
X193047857Y-135659880D02*
X193666904Y-135659880D01*
X193333571Y-136040833D01*
X193476428Y-136040833D01*
X193571666Y-136088452D01*
X193619285Y-136136071D01*
X193666904Y-136231309D01*
X193666904Y-136469404D01*
X193619285Y-136564642D01*
X193571666Y-136612261D01*
X193476428Y-136659880D01*
X193190714Y-136659880D01*
X193095476Y-136612261D01*
X193047857Y-136564642D01*
X191762142Y-138691880D02*
X191428809Y-138215690D01*
X191190714Y-138691880D02*
X191190714Y-137691880D01*
X191571666Y-137691880D01*
X191666904Y-137739500D01*
X191714523Y-137787119D01*
X191762142Y-137882357D01*
X191762142Y-138025214D01*
X191714523Y-138120452D01*
X191666904Y-138168071D01*
X191571666Y-138215690D01*
X191190714Y-138215690D01*
X192143095Y-137787119D02*
X192190714Y-137739500D01*
X192285952Y-137691880D01*
X192524047Y-137691880D01*
X192619285Y-137739500D01*
X192666904Y-137787119D01*
X192714523Y-137882357D01*
X192714523Y-137977595D01*
X192666904Y-138120452D01*
X192095476Y-138691880D01*
X192714523Y-138691880D01*
X193571666Y-138025214D02*
X193571666Y-138691880D01*
X193333571Y-137644261D02*
X193095476Y-138358547D01*
X193714523Y-138358547D01*
X191825642Y-130627380D02*
X191492309Y-130151190D01*
X191254214Y-130627380D02*
X191254214Y-129627380D01*
X191635166Y-129627380D01*
X191730404Y-129675000D01*
X191778023Y-129722619D01*
X191825642Y-129817857D01*
X191825642Y-129960714D01*
X191778023Y-130055952D01*
X191730404Y-130103571D01*
X191635166Y-130151190D01*
X191254214Y-130151190D01*
X192206595Y-129722619D02*
X192254214Y-129675000D01*
X192349452Y-129627380D01*
X192587547Y-129627380D01*
X192682785Y-129675000D01*
X192730404Y-129722619D01*
X192778023Y-129817857D01*
X192778023Y-129913095D01*
X192730404Y-130055952D01*
X192158976Y-130627380D01*
X192778023Y-130627380D01*
X193349452Y-130055952D02*
X193254214Y-130008333D01*
X193206595Y-129960714D01*
X193158976Y-129865476D01*
X193158976Y-129817857D01*
X193206595Y-129722619D01*
X193254214Y-129675000D01*
X193349452Y-129627380D01*
X193539928Y-129627380D01*
X193635166Y-129675000D01*
X193682785Y-129722619D01*
X193730404Y-129817857D01*
X193730404Y-129865476D01*
X193682785Y-129960714D01*
X193635166Y-130008333D01*
X193539928Y-130055952D01*
X193349452Y-130055952D01*
X193254214Y-130103571D01*
X193206595Y-130151190D01*
X193158976Y-130246428D01*
X193158976Y-130436904D01*
X193206595Y-130532142D01*
X193254214Y-130579761D01*
X193349452Y-130627380D01*
X193539928Y-130627380D01*
X193635166Y-130579761D01*
X193682785Y-130532142D01*
X193730404Y-130436904D01*
X193730404Y-130246428D01*
X193682785Y-130151190D01*
X193635166Y-130103571D01*
X193539928Y-130055952D01*
X184967642Y-132595880D02*
X184634309Y-132119690D01*
X184396214Y-132595880D02*
X184396214Y-131595880D01*
X184777166Y-131595880D01*
X184872404Y-131643500D01*
X184920023Y-131691119D01*
X184967642Y-131786357D01*
X184967642Y-131929214D01*
X184920023Y-132024452D01*
X184872404Y-132072071D01*
X184777166Y-132119690D01*
X184396214Y-132119690D01*
X185300976Y-131595880D02*
X185920023Y-131595880D01*
X185586690Y-131976833D01*
X185729547Y-131976833D01*
X185824785Y-132024452D01*
X185872404Y-132072071D01*
X185920023Y-132167309D01*
X185920023Y-132405404D01*
X185872404Y-132500642D01*
X185824785Y-132548261D01*
X185729547Y-132595880D01*
X185443833Y-132595880D01*
X185348595Y-132548261D01*
X185300976Y-132500642D01*
X186872404Y-132595880D02*
X186300976Y-132595880D01*
X186586690Y-132595880D02*
X186586690Y-131595880D01*
X186491452Y-131738738D01*
X186396214Y-131833976D01*
X186300976Y-131881595D01*
X184967642Y-124404380D02*
X184634309Y-123928190D01*
X184396214Y-124404380D02*
X184396214Y-123404380D01*
X184777166Y-123404380D01*
X184872404Y-123452000D01*
X184920023Y-123499619D01*
X184967642Y-123594857D01*
X184967642Y-123737714D01*
X184920023Y-123832952D01*
X184872404Y-123880571D01*
X184777166Y-123928190D01*
X184396214Y-123928190D01*
X185300976Y-123404380D02*
X185920023Y-123404380D01*
X185586690Y-123785333D01*
X185729547Y-123785333D01*
X185824785Y-123832952D01*
X185872404Y-123880571D01*
X185920023Y-123975809D01*
X185920023Y-124213904D01*
X185872404Y-124309142D01*
X185824785Y-124356761D01*
X185729547Y-124404380D01*
X185443833Y-124404380D01*
X185348595Y-124356761D01*
X185300976Y-124309142D01*
X186300976Y-123499619D02*
X186348595Y-123452000D01*
X186443833Y-123404380D01*
X186681928Y-123404380D01*
X186777166Y-123452000D01*
X186824785Y-123499619D01*
X186872404Y-123594857D01*
X186872404Y-123690095D01*
X186824785Y-123832952D01*
X186253357Y-124404380D01*
X186872404Y-124404380D01*
X184967642Y-126309380D02*
X184634309Y-125833190D01*
X184396214Y-126309380D02*
X184396214Y-125309380D01*
X184777166Y-125309380D01*
X184872404Y-125357000D01*
X184920023Y-125404619D01*
X184967642Y-125499857D01*
X184967642Y-125642714D01*
X184920023Y-125737952D01*
X184872404Y-125785571D01*
X184777166Y-125833190D01*
X184396214Y-125833190D01*
X185300976Y-125309380D02*
X185920023Y-125309380D01*
X185586690Y-125690333D01*
X185729547Y-125690333D01*
X185824785Y-125737952D01*
X185872404Y-125785571D01*
X185920023Y-125880809D01*
X185920023Y-126118904D01*
X185872404Y-126214142D01*
X185824785Y-126261761D01*
X185729547Y-126309380D01*
X185443833Y-126309380D01*
X185348595Y-126261761D01*
X185300976Y-126214142D01*
X186253357Y-125309380D02*
X186872404Y-125309380D01*
X186539071Y-125690333D01*
X186681928Y-125690333D01*
X186777166Y-125737952D01*
X186824785Y-125785571D01*
X186872404Y-125880809D01*
X186872404Y-126118904D01*
X186824785Y-126214142D01*
X186777166Y-126261761D01*
X186681928Y-126309380D01*
X186396214Y-126309380D01*
X186300976Y-126261761D01*
X186253357Y-126214142D01*
X184967642Y-128531880D02*
X184634309Y-128055690D01*
X184396214Y-128531880D02*
X184396214Y-127531880D01*
X184777166Y-127531880D01*
X184872404Y-127579500D01*
X184920023Y-127627119D01*
X184967642Y-127722357D01*
X184967642Y-127865214D01*
X184920023Y-127960452D01*
X184872404Y-128008071D01*
X184777166Y-128055690D01*
X184396214Y-128055690D01*
X185300976Y-127531880D02*
X185920023Y-127531880D01*
X185586690Y-127912833D01*
X185729547Y-127912833D01*
X185824785Y-127960452D01*
X185872404Y-128008071D01*
X185920023Y-128103309D01*
X185920023Y-128341404D01*
X185872404Y-128436642D01*
X185824785Y-128484261D01*
X185729547Y-128531880D01*
X185443833Y-128531880D01*
X185348595Y-128484261D01*
X185300976Y-128436642D01*
X186777166Y-127865214D02*
X186777166Y-128531880D01*
X186539071Y-127484261D02*
X186300976Y-128198547D01*
X186920023Y-128198547D01*
X232211642Y-124658380D02*
X231878309Y-124182190D01*
X231640214Y-124658380D02*
X231640214Y-123658380D01*
X232021166Y-123658380D01*
X232116404Y-123706000D01*
X232164023Y-123753619D01*
X232211642Y-123848857D01*
X232211642Y-123991714D01*
X232164023Y-124086952D01*
X232116404Y-124134571D01*
X232021166Y-124182190D01*
X231640214Y-124182190D01*
X232544976Y-123658380D02*
X233164023Y-123658380D01*
X232830690Y-124039333D01*
X232973547Y-124039333D01*
X233068785Y-124086952D01*
X233116404Y-124134571D01*
X233164023Y-124229809D01*
X233164023Y-124467904D01*
X233116404Y-124563142D01*
X233068785Y-124610761D01*
X232973547Y-124658380D01*
X232687833Y-124658380D01*
X232592595Y-124610761D01*
X232544976Y-124563142D01*
X234068785Y-123658380D02*
X233592595Y-123658380D01*
X233544976Y-124134571D01*
X233592595Y-124086952D01*
X233687833Y-124039333D01*
X233925928Y-124039333D01*
X234021166Y-124086952D01*
X234068785Y-124134571D01*
X234116404Y-124229809D01*
X234116404Y-124467904D01*
X234068785Y-124563142D01*
X234021166Y-124610761D01*
X233925928Y-124658380D01*
X233687833Y-124658380D01*
X233592595Y-124610761D01*
X233544976Y-124563142D01*
M02*
