G04 #@! TF.GenerationSoftware,KiCad,Pcbnew,5.1.5-52549c5~84~ubuntu18.04.1*
G04 #@! TF.CreationDate,2020-02-07T15:12:36+01:00*
G04 #@! TF.ProjectId,icescreamer,69636573-6372-4656-916d-65722e6b6963,rev?*
G04 #@! TF.SameCoordinates,Original*
G04 #@! TF.FileFunction,Soldermask,Bot*
G04 #@! TF.FilePolarity,Negative*
%FSLAX46Y46*%
G04 Gerber Fmt 4.6, Leading zero omitted, Abs format (unit mm)*
G04 Created by KiCad (PCBNEW 5.1.5-52549c5~84~ubuntu18.04.1) date 2020-02-07 15:12:36*
%MOMM*%
%LPD*%
G04 APERTURE LIST*
%ADD10C,0.010000*%
%ADD11O,1.924000X2.700000*%
%ADD12O,2.700000X1.924000*%
%ADD13O,2.600000X1.600000*%
%ADD14O,3.900000X4.400000*%
%ADD15C,2.900000*%
%ADD16R,1.750000X1.750000*%
%ADD17O,1.750000X1.750000*%
%ADD18C,2.000000*%
%ADD19R,2.100000X2.100000*%
%ADD20O,2.100000X2.100000*%
%ADD21C,1.924000*%
%ADD22R,4.900000X3.100000*%
%ADD23R,2.000000X2.000000*%
%ADD24R,2.600000X2.600000*%
%ADD25O,2.600000X2.600000*%
G04 APERTURE END LIST*
D10*
G36*
X222748345Y-64802019D02*
G01*
X222580151Y-64911730D01*
X222430358Y-65010695D01*
X222301254Y-65097337D01*
X222195125Y-65170081D01*
X222114260Y-65227350D01*
X222060946Y-65267567D01*
X222037471Y-65289157D01*
X222036977Y-65292242D01*
X222064716Y-65297035D01*
X222122443Y-65299015D01*
X222201165Y-65298074D01*
X222274423Y-65295082D01*
X222393040Y-65291093D01*
X222491460Y-65294314D01*
X222588115Y-65306064D01*
X222686639Y-65324565D01*
X222886119Y-65372067D01*
X223048750Y-65424878D01*
X223176556Y-65484346D01*
X223271565Y-65551819D01*
X223335801Y-65628646D01*
X223371292Y-65716174D01*
X223380166Y-65786000D01*
X223382628Y-65864154D01*
X223398851Y-65782025D01*
X223421670Y-65695751D01*
X223451721Y-65641523D01*
X223493385Y-65612412D01*
X223509283Y-65607420D01*
X223544434Y-65607750D01*
X223615917Y-65616784D01*
X223722038Y-65634225D01*
X223861103Y-65659775D01*
X224031417Y-65693137D01*
X224231287Y-65734014D01*
X224236526Y-65735104D01*
X224439389Y-65777566D01*
X224650883Y-65822254D01*
X224867444Y-65868383D01*
X225085503Y-65915170D01*
X225301495Y-65961830D01*
X225511852Y-66007579D01*
X225713008Y-66051631D01*
X225901395Y-66093203D01*
X226073448Y-66131511D01*
X226225598Y-66165769D01*
X226354280Y-66195193D01*
X226455927Y-66219000D01*
X226526972Y-66236404D01*
X226563847Y-66246621D01*
X226566070Y-66247429D01*
X226635088Y-66289624D01*
X226690240Y-66358981D01*
X226735943Y-66461154D01*
X226738281Y-66467869D01*
X226795666Y-66602784D01*
X226864096Y-66702019D01*
X226946528Y-66768123D01*
X227045920Y-66803648D01*
X227137110Y-66811769D01*
X227263011Y-66795606D01*
X227370171Y-66746399D01*
X227460080Y-66663073D01*
X227534225Y-66544553D01*
X227548119Y-66514669D01*
X227590830Y-66433459D01*
X227639766Y-66377582D01*
X227702064Y-66343778D01*
X227784859Y-66328789D01*
X227895288Y-66329355D01*
X227945941Y-66332967D01*
X228032947Y-66341948D01*
X228090932Y-66353308D01*
X228129952Y-66369879D01*
X228158382Y-66392798D01*
X228186866Y-66430059D01*
X228200729Y-66475273D01*
X228200196Y-66536197D01*
X228185496Y-66620592D01*
X228167281Y-66696298D01*
X228090287Y-66932411D01*
X227981844Y-67170127D01*
X227847692Y-67399047D01*
X227693570Y-67608775D01*
X227612284Y-67701616D01*
X227448298Y-67863193D01*
X227280690Y-67996974D01*
X227096216Y-68113034D01*
X227012500Y-68157903D01*
X226863188Y-68230343D01*
X226721209Y-68289127D01*
X226573187Y-68339033D01*
X226405751Y-68384838D01*
X226318107Y-68405945D01*
X226097222Y-68444617D01*
X225864782Y-68462315D01*
X225633705Y-68458888D01*
X225416912Y-68434186D01*
X225333107Y-68417404D01*
X225228035Y-68394002D01*
X225156899Y-68380345D01*
X225115897Y-68376023D01*
X225101231Y-68380625D01*
X225108477Y-68393132D01*
X225138338Y-68408094D01*
X225197874Y-68427684D01*
X225278287Y-68449686D01*
X225370779Y-68471886D01*
X225466552Y-68492068D01*
X225556808Y-68508018D01*
X225576423Y-68510935D01*
X225706335Y-68523241D01*
X225860015Y-68528112D01*
X226022909Y-68525745D01*
X226180461Y-68516341D01*
X226313308Y-68500857D01*
X226595302Y-68437552D01*
X226865849Y-68338564D01*
X227122169Y-68206313D01*
X227361482Y-68043218D01*
X227581008Y-67851700D01*
X227777968Y-67634179D01*
X227949582Y-67393074D01*
X228093071Y-67130807D01*
X228203982Y-66854810D01*
X228260588Y-66650966D01*
X228305376Y-66416357D01*
X228337728Y-66157657D01*
X228357025Y-65881541D01*
X228362647Y-65594683D01*
X228353978Y-65303754D01*
X228351560Y-65262626D01*
X228344872Y-65164592D01*
X228338405Y-65099157D01*
X228330719Y-65059880D01*
X228320376Y-65040319D01*
X228305937Y-65034031D01*
X228300441Y-65033769D01*
X228289213Y-65035592D01*
X228280453Y-65044012D01*
X228273790Y-65063454D01*
X228268855Y-65098344D01*
X228265278Y-65153110D01*
X228262689Y-65232176D01*
X228260719Y-65339968D01*
X228258998Y-65480914D01*
X228258407Y-65536885D01*
X228253192Y-66040000D01*
X228165269Y-66045739D01*
X228106464Y-66040678D01*
X228013906Y-66020609D01*
X227889603Y-65986286D01*
X227735559Y-65938462D01*
X227553782Y-65877891D01*
X227346276Y-65805324D01*
X227115047Y-65721517D01*
X226862101Y-65627221D01*
X226589444Y-65523190D01*
X226299083Y-65410178D01*
X225993022Y-65288937D01*
X225673267Y-65160221D01*
X225341825Y-65024783D01*
X225000702Y-64883377D01*
X224651902Y-64736754D01*
X224443192Y-64648050D01*
X224265510Y-64572429D01*
X224119369Y-64510852D01*
X224000486Y-64461758D01*
X223904576Y-64423582D01*
X223827357Y-64394763D01*
X223764544Y-64373736D01*
X223711855Y-64358939D01*
X223665006Y-64348809D01*
X223619714Y-64341782D01*
X223596013Y-64338911D01*
X223482237Y-64326038D01*
X222748345Y-64802019D01*
G37*
X222748345Y-64802019D02*
X222580151Y-64911730D01*
X222430358Y-65010695D01*
X222301254Y-65097337D01*
X222195125Y-65170081D01*
X222114260Y-65227350D01*
X222060946Y-65267567D01*
X222037471Y-65289157D01*
X222036977Y-65292242D01*
X222064716Y-65297035D01*
X222122443Y-65299015D01*
X222201165Y-65298074D01*
X222274423Y-65295082D01*
X222393040Y-65291093D01*
X222491460Y-65294314D01*
X222588115Y-65306064D01*
X222686639Y-65324565D01*
X222886119Y-65372067D01*
X223048750Y-65424878D01*
X223176556Y-65484346D01*
X223271565Y-65551819D01*
X223335801Y-65628646D01*
X223371292Y-65716174D01*
X223380166Y-65786000D01*
X223382628Y-65864154D01*
X223398851Y-65782025D01*
X223421670Y-65695751D01*
X223451721Y-65641523D01*
X223493385Y-65612412D01*
X223509283Y-65607420D01*
X223544434Y-65607750D01*
X223615917Y-65616784D01*
X223722038Y-65634225D01*
X223861103Y-65659775D01*
X224031417Y-65693137D01*
X224231287Y-65734014D01*
X224236526Y-65735104D01*
X224439389Y-65777566D01*
X224650883Y-65822254D01*
X224867444Y-65868383D01*
X225085503Y-65915170D01*
X225301495Y-65961830D01*
X225511852Y-66007579D01*
X225713008Y-66051631D01*
X225901395Y-66093203D01*
X226073448Y-66131511D01*
X226225598Y-66165769D01*
X226354280Y-66195193D01*
X226455927Y-66219000D01*
X226526972Y-66236404D01*
X226563847Y-66246621D01*
X226566070Y-66247429D01*
X226635088Y-66289624D01*
X226690240Y-66358981D01*
X226735943Y-66461154D01*
X226738281Y-66467869D01*
X226795666Y-66602784D01*
X226864096Y-66702019D01*
X226946528Y-66768123D01*
X227045920Y-66803648D01*
X227137110Y-66811769D01*
X227263011Y-66795606D01*
X227370171Y-66746399D01*
X227460080Y-66663073D01*
X227534225Y-66544553D01*
X227548119Y-66514669D01*
X227590830Y-66433459D01*
X227639766Y-66377582D01*
X227702064Y-66343778D01*
X227784859Y-66328789D01*
X227895288Y-66329355D01*
X227945941Y-66332967D01*
X228032947Y-66341948D01*
X228090932Y-66353308D01*
X228129952Y-66369879D01*
X228158382Y-66392798D01*
X228186866Y-66430059D01*
X228200729Y-66475273D01*
X228200196Y-66536197D01*
X228185496Y-66620592D01*
X228167281Y-66696298D01*
X228090287Y-66932411D01*
X227981844Y-67170127D01*
X227847692Y-67399047D01*
X227693570Y-67608775D01*
X227612284Y-67701616D01*
X227448298Y-67863193D01*
X227280690Y-67996974D01*
X227096216Y-68113034D01*
X227012500Y-68157903D01*
X226863188Y-68230343D01*
X226721209Y-68289127D01*
X226573187Y-68339033D01*
X226405751Y-68384838D01*
X226318107Y-68405945D01*
X226097222Y-68444617D01*
X225864782Y-68462315D01*
X225633705Y-68458888D01*
X225416912Y-68434186D01*
X225333107Y-68417404D01*
X225228035Y-68394002D01*
X225156899Y-68380345D01*
X225115897Y-68376023D01*
X225101231Y-68380625D01*
X225108477Y-68393132D01*
X225138338Y-68408094D01*
X225197874Y-68427684D01*
X225278287Y-68449686D01*
X225370779Y-68471886D01*
X225466552Y-68492068D01*
X225556808Y-68508018D01*
X225576423Y-68510935D01*
X225706335Y-68523241D01*
X225860015Y-68528112D01*
X226022909Y-68525745D01*
X226180461Y-68516341D01*
X226313308Y-68500857D01*
X226595302Y-68437552D01*
X226865849Y-68338564D01*
X227122169Y-68206313D01*
X227361482Y-68043218D01*
X227581008Y-67851700D01*
X227777968Y-67634179D01*
X227949582Y-67393074D01*
X228093071Y-67130807D01*
X228203982Y-66854810D01*
X228260588Y-66650966D01*
X228305376Y-66416357D01*
X228337728Y-66157657D01*
X228357025Y-65881541D01*
X228362647Y-65594683D01*
X228353978Y-65303754D01*
X228351560Y-65262626D01*
X228344872Y-65164592D01*
X228338405Y-65099157D01*
X228330719Y-65059880D01*
X228320376Y-65040319D01*
X228305937Y-65034031D01*
X228300441Y-65033769D01*
X228289213Y-65035592D01*
X228280453Y-65044012D01*
X228273790Y-65063454D01*
X228268855Y-65098344D01*
X228265278Y-65153110D01*
X228262689Y-65232176D01*
X228260719Y-65339968D01*
X228258998Y-65480914D01*
X228258407Y-65536885D01*
X228253192Y-66040000D01*
X228165269Y-66045739D01*
X228106464Y-66040678D01*
X228013906Y-66020609D01*
X227889603Y-65986286D01*
X227735559Y-65938462D01*
X227553782Y-65877891D01*
X227346276Y-65805324D01*
X227115047Y-65721517D01*
X226862101Y-65627221D01*
X226589444Y-65523190D01*
X226299083Y-65410178D01*
X225993022Y-65288937D01*
X225673267Y-65160221D01*
X225341825Y-65024783D01*
X225000702Y-64883377D01*
X224651902Y-64736754D01*
X224443192Y-64648050D01*
X224265510Y-64572429D01*
X224119369Y-64510852D01*
X224000486Y-64461758D01*
X223904576Y-64423582D01*
X223827357Y-64394763D01*
X223764544Y-64373736D01*
X223711855Y-64358939D01*
X223665006Y-64348809D01*
X223619714Y-64341782D01*
X223596013Y-64338911D01*
X223482237Y-64326038D01*
X222748345Y-64802019D01*
G36*
X234622392Y-63611562D02*
G01*
X234578073Y-63618961D01*
X234521225Y-63635833D01*
X234447248Y-63664036D01*
X234351546Y-63705429D01*
X234229520Y-63761873D01*
X234113478Y-63817365D01*
X233998003Y-63872778D01*
X233886044Y-63925675D01*
X233774580Y-63977328D01*
X233660585Y-64029008D01*
X233541036Y-64081986D01*
X233412908Y-64137536D01*
X233273179Y-64196930D01*
X233118823Y-64261438D01*
X232946818Y-64332333D01*
X232754139Y-64410887D01*
X232537762Y-64498372D01*
X232294663Y-64596060D01*
X232021818Y-64705223D01*
X231716204Y-64827133D01*
X231652885Y-64852359D01*
X231275690Y-65002324D01*
X230933095Y-65137924D01*
X230623590Y-65259727D01*
X230345664Y-65368303D01*
X230097807Y-65464219D01*
X229878507Y-65548044D01*
X229686255Y-65620347D01*
X229519540Y-65681696D01*
X229376851Y-65732661D01*
X229256678Y-65773810D01*
X229157510Y-65805711D01*
X229077837Y-65828934D01*
X229022080Y-65842768D01*
X228979451Y-65846616D01*
X228944580Y-65835318D01*
X228916408Y-65805471D01*
X228893879Y-65753673D01*
X228875937Y-65676523D01*
X228861524Y-65570617D01*
X228849584Y-65432553D01*
X228839059Y-65258930D01*
X228838721Y-65252495D01*
X228825098Y-64992529D01*
X228773607Y-64998495D01*
X228747168Y-65003914D01*
X228730594Y-65018303D01*
X228720225Y-65050192D01*
X228712401Y-65108110D01*
X228708155Y-65151000D01*
X228703727Y-65240669D01*
X228703791Y-65359787D01*
X228707834Y-65499047D01*
X228715344Y-65649141D01*
X228725808Y-65800763D01*
X228738714Y-65944605D01*
X228753549Y-66071362D01*
X228761936Y-66127923D01*
X228840309Y-66495511D01*
X228952423Y-66845458D01*
X229097650Y-67176123D01*
X229275358Y-67485866D01*
X229294577Y-67515154D01*
X229377204Y-67626675D01*
X229484060Y-67751637D01*
X229606877Y-67881781D01*
X229737385Y-68008847D01*
X229867317Y-68124576D01*
X229988402Y-68220708D01*
X230031192Y-68250935D01*
X230317101Y-68423134D01*
X230628674Y-68571903D01*
X230958692Y-68694927D01*
X231299936Y-68789887D01*
X231645187Y-68854468D01*
X231987226Y-68886352D01*
X232014346Y-68887425D01*
X232098362Y-68888416D01*
X232204806Y-68886849D01*
X232317136Y-68883065D01*
X232379811Y-68879910D01*
X232706484Y-68841847D01*
X233035145Y-68766031D01*
X233362919Y-68653480D01*
X233686931Y-68505212D01*
X234004308Y-68322248D01*
X234065642Y-68282306D01*
X234220790Y-68169147D01*
X234382376Y-68033215D01*
X234541802Y-67882965D01*
X234690471Y-67726855D01*
X234819786Y-67573337D01*
X234903175Y-67458599D01*
X235080959Y-67156400D01*
X235226562Y-66833016D01*
X235339066Y-66490708D01*
X235397462Y-66241906D01*
X235420611Y-66092265D01*
X235435745Y-65924656D01*
X235442487Y-65754016D01*
X235270111Y-65754016D01*
X235244097Y-66042272D01*
X235189662Y-66334199D01*
X235112911Y-66606615D01*
X235058133Y-66751662D01*
X234985157Y-66914329D01*
X234900263Y-67082542D01*
X234809734Y-67244227D01*
X234719848Y-67387309D01*
X234670840Y-67456538D01*
X234448322Y-67724151D01*
X234202528Y-67965230D01*
X233936677Y-68177657D01*
X233653988Y-68359313D01*
X233357681Y-68508081D01*
X233050974Y-68621841D01*
X232803319Y-68685591D01*
X232712805Y-68703683D01*
X232629133Y-68719158D01*
X232564615Y-68729792D01*
X232541885Y-68732759D01*
X232431738Y-68740017D01*
X232295260Y-68742787D01*
X232144905Y-68741336D01*
X231993128Y-68735927D01*
X231852385Y-68726826D01*
X231746693Y-68715861D01*
X231399024Y-68657798D01*
X231077878Y-68577444D01*
X230776353Y-68472752D01*
X230491304Y-68343584D01*
X230202393Y-68177031D01*
X229940148Y-67983733D01*
X229703189Y-67762277D01*
X229490139Y-67511246D01*
X229299619Y-67229226D01*
X229161241Y-66977846D01*
X229099115Y-66851983D01*
X229054595Y-66755299D01*
X229026298Y-66682820D01*
X229012840Y-66629572D01*
X229012836Y-66590582D01*
X229024902Y-66560876D01*
X229040123Y-66542607D01*
X229064309Y-66526173D01*
X229107259Y-66507674D01*
X229171354Y-66486525D01*
X229258973Y-66462144D01*
X229372495Y-66433946D01*
X229514299Y-66401349D01*
X229686766Y-66363769D01*
X229892273Y-66320621D01*
X230133201Y-66271324D01*
X230207038Y-66256398D01*
X230367997Y-66223813D01*
X230525288Y-66191747D01*
X230672519Y-66161518D01*
X230803299Y-66134447D01*
X230911237Y-66111852D01*
X230989941Y-66095054D01*
X231012793Y-66090033D01*
X231101097Y-66072013D01*
X231183276Y-66058158D01*
X231246196Y-66050576D01*
X231263862Y-66049769D01*
X231292147Y-66050599D01*
X231316686Y-66055811D01*
X231342300Y-66069486D01*
X231373808Y-66095706D01*
X231416029Y-66138554D01*
X231473782Y-66202112D01*
X231551887Y-66290462D01*
X231563187Y-66303299D01*
X231659758Y-66399888D01*
X231753897Y-66464165D01*
X231854430Y-66501237D01*
X231925497Y-66512973D01*
X232041598Y-66510196D01*
X232158270Y-66481587D01*
X232266659Y-66431671D01*
X232357909Y-66364973D01*
X232423164Y-66286018D01*
X232440980Y-66249548D01*
X232456876Y-66193228D01*
X232472980Y-66111103D01*
X232487332Y-66016381D01*
X232497971Y-65922273D01*
X232502937Y-65841988D01*
X232503075Y-65831103D01*
X232505406Y-65759210D01*
X232515972Y-65707423D01*
X232540940Y-65667585D01*
X232586475Y-65631541D01*
X232658743Y-65591132D01*
X232700500Y-65569918D01*
X232748945Y-65546716D01*
X232827845Y-65510308D01*
X232933090Y-65462507D01*
X233060567Y-65405128D01*
X233206167Y-65339982D01*
X233365777Y-65268884D01*
X233535287Y-65193647D01*
X233710585Y-65116085D01*
X233887560Y-65038011D01*
X234062101Y-64961239D01*
X234230097Y-64887582D01*
X234387436Y-64818853D01*
X234530008Y-64756866D01*
X234653701Y-64703435D01*
X234754403Y-64660372D01*
X234828005Y-64629492D01*
X234870394Y-64612608D01*
X234872400Y-64611885D01*
X234944435Y-64597219D01*
X235002266Y-64612716D01*
X235051579Y-64661487D01*
X235091052Y-64731441D01*
X235178175Y-64958143D01*
X235237095Y-65207264D01*
X235267759Y-65474117D01*
X235270111Y-65754016D01*
X235442487Y-65754016D01*
X235442613Y-65750847D01*
X235440964Y-65582609D01*
X235430546Y-65431712D01*
X235416755Y-65336615D01*
X235389940Y-65207895D01*
X235357523Y-65068718D01*
X235322627Y-64931385D01*
X235288375Y-64808196D01*
X235258497Y-64713210D01*
X235227124Y-64599887D01*
X235221273Y-64514631D01*
X235240916Y-64455939D01*
X235253687Y-64441506D01*
X235318650Y-64403602D01*
X235417468Y-64374354D01*
X235545854Y-64353920D01*
X235699519Y-64342458D01*
X235874177Y-64340126D01*
X236065541Y-64347082D01*
X236269323Y-64363484D01*
X236481236Y-64389490D01*
X236517962Y-64394907D01*
X236634776Y-64412630D01*
X236741766Y-64428972D01*
X236831480Y-64442787D01*
X236896463Y-64452928D01*
X236927013Y-64457857D01*
X236984373Y-64467628D01*
X236936783Y-64416868D01*
X236881348Y-64367577D01*
X236801398Y-64308797D01*
X236707808Y-64247607D01*
X236611456Y-64191083D01*
X236523215Y-64146304D01*
X236516248Y-64143183D01*
X236463229Y-64122753D01*
X236380083Y-64094409D01*
X236274372Y-64060558D01*
X236153657Y-64023604D01*
X236025503Y-63985955D01*
X235991684Y-63976289D01*
X235837840Y-63932258D01*
X235661272Y-63881195D01*
X235476661Y-63827377D01*
X235298686Y-63775082D01*
X235151183Y-63731324D01*
X235004519Y-63688122D01*
X234889554Y-63655803D01*
X234800834Y-63633132D01*
X234732906Y-63618874D01*
X234680317Y-63611793D01*
X234637615Y-63610656D01*
X234622392Y-63611562D01*
G37*
X234622392Y-63611562D02*
X234578073Y-63618961D01*
X234521225Y-63635833D01*
X234447248Y-63664036D01*
X234351546Y-63705429D01*
X234229520Y-63761873D01*
X234113478Y-63817365D01*
X233998003Y-63872778D01*
X233886044Y-63925675D01*
X233774580Y-63977328D01*
X233660585Y-64029008D01*
X233541036Y-64081986D01*
X233412908Y-64137536D01*
X233273179Y-64196930D01*
X233118823Y-64261438D01*
X232946818Y-64332333D01*
X232754139Y-64410887D01*
X232537762Y-64498372D01*
X232294663Y-64596060D01*
X232021818Y-64705223D01*
X231716204Y-64827133D01*
X231652885Y-64852359D01*
X231275690Y-65002324D01*
X230933095Y-65137924D01*
X230623590Y-65259727D01*
X230345664Y-65368303D01*
X230097807Y-65464219D01*
X229878507Y-65548044D01*
X229686255Y-65620347D01*
X229519540Y-65681696D01*
X229376851Y-65732661D01*
X229256678Y-65773810D01*
X229157510Y-65805711D01*
X229077837Y-65828934D01*
X229022080Y-65842768D01*
X228979451Y-65846616D01*
X228944580Y-65835318D01*
X228916408Y-65805471D01*
X228893879Y-65753673D01*
X228875937Y-65676523D01*
X228861524Y-65570617D01*
X228849584Y-65432553D01*
X228839059Y-65258930D01*
X228838721Y-65252495D01*
X228825098Y-64992529D01*
X228773607Y-64998495D01*
X228747168Y-65003914D01*
X228730594Y-65018303D01*
X228720225Y-65050192D01*
X228712401Y-65108110D01*
X228708155Y-65151000D01*
X228703727Y-65240669D01*
X228703791Y-65359787D01*
X228707834Y-65499047D01*
X228715344Y-65649141D01*
X228725808Y-65800763D01*
X228738714Y-65944605D01*
X228753549Y-66071362D01*
X228761936Y-66127923D01*
X228840309Y-66495511D01*
X228952423Y-66845458D01*
X229097650Y-67176123D01*
X229275358Y-67485866D01*
X229294577Y-67515154D01*
X229377204Y-67626675D01*
X229484060Y-67751637D01*
X229606877Y-67881781D01*
X229737385Y-68008847D01*
X229867317Y-68124576D01*
X229988402Y-68220708D01*
X230031192Y-68250935D01*
X230317101Y-68423134D01*
X230628674Y-68571903D01*
X230958692Y-68694927D01*
X231299936Y-68789887D01*
X231645187Y-68854468D01*
X231987226Y-68886352D01*
X232014346Y-68887425D01*
X232098362Y-68888416D01*
X232204806Y-68886849D01*
X232317136Y-68883065D01*
X232379811Y-68879910D01*
X232706484Y-68841847D01*
X233035145Y-68766031D01*
X233362919Y-68653480D01*
X233686931Y-68505212D01*
X234004308Y-68322248D01*
X234065642Y-68282306D01*
X234220790Y-68169147D01*
X234382376Y-68033215D01*
X234541802Y-67882965D01*
X234690471Y-67726855D01*
X234819786Y-67573337D01*
X234903175Y-67458599D01*
X235080959Y-67156400D01*
X235226562Y-66833016D01*
X235339066Y-66490708D01*
X235397462Y-66241906D01*
X235420611Y-66092265D01*
X235435745Y-65924656D01*
X235442487Y-65754016D01*
X235270111Y-65754016D01*
X235244097Y-66042272D01*
X235189662Y-66334199D01*
X235112911Y-66606615D01*
X235058133Y-66751662D01*
X234985157Y-66914329D01*
X234900263Y-67082542D01*
X234809734Y-67244227D01*
X234719848Y-67387309D01*
X234670840Y-67456538D01*
X234448322Y-67724151D01*
X234202528Y-67965230D01*
X233936677Y-68177657D01*
X233653988Y-68359313D01*
X233357681Y-68508081D01*
X233050974Y-68621841D01*
X232803319Y-68685591D01*
X232712805Y-68703683D01*
X232629133Y-68719158D01*
X232564615Y-68729792D01*
X232541885Y-68732759D01*
X232431738Y-68740017D01*
X232295260Y-68742787D01*
X232144905Y-68741336D01*
X231993128Y-68735927D01*
X231852385Y-68726826D01*
X231746693Y-68715861D01*
X231399024Y-68657798D01*
X231077878Y-68577444D01*
X230776353Y-68472752D01*
X230491304Y-68343584D01*
X230202393Y-68177031D01*
X229940148Y-67983733D01*
X229703189Y-67762277D01*
X229490139Y-67511246D01*
X229299619Y-67229226D01*
X229161241Y-66977846D01*
X229099115Y-66851983D01*
X229054595Y-66755299D01*
X229026298Y-66682820D01*
X229012840Y-66629572D01*
X229012836Y-66590582D01*
X229024902Y-66560876D01*
X229040123Y-66542607D01*
X229064309Y-66526173D01*
X229107259Y-66507674D01*
X229171354Y-66486525D01*
X229258973Y-66462144D01*
X229372495Y-66433946D01*
X229514299Y-66401349D01*
X229686766Y-66363769D01*
X229892273Y-66320621D01*
X230133201Y-66271324D01*
X230207038Y-66256398D01*
X230367997Y-66223813D01*
X230525288Y-66191747D01*
X230672519Y-66161518D01*
X230803299Y-66134447D01*
X230911237Y-66111852D01*
X230989941Y-66095054D01*
X231012793Y-66090033D01*
X231101097Y-66072013D01*
X231183276Y-66058158D01*
X231246196Y-66050576D01*
X231263862Y-66049769D01*
X231292147Y-66050599D01*
X231316686Y-66055811D01*
X231342300Y-66069486D01*
X231373808Y-66095706D01*
X231416029Y-66138554D01*
X231473782Y-66202112D01*
X231551887Y-66290462D01*
X231563187Y-66303299D01*
X231659758Y-66399888D01*
X231753897Y-66464165D01*
X231854430Y-66501237D01*
X231925497Y-66512973D01*
X232041598Y-66510196D01*
X232158270Y-66481587D01*
X232266659Y-66431671D01*
X232357909Y-66364973D01*
X232423164Y-66286018D01*
X232440980Y-66249548D01*
X232456876Y-66193228D01*
X232472980Y-66111103D01*
X232487332Y-66016381D01*
X232497971Y-65922273D01*
X232502937Y-65841988D01*
X232503075Y-65831103D01*
X232505406Y-65759210D01*
X232515972Y-65707423D01*
X232540940Y-65667585D01*
X232586475Y-65631541D01*
X232658743Y-65591132D01*
X232700500Y-65569918D01*
X232748945Y-65546716D01*
X232827845Y-65510308D01*
X232933090Y-65462507D01*
X233060567Y-65405128D01*
X233206167Y-65339982D01*
X233365777Y-65268884D01*
X233535287Y-65193647D01*
X233710585Y-65116085D01*
X233887560Y-65038011D01*
X234062101Y-64961239D01*
X234230097Y-64887582D01*
X234387436Y-64818853D01*
X234530008Y-64756866D01*
X234653701Y-64703435D01*
X234754403Y-64660372D01*
X234828005Y-64629492D01*
X234870394Y-64612608D01*
X234872400Y-64611885D01*
X234944435Y-64597219D01*
X235002266Y-64612716D01*
X235051579Y-64661487D01*
X235091052Y-64731441D01*
X235178175Y-64958143D01*
X235237095Y-65207264D01*
X235267759Y-65474117D01*
X235270111Y-65754016D01*
X235442487Y-65754016D01*
X235442613Y-65750847D01*
X235440964Y-65582609D01*
X235430546Y-65431712D01*
X235416755Y-65336615D01*
X235389940Y-65207895D01*
X235357523Y-65068718D01*
X235322627Y-64931385D01*
X235288375Y-64808196D01*
X235258497Y-64713210D01*
X235227124Y-64599887D01*
X235221273Y-64514631D01*
X235240916Y-64455939D01*
X235253687Y-64441506D01*
X235318650Y-64403602D01*
X235417468Y-64374354D01*
X235545854Y-64353920D01*
X235699519Y-64342458D01*
X235874177Y-64340126D01*
X236065541Y-64347082D01*
X236269323Y-64363484D01*
X236481236Y-64389490D01*
X236517962Y-64394907D01*
X236634776Y-64412630D01*
X236741766Y-64428972D01*
X236831480Y-64442787D01*
X236896463Y-64452928D01*
X236927013Y-64457857D01*
X236984373Y-64467628D01*
X236936783Y-64416868D01*
X236881348Y-64367577D01*
X236801398Y-64308797D01*
X236707808Y-64247607D01*
X236611456Y-64191083D01*
X236523215Y-64146304D01*
X236516248Y-64143183D01*
X236463229Y-64122753D01*
X236380083Y-64094409D01*
X236274372Y-64060558D01*
X236153657Y-64023604D01*
X236025503Y-63985955D01*
X235991684Y-63976289D01*
X235837840Y-63932258D01*
X235661272Y-63881195D01*
X235476661Y-63827377D01*
X235298686Y-63775082D01*
X235151183Y-63731324D01*
X235004519Y-63688122D01*
X234889554Y-63655803D01*
X234800834Y-63633132D01*
X234732906Y-63618874D01*
X234680317Y-63611793D01*
X234637615Y-63610656D01*
X234622392Y-63611562D01*
G36*
X237336522Y-71331182D02*
G01*
X237337993Y-71383748D01*
X237342449Y-71463869D01*
X237338472Y-71720054D01*
X237296751Y-71978914D01*
X237218358Y-72238610D01*
X237104367Y-72497307D01*
X236955848Y-72753167D01*
X236773874Y-73004351D01*
X236559517Y-73249024D01*
X236313849Y-73485347D01*
X236037942Y-73711484D01*
X236025505Y-73720884D01*
X235962154Y-73769439D01*
X235911571Y-73809764D01*
X235881344Y-73835740D01*
X235876379Y-73841158D01*
X235863518Y-73875472D01*
X235854331Y-73920558D01*
X235850930Y-73961064D01*
X235855429Y-73981640D01*
X235856986Y-73982058D01*
X235880362Y-73973203D01*
X235929337Y-73949768D01*
X235995258Y-73915979D01*
X236030118Y-73897465D01*
X236328628Y-73718639D01*
X236593090Y-73520929D01*
X236823858Y-73303983D01*
X237021285Y-73067448D01*
X237185727Y-72810973D01*
X237251895Y-72683077D01*
X237335928Y-72486195D01*
X237393277Y-72295933D01*
X237427653Y-72097317D01*
X237441256Y-71918784D01*
X237439935Y-71711887D01*
X237418130Y-71530466D01*
X237376360Y-71378177D01*
X237358276Y-71334923D01*
X237346094Y-71311411D01*
X237339032Y-71308617D01*
X237336522Y-71331182D01*
G37*
X237336522Y-71331182D02*
X237337993Y-71383748D01*
X237342449Y-71463869D01*
X237338472Y-71720054D01*
X237296751Y-71978914D01*
X237218358Y-72238610D01*
X237104367Y-72497307D01*
X236955848Y-72753167D01*
X236773874Y-73004351D01*
X236559517Y-73249024D01*
X236313849Y-73485347D01*
X236037942Y-73711484D01*
X236025505Y-73720884D01*
X235962154Y-73769439D01*
X235911571Y-73809764D01*
X235881344Y-73835740D01*
X235876379Y-73841158D01*
X235863518Y-73875472D01*
X235854331Y-73920558D01*
X235850930Y-73961064D01*
X235855429Y-73981640D01*
X235856986Y-73982058D01*
X235880362Y-73973203D01*
X235929337Y-73949768D01*
X235995258Y-73915979D01*
X236030118Y-73897465D01*
X236328628Y-73718639D01*
X236593090Y-73520929D01*
X236823858Y-73303983D01*
X237021285Y-73067448D01*
X237185727Y-72810973D01*
X237251895Y-72683077D01*
X237335928Y-72486195D01*
X237393277Y-72295933D01*
X237427653Y-72097317D01*
X237441256Y-71918784D01*
X237439935Y-71711887D01*
X237418130Y-71530466D01*
X237376360Y-71378177D01*
X237358276Y-71334923D01*
X237346094Y-71311411D01*
X237339032Y-71308617D01*
X237336522Y-71331182D01*
G36*
X221640417Y-72202910D02*
G01*
X221639928Y-72251406D01*
X221642160Y-72321788D01*
X221644522Y-72366539D01*
X221667753Y-72548401D01*
X221716932Y-72731539D01*
X221794024Y-72920933D01*
X221900991Y-73121565D01*
X222010567Y-73295263D01*
X222096994Y-73412862D01*
X222206781Y-73544623D01*
X222331615Y-73681816D01*
X222463185Y-73815711D01*
X222593180Y-73937577D01*
X222713289Y-74038685D01*
X222732119Y-74053175D01*
X222808102Y-74106840D01*
X222897147Y-74163568D01*
X222993659Y-74220504D01*
X223092042Y-74274794D01*
X223186702Y-74323582D01*
X223272042Y-74364014D01*
X223342468Y-74393236D01*
X223392384Y-74408392D01*
X223416195Y-74406629D01*
X223417423Y-74402816D01*
X223409753Y-74382096D01*
X223389187Y-74334377D01*
X223359392Y-74268054D01*
X223341728Y-74229559D01*
X223315204Y-74173202D01*
X223291108Y-74127638D01*
X223264577Y-74087482D01*
X223230745Y-74047345D01*
X223184747Y-74001840D01*
X223121720Y-73945581D01*
X223036798Y-73873180D01*
X222966483Y-73814013D01*
X222773620Y-73650444D01*
X222608451Y-73506730D01*
X222467406Y-73379282D01*
X222346916Y-73264511D01*
X222243412Y-73158827D01*
X222153323Y-73058640D01*
X222073082Y-72960362D01*
X221999118Y-72860404D01*
X221956262Y-72798118D01*
X221890961Y-72692500D01*
X221821755Y-72566751D01*
X221756566Y-72436252D01*
X221703319Y-72316387D01*
X221688171Y-72277654D01*
X221666734Y-72224822D01*
X221649658Y-72191208D01*
X221643667Y-72184846D01*
X221640417Y-72202910D01*
G37*
X221640417Y-72202910D02*
X221639928Y-72251406D01*
X221642160Y-72321788D01*
X221644522Y-72366539D01*
X221667753Y-72548401D01*
X221716932Y-72731539D01*
X221794024Y-72920933D01*
X221900991Y-73121565D01*
X222010567Y-73295263D01*
X222096994Y-73412862D01*
X222206781Y-73544623D01*
X222331615Y-73681816D01*
X222463185Y-73815711D01*
X222593180Y-73937577D01*
X222713289Y-74038685D01*
X222732119Y-74053175D01*
X222808102Y-74106840D01*
X222897147Y-74163568D01*
X222993659Y-74220504D01*
X223092042Y-74274794D01*
X223186702Y-74323582D01*
X223272042Y-74364014D01*
X223342468Y-74393236D01*
X223392384Y-74408392D01*
X223416195Y-74406629D01*
X223417423Y-74402816D01*
X223409753Y-74382096D01*
X223389187Y-74334377D01*
X223359392Y-74268054D01*
X223341728Y-74229559D01*
X223315204Y-74173202D01*
X223291108Y-74127638D01*
X223264577Y-74087482D01*
X223230745Y-74047345D01*
X223184747Y-74001840D01*
X223121720Y-73945581D01*
X223036798Y-73873180D01*
X222966483Y-73814013D01*
X222773620Y-73650444D01*
X222608451Y-73506730D01*
X222467406Y-73379282D01*
X222346916Y-73264511D01*
X222243412Y-73158827D01*
X222153323Y-73058640D01*
X222073082Y-72960362D01*
X221999118Y-72860404D01*
X221956262Y-72798118D01*
X221890961Y-72692500D01*
X221821755Y-72566751D01*
X221756566Y-72436252D01*
X221703319Y-72316387D01*
X221688171Y-72277654D01*
X221666734Y-72224822D01*
X221649658Y-72191208D01*
X221643667Y-72184846D01*
X221640417Y-72202910D01*
G36*
X224008451Y-74576690D02*
G01*
X224017109Y-74593821D01*
X224049502Y-74631617D01*
X224100166Y-74684772D01*
X224163636Y-74747980D01*
X224234450Y-74815936D01*
X224307145Y-74883332D01*
X224376256Y-74944863D01*
X224436320Y-74995223D01*
X224452424Y-75007871D01*
X224687710Y-75169787D01*
X224930136Y-75300416D01*
X225174234Y-75397061D01*
X225327556Y-75439545D01*
X225435120Y-75473419D01*
X225520072Y-75518690D01*
X225531316Y-75527130D01*
X225583866Y-75566314D01*
X225617686Y-75581724D01*
X225642839Y-75576008D01*
X225660438Y-75561092D01*
X225681301Y-75525903D01*
X225683885Y-75511358D01*
X225696753Y-75480616D01*
X225728109Y-75440925D01*
X225731843Y-75437112D01*
X225790222Y-75401085D01*
X225870540Y-75389612D01*
X225975395Y-75402776D01*
X226107387Y-75440658D01*
X226133269Y-75449763D01*
X226216873Y-75478008D01*
X226294894Y-75501174D01*
X226354142Y-75515443D01*
X226367731Y-75517597D01*
X226408108Y-75516486D01*
X226475864Y-75508361D01*
X226563965Y-75494639D01*
X226665375Y-75476737D01*
X226773062Y-75456073D01*
X226879990Y-75434063D01*
X226979125Y-75412124D01*
X227063432Y-75391675D01*
X227125879Y-75374131D01*
X227159429Y-75360911D01*
X227163126Y-75357354D01*
X227155651Y-75332570D01*
X227129519Y-75286336D01*
X227090112Y-75228015D01*
X227083887Y-75219480D01*
X226997711Y-75102418D01*
X226550836Y-75089914D01*
X226212581Y-75077722D01*
X225908796Y-75060596D01*
X225635098Y-75037746D01*
X225387099Y-75008382D01*
X225160414Y-74971713D01*
X224950659Y-74926949D01*
X224753447Y-74873299D01*
X224564393Y-74809973D01*
X224379111Y-74736180D01*
X224239795Y-74673402D01*
X224154930Y-74634308D01*
X224083559Y-74603174D01*
X224032633Y-74582906D01*
X224009101Y-74576409D01*
X224008451Y-74576690D01*
G37*
X224008451Y-74576690D02*
X224017109Y-74593821D01*
X224049502Y-74631617D01*
X224100166Y-74684772D01*
X224163636Y-74747980D01*
X224234450Y-74815936D01*
X224307145Y-74883332D01*
X224376256Y-74944863D01*
X224436320Y-74995223D01*
X224452424Y-75007871D01*
X224687710Y-75169787D01*
X224930136Y-75300416D01*
X225174234Y-75397061D01*
X225327556Y-75439545D01*
X225435120Y-75473419D01*
X225520072Y-75518690D01*
X225531316Y-75527130D01*
X225583866Y-75566314D01*
X225617686Y-75581724D01*
X225642839Y-75576008D01*
X225660438Y-75561092D01*
X225681301Y-75525903D01*
X225683885Y-75511358D01*
X225696753Y-75480616D01*
X225728109Y-75440925D01*
X225731843Y-75437112D01*
X225790222Y-75401085D01*
X225870540Y-75389612D01*
X225975395Y-75402776D01*
X226107387Y-75440658D01*
X226133269Y-75449763D01*
X226216873Y-75478008D01*
X226294894Y-75501174D01*
X226354142Y-75515443D01*
X226367731Y-75517597D01*
X226408108Y-75516486D01*
X226475864Y-75508361D01*
X226563965Y-75494639D01*
X226665375Y-75476737D01*
X226773062Y-75456073D01*
X226879990Y-75434063D01*
X226979125Y-75412124D01*
X227063432Y-75391675D01*
X227125879Y-75374131D01*
X227159429Y-75360911D01*
X227163126Y-75357354D01*
X227155651Y-75332570D01*
X227129519Y-75286336D01*
X227090112Y-75228015D01*
X227083887Y-75219480D01*
X226997711Y-75102418D01*
X226550836Y-75089914D01*
X226212581Y-75077722D01*
X225908796Y-75060596D01*
X225635098Y-75037746D01*
X225387099Y-75008382D01*
X225160414Y-74971713D01*
X224950659Y-74926949D01*
X224753447Y-74873299D01*
X224564393Y-74809973D01*
X224379111Y-74736180D01*
X224239795Y-74673402D01*
X224154930Y-74634308D01*
X224083559Y-74603174D01*
X224032633Y-74582906D01*
X224009101Y-74576409D01*
X224008451Y-74576690D01*
G36*
X225762553Y-76401917D02*
G01*
X225770445Y-76439098D01*
X225797495Y-76506307D01*
X225834016Y-76582854D01*
X225915182Y-76713291D01*
X226027676Y-76847672D01*
X226164955Y-76980313D01*
X226320474Y-77105531D01*
X226487688Y-77217643D01*
X226660054Y-77310966D01*
X226686614Y-77323294D01*
X226762460Y-77355227D01*
X226848408Y-77387547D01*
X226936979Y-77417945D01*
X227020692Y-77444110D01*
X227092066Y-77463731D01*
X227143621Y-77474500D01*
X227167877Y-77474104D01*
X227168808Y-77472214D01*
X227152495Y-77460537D01*
X227109478Y-77437453D01*
X227048642Y-77407697D01*
X227040869Y-77404044D01*
X226791628Y-77274093D01*
X226550153Y-77122536D01*
X226323247Y-76954652D01*
X226117714Y-76775719D01*
X225940360Y-76591017D01*
X225851861Y-76481696D01*
X225803458Y-76422101D01*
X225773623Y-76395879D01*
X225762553Y-76401917D01*
G37*
X225762553Y-76401917D02*
X225770445Y-76439098D01*
X225797495Y-76506307D01*
X225834016Y-76582854D01*
X225915182Y-76713291D01*
X226027676Y-76847672D01*
X226164955Y-76980313D01*
X226320474Y-77105531D01*
X226487688Y-77217643D01*
X226660054Y-77310966D01*
X226686614Y-77323294D01*
X226762460Y-77355227D01*
X226848408Y-77387547D01*
X226936979Y-77417945D01*
X227020692Y-77444110D01*
X227092066Y-77463731D01*
X227143621Y-77474500D01*
X227167877Y-77474104D01*
X227168808Y-77472214D01*
X227152495Y-77460537D01*
X227109478Y-77437453D01*
X227048642Y-77407697D01*
X227040869Y-77404044D01*
X226791628Y-77274093D01*
X226550153Y-77122536D01*
X226323247Y-76954652D01*
X226117714Y-76775719D01*
X225940360Y-76591017D01*
X225851861Y-76481696D01*
X225803458Y-76422101D01*
X225773623Y-76395879D01*
X225762553Y-76401917D01*
G36*
X226354294Y-77430289D02*
G01*
X226362150Y-77477001D01*
X226367200Y-77497335D01*
X226383768Y-77547998D01*
X226404259Y-77570655D01*
X226439881Y-77575689D01*
X226451522Y-77575442D01*
X226514700Y-77568715D01*
X226583106Y-77555115D01*
X226587538Y-77553963D01*
X226634201Y-77538554D01*
X226659380Y-77524369D01*
X226660808Y-77521420D01*
X226643944Y-77508316D01*
X226600446Y-77487484D01*
X226540950Y-77462931D01*
X226476093Y-77438665D01*
X226416514Y-77418696D01*
X226372850Y-77407031D01*
X226356193Y-77406641D01*
X226354294Y-77430289D01*
G37*
X226354294Y-77430289D02*
X226362150Y-77477001D01*
X226367200Y-77497335D01*
X226383768Y-77547998D01*
X226404259Y-77570655D01*
X226439881Y-77575689D01*
X226451522Y-77575442D01*
X226514700Y-77568715D01*
X226583106Y-77555115D01*
X226587538Y-77553963D01*
X226634201Y-77538554D01*
X226659380Y-77524369D01*
X226660808Y-77521420D01*
X226643944Y-77508316D01*
X226600446Y-77487484D01*
X226540950Y-77462931D01*
X226476093Y-77438665D01*
X226416514Y-77418696D01*
X226372850Y-77407031D01*
X226356193Y-77406641D01*
X226354294Y-77430289D01*
G36*
X229405108Y-68594473D02*
G01*
X229339102Y-68607216D01*
X229248441Y-68626680D01*
X229139740Y-68651434D01*
X229019613Y-68680048D01*
X228992752Y-68686611D01*
X228831450Y-68725769D01*
X228691603Y-68758241D01*
X228567186Y-68784651D01*
X228452173Y-68805629D01*
X228340537Y-68821800D01*
X228226253Y-68833791D01*
X228103296Y-68842230D01*
X227965639Y-68847743D01*
X227807256Y-68850957D01*
X227622122Y-68852500D01*
X227404212Y-68852998D01*
X227393500Y-68853006D01*
X227191289Y-68852638D01*
X226972539Y-68851345D01*
X226747190Y-68849247D01*
X226525181Y-68846461D01*
X226316451Y-68843105D01*
X226130939Y-68839298D01*
X226035577Y-68836864D01*
X225867573Y-68832289D01*
X225734917Y-68829088D01*
X225633902Y-68827360D01*
X225560821Y-68827203D01*
X225511965Y-68828714D01*
X225483627Y-68831992D01*
X225472100Y-68837135D01*
X225473676Y-68844241D01*
X225482014Y-68851504D01*
X225529850Y-68875006D01*
X225608269Y-68900224D01*
X225708944Y-68925248D01*
X225823551Y-68948170D01*
X225943763Y-68967079D01*
X226030262Y-68977251D01*
X226126854Y-68989958D01*
X226205165Y-69006467D01*
X226255457Y-69024660D01*
X226259567Y-69027128D01*
X226313042Y-69072080D01*
X226354669Y-69131582D01*
X226385595Y-69210106D01*
X226406965Y-69312126D01*
X226419923Y-69442118D01*
X226425616Y-69604553D01*
X226426114Y-69677643D01*
X226426917Y-69807905D01*
X226430356Y-69904207D01*
X226438304Y-69971655D01*
X226452634Y-70015360D01*
X226475217Y-70040428D01*
X226507928Y-70051968D01*
X226552639Y-70055090D01*
X226564511Y-70055154D01*
X226620561Y-70050672D01*
X226638888Y-70036868D01*
X226619847Y-70013206D01*
X226600750Y-70000172D01*
X226563936Y-69965248D01*
X226535063Y-69908886D01*
X226512795Y-69826452D01*
X226495792Y-69713312D01*
X226485282Y-69600194D01*
X226476212Y-69496381D01*
X226465482Y-69396523D01*
X226454513Y-69312807D01*
X226445834Y-69262352D01*
X226435886Y-69163407D01*
X226454041Y-69091018D01*
X226500178Y-69045576D01*
X226515191Y-69038803D01*
X226547753Y-69033837D01*
X226615337Y-69029427D01*
X226713890Y-69025684D01*
X226839360Y-69022717D01*
X226987693Y-69020636D01*
X227154837Y-69019549D01*
X227233580Y-69019414D01*
X227519957Y-69017872D01*
X227773393Y-69013096D01*
X227999929Y-69004589D01*
X228205605Y-68991850D01*
X228396461Y-68974380D01*
X228578539Y-68951681D01*
X228757877Y-68923252D01*
X228940518Y-68888595D01*
X229021640Y-68871639D01*
X229152872Y-68845479D01*
X229254043Y-68830578D01*
X229332463Y-68826770D01*
X229395441Y-68833890D01*
X229450287Y-68851771D01*
X229470719Y-68861457D01*
X229505660Y-68887310D01*
X229563207Y-68939639D01*
X229640476Y-69015300D01*
X229734581Y-69111152D01*
X229842639Y-69224053D01*
X229961763Y-69350861D01*
X230089069Y-69488432D01*
X230221673Y-69633626D01*
X230356689Y-69783300D01*
X230491232Y-69934311D01*
X230622417Y-70083519D01*
X230747360Y-70227779D01*
X230863175Y-70363951D01*
X230966978Y-70488892D01*
X230983573Y-70509220D01*
X231154372Y-70719055D01*
X231082377Y-70749136D01*
X231010382Y-70779218D01*
X231126480Y-70834945D01*
X231201650Y-70877863D01*
X231273797Y-70930130D01*
X231313330Y-70966259D01*
X231349888Y-71009601D01*
X231397192Y-71071662D01*
X231450172Y-71145029D01*
X231503759Y-71222287D01*
X231552883Y-71296021D01*
X231592475Y-71358819D01*
X231617465Y-71403264D01*
X231623577Y-71420006D01*
X231606134Y-71445854D01*
X231558015Y-71459254D01*
X231485538Y-71460351D01*
X231395021Y-71449290D01*
X231292781Y-71426215D01*
X231242577Y-71411293D01*
X231114993Y-71378686D01*
X230990852Y-71362111D01*
X230876161Y-71360947D01*
X230776927Y-71374575D01*
X230699157Y-71402375D01*
X230648859Y-71443728D01*
X230634555Y-71474019D01*
X230628886Y-71520567D01*
X230636542Y-71570051D01*
X230659803Y-71625522D01*
X230700953Y-71690032D01*
X230762272Y-71766635D01*
X230846044Y-71858381D01*
X230954550Y-71968324D01*
X231090072Y-72099515D01*
X231132072Y-72139431D01*
X231350429Y-72347577D01*
X231541139Y-72532463D01*
X231706050Y-72696459D01*
X231847008Y-72841937D01*
X231965863Y-72971269D01*
X232064461Y-73086827D01*
X232144651Y-73190981D01*
X232208281Y-73286104D01*
X232257198Y-73374567D01*
X232293251Y-73458742D01*
X232318286Y-73541000D01*
X232334153Y-73623712D01*
X232341469Y-73691579D01*
X232338942Y-73833238D01*
X232305790Y-73955359D01*
X232239091Y-74065966D01*
X232181697Y-74130197D01*
X232095011Y-74205066D01*
X232004113Y-74256523D01*
X231899842Y-74287747D01*
X231773035Y-74301918D01*
X231682192Y-74303558D01*
X231474530Y-74289496D01*
X231292252Y-74248937D01*
X231130370Y-74179968D01*
X230983895Y-74080679D01*
X230899228Y-74003656D01*
X230789574Y-73878098D01*
X230708071Y-73746644D01*
X230652516Y-73602839D01*
X230620706Y-73440230D01*
X230610437Y-73252363D01*
X230612083Y-73162545D01*
X230617375Y-73050011D01*
X230625057Y-72965234D01*
X230636976Y-72896897D01*
X230654977Y-72833684D01*
X230674384Y-72780769D01*
X230701720Y-72699241D01*
X230714953Y-72623967D01*
X230712546Y-72548794D01*
X230692959Y-72467568D01*
X230654653Y-72374137D01*
X230596089Y-72262346D01*
X230515729Y-72126041D01*
X230507122Y-72111948D01*
X230464020Y-72044844D01*
X230405129Y-71957781D01*
X230335231Y-71857375D01*
X230259105Y-71750240D01*
X230181532Y-71642992D01*
X230107293Y-71542245D01*
X230041168Y-71454615D01*
X229987937Y-71386716D01*
X229954977Y-71347914D01*
X229840966Y-71253042D01*
X229706060Y-71190926D01*
X229551018Y-71161795D01*
X229376599Y-71165874D01*
X229356578Y-71168319D01*
X229207434Y-71192092D01*
X229092971Y-71222395D01*
X229008841Y-71263797D01*
X228950697Y-71320868D01*
X228914190Y-71398179D01*
X228894975Y-71500300D01*
X228888703Y-71631801D01*
X228888615Y-71660260D01*
X228891674Y-71779650D01*
X228901431Y-71893223D01*
X228919468Y-72009051D01*
X228947369Y-72135209D01*
X228986718Y-72279771D01*
X229039098Y-72450811D01*
X229050887Y-72487692D01*
X229076102Y-72567159D01*
X229110880Y-72678244D01*
X229153436Y-72815174D01*
X229201986Y-72972173D01*
X229254746Y-73143467D01*
X229309931Y-73323283D01*
X229365757Y-73505845D01*
X229382980Y-73562308D01*
X229450923Y-73784458D01*
X229509379Y-73973519D01*
X229559910Y-74133885D01*
X229604075Y-74269950D01*
X229643436Y-74386108D01*
X229679553Y-74486752D01*
X229713987Y-74576276D01*
X229748299Y-74659075D01*
X229784049Y-74739541D01*
X229822798Y-74822070D01*
X229851434Y-74881154D01*
X229909986Y-75011896D01*
X229945963Y-75124382D01*
X229961098Y-75230953D01*
X229957124Y-75343952D01*
X229935773Y-75475720D01*
X229935256Y-75478264D01*
X229916854Y-75574389D01*
X229896978Y-75687433D01*
X229879433Y-75795594D01*
X229876769Y-75813184D01*
X229855439Y-75925499D01*
X229829236Y-76014659D01*
X229806945Y-76062511D01*
X229769150Y-76108713D01*
X229705422Y-76170695D01*
X229622602Y-76242963D01*
X229527536Y-76320022D01*
X229427067Y-76396378D01*
X229328039Y-76466535D01*
X229237295Y-76524999D01*
X229213424Y-76539029D01*
X229049198Y-76625907D01*
X228879643Y-76702957D01*
X228718429Y-76764251D01*
X228634192Y-76790230D01*
X228532094Y-76810061D01*
X228406599Y-76821970D01*
X228269826Y-76825982D01*
X228133896Y-76822121D01*
X228010927Y-76810412D01*
X227913039Y-76790881D01*
X227905871Y-76788739D01*
X227834976Y-76763850D01*
X227735838Y-76724948D01*
X227615379Y-76675058D01*
X227480522Y-76617208D01*
X227338189Y-76554425D01*
X227195303Y-76489733D01*
X227058786Y-76426161D01*
X226935562Y-76366734D01*
X226899059Y-76348580D01*
X226802853Y-76299703D01*
X226736825Y-76264041D01*
X226695904Y-76237938D01*
X226675021Y-76217740D01*
X226669106Y-76199790D01*
X226671728Y-76184647D01*
X226712112Y-76112964D01*
X226784190Y-76062198D01*
X226861400Y-76036853D01*
X226921462Y-76018394D01*
X227004034Y-75986570D01*
X227097070Y-75946262D01*
X227167969Y-75912657D01*
X227309182Y-75833225D01*
X227433685Y-75741463D01*
X227542480Y-75634809D01*
X227636567Y-75510703D01*
X227716947Y-75366584D01*
X227784622Y-75199890D01*
X227840593Y-75008061D01*
X227885860Y-74788536D01*
X227921424Y-74538755D01*
X227948287Y-74256156D01*
X227967449Y-73938178D01*
X227970927Y-73858428D01*
X227978051Y-73565899D01*
X227977270Y-73241758D01*
X227968979Y-72892578D01*
X227953574Y-72524932D01*
X227931450Y-72145394D01*
X227903003Y-71760535D01*
X227868629Y-71376931D01*
X227828723Y-71001152D01*
X227783682Y-70639774D01*
X227772065Y-70555296D01*
X227757276Y-70445816D01*
X227744473Y-70343508D01*
X227734754Y-70257719D01*
X227729217Y-70197793D01*
X227728448Y-70184065D01*
X227725654Y-70104000D01*
X227627962Y-70092122D01*
X227566862Y-70088661D01*
X227520441Y-70093119D01*
X227506804Y-70098605D01*
X227484673Y-70127112D01*
X227472126Y-70173072D01*
X227469355Y-70240183D01*
X227476555Y-70332143D01*
X227493918Y-70452653D01*
X227521637Y-70605409D01*
X227537446Y-70685182D01*
X227588712Y-70945983D01*
X227631106Y-71179855D01*
X227665394Y-71394731D01*
X227692342Y-71598541D01*
X227712718Y-71799216D01*
X227727287Y-72004687D01*
X227736817Y-72222884D01*
X227742074Y-72461739D01*
X227743824Y-72729183D01*
X227743773Y-72819846D01*
X227742168Y-73105816D01*
X227738261Y-73361055D01*
X227731668Y-73593860D01*
X227722008Y-73812529D01*
X227708898Y-74025362D01*
X227691955Y-74240654D01*
X227670799Y-74466706D01*
X227665439Y-74519692D01*
X227649279Y-74666430D01*
X227633491Y-74778632D01*
X227616291Y-74860782D01*
X227595895Y-74917362D01*
X227570520Y-74952855D01*
X227538381Y-74971743D01*
X227497694Y-74978509D01*
X227482708Y-74978846D01*
X227448922Y-74988785D01*
X227448199Y-75017717D01*
X227480223Y-75064316D01*
X227510528Y-75095880D01*
X227570508Y-75170854D01*
X227592588Y-75245796D01*
X227577578Y-75326020D01*
X227553096Y-75375536D01*
X227482843Y-75476757D01*
X227385498Y-75589617D01*
X227267950Y-75706452D01*
X227205012Y-75762874D01*
X227143674Y-75814549D01*
X227099872Y-75845022D01*
X227062300Y-75859453D01*
X227019651Y-75863005D01*
X226987706Y-75862095D01*
X226925860Y-75862246D01*
X226885230Y-75874231D01*
X226848243Y-75905134D01*
X226829059Y-75926028D01*
X226797426Y-75958526D01*
X226765257Y-75980843D01*
X226722620Y-75996902D01*
X226659581Y-76010627D01*
X226582654Y-76023371D01*
X226496153Y-76036721D01*
X226419489Y-76048129D01*
X226364174Y-76055902D01*
X226348192Y-76057887D01*
X226333444Y-76063273D01*
X226337152Y-76076419D01*
X226362721Y-76100334D01*
X226413557Y-76138024D01*
X226493062Y-76192498D01*
X226524038Y-76213247D01*
X226754154Y-76358050D01*
X226993104Y-76490229D01*
X227247425Y-76612800D01*
X227523654Y-76728779D01*
X227828328Y-76841183D01*
X228035459Y-76910753D01*
X228181480Y-76958034D01*
X228294589Y-76993935D01*
X228378976Y-77019341D01*
X228438831Y-77035136D01*
X228478345Y-77042205D01*
X228501709Y-77041433D01*
X228513112Y-77033704D01*
X228516745Y-77019902D01*
X228516962Y-77012399D01*
X228525129Y-76974399D01*
X228552743Y-76940008D01*
X228604472Y-76906173D01*
X228684985Y-76869839D01*
X228798880Y-76827977D01*
X229074009Y-76718671D01*
X229314711Y-76592533D01*
X229522145Y-76448873D01*
X229683596Y-76301686D01*
X229808777Y-76152308D01*
X229898968Y-75999324D01*
X229957965Y-75834346D01*
X229989562Y-75648988D01*
X229992099Y-75619861D01*
X230000415Y-75537096D01*
X230011105Y-75463555D01*
X230022148Y-75412600D01*
X230024524Y-75405484D01*
X230063942Y-75353302D01*
X230131052Y-75319684D01*
X230219423Y-75304155D01*
X230322622Y-75306239D01*
X230434218Y-75325462D01*
X230547777Y-75361348D01*
X230656867Y-75413422D01*
X230724301Y-75457166D01*
X230836470Y-75562705D01*
X230929174Y-75698377D01*
X230998907Y-75858648D01*
X231017347Y-75919934D01*
X231039001Y-75997425D01*
X231058639Y-76062104D01*
X231072964Y-76103294D01*
X231076070Y-76110109D01*
X231086319Y-76103800D01*
X231102793Y-76062436D01*
X231124395Y-75989347D01*
X231150029Y-75887863D01*
X231152075Y-75879239D01*
X231212286Y-75653658D01*
X231279304Y-75462438D01*
X231355785Y-75301083D01*
X231444381Y-75165099D01*
X231547747Y-75049990D01*
X231668538Y-74951261D01*
X231720598Y-74916445D01*
X231857785Y-74847151D01*
X232016190Y-74796250D01*
X232184673Y-74765403D01*
X232352099Y-74756270D01*
X232507329Y-74770513D01*
X232580962Y-74788141D01*
X232679004Y-74826111D01*
X232782916Y-74879703D01*
X232880850Y-74941666D01*
X232960956Y-75004749D01*
X232998389Y-75043580D01*
X233030047Y-75088228D01*
X233051161Y-75134855D01*
X233061589Y-75189126D01*
X233061191Y-75256706D01*
X233049823Y-75343259D01*
X233027344Y-75454452D01*
X232993612Y-75595950D01*
X232983539Y-75636189D01*
X232930361Y-75841236D01*
X232881882Y-76014123D01*
X232835960Y-76161163D01*
X232790455Y-76288669D01*
X232743224Y-76402954D01*
X232692127Y-76510332D01*
X232677147Y-76539422D01*
X232528278Y-76791138D01*
X232356773Y-77017123D01*
X232181772Y-77202178D01*
X231975573Y-77381938D01*
X231769879Y-77523585D01*
X231565211Y-77626804D01*
X231385973Y-77685693D01*
X231243729Y-77708018D01*
X231080918Y-77713104D01*
X230911682Y-77701668D01*
X230750160Y-77674426D01*
X230656423Y-77648719D01*
X230576033Y-77624711D01*
X230502747Y-77606887D01*
X230449798Y-77598367D01*
X230441500Y-77598055D01*
X230409144Y-77599415D01*
X230403945Y-77605555D01*
X230428811Y-77620841D01*
X230470634Y-77641767D01*
X230530592Y-77679699D01*
X230582018Y-77727004D01*
X230618519Y-77775559D01*
X230633700Y-77817243D01*
X230626548Y-77839844D01*
X230601431Y-77845730D01*
X230541940Y-77850663D01*
X230452768Y-77854656D01*
X230338606Y-77857722D01*
X230204145Y-77859873D01*
X230054078Y-77861123D01*
X229893096Y-77861484D01*
X229725892Y-77860970D01*
X229557155Y-77859592D01*
X229391579Y-77857365D01*
X229233855Y-77854301D01*
X229088675Y-77850412D01*
X228960730Y-77845712D01*
X228854712Y-77840214D01*
X228783895Y-77834785D01*
X228685544Y-77825981D01*
X228601939Y-77819689D01*
X228540348Y-77816366D01*
X228508041Y-77816467D01*
X228505079Y-77817293D01*
X228519547Y-77822868D01*
X228566970Y-77831144D01*
X228641367Y-77841452D01*
X228736761Y-77853122D01*
X228847174Y-77865484D01*
X228966629Y-77877870D01*
X229089146Y-77889608D01*
X229208748Y-77900030D01*
X229318038Y-77908367D01*
X229471253Y-77917451D01*
X229643582Y-77925029D01*
X229827220Y-77930982D01*
X230014362Y-77935187D01*
X230197202Y-77937525D01*
X230367934Y-77937872D01*
X230518752Y-77936110D01*
X230641852Y-77932115D01*
X230685731Y-77929585D01*
X231019217Y-77896513D01*
X231320067Y-77845079D01*
X231590589Y-77774402D01*
X231833096Y-77683605D01*
X232049897Y-77571808D01*
X232243304Y-77438130D01*
X232415626Y-77281694D01*
X232431257Y-77265327D01*
X232627351Y-77031284D01*
X232791800Y-76777704D01*
X232925925Y-76502090D01*
X233031045Y-76201941D01*
X233069549Y-76056917D01*
X233101847Y-75923725D01*
X233126940Y-75823023D01*
X233146657Y-75749282D01*
X233162831Y-75696974D01*
X233177292Y-75660570D01*
X233191870Y-75634543D01*
X233208397Y-75613363D01*
X233220989Y-75599644D01*
X233250997Y-75571378D01*
X233285480Y-75548738D01*
X233331440Y-75529226D01*
X233395879Y-75510343D01*
X233485803Y-75489591D01*
X233589225Y-75468270D01*
X233809800Y-75416179D01*
X234011527Y-75350416D01*
X234212736Y-75264597D01*
X234306193Y-75218653D01*
X234412229Y-75161500D01*
X234520807Y-75097362D01*
X234626562Y-75030031D01*
X234724127Y-74963297D01*
X234808134Y-74900952D01*
X234873217Y-74846787D01*
X234914009Y-74804591D01*
X234925577Y-74781140D01*
X234909210Y-74782801D01*
X234864964Y-74798686D01*
X234800122Y-74825969D01*
X234741925Y-74852412D01*
X234437384Y-74978289D01*
X234124470Y-75076402D01*
X233812703Y-75144090D01*
X233597213Y-75172225D01*
X233488812Y-75179762D01*
X233411632Y-75178467D01*
X233358612Y-75167355D01*
X233322692Y-75145443D01*
X233310627Y-75132305D01*
X233302111Y-75104491D01*
X233292292Y-75044994D01*
X233282108Y-74961144D01*
X233272501Y-74860271D01*
X233267554Y-74796722D01*
X233246096Y-74566927D01*
X233214419Y-74346367D01*
X233170969Y-74130924D01*
X233114190Y-73916480D01*
X233042527Y-73698916D01*
X232954427Y-73474115D01*
X232848334Y-73237959D01*
X232722693Y-72986329D01*
X232575950Y-72715108D01*
X232406551Y-72420177D01*
X232307284Y-72253231D01*
X232060548Y-71849050D01*
X231825570Y-71478119D01*
X231600047Y-71137230D01*
X231381674Y-70823172D01*
X231168148Y-70532738D01*
X230957167Y-70262716D01*
X230746425Y-70009900D01*
X230533621Y-69771078D01*
X230498126Y-69732769D01*
X230419866Y-69651052D01*
X230325737Y-69556397D01*
X230221043Y-69453795D01*
X230111092Y-69348237D01*
X230001189Y-69244714D01*
X229896642Y-69148214D01*
X229802757Y-69063730D01*
X229724839Y-68996252D01*
X229668196Y-68950770D01*
X229661279Y-68945737D01*
X229599500Y-68885970D01*
X229576317Y-68822307D01*
X229591916Y-68755279D01*
X229593475Y-68752300D01*
X229607494Y-68719090D01*
X229602108Y-68693140D01*
X229572579Y-68660842D01*
X229556586Y-68646343D01*
X229498837Y-68606980D01*
X229444223Y-68590017D01*
X229439846Y-68589884D01*
X229405108Y-68594473D01*
G37*
X229405108Y-68594473D02*
X229339102Y-68607216D01*
X229248441Y-68626680D01*
X229139740Y-68651434D01*
X229019613Y-68680048D01*
X228992752Y-68686611D01*
X228831450Y-68725769D01*
X228691603Y-68758241D01*
X228567186Y-68784651D01*
X228452173Y-68805629D01*
X228340537Y-68821800D01*
X228226253Y-68833791D01*
X228103296Y-68842230D01*
X227965639Y-68847743D01*
X227807256Y-68850957D01*
X227622122Y-68852500D01*
X227404212Y-68852998D01*
X227393500Y-68853006D01*
X227191289Y-68852638D01*
X226972539Y-68851345D01*
X226747190Y-68849247D01*
X226525181Y-68846461D01*
X226316451Y-68843105D01*
X226130939Y-68839298D01*
X226035577Y-68836864D01*
X225867573Y-68832289D01*
X225734917Y-68829088D01*
X225633902Y-68827360D01*
X225560821Y-68827203D01*
X225511965Y-68828714D01*
X225483627Y-68831992D01*
X225472100Y-68837135D01*
X225473676Y-68844241D01*
X225482014Y-68851504D01*
X225529850Y-68875006D01*
X225608269Y-68900224D01*
X225708944Y-68925248D01*
X225823551Y-68948170D01*
X225943763Y-68967079D01*
X226030262Y-68977251D01*
X226126854Y-68989958D01*
X226205165Y-69006467D01*
X226255457Y-69024660D01*
X226259567Y-69027128D01*
X226313042Y-69072080D01*
X226354669Y-69131582D01*
X226385595Y-69210106D01*
X226406965Y-69312126D01*
X226419923Y-69442118D01*
X226425616Y-69604553D01*
X226426114Y-69677643D01*
X226426917Y-69807905D01*
X226430356Y-69904207D01*
X226438304Y-69971655D01*
X226452634Y-70015360D01*
X226475217Y-70040428D01*
X226507928Y-70051968D01*
X226552639Y-70055090D01*
X226564511Y-70055154D01*
X226620561Y-70050672D01*
X226638888Y-70036868D01*
X226619847Y-70013206D01*
X226600750Y-70000172D01*
X226563936Y-69965248D01*
X226535063Y-69908886D01*
X226512795Y-69826452D01*
X226495792Y-69713312D01*
X226485282Y-69600194D01*
X226476212Y-69496381D01*
X226465482Y-69396523D01*
X226454513Y-69312807D01*
X226445834Y-69262352D01*
X226435886Y-69163407D01*
X226454041Y-69091018D01*
X226500178Y-69045576D01*
X226515191Y-69038803D01*
X226547753Y-69033837D01*
X226615337Y-69029427D01*
X226713890Y-69025684D01*
X226839360Y-69022717D01*
X226987693Y-69020636D01*
X227154837Y-69019549D01*
X227233580Y-69019414D01*
X227519957Y-69017872D01*
X227773393Y-69013096D01*
X227999929Y-69004589D01*
X228205605Y-68991850D01*
X228396461Y-68974380D01*
X228578539Y-68951681D01*
X228757877Y-68923252D01*
X228940518Y-68888595D01*
X229021640Y-68871639D01*
X229152872Y-68845479D01*
X229254043Y-68830578D01*
X229332463Y-68826770D01*
X229395441Y-68833890D01*
X229450287Y-68851771D01*
X229470719Y-68861457D01*
X229505660Y-68887310D01*
X229563207Y-68939639D01*
X229640476Y-69015300D01*
X229734581Y-69111152D01*
X229842639Y-69224053D01*
X229961763Y-69350861D01*
X230089069Y-69488432D01*
X230221673Y-69633626D01*
X230356689Y-69783300D01*
X230491232Y-69934311D01*
X230622417Y-70083519D01*
X230747360Y-70227779D01*
X230863175Y-70363951D01*
X230966978Y-70488892D01*
X230983573Y-70509220D01*
X231154372Y-70719055D01*
X231082377Y-70749136D01*
X231010382Y-70779218D01*
X231126480Y-70834945D01*
X231201650Y-70877863D01*
X231273797Y-70930130D01*
X231313330Y-70966259D01*
X231349888Y-71009601D01*
X231397192Y-71071662D01*
X231450172Y-71145029D01*
X231503759Y-71222287D01*
X231552883Y-71296021D01*
X231592475Y-71358819D01*
X231617465Y-71403264D01*
X231623577Y-71420006D01*
X231606134Y-71445854D01*
X231558015Y-71459254D01*
X231485538Y-71460351D01*
X231395021Y-71449290D01*
X231292781Y-71426215D01*
X231242577Y-71411293D01*
X231114993Y-71378686D01*
X230990852Y-71362111D01*
X230876161Y-71360947D01*
X230776927Y-71374575D01*
X230699157Y-71402375D01*
X230648859Y-71443728D01*
X230634555Y-71474019D01*
X230628886Y-71520567D01*
X230636542Y-71570051D01*
X230659803Y-71625522D01*
X230700953Y-71690032D01*
X230762272Y-71766635D01*
X230846044Y-71858381D01*
X230954550Y-71968324D01*
X231090072Y-72099515D01*
X231132072Y-72139431D01*
X231350429Y-72347577D01*
X231541139Y-72532463D01*
X231706050Y-72696459D01*
X231847008Y-72841937D01*
X231965863Y-72971269D01*
X232064461Y-73086827D01*
X232144651Y-73190981D01*
X232208281Y-73286104D01*
X232257198Y-73374567D01*
X232293251Y-73458742D01*
X232318286Y-73541000D01*
X232334153Y-73623712D01*
X232341469Y-73691579D01*
X232338942Y-73833238D01*
X232305790Y-73955359D01*
X232239091Y-74065966D01*
X232181697Y-74130197D01*
X232095011Y-74205066D01*
X232004113Y-74256523D01*
X231899842Y-74287747D01*
X231773035Y-74301918D01*
X231682192Y-74303558D01*
X231474530Y-74289496D01*
X231292252Y-74248937D01*
X231130370Y-74179968D01*
X230983895Y-74080679D01*
X230899228Y-74003656D01*
X230789574Y-73878098D01*
X230708071Y-73746644D01*
X230652516Y-73602839D01*
X230620706Y-73440230D01*
X230610437Y-73252363D01*
X230612083Y-73162545D01*
X230617375Y-73050011D01*
X230625057Y-72965234D01*
X230636976Y-72896897D01*
X230654977Y-72833684D01*
X230674384Y-72780769D01*
X230701720Y-72699241D01*
X230714953Y-72623967D01*
X230712546Y-72548794D01*
X230692959Y-72467568D01*
X230654653Y-72374137D01*
X230596089Y-72262346D01*
X230515729Y-72126041D01*
X230507122Y-72111948D01*
X230464020Y-72044844D01*
X230405129Y-71957781D01*
X230335231Y-71857375D01*
X230259105Y-71750240D01*
X230181532Y-71642992D01*
X230107293Y-71542245D01*
X230041168Y-71454615D01*
X229987937Y-71386716D01*
X229954977Y-71347914D01*
X229840966Y-71253042D01*
X229706060Y-71190926D01*
X229551018Y-71161795D01*
X229376599Y-71165874D01*
X229356578Y-71168319D01*
X229207434Y-71192092D01*
X229092971Y-71222395D01*
X229008841Y-71263797D01*
X228950697Y-71320868D01*
X228914190Y-71398179D01*
X228894975Y-71500300D01*
X228888703Y-71631801D01*
X228888615Y-71660260D01*
X228891674Y-71779650D01*
X228901431Y-71893223D01*
X228919468Y-72009051D01*
X228947369Y-72135209D01*
X228986718Y-72279771D01*
X229039098Y-72450811D01*
X229050887Y-72487692D01*
X229076102Y-72567159D01*
X229110880Y-72678244D01*
X229153436Y-72815174D01*
X229201986Y-72972173D01*
X229254746Y-73143467D01*
X229309931Y-73323283D01*
X229365757Y-73505845D01*
X229382980Y-73562308D01*
X229450923Y-73784458D01*
X229509379Y-73973519D01*
X229559910Y-74133885D01*
X229604075Y-74269950D01*
X229643436Y-74386108D01*
X229679553Y-74486752D01*
X229713987Y-74576276D01*
X229748299Y-74659075D01*
X229784049Y-74739541D01*
X229822798Y-74822070D01*
X229851434Y-74881154D01*
X229909986Y-75011896D01*
X229945963Y-75124382D01*
X229961098Y-75230953D01*
X229957124Y-75343952D01*
X229935773Y-75475720D01*
X229935256Y-75478264D01*
X229916854Y-75574389D01*
X229896978Y-75687433D01*
X229879433Y-75795594D01*
X229876769Y-75813184D01*
X229855439Y-75925499D01*
X229829236Y-76014659D01*
X229806945Y-76062511D01*
X229769150Y-76108713D01*
X229705422Y-76170695D01*
X229622602Y-76242963D01*
X229527536Y-76320022D01*
X229427067Y-76396378D01*
X229328039Y-76466535D01*
X229237295Y-76524999D01*
X229213424Y-76539029D01*
X229049198Y-76625907D01*
X228879643Y-76702957D01*
X228718429Y-76764251D01*
X228634192Y-76790230D01*
X228532094Y-76810061D01*
X228406599Y-76821970D01*
X228269826Y-76825982D01*
X228133896Y-76822121D01*
X228010927Y-76810412D01*
X227913039Y-76790881D01*
X227905871Y-76788739D01*
X227834976Y-76763850D01*
X227735838Y-76724948D01*
X227615379Y-76675058D01*
X227480522Y-76617208D01*
X227338189Y-76554425D01*
X227195303Y-76489733D01*
X227058786Y-76426161D01*
X226935562Y-76366734D01*
X226899059Y-76348580D01*
X226802853Y-76299703D01*
X226736825Y-76264041D01*
X226695904Y-76237938D01*
X226675021Y-76217740D01*
X226669106Y-76199790D01*
X226671728Y-76184647D01*
X226712112Y-76112964D01*
X226784190Y-76062198D01*
X226861400Y-76036853D01*
X226921462Y-76018394D01*
X227004034Y-75986570D01*
X227097070Y-75946262D01*
X227167969Y-75912657D01*
X227309182Y-75833225D01*
X227433685Y-75741463D01*
X227542480Y-75634809D01*
X227636567Y-75510703D01*
X227716947Y-75366584D01*
X227784622Y-75199890D01*
X227840593Y-75008061D01*
X227885860Y-74788536D01*
X227921424Y-74538755D01*
X227948287Y-74256156D01*
X227967449Y-73938178D01*
X227970927Y-73858428D01*
X227978051Y-73565899D01*
X227977270Y-73241758D01*
X227968979Y-72892578D01*
X227953574Y-72524932D01*
X227931450Y-72145394D01*
X227903003Y-71760535D01*
X227868629Y-71376931D01*
X227828723Y-71001152D01*
X227783682Y-70639774D01*
X227772065Y-70555296D01*
X227757276Y-70445816D01*
X227744473Y-70343508D01*
X227734754Y-70257719D01*
X227729217Y-70197793D01*
X227728448Y-70184065D01*
X227725654Y-70104000D01*
X227627962Y-70092122D01*
X227566862Y-70088661D01*
X227520441Y-70093119D01*
X227506804Y-70098605D01*
X227484673Y-70127112D01*
X227472126Y-70173072D01*
X227469355Y-70240183D01*
X227476555Y-70332143D01*
X227493918Y-70452653D01*
X227521637Y-70605409D01*
X227537446Y-70685182D01*
X227588712Y-70945983D01*
X227631106Y-71179855D01*
X227665394Y-71394731D01*
X227692342Y-71598541D01*
X227712718Y-71799216D01*
X227727287Y-72004687D01*
X227736817Y-72222884D01*
X227742074Y-72461739D01*
X227743824Y-72729183D01*
X227743773Y-72819846D01*
X227742168Y-73105816D01*
X227738261Y-73361055D01*
X227731668Y-73593860D01*
X227722008Y-73812529D01*
X227708898Y-74025362D01*
X227691955Y-74240654D01*
X227670799Y-74466706D01*
X227665439Y-74519692D01*
X227649279Y-74666430D01*
X227633491Y-74778632D01*
X227616291Y-74860782D01*
X227595895Y-74917362D01*
X227570520Y-74952855D01*
X227538381Y-74971743D01*
X227497694Y-74978509D01*
X227482708Y-74978846D01*
X227448922Y-74988785D01*
X227448199Y-75017717D01*
X227480223Y-75064316D01*
X227510528Y-75095880D01*
X227570508Y-75170854D01*
X227592588Y-75245796D01*
X227577578Y-75326020D01*
X227553096Y-75375536D01*
X227482843Y-75476757D01*
X227385498Y-75589617D01*
X227267950Y-75706452D01*
X227205012Y-75762874D01*
X227143674Y-75814549D01*
X227099872Y-75845022D01*
X227062300Y-75859453D01*
X227019651Y-75863005D01*
X226987706Y-75862095D01*
X226925860Y-75862246D01*
X226885230Y-75874231D01*
X226848243Y-75905134D01*
X226829059Y-75926028D01*
X226797426Y-75958526D01*
X226765257Y-75980843D01*
X226722620Y-75996902D01*
X226659581Y-76010627D01*
X226582654Y-76023371D01*
X226496153Y-76036721D01*
X226419489Y-76048129D01*
X226364174Y-76055902D01*
X226348192Y-76057887D01*
X226333444Y-76063273D01*
X226337152Y-76076419D01*
X226362721Y-76100334D01*
X226413557Y-76138024D01*
X226493062Y-76192498D01*
X226524038Y-76213247D01*
X226754154Y-76358050D01*
X226993104Y-76490229D01*
X227247425Y-76612800D01*
X227523654Y-76728779D01*
X227828328Y-76841183D01*
X228035459Y-76910753D01*
X228181480Y-76958034D01*
X228294589Y-76993935D01*
X228378976Y-77019341D01*
X228438831Y-77035136D01*
X228478345Y-77042205D01*
X228501709Y-77041433D01*
X228513112Y-77033704D01*
X228516745Y-77019902D01*
X228516962Y-77012399D01*
X228525129Y-76974399D01*
X228552743Y-76940008D01*
X228604472Y-76906173D01*
X228684985Y-76869839D01*
X228798880Y-76827977D01*
X229074009Y-76718671D01*
X229314711Y-76592533D01*
X229522145Y-76448873D01*
X229683596Y-76301686D01*
X229808777Y-76152308D01*
X229898968Y-75999324D01*
X229957965Y-75834346D01*
X229989562Y-75648988D01*
X229992099Y-75619861D01*
X230000415Y-75537096D01*
X230011105Y-75463555D01*
X230022148Y-75412600D01*
X230024524Y-75405484D01*
X230063942Y-75353302D01*
X230131052Y-75319684D01*
X230219423Y-75304155D01*
X230322622Y-75306239D01*
X230434218Y-75325462D01*
X230547777Y-75361348D01*
X230656867Y-75413422D01*
X230724301Y-75457166D01*
X230836470Y-75562705D01*
X230929174Y-75698377D01*
X230998907Y-75858648D01*
X231017347Y-75919934D01*
X231039001Y-75997425D01*
X231058639Y-76062104D01*
X231072964Y-76103294D01*
X231076070Y-76110109D01*
X231086319Y-76103800D01*
X231102793Y-76062436D01*
X231124395Y-75989347D01*
X231150029Y-75887863D01*
X231152075Y-75879239D01*
X231212286Y-75653658D01*
X231279304Y-75462438D01*
X231355785Y-75301083D01*
X231444381Y-75165099D01*
X231547747Y-75049990D01*
X231668538Y-74951261D01*
X231720598Y-74916445D01*
X231857785Y-74847151D01*
X232016190Y-74796250D01*
X232184673Y-74765403D01*
X232352099Y-74756270D01*
X232507329Y-74770513D01*
X232580962Y-74788141D01*
X232679004Y-74826111D01*
X232782916Y-74879703D01*
X232880850Y-74941666D01*
X232960956Y-75004749D01*
X232998389Y-75043580D01*
X233030047Y-75088228D01*
X233051161Y-75134855D01*
X233061589Y-75189126D01*
X233061191Y-75256706D01*
X233049823Y-75343259D01*
X233027344Y-75454452D01*
X232993612Y-75595950D01*
X232983539Y-75636189D01*
X232930361Y-75841236D01*
X232881882Y-76014123D01*
X232835960Y-76161163D01*
X232790455Y-76288669D01*
X232743224Y-76402954D01*
X232692127Y-76510332D01*
X232677147Y-76539422D01*
X232528278Y-76791138D01*
X232356773Y-77017123D01*
X232181772Y-77202178D01*
X231975573Y-77381938D01*
X231769879Y-77523585D01*
X231565211Y-77626804D01*
X231385973Y-77685693D01*
X231243729Y-77708018D01*
X231080918Y-77713104D01*
X230911682Y-77701668D01*
X230750160Y-77674426D01*
X230656423Y-77648719D01*
X230576033Y-77624711D01*
X230502747Y-77606887D01*
X230449798Y-77598367D01*
X230441500Y-77598055D01*
X230409144Y-77599415D01*
X230403945Y-77605555D01*
X230428811Y-77620841D01*
X230470634Y-77641767D01*
X230530592Y-77679699D01*
X230582018Y-77727004D01*
X230618519Y-77775559D01*
X230633700Y-77817243D01*
X230626548Y-77839844D01*
X230601431Y-77845730D01*
X230541940Y-77850663D01*
X230452768Y-77854656D01*
X230338606Y-77857722D01*
X230204145Y-77859873D01*
X230054078Y-77861123D01*
X229893096Y-77861484D01*
X229725892Y-77860970D01*
X229557155Y-77859592D01*
X229391579Y-77857365D01*
X229233855Y-77854301D01*
X229088675Y-77850412D01*
X228960730Y-77845712D01*
X228854712Y-77840214D01*
X228783895Y-77834785D01*
X228685544Y-77825981D01*
X228601939Y-77819689D01*
X228540348Y-77816366D01*
X228508041Y-77816467D01*
X228505079Y-77817293D01*
X228519547Y-77822868D01*
X228566970Y-77831144D01*
X228641367Y-77841452D01*
X228736761Y-77853122D01*
X228847174Y-77865484D01*
X228966629Y-77877870D01*
X229089146Y-77889608D01*
X229208748Y-77900030D01*
X229318038Y-77908367D01*
X229471253Y-77917451D01*
X229643582Y-77925029D01*
X229827220Y-77930982D01*
X230014362Y-77935187D01*
X230197202Y-77937525D01*
X230367934Y-77937872D01*
X230518752Y-77936110D01*
X230641852Y-77932115D01*
X230685731Y-77929585D01*
X231019217Y-77896513D01*
X231320067Y-77845079D01*
X231590589Y-77774402D01*
X231833096Y-77683605D01*
X232049897Y-77571808D01*
X232243304Y-77438130D01*
X232415626Y-77281694D01*
X232431257Y-77265327D01*
X232627351Y-77031284D01*
X232791800Y-76777704D01*
X232925925Y-76502090D01*
X233031045Y-76201941D01*
X233069549Y-76056917D01*
X233101847Y-75923725D01*
X233126940Y-75823023D01*
X233146657Y-75749282D01*
X233162831Y-75696974D01*
X233177292Y-75660570D01*
X233191870Y-75634543D01*
X233208397Y-75613363D01*
X233220989Y-75599644D01*
X233250997Y-75571378D01*
X233285480Y-75548738D01*
X233331440Y-75529226D01*
X233395879Y-75510343D01*
X233485803Y-75489591D01*
X233589225Y-75468270D01*
X233809800Y-75416179D01*
X234011527Y-75350416D01*
X234212736Y-75264597D01*
X234306193Y-75218653D01*
X234412229Y-75161500D01*
X234520807Y-75097362D01*
X234626562Y-75030031D01*
X234724127Y-74963297D01*
X234808134Y-74900952D01*
X234873217Y-74846787D01*
X234914009Y-74804591D01*
X234925577Y-74781140D01*
X234909210Y-74782801D01*
X234864964Y-74798686D01*
X234800122Y-74825969D01*
X234741925Y-74852412D01*
X234437384Y-74978289D01*
X234124470Y-75076402D01*
X233812703Y-75144090D01*
X233597213Y-75172225D01*
X233488812Y-75179762D01*
X233411632Y-75178467D01*
X233358612Y-75167355D01*
X233322692Y-75145443D01*
X233310627Y-75132305D01*
X233302111Y-75104491D01*
X233292292Y-75044994D01*
X233282108Y-74961144D01*
X233272501Y-74860271D01*
X233267554Y-74796722D01*
X233246096Y-74566927D01*
X233214419Y-74346367D01*
X233170969Y-74130924D01*
X233114190Y-73916480D01*
X233042527Y-73698916D01*
X232954427Y-73474115D01*
X232848334Y-73237959D01*
X232722693Y-72986329D01*
X232575950Y-72715108D01*
X232406551Y-72420177D01*
X232307284Y-72253231D01*
X232060548Y-71849050D01*
X231825570Y-71478119D01*
X231600047Y-71137230D01*
X231381674Y-70823172D01*
X231168148Y-70532738D01*
X230957167Y-70262716D01*
X230746425Y-70009900D01*
X230533621Y-69771078D01*
X230498126Y-69732769D01*
X230419866Y-69651052D01*
X230325737Y-69556397D01*
X230221043Y-69453795D01*
X230111092Y-69348237D01*
X230001189Y-69244714D01*
X229896642Y-69148214D01*
X229802757Y-69063730D01*
X229724839Y-68996252D01*
X229668196Y-68950770D01*
X229661279Y-68945737D01*
X229599500Y-68885970D01*
X229576317Y-68822307D01*
X229591916Y-68755279D01*
X229593475Y-68752300D01*
X229607494Y-68719090D01*
X229602108Y-68693140D01*
X229572579Y-68660842D01*
X229556586Y-68646343D01*
X229498837Y-68606980D01*
X229444223Y-68590017D01*
X229439846Y-68589884D01*
X229405108Y-68594473D01*
G36*
X226875557Y-77866111D02*
G01*
X226791665Y-77881554D01*
X226687352Y-77905725D01*
X226616031Y-77926666D01*
X226572058Y-77946991D01*
X226549789Y-77969315D01*
X226543577Y-77996250D01*
X226543577Y-77996436D01*
X226549842Y-78026165D01*
X226567464Y-78087197D01*
X226594683Y-78174026D01*
X226629738Y-78281144D01*
X226670869Y-78403045D01*
X226706771Y-78506950D01*
X226755756Y-78647684D01*
X226804350Y-78788024D01*
X226849813Y-78920003D01*
X226889404Y-79035653D01*
X226920385Y-79127009D01*
X226933303Y-79165650D01*
X226965508Y-79253778D01*
X227000213Y-79334128D01*
X227032187Y-79395171D01*
X227047368Y-79417122D01*
X227081862Y-79446218D01*
X227142266Y-79485926D01*
X227220396Y-79531937D01*
X227308068Y-79579943D01*
X227397099Y-79625637D01*
X227479302Y-79664711D01*
X227546495Y-79692857D01*
X227590492Y-79705767D01*
X227596439Y-79706129D01*
X227623379Y-79700348D01*
X227682083Y-79684665D01*
X227766966Y-79660676D01*
X227872445Y-79629977D01*
X227992937Y-79594165D01*
X228077346Y-79568692D01*
X228285472Y-79504579D01*
X228490292Y-79439714D01*
X228688597Y-79375243D01*
X228877177Y-79312314D01*
X229052825Y-79252073D01*
X229212330Y-79195667D01*
X229352485Y-79144242D01*
X229470080Y-79098946D01*
X229561906Y-79060926D01*
X229624755Y-79031327D01*
X229655417Y-79011296D01*
X229656896Y-79004222D01*
X229634458Y-78992770D01*
X229581360Y-78969430D01*
X229503314Y-78936597D01*
X229406032Y-78896667D01*
X229295228Y-78852035D01*
X229269192Y-78841659D01*
X229003902Y-78733621D01*
X228738424Y-78620723D01*
X228478344Y-78505575D01*
X228229247Y-78390787D01*
X227996718Y-78278967D01*
X227786344Y-78172724D01*
X227603710Y-78074669D01*
X227500962Y-78015634D01*
X227416651Y-77967157D01*
X227336362Y-77923849D01*
X227270908Y-77891397D01*
X227239620Y-77878154D01*
X227140174Y-77856860D01*
X227015547Y-77852870D01*
X226875557Y-77866111D01*
G37*
X226875557Y-77866111D02*
X226791665Y-77881554D01*
X226687352Y-77905725D01*
X226616031Y-77926666D01*
X226572058Y-77946991D01*
X226549789Y-77969315D01*
X226543577Y-77996250D01*
X226543577Y-77996436D01*
X226549842Y-78026165D01*
X226567464Y-78087197D01*
X226594683Y-78174026D01*
X226629738Y-78281144D01*
X226670869Y-78403045D01*
X226706771Y-78506950D01*
X226755756Y-78647684D01*
X226804350Y-78788024D01*
X226849813Y-78920003D01*
X226889404Y-79035653D01*
X226920385Y-79127009D01*
X226933303Y-79165650D01*
X226965508Y-79253778D01*
X227000213Y-79334128D01*
X227032187Y-79395171D01*
X227047368Y-79417122D01*
X227081862Y-79446218D01*
X227142266Y-79485926D01*
X227220396Y-79531937D01*
X227308068Y-79579943D01*
X227397099Y-79625637D01*
X227479302Y-79664711D01*
X227546495Y-79692857D01*
X227590492Y-79705767D01*
X227596439Y-79706129D01*
X227623379Y-79700348D01*
X227682083Y-79684665D01*
X227766966Y-79660676D01*
X227872445Y-79629977D01*
X227992937Y-79594165D01*
X228077346Y-79568692D01*
X228285472Y-79504579D01*
X228490292Y-79439714D01*
X228688597Y-79375243D01*
X228877177Y-79312314D01*
X229052825Y-79252073D01*
X229212330Y-79195667D01*
X229352485Y-79144242D01*
X229470080Y-79098946D01*
X229561906Y-79060926D01*
X229624755Y-79031327D01*
X229655417Y-79011296D01*
X229656896Y-79004222D01*
X229634458Y-78992770D01*
X229581360Y-78969430D01*
X229503314Y-78936597D01*
X229406032Y-78896667D01*
X229295228Y-78852035D01*
X229269192Y-78841659D01*
X229003902Y-78733621D01*
X228738424Y-78620723D01*
X228478344Y-78505575D01*
X228229247Y-78390787D01*
X227996718Y-78278967D01*
X227786344Y-78172724D01*
X227603710Y-78074669D01*
X227500962Y-78015634D01*
X227416651Y-77967157D01*
X227336362Y-77923849D01*
X227270908Y-77891397D01*
X227239620Y-77878154D01*
X227140174Y-77856860D01*
X227015547Y-77852870D01*
X226875557Y-77866111D01*
G36*
X227419715Y-80131945D02*
G01*
X227352971Y-80144824D01*
X227316267Y-80169458D01*
X227305577Y-80205209D01*
X227311877Y-80233886D01*
X227329581Y-80294049D01*
X227356891Y-80380488D01*
X227392013Y-80487996D01*
X227433149Y-80611364D01*
X227478504Y-80745384D01*
X227526282Y-80884847D01*
X227574686Y-81024546D01*
X227621920Y-81159273D01*
X227666188Y-81283818D01*
X227705694Y-81392974D01*
X227738642Y-81481533D01*
X227763235Y-81544287D01*
X227777678Y-81576026D01*
X227778994Y-81577962D01*
X227786837Y-81588363D01*
X227794812Y-81595317D01*
X227808243Y-81597738D01*
X227832453Y-81594542D01*
X227872766Y-81584645D01*
X227934504Y-81566961D01*
X228022993Y-81540406D01*
X228143554Y-81503895D01*
X228145731Y-81503237D01*
X228329755Y-81446514D01*
X228514296Y-81387642D01*
X228695580Y-81327986D01*
X228869833Y-81268910D01*
X229033280Y-81211781D01*
X229182148Y-81157963D01*
X229312661Y-81108821D01*
X229421047Y-81065721D01*
X229503529Y-81030027D01*
X229556335Y-81003106D01*
X229575690Y-80986322D01*
X229575714Y-80986003D01*
X229558431Y-80973963D01*
X229509686Y-80950381D01*
X229434597Y-80917464D01*
X229338284Y-80877416D01*
X229225863Y-80832445D01*
X229158941Y-80806381D01*
X228949264Y-80724920D01*
X228768803Y-80653398D01*
X228609988Y-80588576D01*
X228465246Y-80527215D01*
X228327006Y-80466076D01*
X228187697Y-80401919D01*
X228039748Y-80331505D01*
X227969885Y-80297669D01*
X227847026Y-80238526D01*
X227752706Y-80194955D01*
X227680725Y-80164634D01*
X227624882Y-80145242D01*
X227578977Y-80134456D01*
X227536810Y-80129955D01*
X227520500Y-80129410D01*
X227419715Y-80131945D01*
G37*
X227419715Y-80131945D02*
X227352971Y-80144824D01*
X227316267Y-80169458D01*
X227305577Y-80205209D01*
X227311877Y-80233886D01*
X227329581Y-80294049D01*
X227356891Y-80380488D01*
X227392013Y-80487996D01*
X227433149Y-80611364D01*
X227478504Y-80745384D01*
X227526282Y-80884847D01*
X227574686Y-81024546D01*
X227621920Y-81159273D01*
X227666188Y-81283818D01*
X227705694Y-81392974D01*
X227738642Y-81481533D01*
X227763235Y-81544287D01*
X227777678Y-81576026D01*
X227778994Y-81577962D01*
X227786837Y-81588363D01*
X227794812Y-81595317D01*
X227808243Y-81597738D01*
X227832453Y-81594542D01*
X227872766Y-81584645D01*
X227934504Y-81566961D01*
X228022993Y-81540406D01*
X228143554Y-81503895D01*
X228145731Y-81503237D01*
X228329755Y-81446514D01*
X228514296Y-81387642D01*
X228695580Y-81327986D01*
X228869833Y-81268910D01*
X229033280Y-81211781D01*
X229182148Y-81157963D01*
X229312661Y-81108821D01*
X229421047Y-81065721D01*
X229503529Y-81030027D01*
X229556335Y-81003106D01*
X229575690Y-80986322D01*
X229575714Y-80986003D01*
X229558431Y-80973963D01*
X229509686Y-80950381D01*
X229434597Y-80917464D01*
X229338284Y-80877416D01*
X229225863Y-80832445D01*
X229158941Y-80806381D01*
X228949264Y-80724920D01*
X228768803Y-80653398D01*
X228609988Y-80588576D01*
X228465246Y-80527215D01*
X228327006Y-80466076D01*
X228187697Y-80401919D01*
X228039748Y-80331505D01*
X227969885Y-80297669D01*
X227847026Y-80238526D01*
X227752706Y-80194955D01*
X227680725Y-80164634D01*
X227624882Y-80145242D01*
X227578977Y-80134456D01*
X227536810Y-80129955D01*
X227520500Y-80129410D01*
X227419715Y-80131945D01*
G36*
X228054752Y-82351233D02*
G01*
X228053642Y-82352269D01*
X228056325Y-82373115D01*
X228069776Y-82425151D01*
X228092137Y-82502587D01*
X228121547Y-82599631D01*
X228156148Y-82710494D01*
X228194079Y-82829385D01*
X228233481Y-82950514D01*
X228272495Y-83068090D01*
X228309261Y-83176323D01*
X228341919Y-83269423D01*
X228368610Y-83341599D01*
X228382100Y-83375065D01*
X228410306Y-83429305D01*
X228438551Y-83453461D01*
X228462536Y-83456849D01*
X228491567Y-83449079D01*
X228551570Y-83427959D01*
X228637555Y-83395423D01*
X228744531Y-83353407D01*
X228867506Y-83303847D01*
X229001491Y-83248676D01*
X229029406Y-83237041D01*
X229162666Y-83180708D01*
X229283407Y-83128374D01*
X229387119Y-83082098D01*
X229469291Y-83043940D01*
X229525412Y-83015957D01*
X229550973Y-83000210D01*
X229552059Y-82998463D01*
X229534982Y-82984795D01*
X229487393Y-82959781D01*
X229415216Y-82926206D01*
X229324373Y-82886850D01*
X229244769Y-82854092D01*
X229114193Y-82800496D01*
X228963717Y-82737105D01*
X228808895Y-82670564D01*
X228665277Y-82607518D01*
X228614654Y-82584859D01*
X228460697Y-82515507D01*
X228338545Y-82460680D01*
X228244398Y-82418803D01*
X228174453Y-82388300D01*
X228124911Y-82367594D01*
X228091971Y-82355110D01*
X228071831Y-82349273D01*
X228060692Y-82348506D01*
X228054752Y-82351233D01*
G37*
X228054752Y-82351233D02*
X228053642Y-82352269D01*
X228056325Y-82373115D01*
X228069776Y-82425151D01*
X228092137Y-82502587D01*
X228121547Y-82599631D01*
X228156148Y-82710494D01*
X228194079Y-82829385D01*
X228233481Y-82950514D01*
X228272495Y-83068090D01*
X228309261Y-83176323D01*
X228341919Y-83269423D01*
X228368610Y-83341599D01*
X228382100Y-83375065D01*
X228410306Y-83429305D01*
X228438551Y-83453461D01*
X228462536Y-83456849D01*
X228491567Y-83449079D01*
X228551570Y-83427959D01*
X228637555Y-83395423D01*
X228744531Y-83353407D01*
X228867506Y-83303847D01*
X229001491Y-83248676D01*
X229029406Y-83237041D01*
X229162666Y-83180708D01*
X229283407Y-83128374D01*
X229387119Y-83082098D01*
X229469291Y-83043940D01*
X229525412Y-83015957D01*
X229550973Y-83000210D01*
X229552059Y-82998463D01*
X229534982Y-82984795D01*
X229487393Y-82959781D01*
X229415216Y-82926206D01*
X229324373Y-82886850D01*
X229244769Y-82854092D01*
X229114193Y-82800496D01*
X228963717Y-82737105D01*
X228808895Y-82670564D01*
X228665277Y-82607518D01*
X228614654Y-82584859D01*
X228460697Y-82515507D01*
X228338545Y-82460680D01*
X228244398Y-82418803D01*
X228174453Y-82388300D01*
X228124911Y-82367594D01*
X228091971Y-82355110D01*
X228071831Y-82349273D01*
X228060692Y-82348506D01*
X228054752Y-82351233D01*
D11*
X196080000Y-117878600D03*
X196080000Y-121378600D03*
D12*
X193675000Y-119608600D03*
D11*
X230090600Y-125473200D03*
X230090600Y-128973200D03*
D12*
X227685600Y-127203200D03*
D11*
X193860800Y-127663200D03*
X193860800Y-124163200D03*
D12*
X196265800Y-125933200D03*
X235333800Y-90949400D03*
X231833800Y-90949400D03*
D11*
X233603800Y-88544400D03*
D12*
X203177400Y-91355800D03*
X199677400Y-91355800D03*
D11*
X201447400Y-88950800D03*
D13*
X217170000Y-77470000D03*
X217170000Y-80010000D03*
X217170000Y-82550000D03*
X217170000Y-85090000D03*
X209550000Y-85090000D03*
X209550000Y-82550000D03*
X209550000Y-77470000D03*
X209550000Y-80010000D03*
D12*
X227155000Y-90670000D03*
X223655000Y-90670000D03*
D11*
X225425000Y-88265000D03*
D12*
X194135000Y-91432000D03*
X190635000Y-91432000D03*
D11*
X192405000Y-89027000D03*
D14*
X213500000Y-124540000D03*
X213500000Y-129540000D03*
X213500000Y-134540000D03*
X208500000Y-134540000D03*
X218500000Y-134540000D03*
X218500000Y-124540000D03*
X208500000Y-124540000D03*
X208500000Y-129540000D03*
X218500000Y-129540000D03*
D15*
X205105000Y-114195000D03*
X198755000Y-114195000D03*
X192405000Y-114195000D03*
X205105000Y-97895000D03*
X198755000Y-97895000D03*
X192405000Y-97895000D03*
X221615000Y-97895000D03*
X227965000Y-97895000D03*
X234315000Y-97895000D03*
X221615000Y-114195000D03*
X227965000Y-114195000D03*
X234315000Y-114195000D03*
D16*
X224282000Y-128524000D03*
D17*
X224282000Y-130524000D03*
D18*
X205125000Y-70231000D03*
X202625000Y-70231000D03*
X206375000Y-70231000D03*
X201375000Y-70231000D03*
D19*
X203073000Y-134747000D03*
D20*
X200533000Y-134747000D03*
D21*
X203073000Y-137287000D03*
X200533000Y-137287000D03*
D18*
X214650000Y-64770000D03*
X212150000Y-64770000D03*
X215900000Y-64770000D03*
X210900000Y-64770000D03*
D22*
X197315000Y-62230000D03*
X205115000Y-62230000D03*
D20*
X240792000Y-120523000D03*
X240792000Y-123063000D03*
D19*
X240792000Y-125603000D03*
D21*
X237490000Y-137160000D03*
X240030000Y-137160000D03*
D20*
X237490000Y-134620000D03*
D19*
X240030000Y-134620000D03*
D18*
X212257000Y-96520000D03*
D23*
X214757000Y-96520000D03*
X232283000Y-134810500D03*
D18*
X229783000Y-134810500D03*
D19*
X197751700Y-58432700D03*
D20*
X200291700Y-58432700D03*
X202831700Y-58432700D03*
X215900000Y-58420000D03*
X213360000Y-58420000D03*
D19*
X210820000Y-58420000D03*
X224790000Y-58420000D03*
D20*
X227330000Y-58420000D03*
X229870000Y-58420000D03*
D18*
X190580000Y-70294500D03*
X195580000Y-70294500D03*
X191830000Y-70294500D03*
X194330000Y-70294500D03*
D24*
X236601000Y-117983000D03*
D25*
X228981000Y-117983000D03*
D22*
X205115000Y-65659000D03*
X197315000Y-65659000D03*
M02*
