M48
; DRILL file {KiCad 5.1.5-52549c5~84~ubuntu18.04.1} date vie 07 feb 2020 15:12:35 CET
; FORMAT={-:-/ absolute / inch / decimal}
; #@! TF.CreationDate,2020-02-07T15:12:35+01:00
; #@! TF.GenerationSoftware,Kicad,Pcbnew,5.1.5-52549c5~84~ubuntu18.04.1
; #@! TF.FileFunction,Plated,1,2,PTH
FMAT,2
INCH
T1C0.0157
T2C0.0300
T3C0.0315
T4C0.0394
T5C0.0433
T6C0.0472
T7C0.0591
%
G90
G05
T1
X7.255Y-2.925
X7.32Y-5.375
X7.3425Y-2.5425
X7.35Y-5.405
X7.3746Y-5.325
X7.445Y-5.16
X7.522Y-3.4275
X7.6Y-5.4576
X7.615Y-2.5425
X7.775Y-3.03
X7.8018Y-5.4825
X7.8675Y-3.075
X7.897Y-4.75
X7.925Y-3.075
X7.9375Y-3.8525
X7.979Y-3.811
X7.98Y-4.8325
X8.0375Y-3.7075
X8.065Y-4.71
X8.065Y-4.91
X8.065Y-5.11
X8.0675Y-3.63
X8.085Y-3.025
X8.1176Y-2.9974
X8.12Y-3.095
X8.185Y-2.93
X8.275Y-3.3
X8.302Y-2.74
X8.325Y-3.15
X8.34Y-3.57
X8.365Y-2.9725
X8.375Y-3.15
X8.375Y-3.25
X8.425Y-3.2495
X8.425Y-3.015
X8.455Y-3.585
X8.475Y-3.175
X8.61Y-3.59
X8.6325Y-3.38
X8.65Y-3.325
X8.6875Y-3.325
X8.76Y-5.46
X8.825Y-2.6775
X8.828Y-4.97
X8.8787Y-3.6537
X8.95Y-3.075
X8.976Y-2.534
X9.0275Y-3.0775
X9.034Y-2.537
X9.0575Y-2.6775
X9.0975Y-3.075
X9.116Y-4.123
X9.116Y-4.204
X9.294Y-3.7155
X9.3Y-2.375
X9.3585Y-3.714
X9.3825Y-5.0275
X9.3975Y-5.1625
T2
X7.6323Y-4.8883
X7.6323Y-5.0261
X7.727Y-4.958
X8.964Y-5.008
X9.0587Y-4.9399
X9.0587Y-5.0777
X8.8053Y-3.5697
X8.875Y-3.475
X8.9431Y-3.5697
X7.5053Y-3.5997
X7.575Y-3.505
X7.6431Y-3.5997
X7.8613Y-3.5967
X7.931Y-3.502
X7.9991Y-3.5967
X7.625Y-4.709
X7.7197Y-4.6409
X7.7197Y-4.7787
X9.1273Y-3.5807
X9.197Y-3.486
X9.2651Y-3.5807
T3
X8.3031Y-2.55
X8.3524Y-2.55
X8.4508Y-2.55
X8.5Y-2.55
X8.3566Y-3.8
X8.455Y-3.8
X8.83Y-5.06
X8.83Y-5.1387
X7.9281Y-2.765
X7.9774Y-2.765
X8.0758Y-2.765
X8.125Y-2.765
X8.25Y-3.05
X8.25Y-3.15
X8.25Y-3.25
X8.25Y-3.35
X8.55Y-3.05
X8.55Y-3.15
X8.55Y-3.25
X8.55Y-3.35
X7.5031Y-2.7675
X7.5524Y-2.7675
X7.6508Y-2.7675
X7.7Y-2.7675
X9.0466Y-5.3075
X9.145Y-5.3075
T4
X9.48Y-4.745
X9.48Y-4.845
X9.48Y-4.945
X8.85Y-2.3
X8.95Y-2.3
X9.05Y-2.3
X7.895Y-5.305
X7.995Y-5.305
X9.35Y-5.3
X9.45Y-5.3
X8.3Y-2.3
X8.4Y-2.3
X8.5Y-2.3
X7.7855Y-2.3005
X7.8855Y-2.3005
X7.9855Y-2.3005
T5
X9.015Y-4.645
X9.315Y-4.645
T6
X7.725Y-2.45
X8.1187Y-2.45
X7.725Y-2.585
X8.1187Y-2.585
T4
G00X8.7407Y-3.8541
M15
G01X8.7093Y-3.8541
M16
G05
G00X8.7407Y-4.4959
M15
G01X8.7093Y-4.4959
M16
G05
G00X8.9907Y-3.8541
M15
G01X8.9593Y-3.8541
M16
G05
G00X8.9907Y-4.4959
M15
G01X8.9593Y-4.4959
M16
G05
G00X9.2407Y-3.8541
M15
G01X9.2093Y-3.8541
M16
G05
G00X9.2407Y-4.4959
M15
G01X9.2093Y-4.4959
M16
G05
G00X7.5593Y-3.8541
M15
G01X7.5907Y-3.8541
M16
G05
G00X7.5593Y-4.4959
M15
G01X7.5907Y-4.4959
M16
G05
G00X7.8093Y-3.8541
M15
G01X7.8407Y-3.8541
M16
G05
G00X7.8093Y-4.4959
M15
G01X7.8407Y-4.4959
M16
G05
G00X8.0593Y-3.8541
M15
G01X8.0907Y-3.8541
M16
G05
G00X8.0593Y-4.4959
M15
G01X8.0907Y-4.4959
M16
G05
T7
G00X8.2087Y-4.9327
M15
G01X8.2087Y-4.8736
M16
G05
G00X8.2087Y-5.1295
M15
G01X8.2087Y-5.0705
M16
G05
G00X8.2087Y-5.3264
M15
G01X8.2087Y-5.2673
M16
G05
G00X8.4055Y-4.9327
M15
G01X8.4055Y-4.8736
M16
G05
G00X8.4055Y-5.1295
M15
G01X8.4055Y-5.0705
M16
G05
G00X8.4055Y-5.3264
M15
G01X8.4055Y-5.2673
M16
G05
G00X8.6024Y-4.9327
M15
G01X8.6024Y-4.8736
M16
G05
G00X8.6024Y-5.1295
M15
G01X8.6024Y-5.0705
M16
G05
G00X8.6024Y-5.3264
M15
G01X8.6024Y-5.2673
M16
G05
T0
M30
