G04 #@! TF.GenerationSoftware,KiCad,Pcbnew,5.1.5-52549c5~84~ubuntu18.04.1*
G04 #@! TF.CreationDate,2020-02-03T20:40:51+01:00*
G04 #@! TF.ProjectId,icescreamer,69636573-6372-4656-916d-65722e6b6963,rev?*
G04 #@! TF.SameCoordinates,Original*
G04 #@! TF.FileFunction,Legend,Top*
G04 #@! TF.FilePolarity,Positive*
%FSLAX46Y46*%
G04 Gerber Fmt 4.6, Leading zero omitted, Abs format (unit mm)*
G04 Created by KiCad (PCBNEW 5.1.5-52549c5~84~ubuntu18.04.1) date 2020-02-03 20:40:51*
%MOMM*%
%LPD*%
G04 APERTURE LIST*
%ADD10C,0.150000*%
%ADD11C,0.120000*%
%ADD12C,0.254000*%
G04 APERTURE END LIST*
D10*
X239674447Y-132722928D02*
X240436352Y-132722928D01*
X240055400Y-133103880D02*
X240055400Y-132341976D01*
X237109047Y-132748328D02*
X237870952Y-132748328D01*
X242449385Y-120965861D02*
X242592242Y-121013480D01*
X242830338Y-121013480D01*
X242925576Y-120965861D01*
X242973195Y-120918242D01*
X243020814Y-120823004D01*
X243020814Y-120727766D01*
X242973195Y-120632528D01*
X242925576Y-120584909D01*
X242830338Y-120537290D01*
X242639861Y-120489671D01*
X242544623Y-120442052D01*
X242497004Y-120394433D01*
X242449385Y-120299195D01*
X242449385Y-120203957D01*
X242497004Y-120108719D01*
X242544623Y-120061100D01*
X242639861Y-120013480D01*
X242877957Y-120013480D01*
X243020814Y-120061100D01*
X242366847Y-123070928D02*
X243128752Y-123070928D01*
X242747800Y-123451880D02*
X242747800Y-122689976D01*
X242341447Y-125598228D02*
X243103352Y-125598228D01*
D11*
X198685542Y-139236409D02*
X198799828Y-139274504D01*
X198990304Y-139274504D01*
X199066495Y-139236409D01*
X199104590Y-139198314D01*
X199142685Y-139122123D01*
X199142685Y-139045933D01*
X199104590Y-138969742D01*
X199066495Y-138931647D01*
X198990304Y-138893552D01*
X198837923Y-138855457D01*
X198761733Y-138817361D01*
X198723638Y-138779266D01*
X198685542Y-138703076D01*
X198685542Y-138626885D01*
X198723638Y-138550695D01*
X198761733Y-138512600D01*
X198837923Y-138474504D01*
X199028400Y-138474504D01*
X199142685Y-138512600D01*
X199409352Y-138474504D02*
X199599828Y-139274504D01*
X199752209Y-138703076D01*
X199904590Y-139274504D01*
X200095066Y-138474504D01*
X200209352Y-139350695D02*
X200818876Y-139350695D01*
X201009352Y-139274504D02*
X201009352Y-138474504D01*
X201314114Y-138474504D01*
X201390304Y-138512600D01*
X201428400Y-138550695D01*
X201466495Y-138626885D01*
X201466495Y-138741171D01*
X201428400Y-138817361D01*
X201390304Y-138855457D01*
X201314114Y-138893552D01*
X201009352Y-138893552D01*
X201771257Y-139236409D02*
X201847447Y-139274504D01*
X201999828Y-139274504D01*
X202076019Y-139236409D01*
X202114114Y-139160219D01*
X202114114Y-139122123D01*
X202076019Y-139045933D01*
X201999828Y-139007838D01*
X201885542Y-139007838D01*
X201809352Y-138969742D01*
X201771257Y-138893552D01*
X201771257Y-138855457D01*
X201809352Y-138779266D01*
X201885542Y-138741171D01*
X201999828Y-138741171D01*
X202076019Y-138779266D01*
X202761733Y-139236409D02*
X202685542Y-139274504D01*
X202533161Y-139274504D01*
X202456971Y-139236409D01*
X202418876Y-139160219D01*
X202418876Y-138855457D01*
X202456971Y-138779266D01*
X202533161Y-138741171D01*
X202685542Y-138741171D01*
X202761733Y-138779266D01*
X202799828Y-138855457D01*
X202799828Y-138931647D01*
X202418876Y-139007838D01*
X203485542Y-138741171D02*
X203485542Y-139274504D01*
X203142685Y-138741171D02*
X203142685Y-139160219D01*
X203180780Y-139236409D01*
X203256971Y-139274504D01*
X203371257Y-139274504D01*
X203447447Y-139236409D01*
X203485542Y-139198314D01*
X204209352Y-139274504D02*
X204209352Y-138474504D01*
X204209352Y-139236409D02*
X204133161Y-139274504D01*
X203980780Y-139274504D01*
X203904590Y-139236409D01*
X203866495Y-139198314D01*
X203828400Y-139122123D01*
X203828400Y-138893552D01*
X203866495Y-138817361D01*
X203904590Y-138779266D01*
X203980780Y-138741171D01*
X204133161Y-138741171D01*
X204209352Y-138779266D01*
X204704590Y-139274504D02*
X204628400Y-139236409D01*
X204590304Y-139198314D01*
X204552209Y-139122123D01*
X204552209Y-138893552D01*
X204590304Y-138817361D01*
X204628400Y-138779266D01*
X204704590Y-138741171D01*
X204818876Y-138741171D01*
X204895066Y-138779266D01*
X204933161Y-138817361D01*
X204971257Y-138893552D01*
X204971257Y-139122123D01*
X204933161Y-139198314D01*
X204895066Y-139236409D01*
X204818876Y-139274504D01*
X204704590Y-139274504D01*
X236740952Y-139096704D02*
X236893333Y-139096704D01*
X236969523Y-139058609D01*
X237007619Y-139020514D01*
X237083809Y-138906228D01*
X237121904Y-138753847D01*
X237121904Y-138449085D01*
X237083809Y-138372895D01*
X237045714Y-138334800D01*
X236969523Y-138296704D01*
X236817142Y-138296704D01*
X236740952Y-138334800D01*
X236702857Y-138372895D01*
X236664761Y-138449085D01*
X236664761Y-138639561D01*
X236702857Y-138715752D01*
X236740952Y-138753847D01*
X236817142Y-138791942D01*
X236969523Y-138791942D01*
X237045714Y-138753847D01*
X237083809Y-138715752D01*
X237121904Y-138639561D01*
X237350476Y-138296704D02*
X237617142Y-139096704D01*
X237883809Y-138296704D01*
X239026666Y-138677657D02*
X239140952Y-138715752D01*
X239179047Y-138753847D01*
X239217142Y-138830038D01*
X239217142Y-138944323D01*
X239179047Y-139020514D01*
X239140952Y-139058609D01*
X239064761Y-139096704D01*
X238760000Y-139096704D01*
X238760000Y-138296704D01*
X239026666Y-138296704D01*
X239102857Y-138334800D01*
X239140952Y-138372895D01*
X239179047Y-138449085D01*
X239179047Y-138525276D01*
X239140952Y-138601466D01*
X239102857Y-138639561D01*
X239026666Y-138677657D01*
X238760000Y-138677657D01*
X239902857Y-139096704D02*
X239902857Y-138677657D01*
X239864761Y-138601466D01*
X239788571Y-138563371D01*
X239636190Y-138563371D01*
X239560000Y-138601466D01*
X239902857Y-139058609D02*
X239826666Y-139096704D01*
X239636190Y-139096704D01*
X239560000Y-139058609D01*
X239521904Y-138982419D01*
X239521904Y-138906228D01*
X239560000Y-138830038D01*
X239636190Y-138791942D01*
X239826666Y-138791942D01*
X239902857Y-138753847D01*
X240169523Y-138563371D02*
X240474285Y-138563371D01*
X240283809Y-138296704D02*
X240283809Y-138982419D01*
X240321904Y-139058609D01*
X240398095Y-139096704D01*
X240474285Y-139096704D01*
X240626666Y-138563371D02*
X240931428Y-138563371D01*
X240740952Y-138296704D02*
X240740952Y-138982419D01*
X240779047Y-139058609D01*
X240855238Y-139096704D01*
X240931428Y-139096704D01*
D10*
X225828409Y-56814980D02*
X225828409Y-55814980D01*
X226161742Y-56529266D01*
X226495076Y-55814980D01*
X226495076Y-56814980D01*
X226971266Y-56814980D02*
X226971266Y-55814980D01*
X227923647Y-56814980D02*
X227447457Y-56814980D01*
X227447457Y-55814980D01*
X228256980Y-56814980D02*
X228256980Y-55814980D01*
X228828409Y-56814980D02*
X228399838Y-56243552D01*
X228828409Y-55814980D02*
X228256980Y-56386409D01*
X211742542Y-56694342D02*
X211694923Y-56741961D01*
X211552066Y-56789580D01*
X211456828Y-56789580D01*
X211313971Y-56741961D01*
X211218733Y-56646723D01*
X211171114Y-56551485D01*
X211123495Y-56361009D01*
X211123495Y-56218152D01*
X211171114Y-56027676D01*
X211218733Y-55932438D01*
X211313971Y-55837200D01*
X211456828Y-55789580D01*
X211552066Y-55789580D01*
X211694923Y-55837200D01*
X211742542Y-55884819D01*
X212742542Y-56789580D02*
X212409209Y-56313390D01*
X212171114Y-56789580D02*
X212171114Y-55789580D01*
X212552066Y-55789580D01*
X212647304Y-55837200D01*
X212694923Y-55884819D01*
X212742542Y-55980057D01*
X212742542Y-56122914D01*
X212694923Y-56218152D01*
X212647304Y-56265771D01*
X212552066Y-56313390D01*
X212171114Y-56313390D01*
X213171114Y-56265771D02*
X213504447Y-56265771D01*
X213647304Y-56789580D02*
X213171114Y-56789580D01*
X213171114Y-55789580D01*
X213647304Y-55789580D01*
X214028257Y-56503866D02*
X214504447Y-56503866D01*
X213933019Y-56789580D02*
X214266352Y-55789580D01*
X214599685Y-56789580D01*
X214933019Y-56789580D02*
X214933019Y-55789580D01*
X215266352Y-56503866D01*
X215599685Y-55789580D01*
X215599685Y-56789580D01*
X199758419Y-56789580D02*
X199758419Y-55789580D01*
X200806038Y-56694342D02*
X200758419Y-56741961D01*
X200615561Y-56789580D01*
X200520323Y-56789580D01*
X200377466Y-56741961D01*
X200282228Y-56646723D01*
X200234609Y-56551485D01*
X200186990Y-56361009D01*
X200186990Y-56218152D01*
X200234609Y-56027676D01*
X200282228Y-55932438D01*
X200377466Y-55837200D01*
X200520323Y-55789580D01*
X200615561Y-55789580D01*
X200758419Y-55837200D01*
X200806038Y-55884819D01*
X201234609Y-56265771D02*
X201567942Y-56265771D01*
X201710800Y-56789580D02*
X201234609Y-56789580D01*
X201234609Y-55789580D01*
X201710800Y-55789580D01*
D11*
X184334352Y-97402704D02*
X184486733Y-97402704D01*
X184562923Y-97440800D01*
X184639114Y-97516990D01*
X184677209Y-97669371D01*
X184677209Y-97936038D01*
X184639114Y-98088419D01*
X184562923Y-98164609D01*
X184486733Y-98202704D01*
X184334352Y-98202704D01*
X184258161Y-98164609D01*
X184181971Y-98088419D01*
X184143876Y-97936038D01*
X184143876Y-97669371D01*
X184181971Y-97516990D01*
X184258161Y-97440800D01*
X184334352Y-97402704D01*
X185362923Y-97669371D02*
X185362923Y-98202704D01*
X185020066Y-97669371D02*
X185020066Y-98088419D01*
X185058161Y-98164609D01*
X185134352Y-98202704D01*
X185248638Y-98202704D01*
X185324828Y-98164609D01*
X185362923Y-98126514D01*
X185629590Y-97669371D02*
X185934352Y-97669371D01*
X185743876Y-97402704D02*
X185743876Y-98088419D01*
X185781971Y-98164609D01*
X185858161Y-98202704D01*
X185934352Y-98202704D01*
X186201019Y-97669371D02*
X186201019Y-98469371D01*
X186201019Y-97707466D02*
X186277209Y-97669371D01*
X186429590Y-97669371D01*
X186505780Y-97707466D01*
X186543876Y-97745561D01*
X186581971Y-97821752D01*
X186581971Y-98050323D01*
X186543876Y-98126514D01*
X186505780Y-98164609D01*
X186429590Y-98202704D01*
X186277209Y-98202704D01*
X186201019Y-98164609D01*
X187267685Y-97669371D02*
X187267685Y-98202704D01*
X186924828Y-97669371D02*
X186924828Y-98088419D01*
X186962923Y-98164609D01*
X187039114Y-98202704D01*
X187153400Y-98202704D01*
X187229590Y-98164609D01*
X187267685Y-98126514D01*
X187534352Y-97669371D02*
X187839114Y-97669371D01*
X187648638Y-97402704D02*
X187648638Y-98088419D01*
X187686733Y-98164609D01*
X187762923Y-98202704D01*
X187839114Y-98202704D01*
X239426914Y-98380504D02*
X239426914Y-97580504D01*
X239807866Y-97847171D02*
X239807866Y-98380504D01*
X239807866Y-97923361D02*
X239845961Y-97885266D01*
X239922152Y-97847171D01*
X240036438Y-97847171D01*
X240112628Y-97885266D01*
X240150723Y-97961457D01*
X240150723Y-98380504D01*
X240531676Y-97847171D02*
X240531676Y-98647171D01*
X240531676Y-97885266D02*
X240607866Y-97847171D01*
X240760247Y-97847171D01*
X240836438Y-97885266D01*
X240874533Y-97923361D01*
X240912628Y-97999552D01*
X240912628Y-98228123D01*
X240874533Y-98304314D01*
X240836438Y-98342409D01*
X240760247Y-98380504D01*
X240607866Y-98380504D01*
X240531676Y-98342409D01*
X241598342Y-97847171D02*
X241598342Y-98380504D01*
X241255485Y-97847171D02*
X241255485Y-98266219D01*
X241293580Y-98342409D01*
X241369771Y-98380504D01*
X241484057Y-98380504D01*
X241560247Y-98342409D01*
X241598342Y-98304314D01*
X241865009Y-97847171D02*
X242169771Y-97847171D01*
X241979295Y-97580504D02*
X241979295Y-98266219D01*
X242017390Y-98342409D01*
X242093580Y-98380504D01*
X242169771Y-98380504D01*
X207067980Y-118129009D02*
X207182266Y-118167104D01*
X207372742Y-118167104D01*
X207448933Y-118129009D01*
X207487028Y-118090914D01*
X207525123Y-118014723D01*
X207525123Y-117938533D01*
X207487028Y-117862342D01*
X207448933Y-117824247D01*
X207372742Y-117786152D01*
X207220361Y-117748057D01*
X207144171Y-117709961D01*
X207106076Y-117671866D01*
X207067980Y-117595676D01*
X207067980Y-117519485D01*
X207106076Y-117443295D01*
X207144171Y-117405200D01*
X207220361Y-117367104D01*
X207410838Y-117367104D01*
X207525123Y-117405200D01*
X207867980Y-118167104D02*
X207867980Y-117367104D01*
X208210838Y-118167104D02*
X208210838Y-117748057D01*
X208172742Y-117671866D01*
X208096552Y-117633771D01*
X207982266Y-117633771D01*
X207906076Y-117671866D01*
X207867980Y-117709961D01*
X208706076Y-118167104D02*
X208629885Y-118129009D01*
X208591790Y-118090914D01*
X208553695Y-118014723D01*
X208553695Y-117786152D01*
X208591790Y-117709961D01*
X208629885Y-117671866D01*
X208706076Y-117633771D01*
X208820361Y-117633771D01*
X208896552Y-117671866D01*
X208934647Y-117709961D01*
X208972742Y-117786152D01*
X208972742Y-118014723D01*
X208934647Y-118090914D01*
X208896552Y-118129009D01*
X208820361Y-118167104D01*
X208706076Y-118167104D01*
X209315600Y-118167104D02*
X209315600Y-117633771D01*
X209315600Y-117786152D02*
X209353695Y-117709961D01*
X209391790Y-117671866D01*
X209467980Y-117633771D01*
X209544171Y-117633771D01*
X209696552Y-117633771D02*
X210001314Y-117633771D01*
X209810838Y-117367104D02*
X209810838Y-118052819D01*
X209848933Y-118129009D01*
X209925123Y-118167104D01*
X210001314Y-118167104D01*
X210877504Y-118167104D02*
X210877504Y-117367104D01*
X210877504Y-117671866D02*
X210953695Y-117633771D01*
X211106076Y-117633771D01*
X211182266Y-117671866D01*
X211220361Y-117709961D01*
X211258457Y-117786152D01*
X211258457Y-118014723D01*
X211220361Y-118090914D01*
X211182266Y-118129009D01*
X211106076Y-118167104D01*
X210953695Y-118167104D01*
X210877504Y-118129009D01*
X211715600Y-118167104D02*
X211639409Y-118129009D01*
X211601314Y-118090914D01*
X211563219Y-118014723D01*
X211563219Y-117786152D01*
X211601314Y-117709961D01*
X211639409Y-117671866D01*
X211715600Y-117633771D01*
X211829885Y-117633771D01*
X211906076Y-117671866D01*
X211944171Y-117709961D01*
X211982266Y-117786152D01*
X211982266Y-118014723D01*
X211944171Y-118090914D01*
X211906076Y-118129009D01*
X211829885Y-118167104D01*
X211715600Y-118167104D01*
X212210838Y-117633771D02*
X212515600Y-117633771D01*
X212325123Y-117367104D02*
X212325123Y-118052819D01*
X212363219Y-118129009D01*
X212439409Y-118167104D01*
X212515600Y-118167104D01*
X212782266Y-118167104D02*
X212782266Y-117367104D01*
X213125123Y-118167104D02*
X213125123Y-117748057D01*
X213087028Y-117671866D01*
X213010838Y-117633771D01*
X212896552Y-117633771D01*
X212820361Y-117671866D01*
X212782266Y-117709961D01*
X214001314Y-117633771D02*
X214306076Y-117633771D01*
X214115600Y-118167104D02*
X214115600Y-117481390D01*
X214153695Y-117405200D01*
X214229885Y-117367104D01*
X214306076Y-117367104D01*
X214687028Y-118167104D02*
X214610838Y-118129009D01*
X214572742Y-118090914D01*
X214534647Y-118014723D01*
X214534647Y-117786152D01*
X214572742Y-117709961D01*
X214610838Y-117671866D01*
X214687028Y-117633771D01*
X214801314Y-117633771D01*
X214877504Y-117671866D01*
X214915600Y-117709961D01*
X214953695Y-117786152D01*
X214953695Y-118014723D01*
X214915600Y-118090914D01*
X214877504Y-118129009D01*
X214801314Y-118167104D01*
X214687028Y-118167104D01*
X215296552Y-118167104D02*
X215296552Y-117633771D01*
X215296552Y-117786152D02*
X215334647Y-117709961D01*
X215372742Y-117671866D01*
X215448933Y-117633771D01*
X215525123Y-117633771D01*
X216401314Y-118167104D02*
X216401314Y-117367104D01*
X216706076Y-117367104D01*
X216782266Y-117405200D01*
X216820361Y-117443295D01*
X216858457Y-117519485D01*
X216858457Y-117633771D01*
X216820361Y-117709961D01*
X216782266Y-117748057D01*
X216706076Y-117786152D01*
X216401314Y-117786152D01*
X217163219Y-118129009D02*
X217239409Y-118167104D01*
X217391790Y-118167104D01*
X217467980Y-118129009D01*
X217506076Y-118052819D01*
X217506076Y-118014723D01*
X217467980Y-117938533D01*
X217391790Y-117900438D01*
X217277504Y-117900438D01*
X217201314Y-117862342D01*
X217163219Y-117786152D01*
X217163219Y-117748057D01*
X217201314Y-117671866D01*
X217277504Y-117633771D01*
X217391790Y-117633771D01*
X217467980Y-117671866D01*
X218153695Y-118129009D02*
X218077504Y-118167104D01*
X217925123Y-118167104D01*
X217848933Y-118129009D01*
X217810838Y-118052819D01*
X217810838Y-117748057D01*
X217848933Y-117671866D01*
X217925123Y-117633771D01*
X218077504Y-117633771D01*
X218153695Y-117671866D01*
X218191790Y-117748057D01*
X218191790Y-117824247D01*
X217810838Y-117900438D01*
X218877504Y-117633771D02*
X218877504Y-118167104D01*
X218534647Y-117633771D02*
X218534647Y-118052819D01*
X218572742Y-118129009D01*
X218648933Y-118167104D01*
X218763219Y-118167104D01*
X218839409Y-118129009D01*
X218877504Y-118090914D01*
X219601314Y-118167104D02*
X219601314Y-117367104D01*
X219601314Y-118129009D02*
X219525123Y-118167104D01*
X219372742Y-118167104D01*
X219296552Y-118129009D01*
X219258457Y-118090914D01*
X219220361Y-118014723D01*
X219220361Y-117786152D01*
X219258457Y-117709961D01*
X219296552Y-117671866D01*
X219372742Y-117633771D01*
X219525123Y-117633771D01*
X219601314Y-117671866D01*
X220096552Y-118167104D02*
X220020361Y-118129009D01*
X219982266Y-118090914D01*
X219944171Y-118014723D01*
X219944171Y-117786152D01*
X219982266Y-117709961D01*
X220020361Y-117671866D01*
X220096552Y-117633771D01*
X220210838Y-117633771D01*
X220287028Y-117671866D01*
X220325123Y-117709961D01*
X220363219Y-117786152D01*
X220363219Y-118014723D01*
X220325123Y-118090914D01*
X220287028Y-118129009D01*
X220210838Y-118167104D01*
X220096552Y-118167104D01*
X222497866Y-132759809D02*
X222612152Y-132797904D01*
X222802628Y-132797904D01*
X222878819Y-132759809D01*
X222916914Y-132721714D01*
X222955009Y-132645523D01*
X222955009Y-132569333D01*
X222916914Y-132493142D01*
X222878819Y-132455047D01*
X222802628Y-132416952D01*
X222650247Y-132378857D01*
X222574057Y-132340761D01*
X222535961Y-132302666D01*
X222497866Y-132226476D01*
X222497866Y-132150285D01*
X222535961Y-132074095D01*
X222574057Y-132036000D01*
X222650247Y-131997904D01*
X222840723Y-131997904D01*
X222955009Y-132036000D01*
X223183580Y-132264571D02*
X223488342Y-132264571D01*
X223297866Y-131997904D02*
X223297866Y-132683619D01*
X223335961Y-132759809D01*
X223412152Y-132797904D01*
X223488342Y-132797904D01*
X224097866Y-132797904D02*
X224097866Y-132378857D01*
X224059771Y-132302666D01*
X223983580Y-132264571D01*
X223831200Y-132264571D01*
X223755009Y-132302666D01*
X224097866Y-132759809D02*
X224021676Y-132797904D01*
X223831200Y-132797904D01*
X223755009Y-132759809D01*
X223716914Y-132683619D01*
X223716914Y-132607428D01*
X223755009Y-132531238D01*
X223831200Y-132493142D01*
X224021676Y-132493142D01*
X224097866Y-132455047D01*
X224364533Y-132264571D02*
X224669295Y-132264571D01*
X224478819Y-131997904D02*
X224478819Y-132683619D01*
X224516914Y-132759809D01*
X224593104Y-132797904D01*
X224669295Y-132797904D01*
X225278819Y-132264571D02*
X225278819Y-132797904D01*
X224935961Y-132264571D02*
X224935961Y-132683619D01*
X224974057Y-132759809D01*
X225050247Y-132797904D01*
X225164533Y-132797904D01*
X225240723Y-132759809D01*
X225278819Y-132721714D01*
X225621676Y-132759809D02*
X225697866Y-132797904D01*
X225850247Y-132797904D01*
X225926438Y-132759809D01*
X225964533Y-132683619D01*
X225964533Y-132645523D01*
X225926438Y-132569333D01*
X225850247Y-132531238D01*
X225735961Y-132531238D01*
X225659771Y-132493142D01*
X225621676Y-132416952D01*
X225621676Y-132378857D01*
X225659771Y-132302666D01*
X225735961Y-132264571D01*
X225850247Y-132264571D01*
X225926438Y-132302666D01*
X223716914Y-134117904D02*
X223335961Y-134117904D01*
X223335961Y-133317904D01*
X223983580Y-133698857D02*
X224250247Y-133698857D01*
X224364533Y-134117904D02*
X223983580Y-134117904D01*
X223983580Y-133317904D01*
X224364533Y-133317904D01*
X224707390Y-134117904D02*
X224707390Y-133317904D01*
X224897866Y-133317904D01*
X225012152Y-133356000D01*
X225088342Y-133432190D01*
X225126438Y-133508380D01*
X225164533Y-133660761D01*
X225164533Y-133775047D01*
X225126438Y-133927428D01*
X225088342Y-134003619D01*
X225012152Y-134079809D01*
X224897866Y-134117904D01*
X224707390Y-134117904D01*
X240309476Y-117176904D02*
X240309476Y-116376904D01*
X240499952Y-116376904D01*
X240614238Y-116415000D01*
X240690428Y-116491190D01*
X240728523Y-116567380D01*
X240766619Y-116719761D01*
X240766619Y-116834047D01*
X240728523Y-116986428D01*
X240690428Y-117062619D01*
X240614238Y-117138809D01*
X240499952Y-117176904D01*
X240309476Y-117176904D01*
X241566619Y-117100714D02*
X241528523Y-117138809D01*
X241414238Y-117176904D01*
X241338047Y-117176904D01*
X241223761Y-117138809D01*
X241147571Y-117062619D01*
X241109476Y-116986428D01*
X241071380Y-116834047D01*
X241071380Y-116719761D01*
X241109476Y-116567380D01*
X241147571Y-116491190D01*
X241223761Y-116415000D01*
X241338047Y-116376904D01*
X241414238Y-116376904D01*
X241528523Y-116415000D01*
X241566619Y-116453095D01*
X239338047Y-118496904D02*
X239338047Y-117696904D01*
X239642809Y-117696904D01*
X239719000Y-117735000D01*
X239757095Y-117773095D01*
X239795190Y-117849285D01*
X239795190Y-117963571D01*
X239757095Y-118039761D01*
X239719000Y-118077857D01*
X239642809Y-118115952D01*
X239338047Y-118115952D01*
X240252333Y-118496904D02*
X240176142Y-118458809D01*
X240138047Y-118420714D01*
X240099952Y-118344523D01*
X240099952Y-118115952D01*
X240138047Y-118039761D01*
X240176142Y-118001666D01*
X240252333Y-117963571D01*
X240366619Y-117963571D01*
X240442809Y-118001666D01*
X240480904Y-118039761D01*
X240519000Y-118115952D01*
X240519000Y-118344523D01*
X240480904Y-118420714D01*
X240442809Y-118458809D01*
X240366619Y-118496904D01*
X240252333Y-118496904D01*
X240785666Y-117963571D02*
X240938047Y-118496904D01*
X241090428Y-118115952D01*
X241242809Y-118496904D01*
X241395190Y-117963571D01*
X242004714Y-118458809D02*
X241928523Y-118496904D01*
X241776142Y-118496904D01*
X241699952Y-118458809D01*
X241661857Y-118382619D01*
X241661857Y-118077857D01*
X241699952Y-118001666D01*
X241776142Y-117963571D01*
X241928523Y-117963571D01*
X242004714Y-118001666D01*
X242042809Y-118077857D01*
X242042809Y-118154047D01*
X241661857Y-118230238D01*
X242385666Y-118496904D02*
X242385666Y-117963571D01*
X242385666Y-118115952D02*
X242423761Y-118039761D01*
X242461857Y-118001666D01*
X242538047Y-117963571D01*
X242614238Y-117963571D01*
X223571361Y-64662009D02*
X223685647Y-64700104D01*
X223876123Y-64700104D01*
X223952314Y-64662009D01*
X223990409Y-64623914D01*
X224028504Y-64547723D01*
X224028504Y-64471533D01*
X223990409Y-64395342D01*
X223952314Y-64357247D01*
X223876123Y-64319152D01*
X223723742Y-64281057D01*
X223647552Y-64242961D01*
X223609457Y-64204866D01*
X223571361Y-64128676D01*
X223571361Y-64052485D01*
X223609457Y-63976295D01*
X223647552Y-63938200D01*
X223723742Y-63900104D01*
X223914219Y-63900104D01*
X224028504Y-63938200D01*
X224371361Y-64700104D02*
X224371361Y-63900104D01*
X224714219Y-64700104D02*
X224714219Y-64281057D01*
X224676123Y-64204866D01*
X224599933Y-64166771D01*
X224485647Y-64166771D01*
X224409457Y-64204866D01*
X224371361Y-64242961D01*
X225209457Y-64700104D02*
X225133266Y-64662009D01*
X225095171Y-64623914D01*
X225057076Y-64547723D01*
X225057076Y-64319152D01*
X225095171Y-64242961D01*
X225133266Y-64204866D01*
X225209457Y-64166771D01*
X225323742Y-64166771D01*
X225399933Y-64204866D01*
X225438028Y-64242961D01*
X225476123Y-64319152D01*
X225476123Y-64547723D01*
X225438028Y-64623914D01*
X225399933Y-64662009D01*
X225323742Y-64700104D01*
X225209457Y-64700104D01*
X225818980Y-64700104D02*
X225818980Y-64166771D01*
X225818980Y-64319152D02*
X225857076Y-64242961D01*
X225895171Y-64204866D01*
X225971361Y-64166771D01*
X226047552Y-64166771D01*
X226199933Y-64166771D02*
X226504695Y-64166771D01*
X226314219Y-63900104D02*
X226314219Y-64585819D01*
X226352314Y-64662009D01*
X226428504Y-64700104D01*
X226504695Y-64700104D01*
X227266600Y-64166771D02*
X227571361Y-64166771D01*
X227380885Y-64700104D02*
X227380885Y-64014390D01*
X227418980Y-63938200D01*
X227495171Y-63900104D01*
X227571361Y-63900104D01*
X227952314Y-64700104D02*
X227876123Y-64662009D01*
X227838028Y-64623914D01*
X227799933Y-64547723D01*
X227799933Y-64319152D01*
X227838028Y-64242961D01*
X227876123Y-64204866D01*
X227952314Y-64166771D01*
X228066600Y-64166771D01*
X228142790Y-64204866D01*
X228180885Y-64242961D01*
X228218980Y-64319152D01*
X228218980Y-64547723D01*
X228180885Y-64623914D01*
X228142790Y-64662009D01*
X228066600Y-64700104D01*
X227952314Y-64700104D01*
X228561838Y-64700104D02*
X228561838Y-64166771D01*
X228561838Y-64319152D02*
X228599933Y-64242961D01*
X228638028Y-64204866D01*
X228714219Y-64166771D01*
X228790409Y-64166771D01*
X229552314Y-63900104D02*
X230009457Y-63900104D01*
X229780885Y-64700104D02*
X229780885Y-63900104D01*
X230276123Y-64700104D02*
X230276123Y-64166771D01*
X230276123Y-64319152D02*
X230314219Y-64242961D01*
X230352314Y-64204866D01*
X230428504Y-64166771D01*
X230504695Y-64166771D01*
X231114219Y-64166771D02*
X231114219Y-64700104D01*
X230771361Y-64166771D02*
X230771361Y-64585819D01*
X230809457Y-64662009D01*
X230885647Y-64700104D01*
X230999933Y-64700104D01*
X231076123Y-64662009D01*
X231114219Y-64623914D01*
X231761838Y-64281057D02*
X231876123Y-64319152D01*
X231914219Y-64357247D01*
X231952314Y-64433438D01*
X231952314Y-64547723D01*
X231914219Y-64623914D01*
X231876123Y-64662009D01*
X231799933Y-64700104D01*
X231495171Y-64700104D01*
X231495171Y-63900104D01*
X231761838Y-63900104D01*
X231838028Y-63938200D01*
X231876123Y-63976295D01*
X231914219Y-64052485D01*
X231914219Y-64128676D01*
X231876123Y-64204866D01*
X231838028Y-64242961D01*
X231761838Y-64281057D01*
X231495171Y-64281057D01*
X232218980Y-64166771D02*
X232409457Y-64700104D01*
X232599933Y-64166771D02*
X232409457Y-64700104D01*
X232333266Y-64890580D01*
X232295171Y-64928676D01*
X232218980Y-64966771D01*
D10*
X197277056Y-117911544D02*
G75*
G03X193180000Y-119608600I-1697056J-1697056D01*
G01*
X197277056Y-121305656D02*
G75*
G02X193180000Y-119608600I-1697056J1697056D01*
G01*
X197280000Y-121308600D02*
X197280000Y-117908600D01*
X231287656Y-125506144D02*
G75*
G03X227190600Y-127203200I-1697056J-1697056D01*
G01*
X231287656Y-128900256D02*
G75*
G02X227190600Y-127203200I-1697056J1697056D01*
G01*
X231290600Y-128903200D02*
X231290600Y-125503200D01*
X192663744Y-127630256D02*
G75*
G03X196760800Y-125933200I1697056J1697056D01*
G01*
X192663744Y-124236144D02*
G75*
G02X196760800Y-125933200I1697056J-1697056D01*
G01*
X192660800Y-124233200D02*
X192660800Y-127633200D01*
X235300856Y-92146456D02*
G75*
G03X233603800Y-88049400I-1697056J1697056D01*
G01*
X231906744Y-92146456D02*
G75*
G02X233603800Y-88049400I1697056J1697056D01*
G01*
X231903800Y-92149400D02*
X235303800Y-92149400D01*
X203144456Y-92552856D02*
G75*
G03X201447400Y-88455800I-1697056J1697056D01*
G01*
X199750344Y-92552856D02*
G75*
G02X201447400Y-88455800I1697056J1697056D01*
G01*
X199747400Y-92555800D02*
X203147400Y-92555800D01*
X215935000Y-83355000D02*
X215935000Y-79205000D01*
X215935000Y-83355000D02*
X215790000Y-83355000D01*
X215935000Y-79205000D02*
X215790000Y-79205000D01*
X210785000Y-79179600D02*
X210930000Y-79179600D01*
D12*
X211496000Y-76690000D02*
G75*
G03X211496000Y-76690000I-400000J0D01*
G01*
X211560000Y-82780000D02*
G75*
G03X211560000Y-82780000I-200000J0D01*
G01*
D10*
X210935000Y-83380400D02*
X210790000Y-83380400D01*
X210760000Y-83380400D02*
X210760000Y-81780400D01*
X210760000Y-80789600D02*
X210760000Y-79189600D01*
D12*
X210820000Y-81788000D02*
G75*
G03X211302600Y-81254600I-25400J508000D01*
G01*
X211302600Y-81305400D02*
G75*
G03X210820000Y-80772000I-508000J25400D01*
G01*
X215925400Y-76428600D02*
X213918800Y-76428600D01*
X212852000Y-76454000D02*
G75*
G03X213868000Y-76454000I508000J0D01*
G01*
X212852000Y-76454000D02*
X211836000Y-76454000D01*
D10*
X227122056Y-91867056D02*
G75*
G03X225425000Y-87770000I-1697056J1697056D01*
G01*
X223727944Y-91867056D02*
G75*
G02X225425000Y-87770000I1697056J1697056D01*
G01*
X223725000Y-91870000D02*
X227125000Y-91870000D01*
X194102056Y-92629056D02*
G75*
G03X192405000Y-88532000I-1697056J1697056D01*
G01*
X190707944Y-92629056D02*
G75*
G02X192405000Y-88532000I1697056J1697056D01*
G01*
X190705000Y-92632000D02*
X194105000Y-92632000D01*
X222000000Y-120540000D02*
X213500000Y-120540000D01*
X222000000Y-138540000D02*
X222000000Y-120540000D01*
X205000000Y-120540000D02*
X213500000Y-120540000D01*
X205000000Y-138540000D02*
X205000000Y-120540000D01*
X222000000Y-138540000D02*
X205000000Y-138540000D01*
X205000000Y-119740000D02*
X205000000Y-120540000D01*
X222000000Y-119740000D02*
X205000000Y-119740000D01*
X222000000Y-119740000D02*
X222000000Y-120540000D01*
X205000000Y-139340000D02*
X205000000Y-138540000D01*
X222000000Y-139340000D02*
X205000000Y-139340000D01*
X222000000Y-138540000D02*
X222000000Y-139340000D01*
X206500000Y-132040000D02*
X220500000Y-132040000D01*
X220500000Y-127040000D02*
X206500000Y-127040000D01*
X211000000Y-136540000D02*
X211000000Y-122540000D01*
X216000000Y-122540000D02*
X216000000Y-136540000D01*
X209105000Y-116045000D02*
X209105000Y-96045000D01*
X188405000Y-116045000D02*
X209105000Y-116045000D01*
X188405000Y-96045000D02*
X188405000Y-116045000D01*
X209105000Y-96045000D02*
X188405000Y-96045000D01*
X183705000Y-100995000D02*
X188405000Y-100995000D01*
X183705000Y-111045000D02*
X183705000Y-100995000D01*
X188405000Y-111045000D02*
X183705000Y-111045000D01*
X213105000Y-109545000D02*
X209105000Y-109545000D01*
X213105000Y-102495000D02*
X213105000Y-109545000D01*
X209105000Y-102495000D02*
X213105000Y-102495000D01*
X217615000Y-96045000D02*
X217615000Y-116045000D01*
X238315000Y-96045000D02*
X217615000Y-96045000D01*
X238315000Y-116045000D02*
X238315000Y-96045000D01*
X217615000Y-116045000D02*
X238315000Y-116045000D01*
X243015000Y-111095000D02*
X238315000Y-111095000D01*
X243015000Y-101045000D02*
X243015000Y-111095000D01*
X238315000Y-101045000D02*
X243015000Y-101045000D01*
X213615000Y-102545000D02*
X217615000Y-102545000D01*
X213615000Y-109595000D02*
X213615000Y-102545000D01*
X217615000Y-109595000D02*
X213615000Y-109595000D01*
D11*
X223222000Y-131584000D02*
X225342000Y-131584000D01*
X223222000Y-129524000D02*
X223222000Y-131584000D01*
X225342000Y-129524000D02*
X225342000Y-131584000D01*
X223222000Y-129524000D02*
X225342000Y-129524000D01*
X223222000Y-128524000D02*
X223222000Y-127464000D01*
X223222000Y-127464000D02*
X224282000Y-127464000D01*
X213866252Y-68886000D02*
X213343748Y-68886000D01*
X213866252Y-70306000D02*
X213343748Y-70306000D01*
X207495000Y-72101000D02*
X200255000Y-72101000D01*
X207495000Y-68361000D02*
X200255000Y-68361000D01*
X207495000Y-72101000D02*
X207495000Y-68361000D01*
X200255000Y-72101000D02*
X200255000Y-68361000D01*
X191000748Y-65289500D02*
X191523252Y-65289500D01*
X191000748Y-63869500D02*
X191523252Y-63869500D01*
X188896248Y-118312000D02*
X189418752Y-118312000D01*
X188896248Y-116892000D02*
X189418752Y-116892000D01*
X194937748Y-77608500D02*
X195460252Y-77608500D01*
X194937748Y-76188500D02*
X195460252Y-76188500D01*
X213748252Y-73458000D02*
X213225748Y-73458000D01*
X213748252Y-74878000D02*
X213225748Y-74878000D01*
X232408252Y-66092000D02*
X231885748Y-66092000D01*
X232408252Y-67512000D02*
X231885748Y-67512000D01*
X224407252Y-66028500D02*
X223884748Y-66028500D01*
X224407252Y-67448500D02*
X223884748Y-67448500D01*
X199203000Y-133417000D02*
X199203000Y-136077000D01*
X201803000Y-133417000D02*
X199203000Y-133417000D01*
X201803000Y-136077000D02*
X199203000Y-136077000D01*
X201803000Y-133417000D02*
X201803000Y-136077000D01*
X203073000Y-133417000D02*
X204403000Y-133417000D01*
X204403000Y-133417000D02*
X204403000Y-134747000D01*
X202962252Y-130516500D02*
X202439748Y-130516500D01*
X202962252Y-129096500D02*
X202439748Y-129096500D01*
X202944252Y-128408500D02*
X202421748Y-128408500D01*
X202944252Y-126988500D02*
X202421748Y-126988500D01*
X202430748Y-131179500D02*
X202953252Y-131179500D01*
X202430748Y-132599500D02*
X202953252Y-132599500D01*
X202953252Y-124956500D02*
X202430748Y-124956500D01*
X202953252Y-126376500D02*
X202430748Y-126376500D01*
X201683000Y-118498500D02*
X204543000Y-118498500D01*
X204543000Y-118498500D02*
X204543000Y-116578500D01*
X204543000Y-116578500D02*
X201683000Y-116578500D01*
X202430748Y-124344500D02*
X202953252Y-124344500D01*
X202430748Y-122924500D02*
X202953252Y-122924500D01*
X202439748Y-120280500D02*
X202962252Y-120280500D01*
X202439748Y-118860500D02*
X202962252Y-118860500D01*
X202430748Y-122312500D02*
X202953252Y-122312500D01*
X202430748Y-120892500D02*
X202953252Y-120892500D01*
X236553752Y-125845500D02*
X236031248Y-125845500D01*
X236553752Y-127265500D02*
X236031248Y-127265500D01*
X224416252Y-71045000D02*
X223893748Y-71045000D01*
X224416252Y-72465000D02*
X223893748Y-72465000D01*
X217020000Y-66640000D02*
X209780000Y-66640000D01*
X217020000Y-62900000D02*
X209780000Y-62900000D01*
X217020000Y-66640000D02*
X217020000Y-62900000D01*
X209780000Y-66640000D02*
X209780000Y-62900000D01*
X207515000Y-60730000D02*
X197315000Y-60730000D01*
X207515000Y-63730000D02*
X207515000Y-60730000D01*
X197315000Y-63730000D02*
X207515000Y-63730000D01*
X242122000Y-126933000D02*
X240792000Y-126933000D01*
X242122000Y-125603000D02*
X242122000Y-126933000D01*
X242122000Y-124333000D02*
X239462000Y-124333000D01*
X239462000Y-124333000D02*
X239462000Y-119193000D01*
X242122000Y-124333000D02*
X242122000Y-119193000D01*
X242122000Y-119193000D02*
X239462000Y-119193000D01*
X241360000Y-133290000D02*
X241360000Y-134620000D01*
X240030000Y-133290000D02*
X241360000Y-133290000D01*
X238760000Y-133290000D02*
X238760000Y-135950000D01*
X238760000Y-135950000D02*
X236160000Y-135950000D01*
X238760000Y-133290000D02*
X236160000Y-133290000D01*
X236160000Y-133290000D02*
X236160000Y-135950000D01*
X223893748Y-69925000D02*
X224416252Y-69925000D01*
X223893748Y-68505000D02*
X224416252Y-68505000D01*
X232426252Y-68505000D02*
X231903748Y-68505000D01*
X232426252Y-69925000D02*
X231903748Y-69925000D01*
X231903748Y-80085000D02*
X232426252Y-80085000D01*
X231903748Y-78665000D02*
X232426252Y-78665000D01*
X232426252Y-76125000D02*
X231903748Y-76125000D01*
X232426252Y-77545000D02*
X231903748Y-77545000D01*
X232426252Y-73585000D02*
X231903748Y-73585000D01*
X232426252Y-75005000D02*
X231903748Y-75005000D01*
X224424252Y-73585000D02*
X223901748Y-73585000D01*
X224424252Y-75005000D02*
X223901748Y-75005000D01*
X224424252Y-76125000D02*
X223901748Y-76125000D01*
X224424252Y-77545000D02*
X223901748Y-77545000D01*
X223893748Y-80085000D02*
X224416252Y-80085000D01*
X223893748Y-78665000D02*
X224416252Y-78665000D01*
X224416252Y-81205000D02*
X223893748Y-81205000D01*
X224416252Y-82625000D02*
X223893748Y-82625000D01*
X190991748Y-67448500D02*
X191514252Y-67448500D01*
X190991748Y-66028500D02*
X191514252Y-66028500D01*
X191000748Y-63067000D02*
X191523252Y-63067000D01*
X191000748Y-61647000D02*
X191523252Y-61647000D01*
X195451252Y-73648500D02*
X194928748Y-73648500D01*
X195451252Y-75068500D02*
X194928748Y-75068500D01*
X202938748Y-77545000D02*
X203461252Y-77545000D01*
X202938748Y-76125000D02*
X203461252Y-76125000D01*
X195396752Y-78792000D02*
X194874248Y-78792000D01*
X195396752Y-80212000D02*
X194874248Y-80212000D01*
X194874248Y-82688500D02*
X195396752Y-82688500D01*
X194874248Y-81268500D02*
X195396752Y-81268500D01*
X236031248Y-129551500D02*
X236553752Y-129551500D01*
X236031248Y-128131500D02*
X236553752Y-128131500D01*
X236031248Y-131837500D02*
X236553752Y-131837500D01*
X236031248Y-130417500D02*
X236553752Y-130417500D01*
X232426252Y-81205000D02*
X231903748Y-81205000D01*
X232426252Y-82625000D02*
X231903748Y-82625000D01*
X232426252Y-71045000D02*
X231903748Y-71045000D01*
X232426252Y-72465000D02*
X231903748Y-72465000D01*
X217880000Y-90431252D02*
X217880000Y-89908748D01*
X216460000Y-90431252D02*
X216460000Y-89908748D01*
X203452252Y-73585000D02*
X202929748Y-73585000D01*
X203452252Y-75005000D02*
X202929748Y-75005000D01*
X195342252Y-83681500D02*
X194819748Y-83681500D01*
X195342252Y-85101500D02*
X194819748Y-85101500D01*
X212650000Y-89908748D02*
X212650000Y-90431252D01*
X214070000Y-89908748D02*
X214070000Y-90431252D01*
X213875252Y-71172000D02*
X213352748Y-71172000D01*
X213875252Y-72592000D02*
X213352748Y-72592000D01*
X237995500Y-120920000D02*
X230695500Y-120920000D01*
X237995500Y-122920000D02*
X237995500Y-120920000D01*
X230695500Y-122920000D02*
X237995500Y-122920000D01*
X190963000Y-120896500D02*
X188103000Y-120896500D01*
X190963000Y-122816500D02*
X190963000Y-120896500D01*
X188103000Y-122816500D02*
X190963000Y-122816500D01*
X190972000Y-137199000D02*
X188112000Y-137199000D01*
X190972000Y-139119000D02*
X190972000Y-137199000D01*
X188112000Y-139119000D02*
X190972000Y-139119000D01*
X216692241Y-98674000D02*
X216692241Y-98044000D01*
X217007241Y-98359000D02*
X216377241Y-98359000D01*
X210266000Y-96922000D02*
X210266000Y-96118000D01*
X210306000Y-97153000D02*
X210306000Y-95887000D01*
X210346000Y-97322000D02*
X210346000Y-95718000D01*
X210386000Y-97460000D02*
X210386000Y-95580000D01*
X210426000Y-97579000D02*
X210426000Y-95461000D01*
X210466000Y-97685000D02*
X210466000Y-95355000D01*
X210506000Y-97782000D02*
X210506000Y-95258000D01*
X210546000Y-97870000D02*
X210546000Y-95170000D01*
X210586000Y-97952000D02*
X210586000Y-95088000D01*
X210626000Y-98029000D02*
X210626000Y-95011000D01*
X210666000Y-98101000D02*
X210666000Y-94939000D01*
X210706000Y-98170000D02*
X210706000Y-94870000D01*
X210746000Y-98234000D02*
X210746000Y-94806000D01*
X210786000Y-98296000D02*
X210786000Y-94744000D01*
X210826000Y-98354000D02*
X210826000Y-94686000D01*
X210866000Y-98410000D02*
X210866000Y-94630000D01*
X210906000Y-98464000D02*
X210906000Y-94576000D01*
X210946000Y-98515000D02*
X210946000Y-94525000D01*
X210986000Y-98564000D02*
X210986000Y-94476000D01*
X211026000Y-98612000D02*
X211026000Y-94428000D01*
X211066000Y-98657000D02*
X211066000Y-94383000D01*
X211106000Y-98702000D02*
X211106000Y-94338000D01*
X211146000Y-98744000D02*
X211146000Y-94296000D01*
X211186000Y-98785000D02*
X211186000Y-94255000D01*
X211226000Y-95480000D02*
X211226000Y-94215000D01*
X211226000Y-98825000D02*
X211226000Y-97560000D01*
X211266000Y-95480000D02*
X211266000Y-94177000D01*
X211266000Y-98863000D02*
X211266000Y-97560000D01*
X211306000Y-95480000D02*
X211306000Y-94140000D01*
X211306000Y-98900000D02*
X211306000Y-97560000D01*
X211346000Y-95480000D02*
X211346000Y-94104000D01*
X211346000Y-98936000D02*
X211346000Y-97560000D01*
X211386000Y-95480000D02*
X211386000Y-94070000D01*
X211386000Y-98970000D02*
X211386000Y-97560000D01*
X211426000Y-95480000D02*
X211426000Y-94036000D01*
X211426000Y-99004000D02*
X211426000Y-97560000D01*
X211466000Y-95480000D02*
X211466000Y-94004000D01*
X211466000Y-99036000D02*
X211466000Y-97560000D01*
X211506000Y-95480000D02*
X211506000Y-93972000D01*
X211506000Y-99068000D02*
X211506000Y-97560000D01*
X211546000Y-95480000D02*
X211546000Y-93942000D01*
X211546000Y-99098000D02*
X211546000Y-97560000D01*
X211586000Y-95480000D02*
X211586000Y-93913000D01*
X211586000Y-99127000D02*
X211586000Y-97560000D01*
X211626000Y-95480000D02*
X211626000Y-93884000D01*
X211626000Y-99156000D02*
X211626000Y-97560000D01*
X211666000Y-95480000D02*
X211666000Y-93856000D01*
X211666000Y-99184000D02*
X211666000Y-97560000D01*
X211706000Y-95480000D02*
X211706000Y-93830000D01*
X211706000Y-99210000D02*
X211706000Y-97560000D01*
X211746000Y-95480000D02*
X211746000Y-93804000D01*
X211746000Y-99236000D02*
X211746000Y-97560000D01*
X211786000Y-95480000D02*
X211786000Y-93778000D01*
X211786000Y-99262000D02*
X211786000Y-97560000D01*
X211826000Y-95480000D02*
X211826000Y-93754000D01*
X211826000Y-99286000D02*
X211826000Y-97560000D01*
X211866000Y-95480000D02*
X211866000Y-93730000D01*
X211866000Y-99310000D02*
X211866000Y-97560000D01*
X211906000Y-95480000D02*
X211906000Y-93708000D01*
X211906000Y-99332000D02*
X211906000Y-97560000D01*
X211946000Y-95480000D02*
X211946000Y-93686000D01*
X211946000Y-99354000D02*
X211946000Y-97560000D01*
X211986000Y-95480000D02*
X211986000Y-93664000D01*
X211986000Y-99376000D02*
X211986000Y-97560000D01*
X212026000Y-95480000D02*
X212026000Y-93644000D01*
X212026000Y-99396000D02*
X212026000Y-97560000D01*
X212066000Y-95480000D02*
X212066000Y-93624000D01*
X212066000Y-99416000D02*
X212066000Y-97560000D01*
X212106000Y-95480000D02*
X212106000Y-93604000D01*
X212106000Y-99436000D02*
X212106000Y-97560000D01*
X212146000Y-95480000D02*
X212146000Y-93586000D01*
X212146000Y-99454000D02*
X212146000Y-97560000D01*
X212186000Y-95480000D02*
X212186000Y-93568000D01*
X212186000Y-99472000D02*
X212186000Y-97560000D01*
X212226000Y-95480000D02*
X212226000Y-93550000D01*
X212226000Y-99490000D02*
X212226000Y-97560000D01*
X212266000Y-95480000D02*
X212266000Y-93534000D01*
X212266000Y-99506000D02*
X212266000Y-97560000D01*
X212306000Y-95480000D02*
X212306000Y-93518000D01*
X212306000Y-99522000D02*
X212306000Y-97560000D01*
X212346000Y-95480000D02*
X212346000Y-93502000D01*
X212346000Y-99538000D02*
X212346000Y-97560000D01*
X212386000Y-95480000D02*
X212386000Y-93487000D01*
X212386000Y-99553000D02*
X212386000Y-97560000D01*
X212426000Y-95480000D02*
X212426000Y-93473000D01*
X212426000Y-99567000D02*
X212426000Y-97560000D01*
X212466000Y-95480000D02*
X212466000Y-93459000D01*
X212466000Y-99581000D02*
X212466000Y-97560000D01*
X212506000Y-95480000D02*
X212506000Y-93446000D01*
X212506000Y-99594000D02*
X212506000Y-97560000D01*
X212546000Y-95480000D02*
X212546000Y-93434000D01*
X212546000Y-99606000D02*
X212546000Y-97560000D01*
X212586000Y-95480000D02*
X212586000Y-93422000D01*
X212586000Y-99618000D02*
X212586000Y-97560000D01*
X212626000Y-95480000D02*
X212626000Y-93410000D01*
X212626000Y-99630000D02*
X212626000Y-97560000D01*
X212666000Y-95480000D02*
X212666000Y-93399000D01*
X212666000Y-99641000D02*
X212666000Y-97560000D01*
X212706000Y-95480000D02*
X212706000Y-93389000D01*
X212706000Y-99651000D02*
X212706000Y-97560000D01*
X212746000Y-95480000D02*
X212746000Y-93379000D01*
X212746000Y-99661000D02*
X212746000Y-97560000D01*
X212786000Y-95480000D02*
X212786000Y-93370000D01*
X212786000Y-99670000D02*
X212786000Y-97560000D01*
X212827000Y-95480000D02*
X212827000Y-93361000D01*
X212827000Y-99679000D02*
X212827000Y-97560000D01*
X212867000Y-95480000D02*
X212867000Y-93353000D01*
X212867000Y-99687000D02*
X212867000Y-97560000D01*
X212907000Y-95480000D02*
X212907000Y-93345000D01*
X212907000Y-99695000D02*
X212907000Y-97560000D01*
X212947000Y-95480000D02*
X212947000Y-93338000D01*
X212947000Y-99702000D02*
X212947000Y-97560000D01*
X212987000Y-95480000D02*
X212987000Y-93331000D01*
X212987000Y-99709000D02*
X212987000Y-97560000D01*
X213027000Y-95480000D02*
X213027000Y-93325000D01*
X213027000Y-99715000D02*
X213027000Y-97560000D01*
X213067000Y-95480000D02*
X213067000Y-93319000D01*
X213067000Y-99721000D02*
X213067000Y-97560000D01*
X213107000Y-95480000D02*
X213107000Y-93314000D01*
X213107000Y-99726000D02*
X213107000Y-97560000D01*
X213147000Y-95480000D02*
X213147000Y-93309000D01*
X213147000Y-99731000D02*
X213147000Y-97560000D01*
X213187000Y-95480000D02*
X213187000Y-93305000D01*
X213187000Y-99735000D02*
X213187000Y-97560000D01*
X213227000Y-95480000D02*
X213227000Y-93302000D01*
X213227000Y-99738000D02*
X213227000Y-97560000D01*
X213267000Y-95480000D02*
X213267000Y-93298000D01*
X213267000Y-99742000D02*
X213267000Y-97560000D01*
X213307000Y-99744000D02*
X213307000Y-93296000D01*
X213347000Y-99747000D02*
X213347000Y-93293000D01*
X213387000Y-99748000D02*
X213387000Y-93292000D01*
X213427000Y-99750000D02*
X213427000Y-93290000D01*
X213467000Y-99750000D02*
X213467000Y-93290000D01*
X213507000Y-99750000D02*
X213507000Y-93290000D01*
X216777000Y-96520000D02*
G75*
G03X216777000Y-96520000I-3270000J0D01*
G01*
X234303000Y-134810500D02*
G75*
G03X234303000Y-134810500I-3270000J0D01*
G01*
X231033000Y-138040500D02*
X231033000Y-131580500D01*
X230993000Y-138040500D02*
X230993000Y-131580500D01*
X230953000Y-138040500D02*
X230953000Y-131580500D01*
X230913000Y-138038500D02*
X230913000Y-131582500D01*
X230873000Y-138037500D02*
X230873000Y-131583500D01*
X230833000Y-138034500D02*
X230833000Y-131586500D01*
X230793000Y-138032500D02*
X230793000Y-135850500D01*
X230793000Y-133770500D02*
X230793000Y-131588500D01*
X230753000Y-138028500D02*
X230753000Y-135850500D01*
X230753000Y-133770500D02*
X230753000Y-131592500D01*
X230713000Y-138025500D02*
X230713000Y-135850500D01*
X230713000Y-133770500D02*
X230713000Y-131595500D01*
X230673000Y-138021500D02*
X230673000Y-135850500D01*
X230673000Y-133770500D02*
X230673000Y-131599500D01*
X230633000Y-138016500D02*
X230633000Y-135850500D01*
X230633000Y-133770500D02*
X230633000Y-131604500D01*
X230593000Y-138011500D02*
X230593000Y-135850500D01*
X230593000Y-133770500D02*
X230593000Y-131609500D01*
X230553000Y-138005500D02*
X230553000Y-135850500D01*
X230553000Y-133770500D02*
X230553000Y-131615500D01*
X230513000Y-137999500D02*
X230513000Y-135850500D01*
X230513000Y-133770500D02*
X230513000Y-131621500D01*
X230473000Y-137992500D02*
X230473000Y-135850500D01*
X230473000Y-133770500D02*
X230473000Y-131628500D01*
X230433000Y-137985500D02*
X230433000Y-135850500D01*
X230433000Y-133770500D02*
X230433000Y-131635500D01*
X230393000Y-137977500D02*
X230393000Y-135850500D01*
X230393000Y-133770500D02*
X230393000Y-131643500D01*
X230353000Y-137969500D02*
X230353000Y-135850500D01*
X230353000Y-133770500D02*
X230353000Y-131651500D01*
X230312000Y-137960500D02*
X230312000Y-135850500D01*
X230312000Y-133770500D02*
X230312000Y-131660500D01*
X230272000Y-137951500D02*
X230272000Y-135850500D01*
X230272000Y-133770500D02*
X230272000Y-131669500D01*
X230232000Y-137941500D02*
X230232000Y-135850500D01*
X230232000Y-133770500D02*
X230232000Y-131679500D01*
X230192000Y-137931500D02*
X230192000Y-135850500D01*
X230192000Y-133770500D02*
X230192000Y-131689500D01*
X230152000Y-137920500D02*
X230152000Y-135850500D01*
X230152000Y-133770500D02*
X230152000Y-131700500D01*
X230112000Y-137908500D02*
X230112000Y-135850500D01*
X230112000Y-133770500D02*
X230112000Y-131712500D01*
X230072000Y-137896500D02*
X230072000Y-135850500D01*
X230072000Y-133770500D02*
X230072000Y-131724500D01*
X230032000Y-137884500D02*
X230032000Y-135850500D01*
X230032000Y-133770500D02*
X230032000Y-131736500D01*
X229992000Y-137871500D02*
X229992000Y-135850500D01*
X229992000Y-133770500D02*
X229992000Y-131749500D01*
X229952000Y-137857500D02*
X229952000Y-135850500D01*
X229952000Y-133770500D02*
X229952000Y-131763500D01*
X229912000Y-137843500D02*
X229912000Y-135850500D01*
X229912000Y-133770500D02*
X229912000Y-131777500D01*
X229872000Y-137828500D02*
X229872000Y-135850500D01*
X229872000Y-133770500D02*
X229872000Y-131792500D01*
X229832000Y-137812500D02*
X229832000Y-135850500D01*
X229832000Y-133770500D02*
X229832000Y-131808500D01*
X229792000Y-137796500D02*
X229792000Y-135850500D01*
X229792000Y-133770500D02*
X229792000Y-131824500D01*
X229752000Y-137780500D02*
X229752000Y-135850500D01*
X229752000Y-133770500D02*
X229752000Y-131840500D01*
X229712000Y-137762500D02*
X229712000Y-135850500D01*
X229712000Y-133770500D02*
X229712000Y-131858500D01*
X229672000Y-137744500D02*
X229672000Y-135850500D01*
X229672000Y-133770500D02*
X229672000Y-131876500D01*
X229632000Y-137726500D02*
X229632000Y-135850500D01*
X229632000Y-133770500D02*
X229632000Y-131894500D01*
X229592000Y-137706500D02*
X229592000Y-135850500D01*
X229592000Y-133770500D02*
X229592000Y-131914500D01*
X229552000Y-137686500D02*
X229552000Y-135850500D01*
X229552000Y-133770500D02*
X229552000Y-131934500D01*
X229512000Y-137666500D02*
X229512000Y-135850500D01*
X229512000Y-133770500D02*
X229512000Y-131954500D01*
X229472000Y-137644500D02*
X229472000Y-135850500D01*
X229472000Y-133770500D02*
X229472000Y-131976500D01*
X229432000Y-137622500D02*
X229432000Y-135850500D01*
X229432000Y-133770500D02*
X229432000Y-131998500D01*
X229392000Y-137600500D02*
X229392000Y-135850500D01*
X229392000Y-133770500D02*
X229392000Y-132020500D01*
X229352000Y-137576500D02*
X229352000Y-135850500D01*
X229352000Y-133770500D02*
X229352000Y-132044500D01*
X229312000Y-137552500D02*
X229312000Y-135850500D01*
X229312000Y-133770500D02*
X229312000Y-132068500D01*
X229272000Y-137526500D02*
X229272000Y-135850500D01*
X229272000Y-133770500D02*
X229272000Y-132094500D01*
X229232000Y-137500500D02*
X229232000Y-135850500D01*
X229232000Y-133770500D02*
X229232000Y-132120500D01*
X229192000Y-137474500D02*
X229192000Y-135850500D01*
X229192000Y-133770500D02*
X229192000Y-132146500D01*
X229152000Y-137446500D02*
X229152000Y-135850500D01*
X229152000Y-133770500D02*
X229152000Y-132174500D01*
X229112000Y-137417500D02*
X229112000Y-135850500D01*
X229112000Y-133770500D02*
X229112000Y-132203500D01*
X229072000Y-137388500D02*
X229072000Y-135850500D01*
X229072000Y-133770500D02*
X229072000Y-132232500D01*
X229032000Y-137358500D02*
X229032000Y-135850500D01*
X229032000Y-133770500D02*
X229032000Y-132262500D01*
X228992000Y-137326500D02*
X228992000Y-135850500D01*
X228992000Y-133770500D02*
X228992000Y-132294500D01*
X228952000Y-137294500D02*
X228952000Y-135850500D01*
X228952000Y-133770500D02*
X228952000Y-132326500D01*
X228912000Y-137260500D02*
X228912000Y-135850500D01*
X228912000Y-133770500D02*
X228912000Y-132360500D01*
X228872000Y-137226500D02*
X228872000Y-135850500D01*
X228872000Y-133770500D02*
X228872000Y-132394500D01*
X228832000Y-137190500D02*
X228832000Y-135850500D01*
X228832000Y-133770500D02*
X228832000Y-132430500D01*
X228792000Y-137153500D02*
X228792000Y-135850500D01*
X228792000Y-133770500D02*
X228792000Y-132467500D01*
X228752000Y-137115500D02*
X228752000Y-135850500D01*
X228752000Y-133770500D02*
X228752000Y-132505500D01*
X228712000Y-137075500D02*
X228712000Y-132545500D01*
X228672000Y-137034500D02*
X228672000Y-132586500D01*
X228632000Y-136992500D02*
X228632000Y-132628500D01*
X228592000Y-136947500D02*
X228592000Y-132673500D01*
X228552000Y-136902500D02*
X228552000Y-132718500D01*
X228512000Y-136854500D02*
X228512000Y-132766500D01*
X228472000Y-136805500D02*
X228472000Y-132815500D01*
X228432000Y-136754500D02*
X228432000Y-132866500D01*
X228392000Y-136700500D02*
X228392000Y-132920500D01*
X228352000Y-136644500D02*
X228352000Y-132976500D01*
X228312000Y-136586500D02*
X228312000Y-133034500D01*
X228272000Y-136524500D02*
X228272000Y-133096500D01*
X228232000Y-136460500D02*
X228232000Y-133160500D01*
X228192000Y-136391500D02*
X228192000Y-133229500D01*
X228152000Y-136319500D02*
X228152000Y-133301500D01*
X228112000Y-136242500D02*
X228112000Y-133378500D01*
X228072000Y-136160500D02*
X228072000Y-133460500D01*
X228032000Y-136072500D02*
X228032000Y-133548500D01*
X227992000Y-135975500D02*
X227992000Y-133645500D01*
X227952000Y-135869500D02*
X227952000Y-133751500D01*
X227912000Y-135750500D02*
X227912000Y-133870500D01*
X227872000Y-135612500D02*
X227872000Y-134008500D01*
X227832000Y-135443500D02*
X227832000Y-134177500D01*
X227792000Y-135212500D02*
X227792000Y-134408500D01*
X234533241Y-136649500D02*
X233903241Y-136649500D01*
X234218241Y-136964500D02*
X234218241Y-136334500D01*
X228728500Y-61674500D02*
G75*
G02X229428500Y-62374500I0J-700000D01*
G01*
X229428500Y-62974500D02*
G75*
G02X228728500Y-63674500I-700000J0D01*
G01*
X227328500Y-63674500D02*
G75*
G02X226628500Y-62974500I0J700000D01*
G01*
X226628500Y-62374500D02*
G75*
G02X227328500Y-61674500I700000J0D01*
G01*
X226628500Y-62974500D02*
X226628500Y-62374500D01*
X228728500Y-63674500D02*
X227328500Y-63674500D01*
X229428500Y-62374500D02*
X229428500Y-62974500D01*
X227328500Y-61674500D02*
X228728500Y-61674500D01*
X212721200Y-114233200D02*
G75*
G02X212021200Y-113533200I0J700000D01*
G01*
X212021200Y-112933200D02*
G75*
G02X212721200Y-112233200I700000J0D01*
G01*
X214121200Y-112233200D02*
G75*
G02X214821200Y-112933200I0J-700000D01*
G01*
X214821200Y-113533200D02*
G75*
G02X214121200Y-114233200I-700000J0D01*
G01*
X214821200Y-112933200D02*
X214821200Y-113533200D01*
X212721200Y-112233200D02*
X214121200Y-112233200D01*
X212021200Y-113533200D02*
X212021200Y-112933200D01*
X214121200Y-114233200D02*
X212721200Y-114233200D01*
X214121200Y-117027200D02*
X212721200Y-117027200D01*
X212021200Y-116327200D02*
X212021200Y-115727200D01*
X212721200Y-115027200D02*
X214121200Y-115027200D01*
X214821200Y-115727200D02*
X214821200Y-116327200D01*
X214821200Y-116327200D02*
G75*
G02X214121200Y-117027200I-700000J0D01*
G01*
X214121200Y-115027200D02*
G75*
G02X214821200Y-115727200I0J-700000D01*
G01*
X212021200Y-115727200D02*
G75*
G02X212721200Y-115027200I700000J0D01*
G01*
X212721200Y-117027200D02*
G75*
G02X212021200Y-116327200I0J700000D01*
G01*
X204161700Y-59762700D02*
X204161700Y-57102700D01*
X199021700Y-59762700D02*
X204161700Y-59762700D01*
X199021700Y-57102700D02*
X204161700Y-57102700D01*
X199021700Y-59762700D02*
X199021700Y-57102700D01*
X197751700Y-59762700D02*
X196421700Y-59762700D01*
X196421700Y-59762700D02*
X196421700Y-58432700D01*
X209490000Y-59750000D02*
X209490000Y-58420000D01*
X210820000Y-59750000D02*
X209490000Y-59750000D01*
X212090000Y-59750000D02*
X212090000Y-57090000D01*
X212090000Y-57090000D02*
X217230000Y-57090000D01*
X212090000Y-59750000D02*
X217230000Y-59750000D01*
X217230000Y-59750000D02*
X217230000Y-57090000D01*
X231200000Y-59750000D02*
X231200000Y-57090000D01*
X226060000Y-59750000D02*
X231200000Y-59750000D01*
X226060000Y-57090000D02*
X231200000Y-57090000D01*
X226060000Y-59750000D02*
X226060000Y-57090000D01*
X224790000Y-59750000D02*
X223460000Y-59750000D01*
X223460000Y-59750000D02*
X223460000Y-58420000D01*
X189460000Y-72164500D02*
X189460000Y-68424500D01*
X196700000Y-72164500D02*
X196700000Y-68424500D01*
X196700000Y-68424500D02*
X189460000Y-68424500D01*
X196700000Y-72164500D02*
X189460000Y-72164500D01*
X203470252Y-82625000D02*
X202947748Y-82625000D01*
X203470252Y-81205000D02*
X202947748Y-81205000D01*
X189373252Y-136837000D02*
X188850748Y-136837000D01*
X189373252Y-135417000D02*
X188850748Y-135417000D01*
X195458248Y-132836500D02*
X195980752Y-132836500D01*
X195458248Y-131416500D02*
X195980752Y-131416500D01*
X189355252Y-118987500D02*
X188832748Y-118987500D01*
X189355252Y-120407500D02*
X188832748Y-120407500D01*
X189355252Y-134822000D02*
X188832748Y-134822000D01*
X189355252Y-133402000D02*
X188832748Y-133402000D01*
X188841748Y-129338000D02*
X189364252Y-129338000D01*
X188841748Y-130758000D02*
X189364252Y-130758000D01*
X235511000Y-119323000D02*
X235511000Y-119453000D01*
X235511000Y-119453000D02*
X230071000Y-119453000D01*
X230071000Y-119453000D02*
X230071000Y-119323000D01*
X235511000Y-116643000D02*
X235511000Y-116513000D01*
X235511000Y-116513000D02*
X230071000Y-116513000D01*
X230071000Y-116513000D02*
X230071000Y-116643000D01*
X234611000Y-119453000D02*
X234611000Y-116513000D01*
X234491000Y-119453000D02*
X234491000Y-116513000D01*
X234731000Y-119453000D02*
X234731000Y-116513000D01*
X194915000Y-67159000D02*
X205115000Y-67159000D01*
X194915000Y-64159000D02*
X194915000Y-67159000D01*
X205115000Y-64159000D02*
X194915000Y-64159000D01*
X203461252Y-80085000D02*
X202938748Y-80085000D01*
X203461252Y-78665000D02*
X202938748Y-78665000D01*
X210260000Y-90431252D02*
X210260000Y-89908748D01*
X208840000Y-90431252D02*
X208840000Y-89908748D01*
X195458248Y-133448500D02*
X195980752Y-133448500D01*
X195458248Y-134868500D02*
X195980752Y-134868500D01*
X195458248Y-135480500D02*
X195980752Y-135480500D01*
X195458248Y-136900500D02*
X195980752Y-136900500D01*
X195980752Y-137512500D02*
X195458248Y-137512500D01*
X195980752Y-138932500D02*
X195458248Y-138932500D01*
X195980752Y-130804500D02*
X195458248Y-130804500D01*
X195980752Y-129384500D02*
X195458248Y-129384500D01*
X189355252Y-131370000D02*
X188832748Y-131370000D01*
X189355252Y-132790000D02*
X188832748Y-132790000D01*
X188832748Y-123178500D02*
X189355252Y-123178500D01*
X188832748Y-124598500D02*
X189355252Y-124598500D01*
X189373252Y-125210500D02*
X188850748Y-125210500D01*
X189373252Y-126630500D02*
X188850748Y-126630500D01*
X188832748Y-128662500D02*
X189355252Y-128662500D01*
X188832748Y-127242500D02*
X189355252Y-127242500D01*
X236553752Y-124979500D02*
X236031248Y-124979500D01*
X236553752Y-123559500D02*
X236031248Y-123559500D01*
D10*
X191884371Y-118149619D02*
X191789133Y-118102000D01*
X191693895Y-118006761D01*
X191551038Y-117863904D01*
X191455800Y-117816285D01*
X191360561Y-117816285D01*
X191408180Y-118054380D02*
X191312942Y-118006761D01*
X191217704Y-117911523D01*
X191170085Y-117721047D01*
X191170085Y-117387714D01*
X191217704Y-117197238D01*
X191312942Y-117102000D01*
X191408180Y-117054380D01*
X191598657Y-117054380D01*
X191693895Y-117102000D01*
X191789133Y-117197238D01*
X191836752Y-117387714D01*
X191836752Y-117721047D01*
X191789133Y-117911523D01*
X191693895Y-118006761D01*
X191598657Y-118054380D01*
X191408180Y-118054380D01*
X192217704Y-117149619D02*
X192265323Y-117102000D01*
X192360561Y-117054380D01*
X192598657Y-117054380D01*
X192693895Y-117102000D01*
X192741514Y-117149619D01*
X192789133Y-117244857D01*
X192789133Y-117340095D01*
X192741514Y-117482952D01*
X192170085Y-118054380D01*
X192789133Y-118054380D01*
X193408180Y-117054380D02*
X193503419Y-117054380D01*
X193598657Y-117102000D01*
X193646276Y-117149619D01*
X193693895Y-117244857D01*
X193741514Y-117435333D01*
X193741514Y-117673428D01*
X193693895Y-117863904D01*
X193646276Y-117959142D01*
X193598657Y-118006761D01*
X193503419Y-118054380D01*
X193408180Y-118054380D01*
X193312942Y-118006761D01*
X193265323Y-117959142D01*
X193217704Y-117863904D01*
X193170085Y-117673428D01*
X193170085Y-117435333D01*
X193217704Y-117244857D01*
X193265323Y-117149619D01*
X193312942Y-117102000D01*
X193408180Y-117054380D01*
X227215771Y-124702819D02*
X227120533Y-124655200D01*
X227025295Y-124559961D01*
X226882438Y-124417104D01*
X226787200Y-124369485D01*
X226691961Y-124369485D01*
X226739580Y-124607580D02*
X226644342Y-124559961D01*
X226549104Y-124464723D01*
X226501485Y-124274247D01*
X226501485Y-123940914D01*
X226549104Y-123750438D01*
X226644342Y-123655200D01*
X226739580Y-123607580D01*
X226930057Y-123607580D01*
X227025295Y-123655200D01*
X227120533Y-123750438D01*
X227168152Y-123940914D01*
X227168152Y-124274247D01*
X227120533Y-124464723D01*
X227025295Y-124559961D01*
X226930057Y-124607580D01*
X226739580Y-124607580D01*
X227549104Y-123702819D02*
X227596723Y-123655200D01*
X227691961Y-123607580D01*
X227930057Y-123607580D01*
X228025295Y-123655200D01*
X228072914Y-123702819D01*
X228120533Y-123798057D01*
X228120533Y-123893295D01*
X228072914Y-124036152D01*
X227501485Y-124607580D01*
X228120533Y-124607580D01*
X228501485Y-123702819D02*
X228549104Y-123655200D01*
X228644342Y-123607580D01*
X228882438Y-123607580D01*
X228977676Y-123655200D01*
X229025295Y-123702819D01*
X229072914Y-123798057D01*
X229072914Y-123893295D01*
X229025295Y-124036152D01*
X228453866Y-124607580D01*
X229072914Y-124607580D01*
X195719771Y-124169419D02*
X195624533Y-124121800D01*
X195529295Y-124026561D01*
X195386438Y-123883704D01*
X195291200Y-123836085D01*
X195195961Y-123836085D01*
X195243580Y-124074180D02*
X195148342Y-124026561D01*
X195053104Y-123931323D01*
X195005485Y-123740847D01*
X195005485Y-123407514D01*
X195053104Y-123217038D01*
X195148342Y-123121800D01*
X195243580Y-123074180D01*
X195434057Y-123074180D01*
X195529295Y-123121800D01*
X195624533Y-123217038D01*
X195672152Y-123407514D01*
X195672152Y-123740847D01*
X195624533Y-123931323D01*
X195529295Y-124026561D01*
X195434057Y-124074180D01*
X195243580Y-124074180D01*
X196053104Y-123169419D02*
X196100723Y-123121800D01*
X196195961Y-123074180D01*
X196434057Y-123074180D01*
X196529295Y-123121800D01*
X196576914Y-123169419D01*
X196624533Y-123264657D01*
X196624533Y-123359895D01*
X196576914Y-123502752D01*
X196005485Y-124074180D01*
X196624533Y-124074180D01*
X197576914Y-124074180D02*
X197005485Y-124074180D01*
X197291200Y-124074180D02*
X197291200Y-123074180D01*
X197195961Y-123217038D01*
X197100723Y-123312276D01*
X197005485Y-123359895D01*
X231374961Y-88228419D02*
X231279723Y-88180800D01*
X231184485Y-88085561D01*
X231041628Y-87942704D01*
X230946390Y-87895085D01*
X230851152Y-87895085D01*
X230898771Y-88133180D02*
X230803533Y-88085561D01*
X230708295Y-87990323D01*
X230660676Y-87799847D01*
X230660676Y-87466514D01*
X230708295Y-87276038D01*
X230803533Y-87180800D01*
X230898771Y-87133180D01*
X231089247Y-87133180D01*
X231184485Y-87180800D01*
X231279723Y-87276038D01*
X231327342Y-87466514D01*
X231327342Y-87799847D01*
X231279723Y-87990323D01*
X231184485Y-88085561D01*
X231089247Y-88133180D01*
X230898771Y-88133180D01*
X231708295Y-87228419D02*
X231755914Y-87180800D01*
X231851152Y-87133180D01*
X232089247Y-87133180D01*
X232184485Y-87180800D01*
X232232104Y-87228419D01*
X232279723Y-87323657D01*
X232279723Y-87418895D01*
X232232104Y-87561752D01*
X231660676Y-88133180D01*
X232279723Y-88133180D01*
X199282061Y-88457019D02*
X199186823Y-88409400D01*
X199091585Y-88314161D01*
X198948728Y-88171304D01*
X198853490Y-88123685D01*
X198758252Y-88123685D01*
X198805871Y-88361780D02*
X198710633Y-88314161D01*
X198615395Y-88218923D01*
X198567776Y-88028447D01*
X198567776Y-87695114D01*
X198615395Y-87504638D01*
X198710633Y-87409400D01*
X198805871Y-87361780D01*
X198996347Y-87361780D01*
X199091585Y-87409400D01*
X199186823Y-87504638D01*
X199234442Y-87695114D01*
X199234442Y-88028447D01*
X199186823Y-88218923D01*
X199091585Y-88314161D01*
X198996347Y-88361780D01*
X198805871Y-88361780D01*
X200186823Y-88361780D02*
X199615395Y-88361780D01*
X199901109Y-88361780D02*
X199901109Y-87361780D01*
X199805871Y-87504638D01*
X199710633Y-87599876D01*
X199615395Y-87647495D01*
X212598095Y-85177380D02*
X212598095Y-85986904D01*
X212645714Y-86082142D01*
X212693333Y-86129761D01*
X212788571Y-86177380D01*
X212979047Y-86177380D01*
X213074285Y-86129761D01*
X213121904Y-86082142D01*
X213169523Y-85986904D01*
X213169523Y-85177380D01*
X214169523Y-86177380D02*
X213598095Y-86177380D01*
X213883809Y-86177380D02*
X213883809Y-85177380D01*
X213788571Y-85320238D01*
X213693333Y-85415476D01*
X213598095Y-85463095D01*
X222262771Y-87999819D02*
X222167533Y-87952200D01*
X222072295Y-87856961D01*
X221929438Y-87714104D01*
X221834200Y-87666485D01*
X221738961Y-87666485D01*
X221786580Y-87904580D02*
X221691342Y-87856961D01*
X221596104Y-87761723D01*
X221548485Y-87571247D01*
X221548485Y-87237914D01*
X221596104Y-87047438D01*
X221691342Y-86952200D01*
X221786580Y-86904580D01*
X221977057Y-86904580D01*
X222072295Y-86952200D01*
X222167533Y-87047438D01*
X222215152Y-87237914D01*
X222215152Y-87571247D01*
X222167533Y-87761723D01*
X222072295Y-87856961D01*
X221977057Y-87904580D01*
X221786580Y-87904580D01*
X222596104Y-86999819D02*
X222643723Y-86952200D01*
X222738961Y-86904580D01*
X222977057Y-86904580D01*
X223072295Y-86952200D01*
X223119914Y-86999819D01*
X223167533Y-87095057D01*
X223167533Y-87190295D01*
X223119914Y-87333152D01*
X222548485Y-87904580D01*
X223167533Y-87904580D01*
X224024676Y-87237914D02*
X224024676Y-87904580D01*
X223786580Y-86856961D02*
X223548485Y-87571247D01*
X224167533Y-87571247D01*
X189496771Y-88660219D02*
X189401533Y-88612600D01*
X189306295Y-88517361D01*
X189163438Y-88374504D01*
X189068200Y-88326885D01*
X188972961Y-88326885D01*
X189020580Y-88564980D02*
X188925342Y-88517361D01*
X188830104Y-88422123D01*
X188782485Y-88231647D01*
X188782485Y-87898314D01*
X188830104Y-87707838D01*
X188925342Y-87612600D01*
X189020580Y-87564980D01*
X189211057Y-87564980D01*
X189306295Y-87612600D01*
X189401533Y-87707838D01*
X189449152Y-87898314D01*
X189449152Y-88231647D01*
X189401533Y-88422123D01*
X189306295Y-88517361D01*
X189211057Y-88564980D01*
X189020580Y-88564980D01*
X189830104Y-87660219D02*
X189877723Y-87612600D01*
X189972961Y-87564980D01*
X190211057Y-87564980D01*
X190306295Y-87612600D01*
X190353914Y-87660219D01*
X190401533Y-87755457D01*
X190401533Y-87850695D01*
X190353914Y-87993552D01*
X189782485Y-88564980D01*
X190401533Y-88564980D01*
X190734866Y-87564980D02*
X191353914Y-87564980D01*
X191020580Y-87945933D01*
X191163438Y-87945933D01*
X191258676Y-87993552D01*
X191306295Y-88041171D01*
X191353914Y-88136409D01*
X191353914Y-88374504D01*
X191306295Y-88469742D01*
X191258676Y-88517361D01*
X191163438Y-88564980D01*
X190877723Y-88564980D01*
X190782485Y-88517361D01*
X190734866Y-88469742D01*
D11*
X210877476Y-121735809D02*
X210991761Y-121773904D01*
X211182238Y-121773904D01*
X211258428Y-121735809D01*
X211296523Y-121697714D01*
X211334619Y-121621523D01*
X211334619Y-121545333D01*
X211296523Y-121469142D01*
X211258428Y-121431047D01*
X211182238Y-121392952D01*
X211029857Y-121354857D01*
X210953666Y-121316761D01*
X210915571Y-121278666D01*
X210877476Y-121202476D01*
X210877476Y-121126285D01*
X210915571Y-121050095D01*
X210953666Y-121012000D01*
X211029857Y-120973904D01*
X211220333Y-120973904D01*
X211334619Y-121012000D01*
X211601285Y-120973904D02*
X211791761Y-121773904D01*
X211944142Y-121202476D01*
X212096523Y-121773904D01*
X212287000Y-120973904D01*
X212401285Y-121850095D02*
X213010809Y-121850095D01*
X213087000Y-120973904D02*
X213544142Y-120973904D01*
X213315571Y-121773904D02*
X213315571Y-120973904D01*
X213810809Y-121773904D02*
X213810809Y-121240571D01*
X213810809Y-121392952D02*
X213848904Y-121316761D01*
X213887000Y-121278666D01*
X213963190Y-121240571D01*
X214039380Y-121240571D01*
X214648904Y-121240571D02*
X214648904Y-121773904D01*
X214306047Y-121240571D02*
X214306047Y-121659619D01*
X214344142Y-121735809D01*
X214420333Y-121773904D01*
X214534619Y-121773904D01*
X214610809Y-121735809D01*
X214648904Y-121697714D01*
X215296523Y-121354857D02*
X215410809Y-121392952D01*
X215448904Y-121431047D01*
X215487000Y-121507238D01*
X215487000Y-121621523D01*
X215448904Y-121697714D01*
X215410809Y-121735809D01*
X215334619Y-121773904D01*
X215029857Y-121773904D01*
X215029857Y-120973904D01*
X215296523Y-120973904D01*
X215372714Y-121012000D01*
X215410809Y-121050095D01*
X215448904Y-121126285D01*
X215448904Y-121202476D01*
X215410809Y-121278666D01*
X215372714Y-121316761D01*
X215296523Y-121354857D01*
X215029857Y-121354857D01*
X215753666Y-121240571D02*
X215944142Y-121773904D01*
X216134619Y-121240571D02*
X215944142Y-121773904D01*
X215867952Y-121964380D01*
X215829857Y-122002476D01*
X215753666Y-122040571D01*
D10*
X209732642Y-70111880D02*
X209399309Y-69635690D01*
X209161214Y-70111880D02*
X209161214Y-69111880D01*
X209542166Y-69111880D01*
X209637404Y-69159500D01*
X209685023Y-69207119D01*
X209732642Y-69302357D01*
X209732642Y-69445214D01*
X209685023Y-69540452D01*
X209637404Y-69588071D01*
X209542166Y-69635690D01*
X209161214Y-69635690D01*
X210685023Y-70111880D02*
X210113595Y-70111880D01*
X210399309Y-70111880D02*
X210399309Y-69111880D01*
X210304071Y-69254738D01*
X210208833Y-69349976D01*
X210113595Y-69397595D01*
X211065976Y-69207119D02*
X211113595Y-69159500D01*
X211208833Y-69111880D01*
X211446928Y-69111880D01*
X211542166Y-69159500D01*
X211589785Y-69207119D01*
X211637404Y-69302357D01*
X211637404Y-69397595D01*
X211589785Y-69540452D01*
X211018357Y-70111880D01*
X211637404Y-70111880D01*
X198969333Y-70715142D02*
X198921714Y-70762761D01*
X198778857Y-70810380D01*
X198683619Y-70810380D01*
X198540761Y-70762761D01*
X198445523Y-70667523D01*
X198397904Y-70572285D01*
X198350285Y-70381809D01*
X198350285Y-70238952D01*
X198397904Y-70048476D01*
X198445523Y-69953238D01*
X198540761Y-69858000D01*
X198683619Y-69810380D01*
X198778857Y-69810380D01*
X198921714Y-69858000D01*
X198969333Y-69905619D01*
X199302666Y-69810380D02*
X199969333Y-69810380D01*
X199540761Y-70810380D01*
X187317142Y-65063642D02*
X187269523Y-65111261D01*
X187126666Y-65158880D01*
X187031428Y-65158880D01*
X186888571Y-65111261D01*
X186793333Y-65016023D01*
X186745714Y-64920785D01*
X186698095Y-64730309D01*
X186698095Y-64587452D01*
X186745714Y-64396976D01*
X186793333Y-64301738D01*
X186888571Y-64206500D01*
X187031428Y-64158880D01*
X187126666Y-64158880D01*
X187269523Y-64206500D01*
X187317142Y-64254119D01*
X188269523Y-65158880D02*
X187698095Y-65158880D01*
X187983809Y-65158880D02*
X187983809Y-64158880D01*
X187888571Y-64301738D01*
X187793333Y-64396976D01*
X187698095Y-64444595D01*
X188602857Y-64158880D02*
X189269523Y-64158880D01*
X188840952Y-65158880D01*
X185094642Y-118181380D02*
X184761309Y-117705190D01*
X184523214Y-118181380D02*
X184523214Y-117181380D01*
X184904166Y-117181380D01*
X184999404Y-117229000D01*
X185047023Y-117276619D01*
X185094642Y-117371857D01*
X185094642Y-117514714D01*
X185047023Y-117609952D01*
X184999404Y-117657571D01*
X184904166Y-117705190D01*
X184523214Y-117705190D01*
X185475595Y-117276619D02*
X185523214Y-117229000D01*
X185618452Y-117181380D01*
X185856547Y-117181380D01*
X185951785Y-117229000D01*
X185999404Y-117276619D01*
X186047023Y-117371857D01*
X186047023Y-117467095D01*
X185999404Y-117609952D01*
X185427976Y-118181380D01*
X186047023Y-118181380D01*
X186523214Y-118181380D02*
X186713690Y-118181380D01*
X186808928Y-118133761D01*
X186856547Y-118086142D01*
X186951785Y-117943285D01*
X186999404Y-117752809D01*
X186999404Y-117371857D01*
X186951785Y-117276619D01*
X186904166Y-117229000D01*
X186808928Y-117181380D01*
X186618452Y-117181380D01*
X186523214Y-117229000D01*
X186475595Y-117276619D01*
X186427976Y-117371857D01*
X186427976Y-117609952D01*
X186475595Y-117705190D01*
X186523214Y-117752809D01*
X186618452Y-117800428D01*
X186808928Y-117800428D01*
X186904166Y-117752809D01*
X186951785Y-117705190D01*
X186999404Y-117609952D01*
X191190642Y-77319142D02*
X191143023Y-77366761D01*
X191000166Y-77414380D01*
X190904928Y-77414380D01*
X190762071Y-77366761D01*
X190666833Y-77271523D01*
X190619214Y-77176285D01*
X190571595Y-76985809D01*
X190571595Y-76842952D01*
X190619214Y-76652476D01*
X190666833Y-76557238D01*
X190762071Y-76462000D01*
X190904928Y-76414380D01*
X191000166Y-76414380D01*
X191143023Y-76462000D01*
X191190642Y-76509619D01*
X192143023Y-77414380D02*
X191571595Y-77414380D01*
X191857309Y-77414380D02*
X191857309Y-76414380D01*
X191762071Y-76557238D01*
X191666833Y-76652476D01*
X191571595Y-76700095D01*
X192714452Y-76842952D02*
X192619214Y-76795333D01*
X192571595Y-76747714D01*
X192523976Y-76652476D01*
X192523976Y-76604857D01*
X192571595Y-76509619D01*
X192619214Y-76462000D01*
X192714452Y-76414380D01*
X192904928Y-76414380D01*
X193000166Y-76462000D01*
X193047785Y-76509619D01*
X193095404Y-76604857D01*
X193095404Y-76652476D01*
X193047785Y-76747714D01*
X193000166Y-76795333D01*
X192904928Y-76842952D01*
X192714452Y-76842952D01*
X192619214Y-76890571D01*
X192571595Y-76938190D01*
X192523976Y-77033428D01*
X192523976Y-77223904D01*
X192571595Y-77319142D01*
X192619214Y-77366761D01*
X192714452Y-77414380D01*
X192904928Y-77414380D01*
X193000166Y-77366761D01*
X193047785Y-77319142D01*
X193095404Y-77223904D01*
X193095404Y-77033428D01*
X193047785Y-76938190D01*
X193000166Y-76890571D01*
X192904928Y-76842952D01*
X209605642Y-74398142D02*
X209558023Y-74445761D01*
X209415166Y-74493380D01*
X209319928Y-74493380D01*
X209177071Y-74445761D01*
X209081833Y-74350523D01*
X209034214Y-74255285D01*
X208986595Y-74064809D01*
X208986595Y-73921952D01*
X209034214Y-73731476D01*
X209081833Y-73636238D01*
X209177071Y-73541000D01*
X209319928Y-73493380D01*
X209415166Y-73493380D01*
X209558023Y-73541000D01*
X209605642Y-73588619D01*
X210558023Y-74493380D02*
X209986595Y-74493380D01*
X210272309Y-74493380D02*
X210272309Y-73493380D01*
X210177071Y-73636238D01*
X210081833Y-73731476D01*
X209986595Y-73779095D01*
X211415166Y-73493380D02*
X211224690Y-73493380D01*
X211129452Y-73541000D01*
X211081833Y-73588619D01*
X210986595Y-73731476D01*
X210938976Y-73921952D01*
X210938976Y-74302904D01*
X210986595Y-74398142D01*
X211034214Y-74445761D01*
X211129452Y-74493380D01*
X211319928Y-74493380D01*
X211415166Y-74445761D01*
X211462785Y-74398142D01*
X211510404Y-74302904D01*
X211510404Y-74064809D01*
X211462785Y-73969571D01*
X211415166Y-73921952D01*
X211319928Y-73874333D01*
X211129452Y-73874333D01*
X211034214Y-73921952D01*
X210986595Y-73969571D01*
X210938976Y-74064809D01*
X228147642Y-67222642D02*
X228100023Y-67270261D01*
X227957166Y-67317880D01*
X227861928Y-67317880D01*
X227719071Y-67270261D01*
X227623833Y-67175023D01*
X227576214Y-67079785D01*
X227528595Y-66889309D01*
X227528595Y-66746452D01*
X227576214Y-66555976D01*
X227623833Y-66460738D01*
X227719071Y-66365500D01*
X227861928Y-66317880D01*
X227957166Y-66317880D01*
X228100023Y-66365500D01*
X228147642Y-66413119D01*
X229100023Y-67317880D02*
X228528595Y-67317880D01*
X228814309Y-67317880D02*
X228814309Y-66317880D01*
X228719071Y-66460738D01*
X228623833Y-66555976D01*
X228528595Y-66603595D01*
X230004785Y-66317880D02*
X229528595Y-66317880D01*
X229480976Y-66794071D01*
X229528595Y-66746452D01*
X229623833Y-66698833D01*
X229861928Y-66698833D01*
X229957166Y-66746452D01*
X230004785Y-66794071D01*
X230052404Y-66889309D01*
X230052404Y-67127404D01*
X230004785Y-67222642D01*
X229957166Y-67270261D01*
X229861928Y-67317880D01*
X229623833Y-67317880D01*
X229528595Y-67270261D01*
X229480976Y-67222642D01*
X220146642Y-67222642D02*
X220099023Y-67270261D01*
X219956166Y-67317880D01*
X219860928Y-67317880D01*
X219718071Y-67270261D01*
X219622833Y-67175023D01*
X219575214Y-67079785D01*
X219527595Y-66889309D01*
X219527595Y-66746452D01*
X219575214Y-66555976D01*
X219622833Y-66460738D01*
X219718071Y-66365500D01*
X219860928Y-66317880D01*
X219956166Y-66317880D01*
X220099023Y-66365500D01*
X220146642Y-66413119D01*
X221099023Y-67317880D02*
X220527595Y-67317880D01*
X220813309Y-67317880D02*
X220813309Y-66317880D01*
X220718071Y-66460738D01*
X220622833Y-66555976D01*
X220527595Y-66603595D01*
X221956166Y-66651214D02*
X221956166Y-67317880D01*
X221718071Y-66270261D02*
X221479976Y-66984547D01*
X222099023Y-66984547D01*
X198683642Y-130373380D02*
X198350309Y-129897190D01*
X198112214Y-130373380D02*
X198112214Y-129373380D01*
X198493166Y-129373380D01*
X198588404Y-129421000D01*
X198636023Y-129468619D01*
X198683642Y-129563857D01*
X198683642Y-129706714D01*
X198636023Y-129801952D01*
X198588404Y-129849571D01*
X198493166Y-129897190D01*
X198112214Y-129897190D01*
X199064595Y-129468619D02*
X199112214Y-129421000D01*
X199207452Y-129373380D01*
X199445547Y-129373380D01*
X199540785Y-129421000D01*
X199588404Y-129468619D01*
X199636023Y-129563857D01*
X199636023Y-129659095D01*
X199588404Y-129801952D01*
X199016976Y-130373380D01*
X199636023Y-130373380D01*
X200540785Y-129373380D02*
X200064595Y-129373380D01*
X200016976Y-129849571D01*
X200064595Y-129801952D01*
X200159833Y-129754333D01*
X200397928Y-129754333D01*
X200493166Y-129801952D01*
X200540785Y-129849571D01*
X200588404Y-129944809D01*
X200588404Y-130182904D01*
X200540785Y-130278142D01*
X200493166Y-130325761D01*
X200397928Y-130373380D01*
X200159833Y-130373380D01*
X200064595Y-130325761D01*
X200016976Y-130278142D01*
X198721142Y-128582880D02*
X198387809Y-128106690D01*
X198149714Y-128582880D02*
X198149714Y-127582880D01*
X198530666Y-127582880D01*
X198625904Y-127630500D01*
X198673523Y-127678119D01*
X198721142Y-127773357D01*
X198721142Y-127916214D01*
X198673523Y-128011452D01*
X198625904Y-128059071D01*
X198530666Y-128106690D01*
X198149714Y-128106690D01*
X199102095Y-127678119D02*
X199149714Y-127630500D01*
X199244952Y-127582880D01*
X199483047Y-127582880D01*
X199578285Y-127630500D01*
X199625904Y-127678119D01*
X199673523Y-127773357D01*
X199673523Y-127868595D01*
X199625904Y-128011452D01*
X199054476Y-128582880D01*
X199673523Y-128582880D01*
X200530666Y-127582880D02*
X200340190Y-127582880D01*
X200244952Y-127630500D01*
X200197333Y-127678119D01*
X200102095Y-127820976D01*
X200054476Y-128011452D01*
X200054476Y-128392404D01*
X200102095Y-128487642D01*
X200149714Y-128535261D01*
X200244952Y-128582880D01*
X200435428Y-128582880D01*
X200530666Y-128535261D01*
X200578285Y-128487642D01*
X200625904Y-128392404D01*
X200625904Y-128154309D01*
X200578285Y-128059071D01*
X200530666Y-128011452D01*
X200435428Y-127963833D01*
X200244952Y-127963833D01*
X200149714Y-128011452D01*
X200102095Y-128059071D01*
X200054476Y-128154309D01*
X198556642Y-132341880D02*
X198223309Y-131865690D01*
X197985214Y-132341880D02*
X197985214Y-131341880D01*
X198366166Y-131341880D01*
X198461404Y-131389500D01*
X198509023Y-131437119D01*
X198556642Y-131532357D01*
X198556642Y-131675214D01*
X198509023Y-131770452D01*
X198461404Y-131818071D01*
X198366166Y-131865690D01*
X197985214Y-131865690D01*
X198937595Y-131437119D02*
X198985214Y-131389500D01*
X199080452Y-131341880D01*
X199318547Y-131341880D01*
X199413785Y-131389500D01*
X199461404Y-131437119D01*
X199509023Y-131532357D01*
X199509023Y-131627595D01*
X199461404Y-131770452D01*
X198889976Y-132341880D01*
X199509023Y-132341880D01*
X199842357Y-131341880D02*
X200509023Y-131341880D01*
X200080452Y-132341880D01*
X198620142Y-126150642D02*
X198572523Y-126198261D01*
X198429666Y-126245880D01*
X198334428Y-126245880D01*
X198191571Y-126198261D01*
X198096333Y-126103023D01*
X198048714Y-126007785D01*
X198001095Y-125817309D01*
X198001095Y-125674452D01*
X198048714Y-125483976D01*
X198096333Y-125388738D01*
X198191571Y-125293500D01*
X198334428Y-125245880D01*
X198429666Y-125245880D01*
X198572523Y-125293500D01*
X198620142Y-125341119D01*
X199001095Y-125341119D02*
X199048714Y-125293500D01*
X199143952Y-125245880D01*
X199382047Y-125245880D01*
X199477285Y-125293500D01*
X199524904Y-125341119D01*
X199572523Y-125436357D01*
X199572523Y-125531595D01*
X199524904Y-125674452D01*
X198953476Y-126245880D01*
X199572523Y-126245880D01*
X199953476Y-125341119D02*
X200001095Y-125293500D01*
X200096333Y-125245880D01*
X200334428Y-125245880D01*
X200429666Y-125293500D01*
X200477285Y-125341119D01*
X200524904Y-125436357D01*
X200524904Y-125531595D01*
X200477285Y-125674452D01*
X199905857Y-126245880D01*
X200524904Y-126245880D01*
X198175714Y-117990880D02*
X198175714Y-116990880D01*
X198413809Y-116990880D01*
X198556666Y-117038500D01*
X198651904Y-117133738D01*
X198699523Y-117228976D01*
X198747142Y-117419452D01*
X198747142Y-117562309D01*
X198699523Y-117752785D01*
X198651904Y-117848023D01*
X198556666Y-117943261D01*
X198413809Y-117990880D01*
X198175714Y-117990880D01*
X199128095Y-117086119D02*
X199175714Y-117038500D01*
X199270952Y-116990880D01*
X199509047Y-116990880D01*
X199604285Y-117038500D01*
X199651904Y-117086119D01*
X199699523Y-117181357D01*
X199699523Y-117276595D01*
X199651904Y-117419452D01*
X199080476Y-117990880D01*
X199699523Y-117990880D01*
X200080476Y-117086119D02*
X200128095Y-117038500D01*
X200223333Y-116990880D01*
X200461428Y-116990880D01*
X200556666Y-117038500D01*
X200604285Y-117086119D01*
X200651904Y-117181357D01*
X200651904Y-117276595D01*
X200604285Y-117419452D01*
X200032857Y-117990880D01*
X200651904Y-117990880D01*
X198747142Y-124086880D02*
X198413809Y-123610690D01*
X198175714Y-124086880D02*
X198175714Y-123086880D01*
X198556666Y-123086880D01*
X198651904Y-123134500D01*
X198699523Y-123182119D01*
X198747142Y-123277357D01*
X198747142Y-123420214D01*
X198699523Y-123515452D01*
X198651904Y-123563071D01*
X198556666Y-123610690D01*
X198175714Y-123610690D01*
X199080476Y-123086880D02*
X199699523Y-123086880D01*
X199366190Y-123467833D01*
X199509047Y-123467833D01*
X199604285Y-123515452D01*
X199651904Y-123563071D01*
X199699523Y-123658309D01*
X199699523Y-123896404D01*
X199651904Y-123991642D01*
X199604285Y-124039261D01*
X199509047Y-124086880D01*
X199223333Y-124086880D01*
X199128095Y-124039261D01*
X199080476Y-123991642D01*
X200318571Y-123086880D02*
X200413809Y-123086880D01*
X200509047Y-123134500D01*
X200556666Y-123182119D01*
X200604285Y-123277357D01*
X200651904Y-123467833D01*
X200651904Y-123705928D01*
X200604285Y-123896404D01*
X200556666Y-123991642D01*
X200509047Y-124039261D01*
X200413809Y-124086880D01*
X200318571Y-124086880D01*
X200223333Y-124039261D01*
X200175714Y-123991642D01*
X200128095Y-123896404D01*
X200080476Y-123705928D01*
X200080476Y-123467833D01*
X200128095Y-123277357D01*
X200175714Y-123182119D01*
X200223333Y-123134500D01*
X200318571Y-123086880D01*
X198747142Y-120086380D02*
X198413809Y-119610190D01*
X198175714Y-120086380D02*
X198175714Y-119086380D01*
X198556666Y-119086380D01*
X198651904Y-119134000D01*
X198699523Y-119181619D01*
X198747142Y-119276857D01*
X198747142Y-119419714D01*
X198699523Y-119514952D01*
X198651904Y-119562571D01*
X198556666Y-119610190D01*
X198175714Y-119610190D01*
X199080476Y-119086380D02*
X199699523Y-119086380D01*
X199366190Y-119467333D01*
X199509047Y-119467333D01*
X199604285Y-119514952D01*
X199651904Y-119562571D01*
X199699523Y-119657809D01*
X199699523Y-119895904D01*
X199651904Y-119991142D01*
X199604285Y-120038761D01*
X199509047Y-120086380D01*
X199223333Y-120086380D01*
X199128095Y-120038761D01*
X199080476Y-119991142D01*
X200556666Y-119086380D02*
X200366190Y-119086380D01*
X200270952Y-119134000D01*
X200223333Y-119181619D01*
X200128095Y-119324476D01*
X200080476Y-119514952D01*
X200080476Y-119895904D01*
X200128095Y-119991142D01*
X200175714Y-120038761D01*
X200270952Y-120086380D01*
X200461428Y-120086380D01*
X200556666Y-120038761D01*
X200604285Y-119991142D01*
X200651904Y-119895904D01*
X200651904Y-119657809D01*
X200604285Y-119562571D01*
X200556666Y-119514952D01*
X200461428Y-119467333D01*
X200270952Y-119467333D01*
X200175714Y-119514952D01*
X200128095Y-119562571D01*
X200080476Y-119657809D01*
X198756142Y-122086642D02*
X198708523Y-122134261D01*
X198565666Y-122181880D01*
X198470428Y-122181880D01*
X198327571Y-122134261D01*
X198232333Y-122039023D01*
X198184714Y-121943785D01*
X198137095Y-121753309D01*
X198137095Y-121610452D01*
X198184714Y-121419976D01*
X198232333Y-121324738D01*
X198327571Y-121229500D01*
X198470428Y-121181880D01*
X198565666Y-121181880D01*
X198708523Y-121229500D01*
X198756142Y-121277119D01*
X199137095Y-121277119D02*
X199184714Y-121229500D01*
X199279952Y-121181880D01*
X199518047Y-121181880D01*
X199613285Y-121229500D01*
X199660904Y-121277119D01*
X199708523Y-121372357D01*
X199708523Y-121467595D01*
X199660904Y-121610452D01*
X199089476Y-122181880D01*
X199708523Y-122181880D01*
X200613285Y-121181880D02*
X200137095Y-121181880D01*
X200089476Y-121658071D01*
X200137095Y-121610452D01*
X200232333Y-121562833D01*
X200470428Y-121562833D01*
X200565666Y-121610452D01*
X200613285Y-121658071D01*
X200660904Y-121753309D01*
X200660904Y-121991404D01*
X200613285Y-122086642D01*
X200565666Y-122134261D01*
X200470428Y-122181880D01*
X200232333Y-122181880D01*
X200137095Y-122134261D01*
X200089476Y-122086642D01*
X232220642Y-127134880D02*
X231887309Y-126658690D01*
X231649214Y-127134880D02*
X231649214Y-126134880D01*
X232030166Y-126134880D01*
X232125404Y-126182500D01*
X232173023Y-126230119D01*
X232220642Y-126325357D01*
X232220642Y-126468214D01*
X232173023Y-126563452D01*
X232125404Y-126611071D01*
X232030166Y-126658690D01*
X231649214Y-126658690D01*
X233173023Y-127134880D02*
X232601595Y-127134880D01*
X232887309Y-127134880D02*
X232887309Y-126134880D01*
X232792071Y-126277738D01*
X232696833Y-126372976D01*
X232601595Y-126420595D01*
X233744452Y-126563452D02*
X233649214Y-126515833D01*
X233601595Y-126468214D01*
X233553976Y-126372976D01*
X233553976Y-126325357D01*
X233601595Y-126230119D01*
X233649214Y-126182500D01*
X233744452Y-126134880D01*
X233934928Y-126134880D01*
X234030166Y-126182500D01*
X234077785Y-126230119D01*
X234125404Y-126325357D01*
X234125404Y-126372976D01*
X234077785Y-126468214D01*
X234030166Y-126515833D01*
X233934928Y-126563452D01*
X233744452Y-126563452D01*
X233649214Y-126611071D01*
X233601595Y-126658690D01*
X233553976Y-126753928D01*
X233553976Y-126944404D01*
X233601595Y-127039642D01*
X233649214Y-127087261D01*
X233744452Y-127134880D01*
X233934928Y-127134880D01*
X234030166Y-127087261D01*
X234077785Y-127039642D01*
X234125404Y-126944404D01*
X234125404Y-126753928D01*
X234077785Y-126658690D01*
X234030166Y-126611071D01*
X233934928Y-126563452D01*
X220273642Y-72112142D02*
X220226023Y-72159761D01*
X220083166Y-72207380D01*
X219987928Y-72207380D01*
X219845071Y-72159761D01*
X219749833Y-72064523D01*
X219702214Y-71969285D01*
X219654595Y-71778809D01*
X219654595Y-71635952D01*
X219702214Y-71445476D01*
X219749833Y-71350238D01*
X219845071Y-71255000D01*
X219987928Y-71207380D01*
X220083166Y-71207380D01*
X220226023Y-71255000D01*
X220273642Y-71302619D01*
X221226023Y-72207380D02*
X220654595Y-72207380D01*
X220940309Y-72207380D02*
X220940309Y-71207380D01*
X220845071Y-71350238D01*
X220749833Y-71445476D01*
X220654595Y-71493095D01*
X222178404Y-72207380D02*
X221606976Y-72207380D01*
X221892690Y-72207380D02*
X221892690Y-71207380D01*
X221797452Y-71350238D01*
X221702214Y-71445476D01*
X221606976Y-71493095D01*
X212780642Y-62523642D02*
X212733023Y-62571261D01*
X212590166Y-62618880D01*
X212494928Y-62618880D01*
X212352071Y-62571261D01*
X212256833Y-62476023D01*
X212209214Y-62380785D01*
X212161595Y-62190309D01*
X212161595Y-62047452D01*
X212209214Y-61856976D01*
X212256833Y-61761738D01*
X212352071Y-61666500D01*
X212494928Y-61618880D01*
X212590166Y-61618880D01*
X212733023Y-61666500D01*
X212780642Y-61714119D01*
X213733023Y-62618880D02*
X213161595Y-62618880D01*
X213447309Y-62618880D02*
X213447309Y-61618880D01*
X213352071Y-61761738D01*
X213256833Y-61856976D01*
X213161595Y-61904595D01*
X214352071Y-61618880D02*
X214447309Y-61618880D01*
X214542547Y-61666500D01*
X214590166Y-61714119D01*
X214637785Y-61809357D01*
X214685404Y-61999833D01*
X214685404Y-62237928D01*
X214637785Y-62428404D01*
X214590166Y-62523642D01*
X214542547Y-62571261D01*
X214447309Y-62618880D01*
X214352071Y-62618880D01*
X214256833Y-62571261D01*
X214209214Y-62523642D01*
X214161595Y-62428404D01*
X214113976Y-62237928D01*
X214113976Y-61999833D01*
X214161595Y-61809357D01*
X214209214Y-61714119D01*
X214256833Y-61666500D01*
X214352071Y-61618880D01*
X200493404Y-62618880D02*
X200493404Y-61618880D01*
X200731500Y-61618880D01*
X200874357Y-61666500D01*
X200969595Y-61761738D01*
X201017214Y-61856976D01*
X201064833Y-62047452D01*
X201064833Y-62190309D01*
X201017214Y-62380785D01*
X200969595Y-62476023D01*
X200874357Y-62571261D01*
X200731500Y-62618880D01*
X200493404Y-62618880D01*
X201445785Y-61714119D02*
X201493404Y-61666500D01*
X201588642Y-61618880D01*
X201826738Y-61618880D01*
X201921976Y-61666500D01*
X201969595Y-61714119D01*
X202017214Y-61809357D01*
X202017214Y-61904595D01*
X201969595Y-62047452D01*
X201398166Y-62618880D01*
X202017214Y-62618880D01*
X220210142Y-69667380D02*
X219876809Y-69191190D01*
X219638714Y-69667380D02*
X219638714Y-68667380D01*
X220019666Y-68667380D01*
X220114904Y-68715000D01*
X220162523Y-68762619D01*
X220210142Y-68857857D01*
X220210142Y-69000714D01*
X220162523Y-69095952D01*
X220114904Y-69143571D01*
X220019666Y-69191190D01*
X219638714Y-69191190D01*
X221162523Y-69667380D02*
X220591095Y-69667380D01*
X220876809Y-69667380D02*
X220876809Y-68667380D01*
X220781571Y-68810238D01*
X220686333Y-68905476D01*
X220591095Y-68953095D01*
X221638714Y-69667380D02*
X221829190Y-69667380D01*
X221924428Y-69619761D01*
X221972047Y-69572142D01*
X222067285Y-69429285D01*
X222114904Y-69238809D01*
X222114904Y-68857857D01*
X222067285Y-68762619D01*
X222019666Y-68715000D01*
X221924428Y-68667380D01*
X221733952Y-68667380D01*
X221638714Y-68715000D01*
X221591095Y-68762619D01*
X221543476Y-68857857D01*
X221543476Y-69095952D01*
X221591095Y-69191190D01*
X221638714Y-69238809D01*
X221733952Y-69286428D01*
X221924428Y-69286428D01*
X222019666Y-69238809D01*
X222067285Y-69191190D01*
X222114904Y-69095952D01*
X228084142Y-69667380D02*
X227750809Y-69191190D01*
X227512714Y-69667380D02*
X227512714Y-68667380D01*
X227893666Y-68667380D01*
X227988904Y-68715000D01*
X228036523Y-68762619D01*
X228084142Y-68857857D01*
X228084142Y-69000714D01*
X228036523Y-69095952D01*
X227988904Y-69143571D01*
X227893666Y-69191190D01*
X227512714Y-69191190D01*
X229036523Y-69667380D02*
X228465095Y-69667380D01*
X228750809Y-69667380D02*
X228750809Y-68667380D01*
X228655571Y-68810238D01*
X228560333Y-68905476D01*
X228465095Y-68953095D01*
X229369857Y-68667380D02*
X230036523Y-68667380D01*
X229607952Y-69667380D01*
X228147642Y-79827380D02*
X227814309Y-79351190D01*
X227576214Y-79827380D02*
X227576214Y-78827380D01*
X227957166Y-78827380D01*
X228052404Y-78875000D01*
X228100023Y-78922619D01*
X228147642Y-79017857D01*
X228147642Y-79160714D01*
X228100023Y-79255952D01*
X228052404Y-79303571D01*
X227957166Y-79351190D01*
X227576214Y-79351190D01*
X229100023Y-79827380D02*
X228528595Y-79827380D01*
X228814309Y-79827380D02*
X228814309Y-78827380D01*
X228719071Y-78970238D01*
X228623833Y-79065476D01*
X228528595Y-79113095D01*
X229957166Y-78827380D02*
X229766690Y-78827380D01*
X229671452Y-78875000D01*
X229623833Y-78922619D01*
X229528595Y-79065476D01*
X229480976Y-79255952D01*
X229480976Y-79636904D01*
X229528595Y-79732142D01*
X229576214Y-79779761D01*
X229671452Y-79827380D01*
X229861928Y-79827380D01*
X229957166Y-79779761D01*
X230004785Y-79732142D01*
X230052404Y-79636904D01*
X230052404Y-79398809D01*
X230004785Y-79303571D01*
X229957166Y-79255952D01*
X229861928Y-79208333D01*
X229671452Y-79208333D01*
X229576214Y-79255952D01*
X229528595Y-79303571D01*
X229480976Y-79398809D01*
X228147642Y-77287380D02*
X227814309Y-76811190D01*
X227576214Y-77287380D02*
X227576214Y-76287380D01*
X227957166Y-76287380D01*
X228052404Y-76335000D01*
X228100023Y-76382619D01*
X228147642Y-76477857D01*
X228147642Y-76620714D01*
X228100023Y-76715952D01*
X228052404Y-76763571D01*
X227957166Y-76811190D01*
X227576214Y-76811190D01*
X229100023Y-77287380D02*
X228528595Y-77287380D01*
X228814309Y-77287380D02*
X228814309Y-76287380D01*
X228719071Y-76430238D01*
X228623833Y-76525476D01*
X228528595Y-76573095D01*
X230004785Y-76287380D02*
X229528595Y-76287380D01*
X229480976Y-76763571D01*
X229528595Y-76715952D01*
X229623833Y-76668333D01*
X229861928Y-76668333D01*
X229957166Y-76715952D01*
X230004785Y-76763571D01*
X230052404Y-76858809D01*
X230052404Y-77096904D01*
X230004785Y-77192142D01*
X229957166Y-77239761D01*
X229861928Y-77287380D01*
X229623833Y-77287380D01*
X229528595Y-77239761D01*
X229480976Y-77192142D01*
X228211142Y-74747380D02*
X227877809Y-74271190D01*
X227639714Y-74747380D02*
X227639714Y-73747380D01*
X228020666Y-73747380D01*
X228115904Y-73795000D01*
X228163523Y-73842619D01*
X228211142Y-73937857D01*
X228211142Y-74080714D01*
X228163523Y-74175952D01*
X228115904Y-74223571D01*
X228020666Y-74271190D01*
X227639714Y-74271190D01*
X229163523Y-74747380D02*
X228592095Y-74747380D01*
X228877809Y-74747380D02*
X228877809Y-73747380D01*
X228782571Y-73890238D01*
X228687333Y-73985476D01*
X228592095Y-74033095D01*
X230020666Y-74080714D02*
X230020666Y-74747380D01*
X229782571Y-73699761D02*
X229544476Y-74414047D01*
X230163523Y-74414047D01*
X220210142Y-74747380D02*
X219876809Y-74271190D01*
X219638714Y-74747380D02*
X219638714Y-73747380D01*
X220019666Y-73747380D01*
X220114904Y-73795000D01*
X220162523Y-73842619D01*
X220210142Y-73937857D01*
X220210142Y-74080714D01*
X220162523Y-74175952D01*
X220114904Y-74223571D01*
X220019666Y-74271190D01*
X219638714Y-74271190D01*
X221162523Y-74747380D02*
X220591095Y-74747380D01*
X220876809Y-74747380D02*
X220876809Y-73747380D01*
X220781571Y-73890238D01*
X220686333Y-73985476D01*
X220591095Y-74033095D01*
X221495857Y-73747380D02*
X222114904Y-73747380D01*
X221781571Y-74128333D01*
X221924428Y-74128333D01*
X222019666Y-74175952D01*
X222067285Y-74223571D01*
X222114904Y-74318809D01*
X222114904Y-74556904D01*
X222067285Y-74652142D01*
X222019666Y-74699761D01*
X221924428Y-74747380D01*
X221638714Y-74747380D01*
X221543476Y-74699761D01*
X221495857Y-74652142D01*
X220146642Y-77287380D02*
X219813309Y-76811190D01*
X219575214Y-77287380D02*
X219575214Y-76287380D01*
X219956166Y-76287380D01*
X220051404Y-76335000D01*
X220099023Y-76382619D01*
X220146642Y-76477857D01*
X220146642Y-76620714D01*
X220099023Y-76715952D01*
X220051404Y-76763571D01*
X219956166Y-76811190D01*
X219575214Y-76811190D01*
X221099023Y-77287380D02*
X220527595Y-77287380D01*
X220813309Y-77287380D02*
X220813309Y-76287380D01*
X220718071Y-76430238D01*
X220622833Y-76525476D01*
X220527595Y-76573095D01*
X222051404Y-77287380D02*
X221479976Y-77287380D01*
X221765690Y-77287380D02*
X221765690Y-76287380D01*
X221670452Y-76430238D01*
X221575214Y-76525476D01*
X221479976Y-76573095D01*
X220083142Y-79827380D02*
X219749809Y-79351190D01*
X219511714Y-79827380D02*
X219511714Y-78827380D01*
X219892666Y-78827380D01*
X219987904Y-78875000D01*
X220035523Y-78922619D01*
X220083142Y-79017857D01*
X220083142Y-79160714D01*
X220035523Y-79255952D01*
X219987904Y-79303571D01*
X219892666Y-79351190D01*
X219511714Y-79351190D01*
X221035523Y-79827380D02*
X220464095Y-79827380D01*
X220749809Y-79827380D02*
X220749809Y-78827380D01*
X220654571Y-78970238D01*
X220559333Y-79065476D01*
X220464095Y-79113095D01*
X221654571Y-78827380D02*
X221749809Y-78827380D01*
X221845047Y-78875000D01*
X221892666Y-78922619D01*
X221940285Y-79017857D01*
X221987904Y-79208333D01*
X221987904Y-79446428D01*
X221940285Y-79636904D01*
X221892666Y-79732142D01*
X221845047Y-79779761D01*
X221749809Y-79827380D01*
X221654571Y-79827380D01*
X221559333Y-79779761D01*
X221511714Y-79732142D01*
X221464095Y-79636904D01*
X221416476Y-79446428D01*
X221416476Y-79208333D01*
X221464095Y-79017857D01*
X221511714Y-78922619D01*
X221559333Y-78875000D01*
X221654571Y-78827380D01*
X221003833Y-82367380D02*
X220670500Y-81891190D01*
X220432404Y-82367380D02*
X220432404Y-81367380D01*
X220813357Y-81367380D01*
X220908595Y-81415000D01*
X220956214Y-81462619D01*
X221003833Y-81557857D01*
X221003833Y-81700714D01*
X220956214Y-81795952D01*
X220908595Y-81843571D01*
X220813357Y-81891190D01*
X220432404Y-81891190D01*
X221480023Y-82367380D02*
X221670500Y-82367380D01*
X221765738Y-82319761D01*
X221813357Y-82272142D01*
X221908595Y-82129285D01*
X221956214Y-81938809D01*
X221956214Y-81557857D01*
X221908595Y-81462619D01*
X221860976Y-81415000D01*
X221765738Y-81367380D01*
X221575261Y-81367380D01*
X221480023Y-81415000D01*
X221432404Y-81462619D01*
X221384785Y-81557857D01*
X221384785Y-81795952D01*
X221432404Y-81891190D01*
X221480023Y-81938809D01*
X221575261Y-81986428D01*
X221765738Y-81986428D01*
X221860976Y-81938809D01*
X221908595Y-81891190D01*
X221956214Y-81795952D01*
X188110833Y-67190880D02*
X187777500Y-66714690D01*
X187539404Y-67190880D02*
X187539404Y-66190880D01*
X187920357Y-66190880D01*
X188015595Y-66238500D01*
X188063214Y-66286119D01*
X188110833Y-66381357D01*
X188110833Y-66524214D01*
X188063214Y-66619452D01*
X188015595Y-66667071D01*
X187920357Y-66714690D01*
X187539404Y-66714690D01*
X188682261Y-66619452D02*
X188587023Y-66571833D01*
X188539404Y-66524214D01*
X188491785Y-66428976D01*
X188491785Y-66381357D01*
X188539404Y-66286119D01*
X188587023Y-66238500D01*
X188682261Y-66190880D01*
X188872738Y-66190880D01*
X188967976Y-66238500D01*
X189015595Y-66286119D01*
X189063214Y-66381357D01*
X189063214Y-66428976D01*
X189015595Y-66524214D01*
X188967976Y-66571833D01*
X188872738Y-66619452D01*
X188682261Y-66619452D01*
X188587023Y-66667071D01*
X188539404Y-66714690D01*
X188491785Y-66809928D01*
X188491785Y-67000404D01*
X188539404Y-67095642D01*
X188587023Y-67143261D01*
X188682261Y-67190880D01*
X188872738Y-67190880D01*
X188967976Y-67143261D01*
X189015595Y-67095642D01*
X189063214Y-67000404D01*
X189063214Y-66809928D01*
X189015595Y-66714690D01*
X188967976Y-66667071D01*
X188872738Y-66619452D01*
X188301333Y-62999880D02*
X187968000Y-62523690D01*
X187729904Y-62999880D02*
X187729904Y-61999880D01*
X188110857Y-61999880D01*
X188206095Y-62047500D01*
X188253714Y-62095119D01*
X188301333Y-62190357D01*
X188301333Y-62333214D01*
X188253714Y-62428452D01*
X188206095Y-62476071D01*
X188110857Y-62523690D01*
X187729904Y-62523690D01*
X188634666Y-61999880D02*
X189301333Y-61999880D01*
X188872761Y-62999880D01*
X192111333Y-74810880D02*
X191778000Y-74334690D01*
X191539904Y-74810880D02*
X191539904Y-73810880D01*
X191920857Y-73810880D01*
X192016095Y-73858500D01*
X192063714Y-73906119D01*
X192111333Y-74001357D01*
X192111333Y-74144214D01*
X192063714Y-74239452D01*
X192016095Y-74287071D01*
X191920857Y-74334690D01*
X191539904Y-74334690D01*
X192968476Y-73810880D02*
X192778000Y-73810880D01*
X192682761Y-73858500D01*
X192635142Y-73906119D01*
X192539904Y-74048976D01*
X192492285Y-74239452D01*
X192492285Y-74620404D01*
X192539904Y-74715642D01*
X192587523Y-74763261D01*
X192682761Y-74810880D01*
X192873238Y-74810880D01*
X192968476Y-74763261D01*
X193016095Y-74715642D01*
X193063714Y-74620404D01*
X193063714Y-74382309D01*
X193016095Y-74287071D01*
X192968476Y-74239452D01*
X192873238Y-74191833D01*
X192682761Y-74191833D01*
X192587523Y-74239452D01*
X192539904Y-74287071D01*
X192492285Y-74382309D01*
X200112333Y-77287380D02*
X199779000Y-76811190D01*
X199540904Y-77287380D02*
X199540904Y-76287380D01*
X199921857Y-76287380D01*
X200017095Y-76335000D01*
X200064714Y-76382619D01*
X200112333Y-76477857D01*
X200112333Y-76620714D01*
X200064714Y-76715952D01*
X200017095Y-76763571D01*
X199921857Y-76811190D01*
X199540904Y-76811190D01*
X201017095Y-76287380D02*
X200540904Y-76287380D01*
X200493285Y-76763571D01*
X200540904Y-76715952D01*
X200636142Y-76668333D01*
X200874238Y-76668333D01*
X200969476Y-76715952D01*
X201017095Y-76763571D01*
X201064714Y-76858809D01*
X201064714Y-77096904D01*
X201017095Y-77192142D01*
X200969476Y-77239761D01*
X200874238Y-77287380D01*
X200636142Y-77287380D01*
X200540904Y-77239761D01*
X200493285Y-77192142D01*
X192111333Y-79954380D02*
X191778000Y-79478190D01*
X191539904Y-79954380D02*
X191539904Y-78954380D01*
X191920857Y-78954380D01*
X192016095Y-79002000D01*
X192063714Y-79049619D01*
X192111333Y-79144857D01*
X192111333Y-79287714D01*
X192063714Y-79382952D01*
X192016095Y-79430571D01*
X191920857Y-79478190D01*
X191539904Y-79478190D01*
X192968476Y-79287714D02*
X192968476Y-79954380D01*
X192730380Y-78906761D02*
X192492285Y-79621047D01*
X193111333Y-79621047D01*
X192111333Y-82430880D02*
X191778000Y-81954690D01*
X191539904Y-82430880D02*
X191539904Y-81430880D01*
X191920857Y-81430880D01*
X192016095Y-81478500D01*
X192063714Y-81526119D01*
X192111333Y-81621357D01*
X192111333Y-81764214D01*
X192063714Y-81859452D01*
X192016095Y-81907071D01*
X191920857Y-81954690D01*
X191539904Y-81954690D01*
X192444666Y-81430880D02*
X193063714Y-81430880D01*
X192730380Y-81811833D01*
X192873238Y-81811833D01*
X192968476Y-81859452D01*
X193016095Y-81907071D01*
X193063714Y-82002309D01*
X193063714Y-82240404D01*
X193016095Y-82335642D01*
X192968476Y-82383261D01*
X192873238Y-82430880D01*
X192587523Y-82430880D01*
X192492285Y-82383261D01*
X192444666Y-82335642D01*
X233322833Y-129357380D02*
X232989500Y-128881190D01*
X232751404Y-129357380D02*
X232751404Y-128357380D01*
X233132357Y-128357380D01*
X233227595Y-128405000D01*
X233275214Y-128452619D01*
X233322833Y-128547857D01*
X233322833Y-128690714D01*
X233275214Y-128785952D01*
X233227595Y-128833571D01*
X233132357Y-128881190D01*
X232751404Y-128881190D01*
X233703785Y-128452619D02*
X233751404Y-128405000D01*
X233846642Y-128357380D01*
X234084738Y-128357380D01*
X234179976Y-128405000D01*
X234227595Y-128452619D01*
X234275214Y-128547857D01*
X234275214Y-128643095D01*
X234227595Y-128785952D01*
X233656166Y-129357380D01*
X234275214Y-129357380D01*
X233386333Y-131579880D02*
X233053000Y-131103690D01*
X232814904Y-131579880D02*
X232814904Y-130579880D01*
X233195857Y-130579880D01*
X233291095Y-130627500D01*
X233338714Y-130675119D01*
X233386333Y-130770357D01*
X233386333Y-130913214D01*
X233338714Y-131008452D01*
X233291095Y-131056071D01*
X233195857Y-131103690D01*
X232814904Y-131103690D01*
X234338714Y-131579880D02*
X233767285Y-131579880D01*
X234053000Y-131579880D02*
X234053000Y-130579880D01*
X233957761Y-130722738D01*
X233862523Y-130817976D01*
X233767285Y-130865595D01*
X228147642Y-82272142D02*
X228100023Y-82319761D01*
X227957166Y-82367380D01*
X227861928Y-82367380D01*
X227719071Y-82319761D01*
X227623833Y-82224523D01*
X227576214Y-82129285D01*
X227528595Y-81938809D01*
X227528595Y-81795952D01*
X227576214Y-81605476D01*
X227623833Y-81510238D01*
X227719071Y-81415000D01*
X227861928Y-81367380D01*
X227957166Y-81367380D01*
X228100023Y-81415000D01*
X228147642Y-81462619D01*
X229100023Y-82367380D02*
X228528595Y-82367380D01*
X228814309Y-82367380D02*
X228814309Y-81367380D01*
X228719071Y-81510238D01*
X228623833Y-81605476D01*
X228528595Y-81653095D01*
X229433357Y-81367380D02*
X230052404Y-81367380D01*
X229719071Y-81748333D01*
X229861928Y-81748333D01*
X229957166Y-81795952D01*
X230004785Y-81843571D01*
X230052404Y-81938809D01*
X230052404Y-82176904D01*
X230004785Y-82272142D01*
X229957166Y-82319761D01*
X229861928Y-82367380D01*
X229576214Y-82367380D01*
X229480976Y-82319761D01*
X229433357Y-82272142D01*
X228147642Y-72112142D02*
X228100023Y-72159761D01*
X227957166Y-72207380D01*
X227861928Y-72207380D01*
X227719071Y-72159761D01*
X227623833Y-72064523D01*
X227576214Y-71969285D01*
X227528595Y-71778809D01*
X227528595Y-71635952D01*
X227576214Y-71445476D01*
X227623833Y-71350238D01*
X227719071Y-71255000D01*
X227861928Y-71207380D01*
X227957166Y-71207380D01*
X228100023Y-71255000D01*
X228147642Y-71302619D01*
X229100023Y-72207380D02*
X228528595Y-72207380D01*
X228814309Y-72207380D02*
X228814309Y-71207380D01*
X228719071Y-71350238D01*
X228623833Y-71445476D01*
X228528595Y-71493095D01*
X229480976Y-71302619D02*
X229528595Y-71255000D01*
X229623833Y-71207380D01*
X229861928Y-71207380D01*
X229957166Y-71255000D01*
X230004785Y-71302619D01*
X230052404Y-71397857D01*
X230052404Y-71493095D01*
X230004785Y-71635952D01*
X229433357Y-72207380D01*
X230052404Y-72207380D01*
X215877142Y-90336666D02*
X215924761Y-90384285D01*
X215972380Y-90527142D01*
X215972380Y-90622380D01*
X215924761Y-90765238D01*
X215829523Y-90860476D01*
X215734285Y-90908095D01*
X215543809Y-90955714D01*
X215400952Y-90955714D01*
X215210476Y-90908095D01*
X215115238Y-90860476D01*
X215020000Y-90765238D01*
X214972380Y-90622380D01*
X214972380Y-90527142D01*
X215020000Y-90384285D01*
X215067619Y-90336666D01*
X215972380Y-89860476D02*
X215972380Y-89670000D01*
X215924761Y-89574761D01*
X215877142Y-89527142D01*
X215734285Y-89431904D01*
X215543809Y-89384285D01*
X215162857Y-89384285D01*
X215067619Y-89431904D01*
X215020000Y-89479523D01*
X214972380Y-89574761D01*
X214972380Y-89765238D01*
X215020000Y-89860476D01*
X215067619Y-89908095D01*
X215162857Y-89955714D01*
X215400952Y-89955714D01*
X215496190Y-89908095D01*
X215543809Y-89860476D01*
X215591428Y-89765238D01*
X215591428Y-89574761D01*
X215543809Y-89479523D01*
X215496190Y-89431904D01*
X215400952Y-89384285D01*
X200175833Y-74652142D02*
X200128214Y-74699761D01*
X199985357Y-74747380D01*
X199890119Y-74747380D01*
X199747261Y-74699761D01*
X199652023Y-74604523D01*
X199604404Y-74509285D01*
X199556785Y-74318809D01*
X199556785Y-74175952D01*
X199604404Y-73985476D01*
X199652023Y-73890238D01*
X199747261Y-73795000D01*
X199890119Y-73747380D01*
X199985357Y-73747380D01*
X200128214Y-73795000D01*
X200175833Y-73842619D01*
X201032976Y-73747380D02*
X200842500Y-73747380D01*
X200747261Y-73795000D01*
X200699642Y-73842619D01*
X200604404Y-73985476D01*
X200556785Y-74175952D01*
X200556785Y-74556904D01*
X200604404Y-74652142D01*
X200652023Y-74699761D01*
X200747261Y-74747380D01*
X200937738Y-74747380D01*
X201032976Y-74699761D01*
X201080595Y-74652142D01*
X201128214Y-74556904D01*
X201128214Y-74318809D01*
X201080595Y-74223571D01*
X201032976Y-74175952D01*
X200937738Y-74128333D01*
X200747261Y-74128333D01*
X200652023Y-74175952D01*
X200604404Y-74223571D01*
X200556785Y-74318809D01*
X192047833Y-84748642D02*
X192000214Y-84796261D01*
X191857357Y-84843880D01*
X191762119Y-84843880D01*
X191619261Y-84796261D01*
X191524023Y-84701023D01*
X191476404Y-84605785D01*
X191428785Y-84415309D01*
X191428785Y-84272452D01*
X191476404Y-84081976D01*
X191524023Y-83986738D01*
X191619261Y-83891500D01*
X191762119Y-83843880D01*
X191857357Y-83843880D01*
X192000214Y-83891500D01*
X192047833Y-83939119D01*
X192952595Y-83843880D02*
X192476404Y-83843880D01*
X192428785Y-84320071D01*
X192476404Y-84272452D01*
X192571642Y-84224833D01*
X192809738Y-84224833D01*
X192904976Y-84272452D01*
X192952595Y-84320071D01*
X193000214Y-84415309D01*
X193000214Y-84653404D01*
X192952595Y-84748642D01*
X192904976Y-84796261D01*
X192809738Y-84843880D01*
X192571642Y-84843880D01*
X192476404Y-84796261D01*
X192428785Y-84748642D01*
X212193142Y-90463666D02*
X212240761Y-90511285D01*
X212288380Y-90654142D01*
X212288380Y-90749380D01*
X212240761Y-90892238D01*
X212145523Y-90987476D01*
X212050285Y-91035095D01*
X211859809Y-91082714D01*
X211716952Y-91082714D01*
X211526476Y-91035095D01*
X211431238Y-90987476D01*
X211336000Y-90892238D01*
X211288380Y-90749380D01*
X211288380Y-90654142D01*
X211336000Y-90511285D01*
X211383619Y-90463666D01*
X211621714Y-89606523D02*
X212288380Y-89606523D01*
X211240761Y-89844619D02*
X211955047Y-90082714D01*
X211955047Y-89463666D01*
X210535333Y-72239142D02*
X210487714Y-72286761D01*
X210344857Y-72334380D01*
X210249619Y-72334380D01*
X210106761Y-72286761D01*
X210011523Y-72191523D01*
X209963904Y-72096285D01*
X209916285Y-71905809D01*
X209916285Y-71762952D01*
X209963904Y-71572476D01*
X210011523Y-71477238D01*
X210106761Y-71382000D01*
X210249619Y-71334380D01*
X210344857Y-71334380D01*
X210487714Y-71382000D01*
X210535333Y-71429619D01*
X210868666Y-71334380D02*
X211487714Y-71334380D01*
X211154380Y-71715333D01*
X211297238Y-71715333D01*
X211392476Y-71762952D01*
X211440095Y-71810571D01*
X211487714Y-71905809D01*
X211487714Y-72143904D01*
X211440095Y-72239142D01*
X211392476Y-72286761D01*
X211297238Y-72334380D01*
X211011523Y-72334380D01*
X210916285Y-72286761D01*
X210868666Y-72239142D01*
X225988714Y-122372380D02*
X225988714Y-121372380D01*
X226226809Y-121372380D01*
X226369666Y-121420000D01*
X226464904Y-121515238D01*
X226512523Y-121610476D01*
X226560142Y-121800952D01*
X226560142Y-121943809D01*
X226512523Y-122134285D01*
X226464904Y-122229523D01*
X226369666Y-122324761D01*
X226226809Y-122372380D01*
X225988714Y-122372380D01*
X226941095Y-121467619D02*
X226988714Y-121420000D01*
X227083952Y-121372380D01*
X227322047Y-121372380D01*
X227417285Y-121420000D01*
X227464904Y-121467619D01*
X227512523Y-121562857D01*
X227512523Y-121658095D01*
X227464904Y-121800952D01*
X226893476Y-122372380D01*
X227512523Y-122372380D01*
X227845857Y-121372380D02*
X228464904Y-121372380D01*
X228131571Y-121753333D01*
X228274428Y-121753333D01*
X228369666Y-121800952D01*
X228417285Y-121848571D01*
X228464904Y-121943809D01*
X228464904Y-122181904D01*
X228417285Y-122277142D01*
X228369666Y-122324761D01*
X228274428Y-122372380D01*
X227988714Y-122372380D01*
X227893476Y-122324761D01*
X227845857Y-122277142D01*
X184586714Y-122245380D02*
X184586714Y-121245380D01*
X184824809Y-121245380D01*
X184967666Y-121293000D01*
X185062904Y-121388238D01*
X185110523Y-121483476D01*
X185158142Y-121673952D01*
X185158142Y-121816809D01*
X185110523Y-122007285D01*
X185062904Y-122102523D01*
X184967666Y-122197761D01*
X184824809Y-122245380D01*
X184586714Y-122245380D01*
X185539095Y-121340619D02*
X185586714Y-121293000D01*
X185681952Y-121245380D01*
X185920047Y-121245380D01*
X186015285Y-121293000D01*
X186062904Y-121340619D01*
X186110523Y-121435857D01*
X186110523Y-121531095D01*
X186062904Y-121673952D01*
X185491476Y-122245380D01*
X186110523Y-122245380D01*
X187062904Y-122245380D02*
X186491476Y-122245380D01*
X186777190Y-122245380D02*
X186777190Y-121245380D01*
X186681952Y-121388238D01*
X186586714Y-121483476D01*
X186491476Y-121531095D01*
X184459714Y-138628380D02*
X184459714Y-137628380D01*
X184697809Y-137628380D01*
X184840666Y-137676000D01*
X184935904Y-137771238D01*
X184983523Y-137866476D01*
X185031142Y-138056952D01*
X185031142Y-138199809D01*
X184983523Y-138390285D01*
X184935904Y-138485523D01*
X184840666Y-138580761D01*
X184697809Y-138628380D01*
X184459714Y-138628380D01*
X185412095Y-137723619D02*
X185459714Y-137676000D01*
X185554952Y-137628380D01*
X185793047Y-137628380D01*
X185888285Y-137676000D01*
X185935904Y-137723619D01*
X185983523Y-137818857D01*
X185983523Y-137914095D01*
X185935904Y-138056952D01*
X185364476Y-138628380D01*
X185983523Y-138628380D01*
X186602571Y-137628380D02*
X186697809Y-137628380D01*
X186793047Y-137676000D01*
X186840666Y-137723619D01*
X186888285Y-137818857D01*
X186935904Y-138009333D01*
X186935904Y-138247428D01*
X186888285Y-138437904D01*
X186840666Y-138533142D01*
X186793047Y-138580761D01*
X186697809Y-138628380D01*
X186602571Y-138628380D01*
X186507333Y-138580761D01*
X186459714Y-138533142D01*
X186412095Y-138437904D01*
X186364476Y-138247428D01*
X186364476Y-138009333D01*
X186412095Y-137818857D01*
X186459714Y-137723619D01*
X186507333Y-137676000D01*
X186602571Y-137628380D01*
X209484933Y-94057742D02*
X209437314Y-94105361D01*
X209294457Y-94152980D01*
X209199219Y-94152980D01*
X209056361Y-94105361D01*
X208961123Y-94010123D01*
X208913504Y-93914885D01*
X208865885Y-93724409D01*
X208865885Y-93581552D01*
X208913504Y-93391076D01*
X208961123Y-93295838D01*
X209056361Y-93200600D01*
X209199219Y-93152980D01*
X209294457Y-93152980D01*
X209437314Y-93200600D01*
X209484933Y-93248219D01*
X210437314Y-94152980D02*
X209865885Y-94152980D01*
X210151600Y-94152980D02*
X210151600Y-93152980D01*
X210056361Y-93295838D01*
X209961123Y-93391076D01*
X209865885Y-93438695D01*
X228204733Y-131586242D02*
X228157114Y-131633861D01*
X228014257Y-131681480D01*
X227919019Y-131681480D01*
X227776161Y-131633861D01*
X227680923Y-131538623D01*
X227633304Y-131443385D01*
X227585685Y-131252909D01*
X227585685Y-131110052D01*
X227633304Y-130919576D01*
X227680923Y-130824338D01*
X227776161Y-130729100D01*
X227919019Y-130681480D01*
X228014257Y-130681480D01*
X228157114Y-130729100D01*
X228204733Y-130776719D01*
X228585685Y-130776719D02*
X228633304Y-130729100D01*
X228728542Y-130681480D01*
X228966638Y-130681480D01*
X229061876Y-130729100D01*
X229109495Y-130776719D01*
X229157114Y-130871957D01*
X229157114Y-130967195D01*
X229109495Y-131110052D01*
X228538066Y-131681480D01*
X229157114Y-131681480D01*
X188174333Y-70651642D02*
X188126714Y-70699261D01*
X187983857Y-70746880D01*
X187888619Y-70746880D01*
X187745761Y-70699261D01*
X187650523Y-70604023D01*
X187602904Y-70508785D01*
X187555285Y-70318309D01*
X187555285Y-70175452D01*
X187602904Y-69984976D01*
X187650523Y-69889738D01*
X187745761Y-69794500D01*
X187888619Y-69746880D01*
X187983857Y-69746880D01*
X188126714Y-69794500D01*
X188174333Y-69842119D01*
X188745761Y-70175452D02*
X188650523Y-70127833D01*
X188602904Y-70080214D01*
X188555285Y-69984976D01*
X188555285Y-69937357D01*
X188602904Y-69842119D01*
X188650523Y-69794500D01*
X188745761Y-69746880D01*
X188936238Y-69746880D01*
X189031476Y-69794500D01*
X189079095Y-69842119D01*
X189126714Y-69937357D01*
X189126714Y-69984976D01*
X189079095Y-70080214D01*
X189031476Y-70127833D01*
X188936238Y-70175452D01*
X188745761Y-70175452D01*
X188650523Y-70223071D01*
X188602904Y-70270690D01*
X188555285Y-70365928D01*
X188555285Y-70556404D01*
X188602904Y-70651642D01*
X188650523Y-70699261D01*
X188745761Y-70746880D01*
X188936238Y-70746880D01*
X189031476Y-70699261D01*
X189079095Y-70651642D01*
X189126714Y-70556404D01*
X189126714Y-70365928D01*
X189079095Y-70270690D01*
X189031476Y-70223071D01*
X188936238Y-70175452D01*
X199128142Y-82399142D02*
X199080523Y-82446761D01*
X198937666Y-82494380D01*
X198842428Y-82494380D01*
X198699571Y-82446761D01*
X198604333Y-82351523D01*
X198556714Y-82256285D01*
X198509095Y-82065809D01*
X198509095Y-81922952D01*
X198556714Y-81732476D01*
X198604333Y-81637238D01*
X198699571Y-81542000D01*
X198842428Y-81494380D01*
X198937666Y-81494380D01*
X199080523Y-81542000D01*
X199128142Y-81589619D01*
X199509095Y-81589619D02*
X199556714Y-81542000D01*
X199651952Y-81494380D01*
X199890047Y-81494380D01*
X199985285Y-81542000D01*
X200032904Y-81589619D01*
X200080523Y-81684857D01*
X200080523Y-81780095D01*
X200032904Y-81922952D01*
X199461476Y-82494380D01*
X200080523Y-82494380D01*
X200699571Y-81494380D02*
X200794809Y-81494380D01*
X200890047Y-81542000D01*
X200937666Y-81589619D01*
X200985285Y-81684857D01*
X201032904Y-81875333D01*
X201032904Y-82113428D01*
X200985285Y-82303904D01*
X200937666Y-82399142D01*
X200890047Y-82446761D01*
X200794809Y-82494380D01*
X200699571Y-82494380D01*
X200604333Y-82446761D01*
X200556714Y-82399142D01*
X200509095Y-82303904D01*
X200461476Y-82113428D01*
X200461476Y-81875333D01*
X200509095Y-81684857D01*
X200556714Y-81589619D01*
X200604333Y-81542000D01*
X200699571Y-81494380D01*
X185031142Y-136628142D02*
X184983523Y-136675761D01*
X184840666Y-136723380D01*
X184745428Y-136723380D01*
X184602571Y-136675761D01*
X184507333Y-136580523D01*
X184459714Y-136485285D01*
X184412095Y-136294809D01*
X184412095Y-136151952D01*
X184459714Y-135961476D01*
X184507333Y-135866238D01*
X184602571Y-135771000D01*
X184745428Y-135723380D01*
X184840666Y-135723380D01*
X184983523Y-135771000D01*
X185031142Y-135818619D01*
X185412095Y-135818619D02*
X185459714Y-135771000D01*
X185554952Y-135723380D01*
X185793047Y-135723380D01*
X185888285Y-135771000D01*
X185935904Y-135818619D01*
X185983523Y-135913857D01*
X185983523Y-136009095D01*
X185935904Y-136151952D01*
X185364476Y-136723380D01*
X185983523Y-136723380D01*
X186935904Y-136723380D02*
X186364476Y-136723380D01*
X186650190Y-136723380D02*
X186650190Y-135723380D01*
X186554952Y-135866238D01*
X186459714Y-135961476D01*
X186364476Y-136009095D01*
X191762142Y-132437142D02*
X191714523Y-132484761D01*
X191571666Y-132532380D01*
X191476428Y-132532380D01*
X191333571Y-132484761D01*
X191238333Y-132389523D01*
X191190714Y-132294285D01*
X191143095Y-132103809D01*
X191143095Y-131960952D01*
X191190714Y-131770476D01*
X191238333Y-131675238D01*
X191333571Y-131580000D01*
X191476428Y-131532380D01*
X191571666Y-131532380D01*
X191714523Y-131580000D01*
X191762142Y-131627619D01*
X192143095Y-131627619D02*
X192190714Y-131580000D01*
X192285952Y-131532380D01*
X192524047Y-131532380D01*
X192619285Y-131580000D01*
X192666904Y-131627619D01*
X192714523Y-131722857D01*
X192714523Y-131818095D01*
X192666904Y-131960952D01*
X192095476Y-132532380D01*
X192714523Y-132532380D01*
X193047857Y-131532380D02*
X193666904Y-131532380D01*
X193333571Y-131913333D01*
X193476428Y-131913333D01*
X193571666Y-131960952D01*
X193619285Y-132008571D01*
X193666904Y-132103809D01*
X193666904Y-132341904D01*
X193619285Y-132437142D01*
X193571666Y-132484761D01*
X193476428Y-132532380D01*
X193190714Y-132532380D01*
X193095476Y-132484761D01*
X193047857Y-132437142D01*
X185158142Y-120118142D02*
X185110523Y-120165761D01*
X184967666Y-120213380D01*
X184872428Y-120213380D01*
X184729571Y-120165761D01*
X184634333Y-120070523D01*
X184586714Y-119975285D01*
X184539095Y-119784809D01*
X184539095Y-119641952D01*
X184586714Y-119451476D01*
X184634333Y-119356238D01*
X184729571Y-119261000D01*
X184872428Y-119213380D01*
X184967666Y-119213380D01*
X185110523Y-119261000D01*
X185158142Y-119308619D01*
X185539095Y-119308619D02*
X185586714Y-119261000D01*
X185681952Y-119213380D01*
X185920047Y-119213380D01*
X186015285Y-119261000D01*
X186062904Y-119308619D01*
X186110523Y-119403857D01*
X186110523Y-119499095D01*
X186062904Y-119641952D01*
X185491476Y-120213380D01*
X186110523Y-120213380D01*
X186967666Y-119546714D02*
X186967666Y-120213380D01*
X186729571Y-119165761D02*
X186491476Y-119880047D01*
X187110523Y-119880047D01*
X184904142Y-134596142D02*
X184856523Y-134643761D01*
X184713666Y-134691380D01*
X184618428Y-134691380D01*
X184475571Y-134643761D01*
X184380333Y-134548523D01*
X184332714Y-134453285D01*
X184285095Y-134262809D01*
X184285095Y-134119952D01*
X184332714Y-133929476D01*
X184380333Y-133834238D01*
X184475571Y-133739000D01*
X184618428Y-133691380D01*
X184713666Y-133691380D01*
X184856523Y-133739000D01*
X184904142Y-133786619D01*
X185285095Y-133786619D02*
X185332714Y-133739000D01*
X185427952Y-133691380D01*
X185666047Y-133691380D01*
X185761285Y-133739000D01*
X185808904Y-133786619D01*
X185856523Y-133881857D01*
X185856523Y-133977095D01*
X185808904Y-134119952D01*
X185237476Y-134691380D01*
X185856523Y-134691380D01*
X186713666Y-133691380D02*
X186523190Y-133691380D01*
X186427952Y-133739000D01*
X186380333Y-133786619D01*
X186285095Y-133929476D01*
X186237476Y-134119952D01*
X186237476Y-134500904D01*
X186285095Y-134596142D01*
X186332714Y-134643761D01*
X186427952Y-134691380D01*
X186618428Y-134691380D01*
X186713666Y-134643761D01*
X186761285Y-134596142D01*
X186808904Y-134500904D01*
X186808904Y-134262809D01*
X186761285Y-134167571D01*
X186713666Y-134119952D01*
X186618428Y-134072333D01*
X186427952Y-134072333D01*
X186332714Y-134119952D01*
X186285095Y-134167571D01*
X186237476Y-134262809D01*
X184967642Y-130468642D02*
X184920023Y-130516261D01*
X184777166Y-130563880D01*
X184681928Y-130563880D01*
X184539071Y-130516261D01*
X184443833Y-130421023D01*
X184396214Y-130325785D01*
X184348595Y-130135309D01*
X184348595Y-129992452D01*
X184396214Y-129801976D01*
X184443833Y-129706738D01*
X184539071Y-129611500D01*
X184681928Y-129563880D01*
X184777166Y-129563880D01*
X184920023Y-129611500D01*
X184967642Y-129659119D01*
X185348595Y-129659119D02*
X185396214Y-129611500D01*
X185491452Y-129563880D01*
X185729547Y-129563880D01*
X185824785Y-129611500D01*
X185872404Y-129659119D01*
X185920023Y-129754357D01*
X185920023Y-129849595D01*
X185872404Y-129992452D01*
X185300976Y-130563880D01*
X185920023Y-130563880D01*
X186253357Y-129563880D02*
X186920023Y-129563880D01*
X186491452Y-130563880D01*
X225702904Y-118435380D02*
X225702904Y-117435380D01*
X225941000Y-117435380D01*
X226083857Y-117483000D01*
X226179095Y-117578238D01*
X226226714Y-117673476D01*
X226274333Y-117863952D01*
X226274333Y-118006809D01*
X226226714Y-118197285D01*
X226179095Y-118292523D01*
X226083857Y-118387761D01*
X225941000Y-118435380D01*
X225702904Y-118435380D01*
X227226714Y-118435380D02*
X226655285Y-118435380D01*
X226941000Y-118435380D02*
X226941000Y-117435380D01*
X226845761Y-117578238D01*
X226750523Y-117673476D01*
X226655285Y-117721095D01*
X233418095Y-118435380D02*
X233418095Y-117435380D01*
X233989523Y-118435380D02*
X233560952Y-117863952D01*
X233989523Y-117435380D02*
X233418095Y-118006809D01*
X200429904Y-66111380D02*
X200429904Y-65111380D01*
X200668000Y-65111380D01*
X200810857Y-65159000D01*
X200906095Y-65254238D01*
X200953714Y-65349476D01*
X201001333Y-65539952D01*
X201001333Y-65682809D01*
X200953714Y-65873285D01*
X200906095Y-65968523D01*
X200810857Y-66063761D01*
X200668000Y-66111380D01*
X200429904Y-66111380D01*
X201334666Y-65111380D02*
X201953714Y-65111380D01*
X201620380Y-65492333D01*
X201763238Y-65492333D01*
X201858476Y-65539952D01*
X201906095Y-65587571D01*
X201953714Y-65682809D01*
X201953714Y-65920904D01*
X201906095Y-66016142D01*
X201858476Y-66063761D01*
X201763238Y-66111380D01*
X201477523Y-66111380D01*
X201382285Y-66063761D01*
X201334666Y-66016142D01*
X199191642Y-79890880D02*
X198858309Y-79414690D01*
X198620214Y-79890880D02*
X198620214Y-78890880D01*
X199001166Y-78890880D01*
X199096404Y-78938500D01*
X199144023Y-78986119D01*
X199191642Y-79081357D01*
X199191642Y-79224214D01*
X199144023Y-79319452D01*
X199096404Y-79367071D01*
X199001166Y-79414690D01*
X198620214Y-79414690D01*
X199572595Y-78986119D02*
X199620214Y-78938500D01*
X199715452Y-78890880D01*
X199953547Y-78890880D01*
X200048785Y-78938500D01*
X200096404Y-78986119D01*
X200144023Y-79081357D01*
X200144023Y-79176595D01*
X200096404Y-79319452D01*
X199524976Y-79890880D01*
X200144023Y-79890880D01*
X200763071Y-78890880D02*
X200858309Y-78890880D01*
X200953547Y-78938500D01*
X201001166Y-78986119D01*
X201048785Y-79081357D01*
X201096404Y-79271833D01*
X201096404Y-79509928D01*
X201048785Y-79700404D01*
X201001166Y-79795642D01*
X200953547Y-79843261D01*
X200858309Y-79890880D01*
X200763071Y-79890880D01*
X200667833Y-79843261D01*
X200620214Y-79795642D01*
X200572595Y-79700404D01*
X200524976Y-79509928D01*
X200524976Y-79271833D01*
X200572595Y-79081357D01*
X200620214Y-78986119D01*
X200667833Y-78938500D01*
X200763071Y-78890880D01*
X208352380Y-90812857D02*
X207876190Y-91146190D01*
X208352380Y-91384285D02*
X207352380Y-91384285D01*
X207352380Y-91003333D01*
X207400000Y-90908095D01*
X207447619Y-90860476D01*
X207542857Y-90812857D01*
X207685714Y-90812857D01*
X207780952Y-90860476D01*
X207828571Y-90908095D01*
X207876190Y-91003333D01*
X207876190Y-91384285D01*
X207447619Y-90431904D02*
X207400000Y-90384285D01*
X207352380Y-90289047D01*
X207352380Y-90050952D01*
X207400000Y-89955714D01*
X207447619Y-89908095D01*
X207542857Y-89860476D01*
X207638095Y-89860476D01*
X207780952Y-89908095D01*
X208352380Y-90479523D01*
X208352380Y-89860476D01*
X208352380Y-88908095D02*
X208352380Y-89479523D01*
X208352380Y-89193809D02*
X207352380Y-89193809D01*
X207495238Y-89289047D01*
X207590476Y-89384285D01*
X207638095Y-89479523D01*
X191825642Y-134627880D02*
X191492309Y-134151690D01*
X191254214Y-134627880D02*
X191254214Y-133627880D01*
X191635166Y-133627880D01*
X191730404Y-133675500D01*
X191778023Y-133723119D01*
X191825642Y-133818357D01*
X191825642Y-133961214D01*
X191778023Y-134056452D01*
X191730404Y-134104071D01*
X191635166Y-134151690D01*
X191254214Y-134151690D01*
X192206595Y-133723119D02*
X192254214Y-133675500D01*
X192349452Y-133627880D01*
X192587547Y-133627880D01*
X192682785Y-133675500D01*
X192730404Y-133723119D01*
X192778023Y-133818357D01*
X192778023Y-133913595D01*
X192730404Y-134056452D01*
X192158976Y-134627880D01*
X192778023Y-134627880D01*
X193158976Y-133723119D02*
X193206595Y-133675500D01*
X193301833Y-133627880D01*
X193539928Y-133627880D01*
X193635166Y-133675500D01*
X193682785Y-133723119D01*
X193730404Y-133818357D01*
X193730404Y-133913595D01*
X193682785Y-134056452D01*
X193111357Y-134627880D01*
X193730404Y-134627880D01*
X191762142Y-136659880D02*
X191428809Y-136183690D01*
X191190714Y-136659880D02*
X191190714Y-135659880D01*
X191571666Y-135659880D01*
X191666904Y-135707500D01*
X191714523Y-135755119D01*
X191762142Y-135850357D01*
X191762142Y-135993214D01*
X191714523Y-136088452D01*
X191666904Y-136136071D01*
X191571666Y-136183690D01*
X191190714Y-136183690D01*
X192143095Y-135755119D02*
X192190714Y-135707500D01*
X192285952Y-135659880D01*
X192524047Y-135659880D01*
X192619285Y-135707500D01*
X192666904Y-135755119D01*
X192714523Y-135850357D01*
X192714523Y-135945595D01*
X192666904Y-136088452D01*
X192095476Y-136659880D01*
X192714523Y-136659880D01*
X193047857Y-135659880D02*
X193666904Y-135659880D01*
X193333571Y-136040833D01*
X193476428Y-136040833D01*
X193571666Y-136088452D01*
X193619285Y-136136071D01*
X193666904Y-136231309D01*
X193666904Y-136469404D01*
X193619285Y-136564642D01*
X193571666Y-136612261D01*
X193476428Y-136659880D01*
X193190714Y-136659880D01*
X193095476Y-136612261D01*
X193047857Y-136564642D01*
X191762142Y-138691880D02*
X191428809Y-138215690D01*
X191190714Y-138691880D02*
X191190714Y-137691880D01*
X191571666Y-137691880D01*
X191666904Y-137739500D01*
X191714523Y-137787119D01*
X191762142Y-137882357D01*
X191762142Y-138025214D01*
X191714523Y-138120452D01*
X191666904Y-138168071D01*
X191571666Y-138215690D01*
X191190714Y-138215690D01*
X192143095Y-137787119D02*
X192190714Y-137739500D01*
X192285952Y-137691880D01*
X192524047Y-137691880D01*
X192619285Y-137739500D01*
X192666904Y-137787119D01*
X192714523Y-137882357D01*
X192714523Y-137977595D01*
X192666904Y-138120452D01*
X192095476Y-138691880D01*
X192714523Y-138691880D01*
X193571666Y-138025214D02*
X193571666Y-138691880D01*
X193333571Y-137644261D02*
X193095476Y-138358547D01*
X193714523Y-138358547D01*
X191825642Y-130627380D02*
X191492309Y-130151190D01*
X191254214Y-130627380D02*
X191254214Y-129627380D01*
X191635166Y-129627380D01*
X191730404Y-129675000D01*
X191778023Y-129722619D01*
X191825642Y-129817857D01*
X191825642Y-129960714D01*
X191778023Y-130055952D01*
X191730404Y-130103571D01*
X191635166Y-130151190D01*
X191254214Y-130151190D01*
X192206595Y-129722619D02*
X192254214Y-129675000D01*
X192349452Y-129627380D01*
X192587547Y-129627380D01*
X192682785Y-129675000D01*
X192730404Y-129722619D01*
X192778023Y-129817857D01*
X192778023Y-129913095D01*
X192730404Y-130055952D01*
X192158976Y-130627380D01*
X192778023Y-130627380D01*
X193349452Y-130055952D02*
X193254214Y-130008333D01*
X193206595Y-129960714D01*
X193158976Y-129865476D01*
X193158976Y-129817857D01*
X193206595Y-129722619D01*
X193254214Y-129675000D01*
X193349452Y-129627380D01*
X193539928Y-129627380D01*
X193635166Y-129675000D01*
X193682785Y-129722619D01*
X193730404Y-129817857D01*
X193730404Y-129865476D01*
X193682785Y-129960714D01*
X193635166Y-130008333D01*
X193539928Y-130055952D01*
X193349452Y-130055952D01*
X193254214Y-130103571D01*
X193206595Y-130151190D01*
X193158976Y-130246428D01*
X193158976Y-130436904D01*
X193206595Y-130532142D01*
X193254214Y-130579761D01*
X193349452Y-130627380D01*
X193539928Y-130627380D01*
X193635166Y-130579761D01*
X193682785Y-130532142D01*
X193730404Y-130436904D01*
X193730404Y-130246428D01*
X193682785Y-130151190D01*
X193635166Y-130103571D01*
X193539928Y-130055952D01*
X184967642Y-132595880D02*
X184634309Y-132119690D01*
X184396214Y-132595880D02*
X184396214Y-131595880D01*
X184777166Y-131595880D01*
X184872404Y-131643500D01*
X184920023Y-131691119D01*
X184967642Y-131786357D01*
X184967642Y-131929214D01*
X184920023Y-132024452D01*
X184872404Y-132072071D01*
X184777166Y-132119690D01*
X184396214Y-132119690D01*
X185300976Y-131595880D02*
X185920023Y-131595880D01*
X185586690Y-131976833D01*
X185729547Y-131976833D01*
X185824785Y-132024452D01*
X185872404Y-132072071D01*
X185920023Y-132167309D01*
X185920023Y-132405404D01*
X185872404Y-132500642D01*
X185824785Y-132548261D01*
X185729547Y-132595880D01*
X185443833Y-132595880D01*
X185348595Y-132548261D01*
X185300976Y-132500642D01*
X186872404Y-132595880D02*
X186300976Y-132595880D01*
X186586690Y-132595880D02*
X186586690Y-131595880D01*
X186491452Y-131738738D01*
X186396214Y-131833976D01*
X186300976Y-131881595D01*
X184967642Y-124404380D02*
X184634309Y-123928190D01*
X184396214Y-124404380D02*
X184396214Y-123404380D01*
X184777166Y-123404380D01*
X184872404Y-123452000D01*
X184920023Y-123499619D01*
X184967642Y-123594857D01*
X184967642Y-123737714D01*
X184920023Y-123832952D01*
X184872404Y-123880571D01*
X184777166Y-123928190D01*
X184396214Y-123928190D01*
X185300976Y-123404380D02*
X185920023Y-123404380D01*
X185586690Y-123785333D01*
X185729547Y-123785333D01*
X185824785Y-123832952D01*
X185872404Y-123880571D01*
X185920023Y-123975809D01*
X185920023Y-124213904D01*
X185872404Y-124309142D01*
X185824785Y-124356761D01*
X185729547Y-124404380D01*
X185443833Y-124404380D01*
X185348595Y-124356761D01*
X185300976Y-124309142D01*
X186300976Y-123499619D02*
X186348595Y-123452000D01*
X186443833Y-123404380D01*
X186681928Y-123404380D01*
X186777166Y-123452000D01*
X186824785Y-123499619D01*
X186872404Y-123594857D01*
X186872404Y-123690095D01*
X186824785Y-123832952D01*
X186253357Y-124404380D01*
X186872404Y-124404380D01*
X184967642Y-126309380D02*
X184634309Y-125833190D01*
X184396214Y-126309380D02*
X184396214Y-125309380D01*
X184777166Y-125309380D01*
X184872404Y-125357000D01*
X184920023Y-125404619D01*
X184967642Y-125499857D01*
X184967642Y-125642714D01*
X184920023Y-125737952D01*
X184872404Y-125785571D01*
X184777166Y-125833190D01*
X184396214Y-125833190D01*
X185300976Y-125309380D02*
X185920023Y-125309380D01*
X185586690Y-125690333D01*
X185729547Y-125690333D01*
X185824785Y-125737952D01*
X185872404Y-125785571D01*
X185920023Y-125880809D01*
X185920023Y-126118904D01*
X185872404Y-126214142D01*
X185824785Y-126261761D01*
X185729547Y-126309380D01*
X185443833Y-126309380D01*
X185348595Y-126261761D01*
X185300976Y-126214142D01*
X186253357Y-125309380D02*
X186872404Y-125309380D01*
X186539071Y-125690333D01*
X186681928Y-125690333D01*
X186777166Y-125737952D01*
X186824785Y-125785571D01*
X186872404Y-125880809D01*
X186872404Y-126118904D01*
X186824785Y-126214142D01*
X186777166Y-126261761D01*
X186681928Y-126309380D01*
X186396214Y-126309380D01*
X186300976Y-126261761D01*
X186253357Y-126214142D01*
X184967642Y-128531880D02*
X184634309Y-128055690D01*
X184396214Y-128531880D02*
X184396214Y-127531880D01*
X184777166Y-127531880D01*
X184872404Y-127579500D01*
X184920023Y-127627119D01*
X184967642Y-127722357D01*
X184967642Y-127865214D01*
X184920023Y-127960452D01*
X184872404Y-128008071D01*
X184777166Y-128055690D01*
X184396214Y-128055690D01*
X185300976Y-127531880D02*
X185920023Y-127531880D01*
X185586690Y-127912833D01*
X185729547Y-127912833D01*
X185824785Y-127960452D01*
X185872404Y-128008071D01*
X185920023Y-128103309D01*
X185920023Y-128341404D01*
X185872404Y-128436642D01*
X185824785Y-128484261D01*
X185729547Y-128531880D01*
X185443833Y-128531880D01*
X185348595Y-128484261D01*
X185300976Y-128436642D01*
X186777166Y-127865214D02*
X186777166Y-128531880D01*
X186539071Y-127484261D02*
X186300976Y-128198547D01*
X186920023Y-128198547D01*
X232211642Y-124658380D02*
X231878309Y-124182190D01*
X231640214Y-124658380D02*
X231640214Y-123658380D01*
X232021166Y-123658380D01*
X232116404Y-123706000D01*
X232164023Y-123753619D01*
X232211642Y-123848857D01*
X232211642Y-123991714D01*
X232164023Y-124086952D01*
X232116404Y-124134571D01*
X232021166Y-124182190D01*
X231640214Y-124182190D01*
X232544976Y-123658380D02*
X233164023Y-123658380D01*
X232830690Y-124039333D01*
X232973547Y-124039333D01*
X233068785Y-124086952D01*
X233116404Y-124134571D01*
X233164023Y-124229809D01*
X233164023Y-124467904D01*
X233116404Y-124563142D01*
X233068785Y-124610761D01*
X232973547Y-124658380D01*
X232687833Y-124658380D01*
X232592595Y-124610761D01*
X232544976Y-124563142D01*
X234068785Y-123658380D02*
X233592595Y-123658380D01*
X233544976Y-124134571D01*
X233592595Y-124086952D01*
X233687833Y-124039333D01*
X233925928Y-124039333D01*
X234021166Y-124086952D01*
X234068785Y-124134571D01*
X234116404Y-124229809D01*
X234116404Y-124467904D01*
X234068785Y-124563142D01*
X234021166Y-124610761D01*
X233925928Y-124658380D01*
X233687833Y-124658380D01*
X233592595Y-124610761D01*
X233544976Y-124563142D01*
M02*
